360 658 60
-0.978147600734 0.207911690818 1
-0.994521895368 0.104528463268 1
-1 -1.50945241034e-15 1
-0.994521895368 -0.104528463268 1
-0.809016994375 0.587785252292 1
-0.743144825477 0.669130606359 1
-0.866025403784 0.5 1
-0.913545457643 0.406736643076 1
-0.951056516295 0.309016994375 1
-0.895941831168 0.256382599991 0
-0.951056516295 -0.309016994375 1
-0.978147600734 -0.207911690818 1
-0.913545457643 -0.406736643076 1
-0.888484193374 -0.167087615158 0
-0.877984309921 0.107117744169 0
-0.911767349217 0.00404459378127 0
-0.855294067557 -0.0611094735201 0
-0.809016994375 -0.587785252292 1
-0.866025403784 -0.5 1
-0.743144825477 -0.669130606359 1
-0.669130606359 -0.743144825477 1
-0.669130606359 0.743144825477 1
-0.774519053543 0.489621008364 0
-0.718307802843 0.56124893563 0
-0.662096552143 0.632876862896 0
-0.794127559563 0.397237259426 0
-0.813736061485 0.304853512538 0
-0.787591390207 0.207280268806 0
-0.852993689061 -0.299539978802 0
-0.798842252324 -0.454704333986 0
-0.825917972742 -0.377122156394 0
-0.761446718929 0.109707027124 0
-0.772360643998 -0.225014133123 0
-0.798820783849 -0.126263538772 0
-0.823534697409 0.008089188587 0
-0.73907380145 -0.536968548817 0
-0.679305350575 -0.619232761598 0
-0.587785252292 -0.809016994375 1
-0.584565304298 -0.702699774506 0
-0.5 -0.866025403784 1
-0.587785252292 0.809016994375 1
-0.584565304298 0.702699772457 0
-0.683012703045 0.479242016728 0
-0.696085039709 0.400671961439 0
-0.581048277096 0.596623119243 0
-0.5 0.662254719774 0
-0.709157374323 0.322101906149 0
-0.691727594837 0.189129514889 0
-0.743571725715 -0.320722948965 0
-0.714782807431 -0.416431762759 0
-0.735302045602 0.0121337833927 0
-0.674297815351 0.0901189077554 0
-0.656868031767 -0.280585945752 0
-0.683012703045 -0.183012702021 0
-0.709157374323 -0.0854394603385 0
-0.578434015884 -0.573305674897 0
-0.604578687162 -0.475732433215 0
-0.5 -0.662254721822 0
-0.5 -0.764140063957 0
-0.423684212494 -0.820445121937 0
-0.406736643076 -0.913545457643 1
-0.5 0.866025403784 1
-0.5 0.764140061908 0
-0.406736643076 0.913545457643 1
-0.433333335382 0.73017827983 0
-0.591506352547 0.468863025092 0
-0.598042521903 0.370144881373 0
-0.5 0.560369377639 0
-0.425000001793 0.636783381679 0
-0.604578689211 0.271426739703 0
-0.595863797419 0.170978763021 0
-0.630723360489 -0.378159189483 0
-0.578434015884 -0.318592322635 0
-0.617651023825 0.0315382262054 0
-0.591506354596 -0.218863029702 0
-0.604578689211 -0.119133738819 0
-0.5 -0.560369379688 0
-0.5 -0.458484037554 0
-0.394736843831 -0.683704267427 0
-0.34736842294 -0.774864837783 0
-0.3 -0.866025404042 0
-0.309016994375 -0.951056516295 1
-0.400000001024 0.81508273195 0
-0.300000002049 0.866025401993 0
-0.309016994375 0.951056516295 1
-0.350000001537 0.713197389816 0
-0.5 0.458484035505 0
-0.5 0.35659869542 0
-0.34000000082 0.621500580871 0
-0.42000000041 0.539992307164 0
-0.5 0.254713353286 0
-0.5 0.152828011152 0
-0.5 0.0509426690181 0
-0.5 -0.356598697469 0
-0.5 -0.254713355335 0
-0.5 -0.050942671067 0
-0.5 -0.152828013201 0
-0.412280702509 -0.374473319831 0
-0.421052631849 -0.525513869361 0
-0.372807019458 -0.458930904753 0
-0.342105263697 -0.59254369912 0
-0.294736842806 -0.683704269476 0
-0.247368421915 -0.774864837783 0
-0.207911690818 -0.978147600734 1
-0.200000001024 -0.866025404042 0
-0.104528463268 -0.994521895368 1
-0.275000001281 0.789611395904 0
-0.200000001024 0.866025401993 0
-0.104528463268 0.994521895368 1
-0.207911690818 0.978147600734 1
-0.260000001229 0.703008854578 0
-0.242255640349 0.601583146398 0
-0.394736843831 0.420053599887 0
-0.40350877317 0.319955720399 0
-0.31473684424 0.501561871545 0
-0.40350877317 0.235051268279 0
-0.394736843831 0.00402178736778 0
-0.394736843831 0.131378465548 0
-0.394736843831 -0.27616290094 0
-0.407894738864 -0.171596365861 0
-0.394736843831 -0.0723922187205 0
-0.324561405018 -0.392347940144 0
-0.289473685612 -0.501383128764 0
-0.217105266002 -0.59254369912 0
-0.194736843831 -0.683704267427 0
-0.14736842294 -0.774864835734 0
-0.1 -0.866025404042 0
5.60041650678e-16 -1 1
-0.0522642341929 -0.930273650429 0
-6.46396393305e-16 1 1
-0.0522642341929 0.93027364838 0
-0.180000003688 0.784517128286 0
-0.100000002049 0.866025401993 0
-0.132631580748 0.693356557929 0
-0.224511279468 0.500157438219 0
-0.148471180954 0.544435427193 0
-0.307017544291 0.283312747426 0
-0.289473685612 0.381623164268 0
-0.298245614952 0.19662083266 0
-0.310526316436 0.0123334865201 0
-0.289473685612 0.109928919943 0
-0.315789475679 -0.190364718521 0
-0.289473685612 -0.297612446544 0
-0.289473687661 -0.0938417622762 0
-0.236842105479 -0.410222560456 0
-0.169473685203 -0.501383130812 0
-0.142105263697 -0.59254369912 0
-0.0947368428062 -0.683704267427 0
-0.0723684226837 -0.774864835734 0
-1.02445474326e-09 -0.866025404042 0
0.104528463268 -0.994521895368 1
0.0522642300951 -0.930273650429 0
0.0522642300951 0.93027364838 0
0.104528463268 0.994521895368 1
-1.02445474326e-09 0.866025401993 0
-0.0326315817727 0.774864831637 0
0.207911690818 0.978147600734 1
-0.00526316026716 0.683704263329 0
-0.206766918587 0.398731730039 0
-0.0724310803902 0.588713418216 0
-0.123809526883 0.463335718367 0
-0.184210527394 0.210741784899 0
-0.184210527394 0.292250058606 0
-0.184210527394 0.129233511192 0
-0.215789474655 -0.00697110472896 0
-0.223684212494 -0.209133071181 0
-0.184210527394 -0.319061992149 0
-0.184210529443 -0.089819973884 0
-0.136842106503 -0.410222562505 0
-0.0894736856124 -0.501383130812 0
-0.0421052647215 -0.59254369912 0
0.00526315616934 -0.683704267427 0
0.0326315776749 -0.774864835734 0
0.207911690818 -0.978147600734 1
0.1 -0.866025404042 0
0.0999999979511 0.866025401993 0
0.0723684185859 0.774864831637 0
0.199999998976 0.866025401993 0
0.309016994375 0.951056516295 1
0.309016994375 -0.951056516295 1
0.0947368407573 0.683704263329 0
0.0421052606237 0.592543695022 0
-0.109022558116 0.378814293518 0
-0.00827067895631 0.521300561187 0
-0.0423558934986 0.446737855623 0
-0.114035088582 0.176065017354 0
-0.0789473691759 0.270800513002 0
-0.0789473691759 0.0670298287338 0
-0.121052632873 -0.026275695978 0
-0.0864661669233 -0.33897942867 0
-0.131578949309 -0.227901423842 0
-0.0789473691759 -0.136740853485 0
-0.0390977460324 -0.430139996978 0
0.00827067485849 -0.521300567334 0
0.07045112473 -0.607328567754 0
0.13263157665 -0.693356566125 0
0.17999999959 -0.784517132383 0
0.199999998976 -0.866025404042 0
0.194736839733 0.683704263329 0
0.180701751151 0.774864833685 0
0.299999997951 0.866025401993 0
0.406736643076 0.913545457643 1
0.299999997951 -0.866025404042 0
0.406736643076 -0.913545457643 1
0.142105261648 0.592543695022 0
0.0894736815146 0.501383126715 0
-0.0112781976455 0.358896859045 0
0.0390977419346 0.43013999288 0
-0.017543861752 0.173383824409 0
0.0263157890423 0.266331857412 0
0.0263157890423 0.0455802831292 0
-0.0263157910912 -0.0455802851781 0
0.0112781935476 -0.358896863143 0
-0.0263157931402 -0.26633185946 0
0.0175438556052 -0.156402938493 0
0.0744360880688 -0.480444290284 0
0.145989971837 -0.590117859738 0
0.201228068304 -0.644618430682 0
0.25999999918 -0.703008858676 0
0.274999997183 -0.789611400002 0
0.242105260624 0.592543695022 0
0.294736840757 0.683704265378 0
0.334210523809 0.752074690584 0
0.373684208909 0.820445117839 0
0.5 0.866025403784 1
0.342105261648 0.592543697071 0
0.399999996927 -0.815082736048 0
0.5 -0.866025403784 1
0.189473682539 0.501383126715 0
0.136842102405 0.410222558407 0
0.0864661628254 0.338979424573 0
0.078947367127 0.136740851437 0
0.131578947261 0.227901421793 0
0.121052630824 0.00589862345336 0
0.0789473650781 -0.0670298307827 0
0.109022554019 -0.378814297615 0
0.0789473650781 -0.304762295079 0
0.114035084484 -0.21002680148 0
0.399999996927 -0.730178283928 0
0.159348369073 -0.486879151302 0
0.269824559958 -0.595880295239 0
0.339999998771 -0.682631792298 0
0.289473683564 0.501383126715 0
0.394736841782 0.683704265378 0
0.447368419866 0.774864833685 0
0.543892623898 0.735635856013 0
0.587785252292 0.809016994375 1
0.4210526298 0.576456537355 0
0.394736839733 0.47993358111 0
0.499999997951 -0.764140063957 0
0.587785252292 -0.809016994375 1
0.23684210343 0.410222558407 0
0.184210525345 0.3190619901 0
0.184210523296 0.115291303783 0
0.223684208397 0.209133069133 0
0.215789472606 0.00697110063114 0
0.184210523296 -0.0884793763873 0
0.24561403072 -0.151934282903 0
0.224411024269 -0.43425115881 0
0.184210523296 -0.343192730698 0
0.210526313363 -0.246669776502 0
0.499999997951 -0.662254721822 0
0.419999998361 -0.621500587018 0
0.279649120737 -0.488751731802 0
0.344912278135 -0.567936304275 0
0.419999998361 -0.539992311262 0
0.324561400921 0.392347936046 0
0.499999997951 0.662254719774 0
0.586935925565 0.670764112073 0
0.669130606359 0.743144825477 1
0.499999997951 0.560369377639 0
0.499999997951 0.458484035505 0
0.403508769072 0.393241666344 0
0.584565300201 -0.702699774506 0
0.669130606359 -0.743144825477 1
0.743144825477 0.669130606359 1
0.289473681515 0.263650662418 0
0.289473681515 0.0938417602273 0
0.315789471581 0.190364716472 0
0.347368418842 0.0311018391802 0
0.310526314388 -0.0734646958983 0
0.307017540193 -0.215389189418 0
0.289473681515 -0.381623166317 0
0.298245608805 -0.298506178892 0
0.589652673239 -0.589801073717 0
0.499999997951 -0.560369379688 0
0.394736839733 -0.420053601936 0
0.499999997951 -0.458484037554 0
0.412280698411 0.306549753627 0
0.589652673239 0.58980106757 0
0.679305348526 0.619232759549 0
0.586935925565 0.466993427805 0
0.499999997951 0.35659869542 0
0.679305348526 -0.619232761598 0
0.743144825477 -0.669130606359 1
0.809016994375 0.587785252292 1
0.739073799401 0.536968546768 0
0.394736839733 0.208239336785 0
0.407894734766 0.0951823556751 0
0.405263156169 -0.0316380818669 0
0.405263156169 -0.113146355574 0
0.394736839733 -0.212886741304 0
0.394736839733 -0.335149153914 0
0.619536897651 -0.49772629421 0
0.499999997951 -0.356598697469 0
0.609575488148 -0.409551655231 0
0.499999997951 0.254713353286 0
0.673871853178 0.475502822153 0
0.608669906956 0.367235435794 0
0.586935925565 0.263222745585 0
0.809016994375 -0.587785252292 1
0.739073799401 -0.536968548817 0
0.866025403784 0.5 1
0.798842250275 0.454704331937 0
0.499999997951 0.152828011152 0
0.499999997951 0.0509426690181 0
0.499999997951 -0.050942671067 0
0.499999997951 -0.152828013201 0
0.499999997951 -0.254713355335 0
0.699228165484 -0.422002457196 0
0.599614080693 -0.321377016251 0
0.601425247175 0.162755636184 0
0.717339818009 0.377872178217 0
0.673871853178 0.271732137885 0
0.798842250275 -0.454704333986 0
0.866025403784 -0.5 1
0.762185252516 -0.368284756195 0
0.913545457643 0.406736643076 1
0.837176618667 0.343489087041 0
0.594180585345 0.0728968446822 0
0.586935925565 -0.016961944771 0
0.588573612914 -0.100513878838 0
0.590211300263 -0.184065810856 0
0.680422604625 -0.215303606461 0
0.725528256805 -0.281865176355 0
0.688361174789 0.0948510223952 0
0.702850496399 0.172683261216 0
0.760807780792 0.280241532233 0
0.913545457643 -0.406736643076 1
0.860845211298 -0.277779199721 0
0.951056516295 0.309016994375 1
0.864194143903 0.269375186944 0
0.673871853178 0.0170187856229 0
0.695605834569 -0.0827392084363 0
0.764455573507 -0.189477208713 0
0.760807780792 0.0509995139679 0
0.804275745623 0.182610888297 0
0.951056516295 -0.309016994375 1
0.886002580622 -0.194609233639 0
0.978147600734 0.207911690818 1
0.891211671188 0.195261288896 0
0.793408752879 -0.0222234710327 0
0.803382892258 -0.0970892390209 0
0.847743708405 0.0849802423129 0
0.911159954044 -0.111439267557 0
0.978147600734 -0.207911690818 1
0.994521895368 0.104528463268 1
0.891211673237 -0.0126504016227 0
0.994521895368 -0.104528463268 1
1 0 1
351 347 354 0
341 351 350 0
341 329 342 0
351 357 350 0
329 314 323 0
342 329 338 0
347 342 338 0
351 341 342 0
328 314 329 0
358 360 357 0
133 110 108 0
232 233 210 0
209 232 210 0
187 209 210 0
186 188 209 0
256 281 280 0
254 256 278 0
279 255 278 0
232 211 234 0
211 212 235 0
234 257 256 0
215 235 212 0
215 238 235 0
298 315 307 0
293 289 307 0
279 278 299 0
255 254 278 0
253 255 277 0
233 254 255 0
299 316 315 0
279 299 298 0
280 300 299 0
278 280 299 0
278 256 280 0
298 299 315 0
330 331 343 0
315 330 322 0
316 331 330 0
289 298 307 0
272 273 293 0
267 277 289 0
337 347 338 0
330 343 336 0
346 347 337 0
324 338 323 0
308 309 323 0
322 337 324 0
290 308 291 0
293 292 272 0
309 324 323 0
293 309 292 0
293 307 310 0
42 63 41 0
69 46 68 0
87 90 68 0
83 84 64 0
65 86 83 0
46 65 63 0
69 86 65 0
86 107 83 0
69 65 46 0
85 84 108 0
64 62 83 0
176 157 154 0
188 186 164 0
165 188 164 0
192 189 168 0
212 188 189 0
212 211 188 0
201 224 202 0
157 178 179 0
222 221 226 0
199 221 222 0
176 177 200 0
205 221 199 0
181 205 199 0
200 181 199 0
158 182 181 0
182 206 205 0
244 222 226 0
223 245 224 0
181 177 158 0
84 85 64 0
86 69 89 0
107 86 111 0
83 63 65 0
22 6 25 0
132 133 108 0
138 114 137 0
161 135 159 0
113 114 138 0
115 113 138 0
159 135 138 0
112 89 115 0
90 87 113 0
162 137 139 0
183 163 187 0
183 159 163 0
185 161 183 0
208 185 207 0
208 184 185 0
231 208 207 0
206 182 184 0
90 69 68 0
135 112 115 0
138 135 115 0
136 160 134 0
161 136 135 0
161 160 136 0
111 86 89 0
133 109 110 0
134 160 158 0
111 134 132 0
111 112 134 0
183 161 159 0
182 158 160 0
184 182 160 0
161 184 160 0
208 206 184 0
230 206 208 0
210 231 207 0
253 252 230 0
229 205 206 0
229 221 205 0
243 229 252 0
243 226 221 0
176 154 153 0
110 85 108 0
43 45 24 0
68 45 66 0
68 46 45 0
25 24 45 0
7 23 5 0
7 8 26 0
123 122 100 0
126 105 127 0
98 94 78 0
99 100 78 0
122 143 119 0
145 122 123 0
145 167 143 0
43 66 45 0
26 47 44 0
67 88 87 0
118 93 117 0
114 113 88 0
231 210 233 0
230 231 253 0
230 208 231 0
115 89 90 0
136 112 135 0
185 184 161 0
158 156 134 0
111 89 112 0
187 186 209 0
183 187 207 0
163 162 187 0
138 137 163 0
91 114 88 0
91 92 116 0
116 92 118 0
114 116 137 0
114 91 116 0
233 253 231 0
62 63 83 0
42 41 22 0
229 206 230 0
62 41 63 0
24 5 23 0
43 24 23 0
25 6 24 0
191 192 168 0
120 95 119 0
261 258 238 0
167 190 191 0
167 145 169 0
42 45 46 0
42 25 45 0
63 42 46 0
22 25 42 0
6 5 24 0
124 146 123 0
124 147 146 0
102 124 101 0
79 102 101 0
149 126 127 0
80 103 102 0
80 81 103 0
102 103 125 0
217 195 196 0
147 171 170 0
148 149 172 0
175 197 173 0
146 145 123 0
170 146 147 0
148 171 147 0
193 169 170 0
170 194 193 0
237 214 213 0
169 145 146 0
170 169 146 0
190 167 169 0
220 198 203 0
242 219 220 0
263 242 239 0
265 266 287 0
242 265 241 0
263 266 265 0
126 148 125 0
150 149 127 0
173 172 149 0
175 173 150 0
218 219 241 0
217 218 241 0
217 196 218 0
173 196 172 0
197 219 196 0
239 242 220 0
266 286 288 0
264 241 265 0
283 264 287 0
259 260 236 0
264 259 240 0
283 260 259 0
263 286 266 0
98 119 94 0
145 143 122 0
167 191 166 0
324 337 338 0
316 330 315 0
316 317 331 0
119 95 94 0
122 119 98 0
143 166 142 0
120 144 121 0
143 142 119 0
166 144 142 0
167 166 143 0
191 168 166 0
97 76 75 0
52 48 32 0
88 70 91 0
47 28 48 0
66 87 68 0
44 67 66 0
67 87 66 0
8 9 27 0
1 10 9 0
52 32 51 0
55 74 51 0
48 28 32 0
71 48 52 0
71 70 48 0
91 71 92 0
70 47 48 0
10 28 27 0
9 10 27 0
1 15 10 0
1 2 15 0
73 72 94 0
95 73 94 0
53 72 73 0
55 34 54 0
50 30 36 0
57 50 36 0
72 53 49 0
72 78 94 0
72 57 78 0
50 49 31 0
50 57 72 0
18 36 19 0
18 20 36 0
36 20 37 0
60 80 79 0
61 60 40 0
61 81 60 0
59 38 40 0
39 21 38 0
56 39 58 0
37 21 39 0
77 58 79 0
57 77 78 0
56 58 77 0
37 56 57 0
37 39 56 0
38 59 39 0
180 198 174 0
227 250 239 0
198 175 174 0
227 220 203 0
227 239 220 0
204 227 203 0
204 228 227 0
262 286 263 0
287 266 288 0
275 295 294 0
214 215 192 0
99 101 123 0
77 99 78 0
77 79 99 0
57 56 77 0
59 79 58 0
149 150 173 0
147 124 125 0
105 104 127 0
37 57 36 0
21 37 20 0
39 59 58 0
60 59 40 0
105 103 81 0
79 59 60 0
125 148 147 0
102 125 124 0
126 149 148 0
103 126 125 0
103 105 126 0
101 99 79 0
221 229 243 0
200 199 222 0
205 181 182 0
156 132 134 0
253 277 252 0
107 132 108 0
83 107 84 0
111 132 107 0
185 183 207 0
90 113 115 0
69 90 89 0
87 88 113 0
138 163 159 0
112 136 134 0
230 252 229 0
177 176 155 0
156 177 155 0
181 200 177 0
131 133 155 0
153 131 155 0
109 133 131 0
108 84 107 0
277 279 298 0
233 255 253 0
233 232 254 0
280 281 300 0
277 255 279 0
254 232 234 0
306 305 288 0
335 321 320 0
334 333 321 0
213 214 190 0
242 263 265 0
258 281 257 0
319 302 303 0
282 302 301 0
258 282 281 0
238 258 257 0
261 282 258 0
237 261 238 0
260 283 284 0
284 283 303 0
261 284 282 0
261 260 284 0
317 316 300 0
212 192 215 0
301 281 282 0
318 301 302 0
318 317 301 0
211 232 209 0
191 214 192 0
340 349 345 0
359 355 356 0
336 346 337 0
322 336 337 0
343 346 336 0
237 238 214 0
300 281 301 0
317 300 301 0
316 299 300 0
238 215 214 0
260 261 237 0
257 235 238 0
256 257 281 0
234 211 235 0
257 234 235 0
256 254 234 0
356 355 349 0
156 158 177 0
133 156 155 0
133 132 156 0
249 272 271 0
252 267 243 0
273 272 249 0
273 289 293 0
267 273 249 0
267 289 273 0
310 324 309 0
293 310 309 0
307 322 310 0
224 225 202 0
224 245 225 0
223 224 201 0
200 223 201 0
222 244 223 0
223 244 245 0
248 244 226 0
249 248 226 0
271 268 248 0
246 269 270 0
248 268 244 0
271 290 268 0
246 247 225 0
268 246 245 0
268 269 246 0
187 210 207 0
162 186 187 0
137 162 163 0
164 186 162 0
118 117 140 0
139 118 141 0
92 93 118 0
165 168 189 0
141 165 164 0
144 168 165 0
188 211 209 0
47 27 28 0
67 47 70 0
88 67 70 0
66 43 44 0
44 23 26 0
67 44 47 0
43 23 44 0
70 71 91 0
15 35 32 0
3 16 2 0
3 4 16 0
17 16 4 0
34 17 14 0
34 35 17 0
74 76 96 0
93 74 96 0
52 51 74 0
35 51 32 0
15 16 35 0
28 15 32 0
2 16 15 0
17 4 14 0
55 76 74 0
33 49 53 0
19 30 13 0
19 36 30 0
14 4 12 0
76 55 54 0
53 75 54 0
97 96 76 0
17 35 16 0
49 50 72 0
29 49 33 0
29 31 49 0
74 93 71 0
29 11 13 0
31 29 13 0
30 31 13 0
30 50 31 0
33 14 29 0
54 33 53 0
14 12 29 0
29 12 11 0
34 14 33 0
54 34 33 0
55 35 34 0
55 51 35 0
100 98 78 0
123 100 99 0
122 98 100 0
75 53 73 0
97 75 95 0
76 54 75 0
95 75 73 0
10 15 28 0
26 27 47 0
7 26 23 0
8 27 26 0
109 131 130 0
106 127 104 0
105 82 104 0
152 128 151 0
175 152 151 0
150 129 152 0
175 151 174 0
150 152 175 0
197 220 219 0
191 190 214 0
124 123 101 0
129 150 127 0
106 129 127 0
106 128 129 0
129 128 152 0
203 180 204 0
228 250 227 0
251 250 228 0
262 239 250 0
251 275 274 0
287 288 305 0
319 303 305 0
241 219 242 0
287 264 265 0
195 216 194 0
219 218 196 0
240 216 217 0
264 240 241 0
264 283 259 0
303 283 287 0
305 303 287 0
302 282 284 0
240 236 216 0
303 302 284 0
237 213 236 0
190 169 193 0
239 262 263 0
81 80 60 0
82 81 61 0
80 102 79 0
82 105 81 0
197 175 198 0
220 197 198 0
172 171 148 0
197 196 173 0
216 236 213 0
195 217 216 0
171 195 194 0
172 196 195 0
217 241 240 0
267 249 243 0
277 267 252 0
277 298 289 0
309 308 292 0
271 248 249 0
292 271 272 0
314 308 323 0
314 313 297 0
268 245 244 0
166 168 144 0
121 96 97 0
120 142 144 0
95 120 97 0
119 142 120 0
144 165 140 0
97 120 121 0
165 189 188 0
212 189 192 0
117 96 121 0
117 93 96 0
144 140 121 0
139 137 116 0
118 139 116 0
141 164 139 0
140 141 118 0
121 140 117 0
165 141 140 0
164 162 139 0
92 71 93 0
74 71 52 0
180 203 198 0
274 250 251 0
294 274 275 0
262 250 274 0
319 305 321 0
318 302 319 0
193 213 190 0
194 216 193 0
171 194 170 0
171 172 195 0
216 213 193 0
240 259 236 0
260 237 236 0
274 285 262 0
304 312 320 0
312 325 320 0
312 326 325 0
311 326 312 0
358 355 359 0
360 358 359 0
333 332 318 0
332 331 317 0
318 332 317 0
333 344 332 0
345 344 334 0
345 353 344 0
335 345 334 0
335 340 345 0
355 358 353 0
346 354 347 0
352 346 343 0
352 354 346 0
330 336 322 0
344 343 331 0
352 358 354 0
344 352 343 0
344 353 352 0
340 339 348 0
352 353 358 0
333 334 344 0
319 333 318 0
319 321 333 0
327 325 339 0
320 327 335 0
320 325 327 0
340 327 339 0
340 335 327 0
356 349 348 0
349 353 345 0
348 349 340 0
355 353 349 0
334 321 335 0
306 304 320 0
305 306 321 0
288 304 306 0
288 286 304 0
304 294 312 0
321 306 320 0
286 285 304 0
285 294 304 0
262 285 286 0
274 294 285 0
295 312 294 0
295 311 312 0
339 325 326 0
153 155 176 0
130 153 154 0
130 131 153 0
157 176 178 0
247 246 270 0
179 201 202 0
178 201 179 0
200 178 176 0
200 222 223 0
249 226 243 0
200 201 178 0
290 292 308 0
269 290 291 0
271 292 290 0
322 324 310 0
315 322 307 0
347 351 342 0
357 351 354 0
341 328 329 0
246 225 245 0
314 328 313 0
329 323 338 0
296 297 313 0
297 276 291 0
344 331 332 0
290 269 268 0
297 291 308 0
314 297 308 0
296 276 297 0
276 270 291 0
291 270 269 0
357 354 358 0
360 357 1
357 350 1
350 341 1
341 328 1
328 313 1
313 296 1
296 276 1
276 270 1
270 247 1
247 225 1
225 202 1
202 179 1
179 157 1
157 154 1
154 130 1
130 109 1
109 110 1
110 85 1
85 64 1
64 62 1
62 41 1
41 22 1
22 6 1
6 5 1
5 7 1
7 8 1
8 9 1
9 1 1
1 2 1
2 3 1
3 4 1
4 12 1
12 11 1
11 13 1
13 19 1
19 18 1
18 20 1
20 21 1
21 38 1
38 40 1
40 61 1
61 82 1
82 104 1
104 106 1
106 128 1
128 151 1
151 174 1
174 180 1
180 204 1
204 228 1
228 251 1
251 275 1
275 295 1
295 311 1
311 326 1
326 339 1
339 348 1
348 356 1
356 359 1
359 360 1
