604 1108 150
-2.30571374931 -4.02251298937e-09 0
-2.63655177703 0.372591329788 0
-3.88257525059 -0.50881347603 0
-2.30571374931 0.272122911134 0
-3.02222728405 -0.199755050725 0
-2.99545593326 -0.511478615767 0
-2.63654088707 -0.372590149466 0
-3.43241959338 -0.229266807948 0
-2.6450178103 -4.02251298937e-09 0
-2 -0.303 98
-2 -8.77076189454e-16 98
-2.30169601161 -0.335983069292 0
-2.30170100071 0.608106007137 0
-3.0087930034 0.413286794065 0
-2.61124377801 0.743055403627 0
-4.39308141907 -0.622704814134 0
-3.42326973651 -0.615935083418 0
-3.76913692641 -0.869564734575 0
-3.90763033219 -0.110329343406 0
-2 0.303 98
-3.44156944001 0.157401477767 0
-2.61124377801 -0.743055421917 0
-2.96868458248 -0.82320216032 0
-2.30170100071 -0.608106015182 0
-5 2.73463179603e-15 1
-4.96057350657 -0.626666167822 1
-1.33333333846 0.302999990046 0
-2 0.606 98
-1.83333334358 0.45449998708 0
-4.42495888837 0.0580791474683 0
-1.83333334358 -0.151500011301 0
-2 -0.606 98
-1.83333334358 -0.45450000537 0
-1.66666667179 0.201999992023 0
-2.34091758248 0.949106596066 0
-2 0.909 98
-3.42326973651 0.615935075373 0
-2.96868458248 0.823202152275 0
-2.72627303957 1.2200343105 0
-4.84291580564 -1.24344943582 1
-4.29798465762 -1.12126289908 0
-3.16207881985 -1.22485537226 0
-3.65569859199 -1.23031598288 0
-3.88255994523 0.619141127262 0
-2.72628593745 -0.9944425312 0
-2.34091758248 -0.949106604111 0
-2 -0.909 98
-4.96057350657 0.626666167822 1
-1.16666667691 0.45449998708 0
-1.33333333846 0.0504999847443 0
-1.50000001024 0.45449998708 0
-1 0.303 98
-1.83333334358 0.757499991393 0
-1.66666667179 0.605999994359 0
-4.39308141907 0.564624804301 0
-3.0677807951 -1.55259741551 0
-2.6767037885 -1.37259279256 0
-2.60841556555 -1.74333296722 0
-1.66666667179 -0.303000008335 0
-1.83333334358 -0.757500009683 0
-1.66666667179 -0.606000002404 0
-2.34091198895 1.21577129783 0
-2 1.212 98
-1.66666667179 1.00999999669 0
-3.16205692725 1.22485511834 0
-3.65569859199 1.10378151181 0
-2.6767037885 1.59818607781 0
-3.08274475074 1.64810002719 0
-4.64888242944 -1.84062276342 1
-4.06214500271 -1.70138045589 0
-3.5427099625 -1.70464280157 0
-4.29798465762 1.12126289103 0
-2.34091758248 -1.21577136734 0
-2 -1.212 98
-1.83333334358 -1.06050000375 0
-4.84291580564 1.24344943582 1
-1.33333333846 0.706999992382 0
-1 0.606 98
-1.33333333846 -0.202000000068 0
-1 8.77076189454e-16 98
-0.714285719408 0.0432857123428 0
-0.714285719408 0.302999990046 0
-1.50000001024 0.858499989416 0
-2.97348276011 -1.88033944853 0
-2.31764422247 -1.55404749035 0
-2.50752883126 -2.04337366984 0
-2.28558939955 -1.88884392959 0
-0.142857168469 0.238071425742 0
-0.142857147979 -4.02251298937e-09 0
-0.428571433694 0.302999990046 0
-0.142857147979 0.476142855507 0
-0.428571433694 0.0865714184637 0
-1.33333333846 -0.505000004381 0
-1.66666667179 -0.909000006717 0
-1.33333333846 -0.808000008694 0
-2.28558939955 1.62217915831 0
-2 1.515 98
-1.66666667179 1.41399999903 0
-1.33333333846 1.21199999274 0
-3.5427099625 1.70464279352 0
-4.0621363768 1.70137839893 0
-2.60840475756 1.96892220587 0
-2.97346442237 2.05947970016 0
-3.38699200832 2.03552579481 0
-4.38153340022 -2.40876837051 1
-3.85400703675 -2.21079240416 0
-3.38699200832 -2.16206026588 0
-4.64888242944 1.84062276342 1
-2 -1.515 98
-1.83333334358 -1.36350000806 0
-1.66666667179 -1.21200000079 0
-1 0.909 98
-1.16666667691 1.06049999571 0
-0.714285719408 0.649285710724 0
-1 -0.303 98
-0.714285719408 -0.25971429197 0
-0.428571433694 -0.216428575605 0
-2.74900229112 -2.21150436954 0
-2 -1.818 98
-2.29807051718 -2.24021250341 0
-2 -2.121 98
0.142857137735 0.302999990046 0
-0.142857147979 -0.303000008335 0
0.142857137735 -0.129857142874 0
-0.428571433694 0.69257142709 0
0.142857137735 0.541071419811 0
-0.142857147979 0.73585713321 0
1 -8.77076189454e-16 99
-1.83333334358 1.66649999409 0
-2.28558471779 1.88884276391 0
-1.16666667691 1.36349998977 0
0.428571423449 -0.0865714367532 0
-2.34710776885 2.16294214953 0
0.428571423449 0.21642856756 0
-1.50000001024 -1.56550000411 0
0.714285709163 -4.02251298937e-09 0
-1 -0.606 98
-1.33333333846 -1.11100000276 0
-1 -0.909 98
-2 1.818 98
-1.66666667179 1.81799999112 0
-1.33333333846 1.61599999508 0
-3.85400703675 2.21079239612 0
-4.38153340022 2.40876837051 1
-2.64318784712 2.37824124942 0
-3.21329223897 2.36513135214 0
-4.04508497187 -2.93892626146 1
-3.50769500808 -2.72399858482 0
-3.04377085207 -2.53845336182 0
-1.66666667179 -1.71700000114 0
-1.33333333846 -1.41400000708 0
-1 1.212 98
-0.714285719408 0.952285704793 0
-0.714285719408 -0.562714286039 0
-0.428571433694 -0.519428579918 0
-2.64318784712 -2.58594648345 0
-1.83333334358 -1.96950000645 0
-2 -2.424 98
-2.29806553833 -2.49904909992 0
-1.83333334358 -2.27250001076 0
0.428571423449 0.605999994359 0
0.142857137735 -0.432857147187 0
-0.142857168469 -0.5410714381 0
0.428571423449 -0.303000008335 0
-0.428571433694 0.908999998672 0
0.142857137735 0.779142849576 0
-0.142857168469 0.973928562975 0
0.714285709163 -0.303000008335 0
1 0.303 99
1 -0.303 99
-2 2.121 98
-1 1.515 98
-2.3052333517 2.60933523 0
-2 2.424 98
0.714285709163 0.346285706411 0
-1.16666667691 -1.66650001238 0
-1.33333333846 -1.81800000941 0
-1.77399417411 -2.64242174845 0
-0.714285719408 -0.909000006717 0
-1 -1.212 98
-1.66666667179 2.07049998618 0
-1.33333333846 1.91899999939 0
-1 1.818 98
-3.50770270173 2.72400165014 0
-4.04508497187 2.93892626146 1
-2.6561677923 2.68830911104 0
-3.04377085207 2.68680815154 0
-3.64484313711 -3.42273552964 1
-3.11407425964 -3.10045693854 0
-2.66958257758 -3.00876460441 0
-1.50000001024 -1.96950001669 0
-1 -1.515 98
-0.714285719408 1.25528570911 0
-0.428571433694 1.21199999274 0
-0.428571433694 -0.822428573986 0
-0.142857147979 -0.779142857621 0
-2.30344818794 -2.85335075964 0
-1.66666667179 -2.12100000348 0
-2 -2.72454545455 98
-1.66666667179 -2.42400000779 0
0.714285709163 0.605999994359 0
0.428571423449 0.822428565941 0
0.428571423449 -0.692571435135 0
0.142857137735 -0.670928576952 0
0.714285709163 -0.649285718769 0
0.142857137735 1.08214285389 0
-0.142857147979 1.21199999274 0
1 -0.606 99
1 0.606 99
-1.66666667179 2.32299999148 0
-0.714285719408 1.55828571342 0
-2.28193355052 3.07245877455 0
-2 2.72454545455 98
-1.7607671714 2.5123837443 0
-1 -1.818 98
-1.16666667691 -1.96950000645 0
-1.52239943857 -2.74096891476 0
-1.71301195325 -2.83317108932 0
-0.714285719408 -1.21200000079 0
-1.71301195325 2.83317108128 0
-0.428571433694 -1.21200000079 0
-0.714285719408 -1.5150000051 0
-1.33333333846 2.42399999975 0
-1 2.121 98
-1.16666667691 2.27249999247 0
-0.714285719408 1.86128570749 0
-3.64484313711 3.42273552964 1
-3.11179728584 3.19647241279 0
-2.66958257758 3.00876459637 0
-3.18711994874 -3.85256621388 1
-2.78152185798 -3.56127363619 0
-2.45938496567 -3.32992124711 0
-2.20347772604 -3.14613370175 0
-1.33333333846 -2.2220000015 0
-0.714285719408 -1.77471429305 0
-0.428571433694 1.51499999705 0
-0.142857147979 -1.08214286193 0
0.142857137735 -0.909000006717 0
-2 -3 98
-1.788 -3 98
-1.30861822219 -2.54795301879 0
0.714285709163 0.865714282306 0
0.428571423449 1.21199999274 0
0.428571423449 -0.909000006717 0
0.714285709163 -0.952285723082 0
1 -0.909 99
0.142857137735 1.38514284796 0
-0.142857147979 1.6448571359 0
1 0.909 99
-1.53691602502 2.59508477643 0
-2.45938496567 3.32992123907 0
-2.16150835218 3.29052441471 0
-2 3 98
-1.788 3 98
-1 -2.121 98
-0.714285719408 -2.12100000348 0
-1.404 -3 98
-1.596 -3 98
-1.28699142745 -2.83317589401 0
-0.428571433694 -1.42842857237 0
-1.42337842092 2.83317108128 0
-1.596 3 98
-0.142857147979 -1.38514286625 0
-0.428571433694 -1.81800000941 0
-1 2.424 98
-1.22599452615 2.64241080948 0
-0.714285719408 2.1642857118 0
-0.428571433694 1.90457142385 0
-3.18711994874 3.85256621388 1
-2.78152185798 3.56127362814 0
-2.67913397489 -4.22163962751 1
-2.38087321621 -3.68512227573 0
-2.04987962502 -3.58980124063 0
-1.8407651897 -3.23591114539 0
-1 -2.424 98
0.142857137735 -1.21200000079 0
-1.58987916176 -3.21101454695 0
-1 -2.72454545455 98
0.714285709163 1.21199999274 0
0.428571423449 1.42842856432 0
0.714285709163 -1.25528571715 0
0.428571423449 -1.29857143352 0
1 -1.212 99
0.142857137735 1.68814285227 0
-0.142857168469 1.88292856567 0
1 1.212 99
-2.38087321621 3.68512226768 0
-1.8407651897 3.23591113735 0
-2.04987962502 3.58980123258 0
-1.58987909005 3.21101680295 0
-0.428571433694 -2.42400000779 0
-0.714285719408 -2.42400000779 0
-0.428571433694 -2.12100000348 0
-1.35898112865 -3.21106366956 0
-1.212 -3 98
-0.142857147979 -1.68814286032 0
-1.404 3 98
-1.21853075802 2.83312563646 0
-1.212 3 98
-0.428571433694 2.12099999543 0
0.714285709163 1.51499999705 0
0.142857137735 -1.5150000051 0
-0.142857147979 -1.94785714826 0
-0.714285719408 2.42399999975 0
-1 2.72454545455 98
-0.428571433694 2.42399999975 0
-0.142857147979 2.12099999543 0
-2.67913397489 4.22163962751 1
-1.93442681286 -3.96793330767 0
-2.12889645783 -4.52413526233 1
-1.74078739271 -3.69770534711 0
-1.58218211502 -3.47636828459 0
-0.714285719408 -2.68161039334 0
-1 -3 98
-0.750000007683 -3.00000000402 0
1 1.515 99
0.428571423449 1.73142856864 0
0.714285709163 -1.55828572146 0
1 -1.515 99
0.428571423449 -1.5150000051 0
0.142857137735 1.99114285658 0
-1.93442844174 3.96793796089 0
-1.72913206763 3.5299198499 0
-1.44228923222 3.4763682663 0
-1.2520428577 3.21101680295 0
-0.142857147979 -2.42400000779 0
-0.428571433694 -2.63867532737 0
-0.142857168469 -2.18592857803 0
-1.30239472054 -3.47635976113 0
-1.09343002978 -3.30086336436 0
0.142857137735 -1.81800000941 0
-1 3 98
0.714285709163 1.774714285 0
-1.72197823806 -4.32936977283 0
0.428571423449 -1.81800000941 0
0.142857137735 -2.12100000348 0
-0.714285719408 2.72454545126 0
-0.734307787599 2.96340693035 0
-0.428571433694 2.72454545126 0
-0.142857147979 2.72454545126 0
-0.142857147979 2.42399999975 0
0.142857137735 2.29414285065 0
-2.12889645783 4.52413526233 1
-1.3588481749 -4.15556283526 0
-1.36563016834 -3.80959626299 0
-1.54508497187 -4.75528258148 1
-0.461813968571 -2.92587711126 0
-0.855598609294 -3.21871266937 0
-0.541373059192 -3.10522974043 0
1 1.818 99
0.428571423449 2.12099999543 0
1 -1.818 99
0.714285709163 -1.81800000941 0
-1.36563016834 3.8095962447 0
-1.56036074558 4.22865422714 0
-1.13064863778 3.52966432014 0
-0.908134251282 3.26649053017 0
-0.142857147979 -2.7245454593 0
0.142857137735 -2.55280519544 0
-1.05839883774 -3.52965986156 0
0.714285709163 2.12099999543 0
0.198740062955 -2.786050398 0
0.428571423449 -2.12100000348 0
0.714285709163 -2.07771428711 0
0.428571423449 -2.33742857506 0
-0.5 2.99999999598 0
-0.635266301348 3.26645012568 0
-0.250000002561 2.99999999598 0
0.142857137735 2.59574025336 0
0.103141318637 2.84806735118 0
0.428571423449 2.42399999975 0
-1.54508497187 4.75528258148 1
-0.969203622517 -3.93298674585 0
-0.954539145766 -4.37725192094 0
-0.936906572929 -4.91143625364 1
-0.250000002561 -3.00000000402 0
-0.592380296525 -3.366631746 0
-0.797788418175 -3.58658931861 0
-0.318569458852 -3.21863350974 0
1 2.121 99
0.714285709163 2.38071428338 0
1 -2.121 99
-0.969203622517 3.9329867378 0
-0.954539145766 4.37725190265 0
-0.797788418175 3.58658931057 0
-5.12227416039e-09 -3.00000000402 0
0.395457488387 -2.80780745216 0
0.552447221291 -2.61882220203 0
0.249999992317 -3.00000000402 0
0.714285709163 -2.42400000779 0
-0.318569458852 3.21863349145 0
-0.398421707468 3.47324212189 0
0.0394848096552 3.21863349145 0
0.428571423449 2.63867531933 0
0.249999992317 2.99999999598 0
-0.936906572929 4.91143625364 1
-0.491534069173 -3.77013065674 0
-0.505680561071 -4.43395594671 0
-0.313952597647 -4.99013364214 1
-0.0705582868034 -3.29931152018 0
-0.302045678536 -3.47324215043 0
1 2.424 99
0.714285709163 2.72454545126 0
1 -2.424 99
-0.491534069173 3.7701306487 0
-0.505680561071 4.43395592842 0
0.149545055488 -3.21850979658 0
0.695574297752 -2.76647317883 0
0.5 -3.00000000402 0
0.410784439101 -3.17217313078 0
-0.263106601092 4.11611054912 0
0.230200722562 3.31588301155 0
-0.263106601092 -4.11611055716 0
1 -2.72454545455 99
0.0324138994631 3.47329370319 0
0.5 2.99999999598 0
0.41077934756 3.17216765215 0
-0.313952597647 4.99013364214 1
-0.103988563273 -3.76999665805 0
0.00363834621724 -4.5201267254 0
0.313952597647 -4.99013364214 1
0.299048840812 -3.46441090925 0
1 2.72454545455 99
0.749999997439 2.99999999598 0
0.119638012368 3.92507240419 0
0.00363834621724 4.52012671735 0
0.749999997439 -3.00000000402 0
0.635270747482 -3.26645893379 0
0.438993222955 3.43741204973 0
0.180081072897 -4.07936230711 0
1 -3 99
0.472149867539 3.74912425357 0
0.771707939237 3.2664589155 0
0.313952597647 4.99013364214 1
0.472149867539 -3.7491242821 0
0.505680550826 -4.43395594671 0
0.936906572929 -4.91143625364 1
1 3 99
0.487732050929 4.0673753682 0
0.505680550826 4.43395592842 0
0.908134241037 -3.26649053822 0
0.797788407931 -3.58658931861 0
0.797788407931 3.58658931057 0
0.954539135522 -4.37725192094 0
1.17585653875 -3.23753036797 0
1.212 -3 99
0.969203612273 3.9329867378 0
1.09343001954 3.30086335631 0
1.05839924753 3.52966432014 0
0.936906572929 4.91143625364 1
0.969203612273 -3.93298674585 0
1.54508497187 -4.75528258148 1
1.212 3 99
0.954539135522 4.37725190265 0
1.05839924753 -3.52966434867 0
1.50275597815 -4.22865424542 0
1.30239632894 -3.47636828459 0
1.42096096363 -3.21101681099 0
1.404 -3 99
1.30239632894 3.4763682663 0
1.5603606124 4.22865876547 0
1.57251603536 3.80960338515 0
1.35898191748 3.21106703197 0
1.54508497187 4.75528258148 1
1.36563151038 -3.8096033932 0
2.12889645783 -4.52413526233 1
1.404 3 99
1.70504899901 -3.90105562584 0
2.08485696147 -4.00339061145 0
1.62790535775 -3.22328733145 0
1.78832914521 -3.55007990996 0
1.596 -3 99
1.58987915152 3.2110145389 0
1.78832914521 3.55007990192 0
2.00449430896 3.96793796089 0
2.12889645783 4.52413526233 1
2.67913397489 -4.22163962751 1
1.596 3 99
2.38087320596 -3.68512227573 0
1.788 -3 99
1.84076459551 -3.23590855352 0
2.16150834194 -3.29052442276 0
1.788 3 99
1.79399158367 3.23473514515 0
2.02209342879 3.26124366181 0
2.38087320596 3.68512226768 0
2.67913397489 4.22163962751 1
2.78152184773 -3.56127363619 0
3.18711994874 -3.85256621388 1
2.45938495543 -3.32992124711 0
2 -3 99
2.28193354028 -3.0724587826 0
2 3 99
2.30344817769 2.8533507516 0
2.45938495543 3.32992123907 0
2.78152184773 3.56127362814 0
3.18711994874 3.85256621388 1
2.66958256734 -3.00876460441 0
3.08285674414 -3.27830132432 0
3.64484313711 -3.42273552964 1
2.76447004291 3.22299422687 0
3.06300081179 -2.90245319737 0
2 -2.72454545455 99
2.30523849447 -2.60933836263 0
2 2.72454545455 99
2.29807050694 2.49905034171 0
2.67233835084 2.83223843809 0
3.11408168693 3.10046144834 0
3.64484313711 3.42273552964 1
2.64318783688 -2.58594648345 0
3.50769499783 -2.72399858482 0
4.04508497187 -2.93892626146 1
3.04377084183 -2.53845336182 0
2 -2.424 99
2.34710197043 -2.16294146095 0
2 2.424 99
2.29807050694 2.24021249537 0
2.64319955664 2.37824594142 0
3.04377084183 2.53845335377 0
3.50769499783 2.72399857678 0
4.04508497187 2.93892626146 1
2.74900228088 -2.21150436954 0
3.75574334735 -2.33315214203 0
3.38700579748 -2.16206368756 0
4.38153340022 -2.40876837051 1
2 -2.121 99
2.60840474731 -1.96892221392 0
2.28558470754 -1.88884277195 0
2 2.121 99
2.6255961546 2.05693081556 0
2.2855893893 1.88884392154 0
2.97348274987 2.05948424874 0
3.38699199808 2.16206025783 0
3.85400702651 2.21079239612 0
4.38153340022 2.40876837051 1
2.97348274987 -1.88033944853 0
3.54269460593 -1.70464091657 0
4.06213636656 -1.76849504289 0
4.64888242944 -1.84062276342 1
5 0 1
4.64888242944 1.84062276342 1
4.96057350657 -0.626666167822 1
4.84291580564 1.24344943582 1
4.84291580564 -1.24344943582 1
4.96057350657 0.626666167822 1
2 -1.818 99
2.67671579512 -1.59818756107 0
2.2855893893 -1.6221791766 0
2 1.818 99
2.60841555531 1.74333295918 0
2.31764421223 1.55404747206 0
3.08274474049 1.64810002719 0
3.54269460593 1.5781064455 0
4.06213636656 1.70137839893 0
3.08274474049 -1.46895289122 0
3.65569858174 -1.23031598288 0
4.2131992492 -1.16936763049 0
4.42495050833 0.0580799977658 0
4.21318998813 1.23648316219 0
4.39308140883 -0.622704814134 0
4.39308967618 0.564625716066 0
2 -1.515 99
2.7014944071 -1.29631429316 0
2.31764421223 -1.28738213294 0
2 1.515 99
2.72628592721 1.22003445393 0
2.3176494267 1.28738335424 0
3.16205691701 1.04570797433 0
3.65571505498 1.10378344803 0
3.16205691701 -1.04570798237 0
3.76913690592 -0.869564734575 0
3.88257524034 -0.50881347603 0
3.90764584244 -4.02251298937e-09 0
3.88255993499 0.619141127262 0
2.87595360482 0.888504202077 0
2.72627302932 -0.994441015007 0
2 -1.212 99
2.34091197871 -0.94910594846 0
2 1.212 99
2.61124376777 0.743055403627 0
2.34091197871 0.949105940415 0
3.4226240841 0.458529075737 0
3.00879299316 0.613041830523 0
3.00879299316 -0.613041848812 0
3.4226240841 -0.458529094027 0
3.44156942977 -4.02251298937e-09 0
2.61124376777 -0.743055421917 0
2 -0.909 99
2.28970614056 -0.67095902375 0
2 0.909 99
2.63654087683 0.372590141421 0
2.28970614056 0.670959015705 0
3.02222727381 0.19975504268 0
3.02220885411 -0.199756915233 0
2.63654087683 -0.372590149466 0
2 -0.606 99
2.30169600137 -0.335983069292 0
2 0.606 99
2.30169600137 0.335983061247 0
2.64501780006 -4.02251298937e-09 0
2 -0.303 99
2.30571373907 -4.02251298937e-09 0
2 0.303 99
2 8.77076189454e-16 99
199 239 240 0
218 240 258 0
257 217 258 0
178 199 218 0
217 178 218 0
258 217 218 0
241 234 200 0
259 241 217 0
259 278 241 0
259 217 257 0
295 314 278 0
259 295 278 0
259 257 295 0
275 241 278 0
275 234 241 0
200 178 217 0
198 200 234 0
160 158 200 0
198 160 200 0
198 157 160 0
176 216 215 0
158 178 200 0
275 255 234 0
200 217 241 0
199 178 158 0
199 240 218 0
160 121 158 0
191 150 157 0
216 177 191 0
255 216 234 0
255 215 216 0
176 192 151 0
216 176 177 0
215 192 176 0
150 119 157 0
191 177 150 0
234 191 198 0
234 216 191 0
135 176 151 0
332 299 298 0
261 298 297 0
298 266 305 0
297 298 299 0
261 266 298 0
262 261 297 0
266 265 305 0
250 223 266 0
210 181 223 0
254 220 262 0
213 254 253 0
220 261 262 0
213 220 254 0
214 174 210 0
220 214 250 0
213 174 214 0
250 214 210 0
214 220 213 0
223 250 210 0
261 220 250 0
266 261 250 0
265 266 223 0
305 332 298 0
210 174 171 0
140 141 181 0
225 265 223 0
225 223 182 0
224 225 182 0
224 265 225 0
129 140 97 0
98 129 97 0
141 140 129 0
142 141 98 0
181 210 171 0
182 181 141 0
182 223 181 0
140 181 171 0
142 182 141 0
99 142 98 0
172 183 142 0
183 224 182 0
129 98 141 0
182 142 183 0
63 98 97 0
131 152 172 0
142 131 172 0
99 113 131 0
64 99 98 0
99 83 113 0
64 98 63 0
64 63 36 0
53 54 83 0
28 53 36 0
28 29 53 0
99 131 142 0
152 131 113 0
83 99 64 0
112 113 77 0
112 152 113 0
83 77 113 0
53 83 64 0
54 77 83 0
20 29 28 0
51 77 54 0
29 34 51 0
53 29 54 0
20 34 29 0
49 52 78 0
77 49 78 0
27 52 49 0
77 51 49 0
112 77 78 0
64 36 53 0
34 11 31 0
51 34 27 0
49 51 27 0
54 29 51 0
20 11 34 0
52 50 80 0
50 79 80 0
34 50 27 0
34 59 50 0
27 50 52 0
31 59 34 0
10 31 11 0
10 33 31 0
115 80 79 0
61 33 60 0
95 61 94 0
59 33 61 0
79 93 115 0
59 79 50 0
33 59 31 0
32 33 10 0
32 60 33 0
93 79 59 0
60 94 61 0
47 60 32 0
47 75 60 0
137 115 93 0
137 93 95 0
75 111 94 0
74 75 47 0
74 110 75 0
61 95 93 0
75 94 60 0
111 138 94 0
180 138 151 0
61 93 59 0
139 95 138 0
139 137 95 0
111 151 138 0
95 94 138 0
74 109 110 0
138 180 139 0
110 150 135 0
135 177 176 0
135 150 177 0
111 135 151 0
110 109 150 0
111 110 135 0
111 75 110 0
151 192 180 0
119 150 109 0
157 121 160 0
191 157 198 0
119 121 157 0
390 404 382 4
388 390 365 4
359 388 365 4
387 408 388 4
414 404 390 4
291 293 256 4
292 291 256 4
275 292 256 4
313 327 292 4
327 326 291 4
347 376 358 4
313 347 327 4
291 292 327 4
278 314 315 4
315 349 347 4
295 330 314 4
377 397 401 4
326 328 291 4
389 409 387 4
359 362 387 4
419 397 413 4
428 410 422 4
386 376 400 4
362 386 389 4
387 362 389 4
359 358 362 4
377 348 378 4
376 349 379 4
376 347 349 4
315 348 349 4
313 315 347 4
314 348 315 4
430 413 420 4
422 419 435 4
428 422 435 4
407 400 422 4
400 379 401 4
401 397 419 4
400 401 419 4
379 377 401 4
376 379 400 4
377 378 397 4
349 377 379 4
349 348 377 4
378 373 397 4
365 363 336 4
390 382 364 4
400 407 386 4
441 428 442 4
409 389 410 4
313 278 315 4
364 365 390 4
256 215 255 4
256 293 264 4
275 256 255 4
275 313 292 4
195 237 196 4
331 335 302 4
303 331 296 4
303 336 331 4
353 364 352 4
335 353 318 4
335 364 353 4
275 278 313 4
353 352 318 4
365 364 363 4
382 352 364 4
318 352 319 4
283 281 319 4
335 363 364 4
282 320 318 4
302 296 331 4
283 246 245 4
260 221 219 4
124 132 134 4
89 124 122 4
91 88 122 4
92 117 89 4
162 164 124 4
203 164 162 4
205 208 168 4
244 282 281 4
219 180 222 4
260 219 222 4
221 179 219 4
281 318 319 4
276 282 244 4
237 276 238 4
302 282 276 4
320 335 318 4
302 320 282 4
302 335 320 4
281 282 318 4
245 281 283 4
245 244 281 4
205 245 246 4
205 203 245 4
264 235 256 4
168 208 170 4
235 192 215 4
235 222 192 4
256 235 215 4
264 222 235 4
303 264 293 4
296 260 264 4
328 303 293 4
291 328 293 4
326 336 328 4
237 238 196 4
260 263 221 4
263 276 237 4
221 237 195 4
180 219 179 4
263 302 276 4
221 263 237 4
260 296 263 4
264 260 222 4
296 302 263 4
246 208 205 4
179 137 139 4
154 195 155 4
180 179 139 4
180 192 222 4
203 205 164 4
204 203 162 4
244 245 203 4
238 244 203 4
238 276 244 4
136 168 128 4
123 162 124 4
89 123 124 4
155 195 196 4
117 155 123 4
117 116 155 4
168 170 128 4
164 168 132 4
164 205 168 4
204 196 238 4
203 204 238 4
162 163 204 4
132 124 164 4
123 163 162 4
88 90 92 4
122 88 89 4
91 90 88 4
92 82 81 4
134 132 136 4
161 134 175 4
122 124 134 4
136 132 168 4
169 136 128 4
175 134 136 4
161 122 134 4
81 82 52 4
116 81 80 4
116 117 81 4
123 89 117 4
90 82 92 4
89 88 92 4
91 125 90 4
209 175 169 4
175 136 169 4
126 91 122 4
161 126 122 4
166 127 126 4
206 166 202 4
206 207 167 4
81 117 92 4
154 116 115 4
154 155 116 4
179 154 137 4
163 196 204 4
155 163 123 4
155 196 163 4
179 195 154 4
179 221 195 4
161 166 126 4
201 161 175 4
209 201 175 4
209 249 242 4
202 166 161 4
90 114 82 4
137 154 115 4
161 201 202 4
279 249 286 4
116 80 115 4
125 114 90 4
52 80 81 4
242 249 279 4
201 242 202 4
201 209 242 4
114 153 112 4
82 114 78 4
125 153 114 4
52 82 78 4
300 307 306 4
226 268 267 4
226 236 268 4
211 236 226 4
125 127 165 4
301 279 316 4
317 280 301 4
280 243 279 4
333 317 301 4
247 243 280 4
167 127 166 4
194 167 207 4
165 127 167 4
202 242 243 4
279 286 316 4
243 206 202 4
301 280 279 4
247 206 243 4
317 284 280 4
351 317 333 4
351 321 317 4
248 207 247 4
243 242 279 4
333 301 316 4
127 125 91 4
126 127 91 4
166 206 167 4
194 165 167 4
248 236 207 4
193 153 194 4
153 125 165 4
112 153 152 4
112 78 114 4
361 333 350 4
193 172 152 4
165 194 153 4
285 248 284 4
268 285 307 4
268 248 285 4
267 268 300 4
236 248 268 4
193 236 211 4
194 207 236 4
351 361 381 4
342 351 371 4
321 284 317 4
207 206 247 4
316 350 333 4
152 153 193 4
381 380 402 4
351 333 361 4
307 321 342 4
284 247 280 4
285 284 321 4
248 247 284 4
350 380 361 4
211 226 183 4
193 211 172 4
193 194 236 4
226 267 224 4
172 211 183 4
268 307 300 4
402 423 403 4
381 402 403 4
394 381 403 4
416 394 403 4
342 321 351 4
361 380 381 4
267 265 224 4
183 226 224 4
339 340 368 4
306 339 337 4
306 340 339 4
267 306 304 4
307 342 341 4
424 403 423 4
304 305 265 4
366 338 337 4
391 367 366 4
393 391 368 4
415 405 392 4
367 338 366 4
332 305 338 4
371 351 381 4
285 321 307 4
449 433 448 4
424 416 403 4
448 433 438 4
433 417 416 4
438 433 424 4
443 429 433 4
449 443 433 4
460 449 448 4
460 447 449 4
439 440 426 4
432 439 425 4
432 447 439 4
394 371 381 4
395 394 416 4
369 342 371 4
370 369 394 4
370 340 369 4
369 371 394 4
423 438 424 4
267 304 265 4
341 340 306 4
307 341 306 4
342 369 341 4
306 267 300 4
337 304 306 4
368 366 339 4
338 305 337 4
337 305 304 4
592 598 599 4
591 592 599 4
581 590 592 4
592 590 598 4
575 566 580 4
569 568 582 4
569 553 568 4
565 551 549 4
580 566 581 4
592 580 581 4
593 582 583 4
550 552 532 4
568 553 552 4
569 559 554 4
554 559 541 4
535 554 541 4
534 553 554 4
581 579 590 4
520 534 521 4
509 520 521 4
550 551 566 4
532 518 530 4
533 532 552 4
533 519 532 4
534 533 553 4
519 508 507 4
531 549 551 4
530 531 550 4
517 529 531 4
567 579 581 4
551 567 566 4
552 550 566 4
568 552 566 4
553 533 552 4
550 531 551 4
565 579 567 4
561 558 545 4
543 561 545 4
574 573 561 4
582 574 569 4
582 573 574 4
581 566 567 4
567 551 565 4
497 508 509 4
549 531 529 4
534 535 521 4
533 534 520 4
553 569 554 4
529 517 516 4
530 517 531 4
532 530 550 4
518 517 530 4
520 519 533 4
506 517 518 4
507 506 518 4
501 495 507 4
508 501 507 4
508 496 501 4
493 505 494 4
505 516 506 4
516 517 506 4
507 494 506 4
519 507 518 4
532 519 518 4
520 508 519 4
501 496 495 4
508 520 509 4
496 508 497 4
487 496 497 4
495 494 507 4
486 495 496 4
486 485 495 4
485 493 494 4
475 474 486 4
461 475 476 4
475 487 476 4
462 474 475 4
447 462 461 4
460 474 462 4
484 483 493 4
474 484 485 4
473 483 484 4
486 496 487 4
475 486 487 4
485 494 495 4
474 485 486 4
461 462 475 4
473 484 474 4
494 505 506 4
454 464 450 4
454 461 464 4
434 440 450 4
447 461 454 4
453 467 463 4
473 474 460 4
483 473 478 4
484 493 485 4
476 464 461 4
467 478 473 4
463 473 460 4
448 463 460 4
467 473 463 4
448 453 463 4
426 440 434 4
406 426 418 4
429 415 412 4
447 432 443 4
425 415 432 4
447 454 439 4
411 405 425 4
453 448 438 4
449 447 443 4
460 462 447 4
440 439 454 4
450 440 454 4
426 411 425 4
384 383 406 4
392 405 385 4
391 392 367 4
391 415 392 4
395 370 394 4
412 415 393 4
395 412 393 4
429 432 415 4
417 429 412 4
417 433 429 4
424 433 416 4
443 432 429 4
393 370 395 4
393 368 370 4
417 412 395 4
415 391 393 4
416 417 395 4
425 405 415 4
406 405 411 4
385 367 392 4
357 332 338 4
340 341 369 4
406 418 396 4
340 370 368 4
426 434 418 4
411 426 406 4
426 425 439 4
384 396 372 4
354 383 355 4
406 396 384 4
384 372 355 4
383 405 406 4
383 385 405 4
355 383 384 4
354 356 383 4
391 366 368 4
357 367 385 4
357 338 367 4
356 325 357 4
322 323 354 4
290 325 324 4
339 366 337 4
357 325 332 4
343 322 355 4
325 297 299 4
323 288 290 4
354 323 324 4
289 288 323 4
288 254 290 4
325 290 297 4
332 325 299 4
356 385 383 4
325 356 324 4
357 385 356 4
287 322 308 4
288 289 252 4
322 343 308 4
323 322 289 4
355 372 343 4
354 355 322 4
354 324 356 4
262 297 290 4
287 289 322 4
270 287 308 4
270 251 287 4
254 288 253 4
254 262 290 4
251 252 287 4
308 269 270 4
184 227 185 4
184 228 227 4
143 184 185 4
143 104 146 4
229 270 228 4
212 251 229 4
288 252 253 4
323 290 324 4
269 227 228 4
212 253 252 4
251 212 252 4
289 287 252 4
270 229 251 4
212 186 173 4
212 213 253 4
269 228 270 4
133 130 171 4
174 133 171 4
145 103 102 4
228 184 187 4
103 68 67 4
146 184 143 4
103 146 104 4
187 184 146 4
186 187 145 4
173 186 145 4
229 187 186 4
229 228 187 4
104 68 103 4
146 145 187 4
173 213 212 4
229 186 212 4
145 133 173 4
101 144 108 4
67 96 102 4
143 144 101 4
103 145 146 4
185 144 143 4
173 174 213 4
173 133 174 4
102 130 133 4
145 102 133 4
103 67 102 4
96 140 130 4
72 108 76 4
19 21 44 4
101 108 72 4
66 101 72 4
100 143 101 4
96 97 140 4
171 130 140 4
13 15 2 4
39 38 15 4
62 39 35 4
63 62 35 4
96 67 62 4
68 65 39 4
44 72 55 4
65 66 37 4
39 65 38 4
68 100 65 4
68 104 100 4
76 55 72 4
62 97 96 4
37 44 21 4
102 96 130 4
39 67 68 4
39 62 67 4
37 14 38 4
44 37 66 4
72 44 66 4
55 30 44 4
21 14 37 4
5 9 14 4
13 28 36 4
15 13 35 4
39 15 35 4
38 14 15 4
4 20 13 4
3 18 17 4
100 66 65 4
143 100 104 4
101 66 100 4
8 21 19 4
3 8 19 4
17 6 8 4
1 12 10 4
9 1 4 4
9 12 1 4
26 16 30 4
6 17 23 4
22 6 23 4
5 8 6 4
9 5 7 4
21 8 5 4
30 16 19 4
16 41 18 4
19 16 3 4
26 40 16 4
6 22 7 4
85 73 57 4
35 36 63 4
97 62 63 4
2 14 9 4
13 2 4 4
15 14 2 4
30 55 48 4
26 30 25 4
19 44 30 4
17 8 3 4
55 76 48 4
25 30 48 4
65 37 38 4
13 20 28 4
36 35 13 4
12 7 24 4
11 1 10 4
9 7 12 4
2 9 4 4
14 21 5 4
18 3 16 4
43 18 41 4
43 17 18 4
4 11 20 4
6 7 5 4
24 32 12 4
41 16 40 4
69 41 40 4
42 23 17 4
4 1 11 4
22 24 7 4
45 22 23 4
42 45 23 4
57 73 45 4
46 24 22 4
45 46 22 4
73 74 46 4
42 57 45 4
85 109 73 4
32 10 12 4
24 47 32 4
105 106 70 4
70 106 71 4
46 47 24 4
57 58 85 4
46 45 73 4
42 56 57 4
189 148 188 4
56 71 84 4
58 56 84 4
42 71 56 4
105 147 106 4
46 74 47 4
87 85 58 4
109 74 73 4
85 119 109 4
189 149 148 4
230 189 188 4
159 199 158 4
190 197 156 4
190 233 197 4
87 121 119 4
85 87 119 4
86 84 118 4
107 106 148 4
156 118 149 4
71 106 107 4
43 71 42 4
17 43 42 4
41 70 43 4
70 69 105 4
43 70 71 4
41 69 70 4
120 121 87 4
148 106 147 4
188 148 147 4
149 107 148 4
190 156 149 4
231 190 189 4
232 233 190 4
84 71 107 4
149 118 107 4
58 57 56 4
159 197 199 4
120 159 158 4
120 156 159 4
120 158 121 4
86 118 120 4
58 86 87 4
58 84 86 4
156 197 159 4
118 156 120 4
87 86 120 4
84 107 118 4
149 189 190 4
272 231 271 4
199 197 239 4
189 230 231 4
309 271 310 4
232 272 273 4
231 230 271 4
232 231 272 4
232 190 231 4
309 273 272 4
334 309 310 4
344 345 309 4
273 274 233 4
233 274 239 4
197 233 239 4
232 273 233 4
271 309 272 4
311 274 273 4
277 258 240 4
312 277 274 4
312 329 294 4
240 239 274 4
374 344 346 4
398 374 375 4
398 373 374 4
240 274 277 4
334 346 344 4
309 334 344 4
310 346 334 4
258 277 257 4
294 277 312 4
330 294 329 4
257 277 294 4
360 330 329 4
374 346 375 4
345 344 373 4
348 330 360 4
311 273 309 4
345 311 309 4
312 274 311 4
345 312 311 4
398 375 399 4
421 420 399 4
398 397 373 4
436 421 437 4
444 451 436 4
452 444 437 4
456 451 444 4
435 419 430 4
451 435 436 4
442 428 435 4
329 312 345 4
373 360 345 4
330 295 294 4
314 330 348 4
295 257 294 4
420 421 436 4
430 420 436 4
435 430 436 4
419 413 430 4
398 399 420 4
347 358 327 4
441 427 428 4
358 359 326 4
427 408 409 4
428 427 409 4
431 414 427 4
358 326 327 4
386 358 376 4
386 362 358 4
388 359 387 4
365 336 359 4
408 390 388 4
409 408 387 4
414 390 408 4
303 296 264 4
336 303 328 4
359 336 326 4
363 335 336 4
336 335 331 4
465 451 456 4
444 452 456 4
360 378 348 4
345 360 329 4
373 378 360 4
374 373 344 4
398 413 397 4
420 413 398 4
410 428 409 4
407 410 389 4
386 407 389 4
400 419 422 4
407 422 410 4
455 442 451 4
465 455 451 4
457 445 455 4
471 457 465 4
445 431 441 4
427 414 408 4
469 456 466 4
470 458 457 4
481 470 471 4
481 480 470 4
441 431 427 4
455 441 442 4
445 458 446 4
455 445 441 4
457 458 445 4
431 445 446 4
455 465 457 4
435 451 442 4
436 437 444 4
466 456 452 4
468 465 456 4
469 468 456 4
469 471 468 4
469 466 477 4
492 498 504 4
482 492 491 4
482 490 492 4
489 488 477 4
489 500 499 4
471 465 468 4
479 490 482 4
477 479 469 4
488 490 479 4
470 472 458 4
472 470 480 4
458 459 446 4
471 470 457 4
472 459 458 4
480 481 491 4
479 471 469 4
479 477 488 4
511 513 502 4
499 488 489 4
511 499 500 4
498 488 499 4
515 504 510 4
482 481 471 4
479 482 471 4
498 490 488 4
498 492 490 4
491 481 482 4
527 536 547 4
510 522 515 4
510 513 522 4
502 513 510 4
499 502 498 4
499 511 502 4
523 511 512 4
523 524 511 4
525 523 512 4
537 536 524 4
504 515 514 4
491 492 503 4
522 513 524 4
498 510 504 4
498 502 510 4
512 511 500 4
524 536 522 4
511 524 513 4
523 537 524 4
539 538 525 4
515 526 514 4
503 504 514 4
527 547 548 4
515 527 528 4
522 536 527 4
504 503 492 4
563 570 576 4
537 555 536 4
537 556 555 4
515 528 526 4
557 539 544 4
523 538 537 4
523 525 538 4
548 564 562 4
546 548 562 4
528 527 548 4
526 528 546 4
515 522 527 4
539 557 538 4
528 548 546 4
560 544 542 4
558 560 542 4
571 570 556 4
584 570 585 4
547 564 548 4
555 547 536 4
555 570 563 4
556 570 555 4
538 556 537 4
557 560 571 4
563 564 547 4
555 563 547 4
576 578 563 4
584 576 570 4
584 595 587 4
594 584 585 4
586 594 585 4
591 580 592 4
593 591 600 4
593 583 591 4
587 589 578 4
584 587 576 4
595 589 587 4
577 562 564 4
557 556 538 4
560 557 544 4
560 572 571 4
593 594 586 4
583 580 591 4
568 583 582 4
575 580 583 4
568 575 583 4
568 566 575 4
602 604 601 4
600 602 597 4
600 599 602 4
578 588 577 4
578 589 588 4
563 578 564 4
576 587 578 4
597 596 589 4
558 542 540 4
564 578 577 4
558 540 545 4
573 558 561 4
586 573 582 4
593 586 582 4
585 573 586 4
572 560 558 4
585 572 573 4
571 556 557 4
585 571 572 4
585 570 571 4
573 572 558 4
589 596 588 4
597 601 596 4
595 597 589 4
594 595 584 4
594 600 595 4
602 599 603 4
595 600 597 4
594 593 600 4
559 561 543 4
559 574 561 4
599 600 591 4
603 599 598 4
603 604 602 4
597 602 601 4
559 569 574 4
541 559 543 4
554 535 534 4
199 239 98
158 199 98
121 158 98
119 121 98
109 119 98
74 109 98
47 74 98
32 47 98
10 32 98
10 11 98
11 20 98
20 28 98
28 36 98
36 63 98
63 97 98
97 140 98
140 171 98
171 174 98
174 213 98
213 253 98
295 314 98
257 295 98
257 258 98
240 258 98
239 240 98
305 332 98
265 305 98
224 265 98
183 224 98
172 183 98
152 172 98
112 152 98
78 112 98
52 78 98
52 80 98
80 115 98
115 137 98
137 139 98
139 180 98
180 192 98
192 215 98
215 255 98
255 275 98
275 278 98
278 314 98
253 254 98
254 262 98
262 297 98
297 299 98
299 332 98
431 414 99
414 404 99
404 382 99
382 352 99
352 319 99
319 283 99
283 246 99
246 208 99
208 170 99
170 128 99
128 169 99
169 209 99
209 249 99
249 286 99
286 316 99
316 350 99
350 380 99
380 402 99
402 423 99
423 438 99
491 480 99
480 472 99
472 459 99
459 446 99
446 431 99
493 505 99
505 516 99
516 529 99
529 549 99
549 565 99
565 579 99
579 590 99
590 598 99
598 603 99
603 604 99
604 601 99
601 596 99
596 588 99
588 577 99
577 562 99
562 546 99
546 526 99
526 514 99
514 503 99
503 491 99
438 453 99
453 467 99
467 478 99
478 483 99
483 493 99
540 545 1
545 543 1
543 541 1
541 535 1
535 521 1
521 509 1
509 497 1
497 487 1
487 476 1
476 464 1
464 450 1
450 434 1
434 418 1
418 396 1
396 372 1
372 343 1
343 308 1
308 269 1
269 227 1
227 185 1
185 144 1
144 108 1
108 76 1
76 48 1
48 25 1
25 26 1
26 40 1
40 69 1
69 105 1
105 147 1
147 188 1
188 230 1
230 271 1
271 310 1
310 346 1
346 375 1
375 399 1
399 421 1
421 437 1
437 452 1
452 466 1
466 477 1
477 489 1
489 500 1
500 512 1
512 525 1
525 539 1
539 544 1
544 542 1
542 540 1
