1349 2626 175
4.29224396801 2.56449638703 0
4.50484433951 2.16941869559 0
4.04508497187 2.93892626146 0
3.69824309479 2.6986046483 0
3.93046417034 2.34834301841 0
4.12886069774 1.97787216268 0
4.6811743532 1.75687412041 0
3.59077608221 2.14538883489 0
3.37258074607 2.47295802189 0
3.76535733002 3.2896936297 0
3.4479871578 3.012415663 0
4.28661282993 1.60879270102 0
3.75995436894 1.83102295497 0
3.91614480169 1.46975372181 0
3.27263447155 1.95530807374 0
4.81981430348 1.33018422783 0
4.4156758831 1.20885188582 0
3.09828459341 2.21811498594 0
3.14999686056 2.75206937862 0
2.87090815452 2.50823691686 0
3.45531324493 3.61397431914 0
3.1706123647 3.30253441811 0
2.90329610966 3.01011188946 0
4.0264721229 1.13023188221 0
3.4452039394 1.62958021113 0
3.56917563646 1.33953401815 0
3.66594097872 1.03936435716 0
2.97398845151 1.77687537428 0
4.91964794299 0.892784473993 0
4.5049913181 0.817535382173 0
4.11565476806 0.746881221764 0
2.60892188187 2.27934640544 0
2.7812603249 2.06324083422 0
2.65243415642 2.73568904247 0
2.41787734434 2.47910272246 0
2.37645399466 2.97997904625 0
2.85469222288 3.57967082057 0
3.11744900929 3.90915741234 0
2.60798009029 3.27030359385 0
3.75028331042 0.680576077013 0
3.13483276743 1.47146023819 0
3.24346858053 1.21729412101 0
3.32884309146 0.954402896181 0
3.40865971978 0.618580537141 0
2.69473925437 1.61003174841 0
2.56253746623 1.81024383514 0
2.8083988403 1.39874121735 0
4.97987146998 0.448196544517 0
4.56056299346 0.400975768475 0
4.16356625656 0.393113589859 0
2.3639514147 2.06532215764 0
2.15997627998 2.70852458787 0
2.13786387317 2.29637635864 0
2.12133230699 3.1653358003 0
1.87894202152 2.90894286663 0
2.52996903288 3.81559602771 0
2.75448490726 4.17286626861 0
2.28859250693 3.50030950096 0
3.79738824563 0.315030205936 0
3.44580430067 0.344680182604 0
2.93891596369 1.1029936054 0
3.01302160464 0.874803892799 0
3.08859818856 0.560497933237 0
2.26310601715 1.70421935741 0
2.43351807532 1.45395936358 0
2.54377148211 1.2250157854 0
5 0 0
4.57857082978 -2.21503348996e-09 0
4.18287529394 -2.21503348996e-09 0
4.1635757635 -0.39311424994 0
2.09277142826 1.89257219109 0
1.92243684961 2.08092503501 0
1.76306282101 2.59522455485 0
1.95716186283 2.45420335799 0
1.48751153703 2.76425963304 0
1.64165869462 3.05071305267 0
1.8065130136 3.35706372091 0
2.16963878429 4.03186446675 0
2.36934331236 4.40297765928 0
1.98212900523 3.68341291538 0
3.81153626396 -2.21503348996e-09 0
3.79261346654 -0.368082310768 0
3.46433298007 -2.21503348996e-09 0
3.13904391196 -2.21503348996e-09 0
3.12827995478 0.239678018597 0
2.65402490939 0.996072207221 0
2.78920023915 0.506165213071 0
2.72161256915 0.751118705024 0
2.8119780806 0.253082600306 0
1.92006815637 1.67751302877 0
2.09297158624 1.45275730926 0
2.27108523973 1.1546452658 0
2.35592153282 0.942608480867 0
4.97987146998 -0.448196544517 0
4.55886985646 -0.419788041895 0
4.50498623681 -0.817534474838 0
3.75100055174 -0.680706248674 0
4.11564540455 -0.746879535844 0
1.72057312654 1.87903854856 0
1.66172721159 2.10445830945 0
1.34331594393 2.49629932374 0
1.60095378487 2.33726178758 0
1.39260679939 3.1706036495 0
1.27133443837 2.86832526092 0
1.52204908526 3.49324606928 0
1.80801040801 4.20602124541 0
1.96512515827 4.59763886276 0
1.62681343232 3.85271072525 0
3.45197383403 -0.276131086661 0
3.40870096433 -0.618588030335 0
3.12831565703 -0.239682049135 0
2.83475593229 -2.21503348996e-09 0
2.44075783616 0.730571706176 0
2.50865150058 0.455253127103 0
2.54182710782 0.173634140562 0
1.71887125095 1.50173258141 0
1.83913211649 1.33620769527 0
1.95939298203 1.17068280912 0
2.08040325677 0.934276466776 0
2.18136996001 0.665196121006 0
1.53142968009 1.68987376272 0
4.91964794299 -0.892784473993 0
4.41567092474 -1.20885041504 0
3.66594097872 -1.03936436159 0
4.0264721229 -1.13023189689 0
1.44905063412 2.09553956959 0
1.06865556684 2.62370367185 0
0.816308358979 2.55414483806 0
1.2081989159 2.24520980834 0
1.07055071608 3.29481631882 0
0.970028995043 2.98544228972 0
1.17805473197 3.62567968131 0
1.41485459815 4.35447470842 0
1.54508497187 4.75528258148 0
1.29257661178 3.97814175822 0
3.32884309146 -0.954402900611 0
3.08863348103 -0.560504350754 0
3.03524545164 -0.794412590724 0
2.81199255615 -0.253085237585 0
2.5418512952 -0.173636870042 0
2.2457812156 0.407549203401 0
2.2705487942 -0.0606544180205 0
2.27600779643 0.143698679065 0
1.3067194976 1.86904921242 0
1.68086593336 1.13901598822 0
1.53050325534 1.33716041777 0
1.7995220826 0.940419046732 0
1.93852133345 0.603989042552 0
1.35434658719 1.51277069294 0
4.81981430348 -1.33018422783 0
4.28661282993 -1.60879271569 0
3.24346858053 -1.21729412544 0
3.56917563646 -1.33953402258 0
3.91614480169 -1.46975373649 0
0.657436886949 3.06783035089 0
0.677613801488 2.75076084246 0
1.08159617296 2.00994249585 0
0.620331880749 2.47107713306 0
0.950603651302 2.36376533563 0
0.893460779817 2.09035541835 0
0.822093230041 3.72144120125 0
0.737001745251 3.38366667182 0
1.11260466978 4.87463956091 0
0.912739472848 4.08126560478 0
1.02794084281 4.46126148299 0
3.10497020614 -1.5334705039 0
2.93891596369 -1.10299362008 0
2.8445879634 -1.32359375125 0
2.71758997554 -0.800343917849 0
2.78922919025 -0.506170472954 0
2.5086754216 -0.455257475221 0
2.26508980223 -0.265007504861 0
2.01523019608 0.248147371104 0
2.02715303705 -0.115673697082 0
0.465028728326 3.43297994235 0
1.06246603612 1.73028776827 0
1.49432722479 0.997001674602 0
1.29229123964 1.24780187371 0
1.6483444815 0.714162214041 0
1.71118508392 0.546691683278 0
1.76928388446 0.32107768575 0
0.421364107096 3.11063481936 0
1.1211477617 1.40587482418 0
4.6811743532 -1.75687412041 0
4.12886530778 -1.97787452336 0
3.42210663196 -1.67754227114 0
3.75994569181 -1.83101902549 0
2.97395246241 -1.77685388565 0
3.27200871405 -1.95493420338 0
0.380518539697 2.80910071771 0
0.394733454934 2.50660378218 0
0.505853806628 2.21628641601 0
0.736430621926 1.89217802185 0
0.705325386678 2.1707683511 0
0.561481007432 4.14501927306 0
0.511634958919 3.77704095691 0
0.671166329088 4.95474880884 0
0.614596511344 4.53713367335 0
2.69470845926 -1.61001336387 0
2.7250286855 -1.9168552787 0
2.43349281227 -1.45394427779 0
2.57311672445 -1.18529152923 0
2.38707061474 -0.895882588135 0
2.4478730028 -0.675570031678 0
2.21379182461 -0.547791921465 0
1.99968729028 -0.362889748757 0
1.79416483947 0.089435529626 0
1.7813012109 -0.232362237396 0
1.14745270894 1.15474709661 0
0.1897367441 3.45775666933 0
0.771441960029 1.62231424474 0
0.928961540972 1.53756224379 0
1.35532339463 0.809768027096 0
1.22943007641 0.98800056857 0
1.42675474745 0.651387945072 0
1.49818611052 0.493007863047 0
1.56214753824 0.217574094272 0
0.126668179991 2.82051581837 0
0.0990893436587 3.13591894857 0
0.984363966141 1.23435337362 0
4.50484433951 -2.16941869559 0
4.00020088023 -2.26644421056 0
3.59078424712 -2.14539372597 0
3.19619549131 -2.24650877027 0
2.8798108002 -2.15369650212 0
0.16913502912 2.54213044156 0
0.306382226577 2.26180449117 0
0.555672133393 1.71018299584 0
0.516409440913 1.96366723588 0
0.205920272233 4.17702032234 0
0.197556704932 3.80530851374 0
0.224324151753 4.99496533271 0
0.214832414607 4.57311310078 0
2.35051050582 -2.22707594801 0
2.53339403126 -2.07558997576 0
2.37128666497 -1.72415482262 0
2.18872252357 -1.30770084046 0
2.08016271478 -1.56144438026 0
2.16241296629 -1.05077748506 0
2.136938227 -0.80200633144 0
1.90275502336 -0.714115913112 0
1.63546151122 -0.379481020158 0
1.71118508392 -0.546691697952 0
1.57879721381 -2.21503348996e-09 0
1.56213959871 -0.217573565986 0
1.00948444894 1.06610627536 0
-0.155428602039 3.46088650178 0
-0.1408342902 3.13591894857 0
-0.114389586835 2.54708201081 0
0.548654689499 1.47871444384 0
0.803876773737 1.35699136367 0
1.03380613358 0.903209218313 0
1.15542841764 0.738993677646 0
1.26881698404 0.520810255913 0
1.3125772996 0.362248312667 0
1.35633761515 0.203686379665 0
-0.12718216947 2.83193091904 0
0.855915165838 1.07328366739 0
4.29224396801 -2.56449638703 0
3.87153645267 -2.55501389777 0
3.48230103681 -2.54624077391 0
3.1203822788 -2.53808333717 0
2.5622357438 -2.37472512177 0
2.78566914823 -2.53053910836 0
0.101989544557 2.27099354369 0
0.157484201395 2.02431876273 0
0.347962020755 1.52452123086 0
0.152210482072 1.78993245066 0
0.329465519478 1.76593309025 0
-0.187663565099 4.17865391802 0
-0.17103664267 3.80842652398 0
-0.224324151753 4.99496533271 0
-0.205416578525 4.57395535633 0
2.18874339172 -2.51708475863 0
2.10355365146 -2.13394173469 0
1.97022524986 -2.28883036195 0
2.18873295252 -1.91239280467 0
1.95937616048 -1.17067276365 0
1.90148699414 -1.44360441419 0
1.84359783804 -1.71653604423 0
1.70935701598 -1.44212060405 0
1.79953603568 -0.940425392537 0
1.64833428818 -0.714157034729 0
1.49818611052 -0.493007867477 0
1.37091032124 -0.041770375725 0
1.34142083567 -0.285884603545 0
0.882670524887 0.913420164525 0
-0.102403127218 2.28018260645 0
-0.430718691024 3.43606789509 0
-0.37978643354 3.11437687626 0
-0.340867271499 2.51639130072 0
0.424214273621 1.30559729219 0
0.612846803957 1.22700662897 0
0.225414111023 1.35289627963 0
0.902000450904 0.761129421538 0
1.10565398876 0.414958880317 0
1.01379190247 0.605712462428 0
0.736313762363 0.923308253796 0
1.1647039239 0.190755249758 0
1.18095558852 -2.21503348996e-09 0
-0.428309644506 2.80042791872 0
0.559618948083 1.039946268 0
4.04508497187 -2.93892626146 0
3.62092935305 -2.87878625026 0
3.24989589746 -2.86467236676 0
2.87060785607 -2.77239995557 0
2.53985615917 -2.72550346619 0
1.95564439935 -2.64266947007 0
2.25210807449 -2.73441045556 0
-0.0911809518851 2.03030151748 0
-0.0806756183325 1.79638216218 0
0.147269352011 1.57032802812 0
-0.543224730569 4.14666236543 0
-0.537866637146 3.7722806124 0
-0.671166329088 4.95474880884 0
-0.623898274381 4.53544565864 0
1.84107042601 -2.43887052109 0
1.73166558541 -2.24426614644 0
1.87250818906 -2.04680813237 0
1.70367013403 -1.22632113994 0
1.596297443 -1.83186643404 0
1.58967377906 -1.60354479214 0
1.5281736553 -1.44072132168 0
1.34141636904 -0.595093152461 0
1.38608694345 -0.752599784295 0
1.50516008679 -1.10009190298 0
1.54364665229 -0.922285944503 0
1.29816635493 -0.442595305686 0
1.16197944774 -0.210868181278 0
0.753071466004 0.65793872594 1
-0.366363534579 2.25091949466 0
-0.770886613308 3.37747491803 0
-0.698502988739 3.0603415246 0
-0.567344945918 2.48570060088 0
0.983929588599 0.178556894799 1
0.36493606946 1.12315773474 0
0.138308875857 1.17208700887 0
0.0199944335222 1.46735224602 0
0.0805860297574 1.31613998761 0
0.858448793602 0.512899277406 1
0.93623487064 0.351374824081 1
0.473868662473 0.880595531857 1
0.623489801859 0.781831482468 1
1 0 1
0.983929588599 -0.178556894799 1
-0.8291762288 2.70896276769 0
-0.848146612149 3.71597309163 0
0.309016994375 0.951056516295 1
3.76535733002 -3.2896936297 0
3.36013715422 -3.22147523295 0
2.97660074986 -3.11096438066 0
2.65107812653 -3.1021058685 0
1.75581848086 -2.72515701605 0
2.31841333194 -2.96182159273 0
2.03227180758 -2.89698300629 0
-0.452236565717 1.98137782663 0
-0.312046037812 1.76908266394 0
-0.135490231808 1.57138817496 0
-0.486436218011 1.72929090201 0
-0.930777325696 4.07800187608 0
-1.01882786631 4.46377649911 0
-1.11260466978 4.87463956091 0
1.67625044675 -2.50553347718 0
1.49236473813 -2.33996828899 0
1.52690789013 -2.17059726133 0
1.52442382278 -2.70354963474 0
1.37602531153 -2.04013101237 0
1.46667353154 -1.27789785122 0
1.33727832962 -1.14226696689 0
1.37378812756 -1.82370275837 0
1.35513337874 -1.4991788863 0
1.17846248548 -0.704098568375 0
1.29512868244 -0.969085202876 0
1.17888508335 -1.18205832928 0
1.09767482765 -0.433621132571 0
0.93623487064 -0.351374824081 1
1.01378989454 -0.605711278491 0
0.934862831081 -0.74093082372 0
0.350527460548 0.812604629839 0
0.685708500618 0.535828026158 0
-0.646561725202 2.18698608578 0
-1.03734434446 3.30398070247 0
-1.00910173311 2.97073976471 0
-0.839340265225 2.40552318006 0
0.844653159701 0.1532819418 0
0.134233265818 0.990949761768 1
-0.0448648303505 0.998993066541 1
-0.0529834772954 1.17976878099 0
-0.103233212236 1.36765105183 0
0.73149934712 0.28349963753 0
0.392037929866 0.674152755454 0
0.505191732203 0.543935049479 0
0.820181289986 -0.0780356260542 0
0.788298729144 -0.253723042674 0
-1.11413005145 2.60663680754 0
-1.20278960997 3.61561871528 0
-1.30974081979 3.97171007711 0
0.194227841398 0.733639231283 0
3.45531324493 -3.61397431914 0
3.05725852731 -3.48632486711 0
2.69639904536 -3.37060329947 0
2.3709727003 -3.26624453407 0
1.35702695032 -2.8842536735 0
1.57251226536 -3.01019168868 0
1.81204749766 -3.08700661311 0
2.05711186636 -3.13262294374 0
-0.798757613915 1.86878630658 0
-0.305472592642 1.3383628409 0
-0.413897665137 1.52195011558 0
-0.706730303547 1.65347773049 0
-1.42370706603 4.35115784125 0
-1.54508497187 4.75528258148 0
1.19607159374 -2.18795616698 0
1.44797611418 -2.5003883167 0
1.31918880327 -2.34065599527 0
1.31197351665 -2.6837112513 0
1.1607435864 -2.87814438833 0
1.1635098091 -3.1093056756 0
1.15606358988 -2.0371727761 0
1.24791958066 -1.3255044722 0
1.16739273879 -1.81613027509 0
1.17872188769 -1.59508777407 0
1.01329401742 -0.883308634406 0
1.0675542779 -1.01194050479 0
1.01351745102 -1.29982826363 0
1.04053585934 -1.15588438933 0
0.696109309044 -0.373568061508 0
0.858448793602 -0.512899277406 1
0.858448786064 -0.871844995069 0
0.753071466004 -0.65793872594 1
0.618345544784 0.413717343505 0
-0.836617192567 2.11168917802 0
-1.36156958794 3.18555038404 0
-1.23372283926 2.88643805264 0
-1.04735737624 2.31125931063 0
0.677932212295 0.115265396179 0
0.659147398695 -0.0204029319796 0
-0.0385141694346 0.857584384716 0
-0.222520933956 0.974927912182 1
-0.282353054529 1.14594920144 0
-1.49802917428 3.50481345516 0
0.564778399714 0.245483102153 0
0.277564629705 0.527613803883 0
0.368264123675 0.356692540439 0
0.640362585094 -0.156071249893 0
-1.02667265993 2.03639227027 0
-1.52333112901 2.74281667673 0
-1.38499828604 2.47136104022 0
-1.64397470015 3.8462699982 0
-1.79949295735 4.21012303963 0
0.145691240808 0.567271454436 0
0.031004403281 0.690366791852 0
0.566755402895 -0.348415205932 0
3.11744900929 -3.90915741234 0
2.73569449991 -3.74524559185 0
2.39479632573 -3.5988760134 0
2.08339746164 -3.38197558817 0
1.36352678841 -3.15608550006 0
1.14893924412 -3.27122310796 0
1.5787723298 -3.2485042956 0
1.8203129939 -3.35221328002 0
-1.02020736646 1.75551834924 0
-0.679000851865 1.42358747408 0
-0.539537441022 1.26231057186 0
-0.913759491792 1.54663175267 0
-0.84521147734 1.38957471308 0
-1.96512515827 4.59763886276 0
1.0403646422 -2.11876277672 0
1.11711389908 -2.34186325382 0
1.2364908445 -2.49562156934 0
1.11720707325 -2.68963279488 0
0.983929588599 -2.8214431052 3
1 -3 3
0.983929588599 -3.1785568948 3
1.00314218225 -1.89948691733 0
1.01341567143 -1.49969235331 0
1.01341984096 -1.68495683471 0
0.858448786064 -1.05131785425 0
0.858448786064 -1.41026357262 0
0.816297858317 -1.2445640784 0
0.603919888943 -0.493413070097 0
0.623489793505 -0.96137361912 0
0.535234064828 -0.67116229427 0
0.623489801859 -0.781831482468 1
-1.61062233347 3.06565938768 0
-1.25537447702 2.2169954412 0
0.511211264889 0.0772488608015 0
0.492426451289 -0.0584194571122 0
-0.178334572053 0.784106242848 0
-0.482432658768 1.07711723884 0
-0.393025031654 0.919527772551 1
-1.78250783429 3.36862400732 0
-1.88645953255 2.99628470989 0
0.356377220579 0.197962432932 0
0.163091329544 0.381074852313 0
0.474205098091 -0.227090372337 0
-1.48246604575 2.08341331287 0
-1.37643768534 1.89105529106 0
-1.27597490118 1.70879442927 0
-2.16112122094 4.03596631219 0
-1.77036323982 2.61233129095 0
-1.67261515853 2.33990956281 0
-1.96561399425 3.6913661373 0
0.0274831983517 0.470588990573 0
-0.108124922596 0.560103139078 0
0.406671703706 -0.363210679723 0
0.93623487064 -3.35137482408 3
2.75448490726 -4.17286626861 0
1.0940122582 -3.46715054554 0
2.39278957238 -3.96974521815 0
2.08090875352 -3.72258325769 0
1.79607683075 -3.6346429689 0
1.31387856213 -3.47016393845 0
1.551605437 -3.49735260091 0
-1.12074171903 1.54077515953 0
-0.720367702861 1.167131895 0
-1.01142210282 1.35556195209 0
-0.911721472081 1.17194087039 0
-2.36934331236 4.40297765928 0
0.894018554496 -2.04186892828 0
0.906520581251 -2.26307831299 0
1.04049882529 -2.4912040279 0
0.93623487064 -2.64862517592 3
0.844653159701 -2.8467180582 0
0.863218729723 -3.08997578031 0
0.788298729144 -3.25372304267 0
0.753071456452 -1.96781182601 0
0.858448786064 -1.76920929099 0
0.795222394443 -1.61039647925 0
0.681081642565 -1.52473306181 0
0.623489793505 -1.1409157417 0
0.695479607392 -1.35137419005 0
0.529976583114 -1.38218540676 0
0.43776240194 -0.564432182296 0
0.412772506394 -0.732208103045 0
0.450318417466 -1.04750238492 0
0.473868662473 -0.880595531857 1
0.326268964285 -0.1294385898 0
0.344490317483 0.0392323254243 0
-0.330029123304 0.70658082825 0
-0.633161497426 0.996003927307 0
-0.550896981452 0.834573253721 1
-2.10267934073 3.28475381612 0
-2.16229673164 2.92691005259 0
-1.96299010931 2.76693995519 0
0.196554173433 0.136884118205 0
0.0486180396272 0.234535910987 0
0.234079544185 -0.249283598389 0
-1.70181464143 1.95438584925 0
-1.52838653701 1.66268358406 0
-1.31183003151 1.42539018676 0
-2.44260580926 3.88531084499 0
-2.00954615186 2.48599195584 0
-1.95034610336 2.21297632049 0
-2.40632553017 3.57213936671 0
-0.0993181044229 0.332187703768 0
-0.247254238229 0.429839486304 0
0.28982625789 -0.466780399759 0
0.696109309044 -3.37356807175 0
0.858448793602 -3.51289927741 3
2.36934331236 -4.40297765928 0
1.18127807666 -3.64818834143 0
1.0068949652 -3.6584029347 0
2.03131031574 -4.15493192294 0
1.76148128813 -3.86575267487 0
1.33483965586 -3.83419288901 0
-1.15472033495 1.26696773329 0
-0.818258244841 0.999807420765 0
-1.06480533775 1.11066428268 0
-2.75448490726 4.17286626861 0
0.753071456452 -2.15493655348 0
0.623489793505 -2.03862639555 0
0.753071466004 -2.34206127406 3
0.742507872398 -3.00139465405 0
0.858448793602 -2.48710072259 3
0.73149934712 -2.71650036247 0
0.677932212295 -2.88473460382 0
0.640362585094 -3.15607124989 0
0.566755402895 -3.34841521618 0
0.492426451289 -3.05841945711 0
0.652285723157 -1.87145079509 0
0.623489793505 -1.67954212991 0
0.548679225192 -1.54938202903 0
0.403217938638 -1.38131608512 0
0.473868656879 -1.23454094549 0
0.271604914937 -0.635451304739 0
0.290310947961 -0.793253911819 0
0.309016991229 -1.13403768513 0
0.309016994375 -0.951056516295 1
0.215316858809 -0.0561997400919 0
-0.395190382279 0.527491279085 0
0.100329640881 -0.167019363069 0
-0.543126516084 0.625143071866 0
-0.753634732453 0.859067283087 0
-0.691062648987 0.722794863827 1
-2.42285083693 3.20088363515 0
-2.43813393073 2.85753538504 0
-2.21923656642 2.66777290151 0
-0.910030506933 0.842940940023 0
0.0587691576767 0.0350899115733 0
-0.10318684541 0.174120346825 0
0.141890124084 -0.369128606978 0
-1.91251369325 1.83044628934 0
-1.77765444878 1.61714702774 0
-1.41524699509 1.12013836926 0
-1.60702384366 1.44060514407 0
-1.44577002241 1.27376491939 0
-2.72409038732 3.73465540852 0
-2.19964416483 2.30083657887 0
-2.23770309215 2.02009932012 0
-2.69607609622 3.33076142702 0
-0.263451012562 0.279909794127 0
-0.419485513046 0.302596725453 0
0.123668770887 -0.537799511958 0
0.753071466004 -3.65793872594 3
0.603919888943 -3.4934130701 0
0.623489801859 -3.78183148247 3
1.96512515827 -4.59763886276 0
1.06110432051 -3.87957942417 0
0.859311192631 -3.8051351087 0
1.72243671233 -4.30367761169 0
1.3991109197 -4.04284429124 0
-1.21422270007 1.05085532896 0
-1.09370742142 0.952281014597 0
-3.11744900929 3.90915741234 0
0.473868656879 -1.94243176684 0
0.473868662473 -2.11940446814 3
0.623489801859 -2.21816851753 3
0.629131589205 -2.39906311573 0
0.511211264889 -2.9227511392 0
0.618345544784 -2.5862826565 0
0.505191732203 -2.45606495052 0
0.564778399714 -2.75451689785 0
0.406671703706 -3.36321067972 0
0.344490317483 -2.96076767458 0
0.375581005472 -3.16198917715 0
0.473868656879 -1.76545905894 0
0.379667699225 -1.54822294035 0
0.268725592428 -1.35581634914 0
0.163363885752 -1.16728205378 0
0.105447427934 -0.706470416938 0
0.119840342197 -0.848710090133 0
0.134233265818 -0.990949761768 1
-0.510011238987 0.442662771851 0
-0.0320681869351 -0.0966903134017 0
-0.0374553748755 -0.268813569701 0
-1.38617356111 0.973807924982 0
-0.657947362548 0.540314564632 0
-0.863936636936 0.715588623972 0
-0.809016994375 0.587785252292 1
-2.67031967283 2.95942013299 0
-2.64661861318 2.61771179944 0
-2.41714713342 2.45503174241 0
-1.06560655363 0.735914104951 0
-0.164466014751 -0.0263612432449 0
-0.254991730447 0.113704792909 0
-0.101605076903 -0.471415873477 0
-2.11528198944 1.71117184063 0
-2.09092941749 1.52334978724 0
-1.87958671095 1.43245138512 0
-1.53993863802 0.983451138814 0
-1.57288841444 1.12986196182 0
-1.71627632735 1.27176678171 0
-3.03874289947 3.50604697049 0
-2.29302795585 1.8391588884 0
-2.46538972572 2.24520980834 0
-2.47754971774 1.97202491257 0
-2.96620037171 3.1345046477 0
-0.40550703174 0.105978344313 0
-0.591716777619 0.175353974846 0
-0.624832075205 0.357834274861 0
-0.0440071630701 -0.622874544003 0
0.535234064828 -3.67116229427 0
0.43776240194 -3.5644321823 0
0.722984099037 -3.92680035839 0
0.473868662473 -3.88059553186 3
1.54508497187 -4.75528258148 0
1.14001265693 -4.19405021851 0
0.892359060601 -4.12930363836 0
1.32427237353 -4.44934418875 0
-1.26916402836 0.851308625632 0
-3.45531324493 3.61397431914 0
0.279886372182 -1.87261120533 0
0.309016994375 -2.0489434837 3
0.350527460548 -2.18739537016 0
0.392037929866 -2.32584724455 0
0.356377220579 -2.80203756707 0
0.380151026771 -2.48457735205 0
0.472464713242 -2.61954712495 0
0.28982625789 -3.46678039976 0
0.283391585372 -3.28183420623 0
0.160111467037 -3.200457702 0
0.196554173433 -2.86311588179 0
0.178332820235 -3.03178679702 0
0.309016991229 -1.68298116332 0
0.221625123845 -1.51994662443 0
0.134233256461 -1.33031659267 0
-0.0448648366564 -1.16599537949 0
-0.0607100590698 -0.777489539381 0
-0.0448648303505 -0.998993066541 1
0.123668770887 -3.5377995222 0
-1.20968461103 0.701176142621 0
-0.216800873835 -0.168498501691 0
-0.159202970247 -0.319957192706 0
-1.463703596 0.80820236302 0
-0.762900475657 0.395859005877 0
-0.98875593719 0.596554430405 0
-0.900968867902 0.433883739118 1
-2.94660071698 2.72410045038 0
-2.83813106021 2.47856985228 0
-2.85620120387 2.09706128456 0
-1.18974105705 0.566389255401 0
-0.344976113965 -0.10798392397 0
-0.342916324588 -0.45568278789 0
-0.271021272774 -0.605201601967 0
-1.64626492015 0.802928182692 0
-2.42046323225 1.63626264805 0
-2.26160735242 1.52873794842 0
-2.06798886188 1.34641815998 0
-1.94103905413 1.22713972614 0
-1.69370371494 0.993094362891 0
-1.81921839464 1.11268051223 0
-3.33220599762 3.18507004791 0
-2.58633200739 1.74853417964 0
-2.72972566749 1.92334809484 0
-3.2743174562 2.80868344701 0
-0.558601490276 -0.00712631492457 0
-0.74161451705 0.161117668993 0
-0.243425205111 -0.757268511817 0
0.271604914937 -3.63545130474 0
0.372736780786 -3.75802342234 0
0.309016994375 -3.9510565163 3
0.583529344838 -4.05125688895 0
0.371191329203 -4.12337190146 0
1.11260466978 -4.87463956091 0
0.721322863569 -4.26570045635 0
0.894621292497 -4.53539915282 0
-1.34823382911 0.614092800054 0
-3.76535733002 3.2896936297 0
0.104383582812 -1.8407073768 0
0.134233265818 -2.00905023823 3
0.172877208956 -2.16339524141 0
0.211521171696 -2.31774023147 0
0.20653216886 -2.49953211833 0
0.261715422163 -2.68402634287 0
0.141890124084 -3.36912860698 0
0.0314371330025 -3.21791645102 0
0.0486180396272 -2.76546408901 0
0.0587691576767 -2.96491009867 0
0.0745338989185 -1.67236452275 0
-0.0448648366564 -1.83400462494 0
0.0446842150248 -1.50402165845 0
-0.104083540481 -1.34101941038 0
-0.222520937885 -1.14995194555 0
-0.222520933956 -0.974927912182 1
0.105447427934 -3.70647041694 0
-0.0440071630701 -3.622874544 0
-0.0257858098725 -3.45420363902 0
-0.354585889591 -0.270292708323 0
-1.55543258512 0.686763671514 0
-0.963962860696 0.266036845567 1
-1.06708262914 0.422096748877 0
-2.20380052152 1.21977751222 0
-2.94709685021 1.8433542051 0
-3.19665020583 2.46312444386 0
-3.12658681779 2.15139675026 0
-1.23319637192 0.410309760861 0
-0.525486202934 -0.189606604695 0
-0.641975671185 -0.107857342331 0
-0.492370905348 -0.372086894466 0
-0.459255618005 -0.554567194481 0
-0.426140330663 -0.737047484252 0
-1.70771171079 0.631631169704 0
-1.80786430026 0.863860154045 0
-1.39931012494 0.398522772845 0
-2.49921336211 1.48533180739 0
-2.68261038529 1.53435664266 0
-2.37996521115 1.26525926021 0
-2.06554837484 1.09549906265 0
-1.93406802829 0.97730795443 0
-3.60316835912 2.87524851644 0
-2.87301526347 1.58525480629 0
-3.45835133172 2.50519433723 0
-0.758465139436 -0.0261080697221 0
-0.995974293995 0.0896393089034 1
-0.393025031654 -0.919527772551 1
0.119840342197 -3.84871009013 0
0.134233265818 -3.99094976177 3
0.224134997208 -4.24670448212 0
0.449315906455 -4.33989319645 0
0.671166329088 -4.95474880884 0
0.547570345036 -4.61220411955 0
-1.57046511776 0.544993260099 0
-4.04508497187 2.93892626146 0
-0.0448648303505 -2.00100693346 3
-0.0385141694346 -2.14241561528 0
0.0368756153964 -2.4615768351 0
0.031004403281 -2.30963320815 0
0.0427468275118 -2.61352046206 0
-0.0993181044229 -2.66781229623 0
-0.0868470879149 -3.28590252126 0
-0.0790158580793 -3.06670429506 0
-0.0949080210132 -2.87149972306 0
-0.192911591095 -1.85405892248 0
-0.133692887271 -1.51203257767 0
-0.0892788670857 -1.67301860643 0
-0.234941612682 -1.40003756692 0
-0.336190338094 -1.28804254594 0
-0.393025033076 -1.11301851505 0
-0.0607100590698 -3.77748953938 0
-0.193558585545 -3.70318209108 0
-0.193461743829 -3.53927866082 0
-0.205131308832 -3.3538885915 0
-1.13931412216 0.251456851953 0
-2.26953330335 1.06145711493 0
-1.56542387797 0.386735784829 0
-3.06949531247 1.68086884571 0
-3.22584668708 1.94595188142 0
-3.37323030166 2.21005181953 0
-1.31466538442 0.236876851747 0
-1.16331191516 0.0746994229931 0
-0.63384334383 -0.292710351451 0
-0.775315761823 -0.213333798192 0
-0.650693955972 -0.479936079921 0
-0.57515913907 -0.638681031779 0
-0.550896981452 -0.834573253721 1
-1.78709911302 0.490323402092 0
-2.0113875582 0.792379832281 0
-1.88745065163 0.640400349407 0
-1.49001663643 0.222296861786 0
-2.5537303817 1.27850257223 0
-2.7481886486 1.34785260164 0
-3.06823385001 1.32538125659 0
-2.56040756317 1.05614863585 0
-2.40024385406 0.969326570249 0
-2.16699782169 0.872227839654 0
-3.8407564511 2.54262981207 0
-3.18811535992 1.52339937086 0
-3.64260185896 2.27411193298 0
-0.995974293995 -0.0896393089034 1
-0.528343847979 -1.01255882475 0
0.0013505746623 -4.16998546715 0
-0.0448648303505 -3.99899306654 3
-0.222520933956 -3.97492791218 3
0.0594222988555 -4.38484501444 0
0.13245721034 -4.65506686925 0
0.224324151753 -4.99496533271 0
-1.731537631 0.374948796813 0
-4.29224396801 2.56449638703 0
-0.222520933956 -2.02507208782 3
-0.276275035717 -2.15924563588 0
-0.149512365134 -2.30152619507 0
-0.124415239901 -2.48466924565 0
-0.247254238229 -2.5701605137 0
-0.252412573204 -2.78091697596 0
-0.216800873835 -3.16849850169 0
-0.238434081654 -2.97753534685 0
-0.393025033076 -1.88698148938 0
-0.279355643112 -1.65655731786 0
-0.393025033076 -1.50000000734 0
-0.483237583175 -1.3685299668 0
-0.550896985504 -1.21481711659 0
-0.293291814433 -3.81135493255 0
-0.326407101775 -3.62887464278 0
-0.342916324588 -3.45568277765 0
-0.354585889591 -3.27029269808 0
-1.66536789869 0.207716871825 0
-3.32264200488 1.74560803954 0
-3.47349550945 1.99478513339 0
-1.33064953315 0.0597595318047 0
-1.16599032159 -0.104458908069 0
-0.76740610997 -0.36329705151 0
-0.963962860696 -0.266036845567 1
-0.809016994375 -0.587785252292 1
-0.691062648987 -0.722794863827 1
-0.69106264989 -0.895507125439 0
-1.88046476094 0.337151822596 0
-1.96432515836 0.50161133718 0
-2.0740545565 0.665144959732 0
-1.66532476914 0.0298797596726 0
-1.49798715114 -0.044819655291 0
-3.29377354383 1.31138196861 0
-2.74566666619 1.14157373436 0
-2.96131128395 1.14876850114 0
-3.16111475663 1.14489067324 0
-2.69098300563 0.951056516295 2
-2.37651019814 0.781831482468 2
-2.52613133753 0.880595531857 2
-2.246928534 0.65793872594 2
-4.037427899 2.24469352408 0
-3.56549578446 1.48457571874 0
-3.81335422053 1.96347342952 0
-1.14726324626 -0.280259844529 0
-0.69106264989 -1.24093162792 0
-0.69106264989 -1.06821937156 0
-0.393025031654 -3.91952777255 3
-0.222950399595 -4.21786270812 0
-0.400515652169 -4.12058582483 0
-0.145584861418 -4.55797406001 0
-0.224324151753 -4.99496533271 0
-1.84071916094 0.193136881864 0
-4.50484433951 2.16941869559 0
-0.393025031654 -2.08047222745 3
-0.330029123304 -2.29341917175 0
-0.337419069221 -2.67126431973 0
-0.395190382279 -2.47250872091 0
-0.427583889968 -2.77236812576 0
-0.525486202934 -3.1896066047 0
-0.406796615484 -2.94671076101 0
-0.344976113965 -3.10798393421 0
-0.550896985504 -1.59506096409 0
-0.550896985504 -1.97530482184 0
-0.438131308125 -1.7245010986 0
-0.69106264989 -1.5863561304 0
-0.69106264989 -1.41364387403 0
-0.550896981452 -3.83457325372 3
-0.426140330663 -3.73704748425 0
-0.459255618005 -3.55456719448 0
-0.492370905348 -3.37208689447 0
-0.63384334383 -3.29271035145 0
-3.61702390585 1.71707218824 0
-1.33600633576 -0.119278507771 0
-0.900968867902 -0.433883739118 1
-0.806311984832 -0.948273720524 0
-1.06708262914 -0.422096753307 0
-0.999379031825 -0.577087262604 0
-0.863936636936 -0.715588628402 0
-2.0160704114 0.178556894799 2
-2.06376512936 0.351374824081 2
-2.1415512064 0.512899277406 2
-3.52791801284 1.25940683659 0
-1.83266238713 -0.0149398934034 0
-1.66536789869 -0.2077168865 0
-1.49001663643 -0.222296876461 0
-3.32221544238 1.12307021557 0
-2.82712279104 0.836604758593 0
-2.86576673418 0.990949761768 2
-3.04486483035 0.998993066541 2
-3.22252093396 0.974927912182 2
-2.619490957 0.708405730622 0
-2.46017770931 0.643236911171 0
-2.36510927404 0.518859724645 0
-4.24259818321 1.87460541492 0
-3.82375079796 1.40374333321 0
-4.01702419065 1.6210184528 0
-1.33056362237 -0.294482842714 0
-1.25542096678 -0.4564596115 0
-0.870585645894 -1.31316157402 0
-0.820718145297 -1.10599276282 0
-0.57154529269 -4.02688935996 0
-0.500778718852 -4.32057888312 0
-0.751047225903 -4.02719687056 0
-0.630121653089 -4.57246310911 0
-0.671166329088 -4.95474880884 0
-2 0 2
-4.6811743532 1.75687412041 0
-0.550896981452 -2.16542674628 3
-0.543126516084 -2.37485692813 0
-0.493453590193 -2.64857737816 0
-0.518290063383 -2.51171715827 0
-0.657947362548 -2.45968543537 0
-0.641975671185 -3.10785734233 0
-0.591716777619 -2.82464602515 0
-0.558601490276 -3.00712631492 0
-0.673541941842 -2.09687615975 0
-0.69106264989 -1.93178063287 0
-0.638500525745 -1.73621818806 0
-0.810744647226 -1.69208018675 0
-0.870585645894 -1.44269576373 0
-0.805620180728 -3.86129152238 0
-0.691062648987 -3.72279486383 3
-0.634136307178 -3.57117622993 0
-0.696669890728 -3.40298532302 0
-0.775315761823 -3.21333379819 0
-0.950373630459 -0.841519708019 0
-0.950373630459 -0.971053897729 0
-1.18974105705 -0.566389259831 0
-1.03681062398 -0.708382397971 0
-2.1553468403 0.1532819418 0
-2.27004082852 0.394482538119 0
-2.7884788283 0.682259768531 0
-1.07171789796 -1.13837579034 0
-3.77321267898 1.16666428259 0
-3.51542860737 1.05713206127 0
-1.84605439878 -0.163737306876 0
-1.731537631 -0.374948801243 0
-1.56542387797 -0.386735789259 0
-3.39302503165 0.919527772551 2
-2.99205337045 0.758872731943 0
-3.17833457205 0.784106242848 0
-2.62849563838 0.541112379323 0
-2.51351305099 0.408589086523 0
-4.32203958446 1.52342276941 0
-4.10309827104 1.28516682508 0
-1.38010309253 -0.555691267302 0
-1.0235126368 -1.27490149499 0
-0.768509478558 -4.23750777693 0
-0.94312096149 -4.02752589472 0
-0.920908987914 -4.5196929899 0
-1.11260466978 -4.87463956091 0
-2.17981871001 -0.0780356260542 0
-2.0160704114 -0.178556894799 2
-4.81981430348 1.33018422783 0
-0.691062648987 -2.27720513617 3
-0.809016994375 -2.41221474771 3
-0.724763894663 -2.65165660254 0
-0.758465139436 -3.02610806972 0
-0.74161451705 -2.83888233101 0
-0.810744647226 -2.15264619005 0
-0.820712469817 -1.98946415015 0
-0.844304588944 -1.81987323351 0
-1.01021462913 -1.65719418045 0
-1.05010863165 -1.47174764317 0
-0.907750900283 -3.74438977253 0
-0.809016994375 -3.58778525229 3
-0.900968867902 -3.43388373912 3
-0.963962860696 -3.26603684557 3
-0.995974293995 -3.0896393089 3
-1.08002912587 -0.836115042879 0
-1.11992312839 -1.00185008569 0
-1.20968461103 -0.701176157295 0
-2.32206778771 0.115265396179 0
-2.39853045335 0.276065793724 0
-1.38255859807 -0.69396991662 0
-2.34085260131 -0.0204029319796 0
-2.89209192376 0.565569076861 0
-1.1764396277 -1.23664140572 0
-1.28947261608 -1.03264627365 0
-3.94675425202 1.06474725407 0
-3.70251103509 0.958289575372 0
-3.55089698145 0.834573253721 2
-1.89765138402 -0.363161813227 0
-1.78709911302 -0.490323416766 0
-1.57046511776 -0.544993274774 0
-3.3300291233 0.70658082825 0
-3.11965380946 0.594356104001 0
-3.25742209587 0.560923686421 0
-2.64650500114 0.206525676724 0
-2.74212754354 0.327391318929 0
-4.47485644647 1.07682347642 0
-4.12834811176 0.958101301063 0
-1.55543258512 -0.686763686189 0
-1.20303562256 -1.36872048466 0
-1.15022856151 -3.88583152859 0
-1.16861994347 -4.15816121971 0
-1.33962479219 -4.42939662915 0
-1.54508497187 -4.75528258148 0
-2.21170127086 -0.253723042674 0
-2.35963741491 -0.156071249893 0
-2.06376512936 -0.351374824081 2
-4.91964794299 0.892784473993 0
-0.929593404224 -2.28680065057 0
-0.900968867902 -2.56611626088 3
-1.03866226463 -2.44188090211 0
-0.963962860696 -2.73396315443 3
-0.995974293995 -2.9103606911 3
-1.05016980185 -2.16138656208 0
-0.950362279499 -2.04714765719 0
-1.05010863165 -1.90352827896 0
-1.16979061875 -1.77896932341 0
-1.1997111232 -1.63988442814 0
-1.22963161741 -1.50079953287 0
-1.04371351334 -3.58998845794 0
-1.13083335723 -3.35055023127 0
-1.17192656609 -2.96070040887 0
-1.16784930757 -3.1560340212 0
-1.25068078353 -3.66468569082 0
-1.31939311029 -0.846065511205 0
-2.48878873511 0.0772488608015 0
-1.4490486057 -0.840660815331 0
-2.50757354871 -0.0584194571122 0
-2.89708092659 0.383777190005 0
-3.00836737315 0.489066641881 0
-1.32936660836 -1.19838131645 0
-1.42910160956 -0.990954844625 0
-3.82387504384 0.861505004096 0
-3.99969445122 0.640148702321 0
-3.69106264899 0.722794863827 2
-3.54312651608 0.625143071866 0
-1.96432515836 -0.501611351855 0
-1.88745065163 -0.640400364081 0
-1.72830658241 -0.679557445513 0
-3.39519038228 0.527491279085 0
-3.24725423823 0.429839486304 0
-2.95138196037 0.234535910987 0
-2.65550968252 0.0392323254243 0
-2.80344582657 0.136884118205 0
-4.54061956242 0.788696456151 0
-4.29561151824 0.611664749899 0
-1.58646125261 -0.884753627948 0
-1.36926061089 -1.36411636951 0
-1.42086644743 -4.00244070439 0
-1.6424182869 -4.31575632346 0
-1.96512515827 -4.59763886276 0
-2.62441899453 -0.161989177149 0
-2.30389069096 -0.373568061508 0
-2.4332445971 -0.348415205932 0
-2.1415512064 -0.512899277406 2
-4.97987146998 0.448196544517 0
-1.15099387025 -2.30680538498 0
-1.08732145148 -2.60661268605 0
-1.33908386979 -2.86646586959 0
-1.23564913192 -2.48496124601 0
-1.14220774606 -2.79692399052 0
-1.20527415881 -2.05876416567 0
-1.31404906215 -2.19341016987 0
-1.29132259711 -1.91055836462 0
-1.33931170855 -1.70206142969 0
-1.40915460317 -1.52985141232 0
-1.32125832496 -3.44699303417 0
-1.36019222891 -3.23033540473 0
-1.34963804935 -3.04840063716 0
-1.50841605012 -3.70649483994 0
-3.09931810442 0.332187703768 0
-1.4756446108 -1.24907949625 0
-1.58202859022 -1.13404261275 0
-4.08619647714 0.436340973766 0
-3.80901699437 0.587785252292 2
-3.9009688679 0.433883739118 2
-3.51829005314 0.488282841733 0
-3.65794736255 0.540314564632 0
-2.06718959247 -0.649169543784 0
-1.94750760537 -0.773728509575 0
-1.80809457722 -0.855586528065 0
-3.49345357995 0.351422621843 0
-2.98395592578 0.0552614374802 0
-3.26345100232 0.279909794127 0
-3.09490803126 0.128500276944 0
-4.15924859947 0.25576606754 0
-2.82166717976 -0.0317867970189 0
-4.37714222342 0.228546620207 0
-4.64408254451 0.325826484661 0
-1.73495558112 -1.08282911169 0
-1.59861133816 -1.47200394128 0
-1.72509523409 -3.97778849989 0
-2.03785453321 -4.13480606723 0
-2.36934331236 -4.40297765928 0
-2.76592046606 -0.249283598389 0
-2.59332829629 -0.363210679723 0
-2.39608011106 -0.493413070097 0
-2.246928534 -0.65793872594 2
-5 6.12323399574e-16 0
-1.37149226281 -2.36046028485 0
-1.418267426 -2.52012014659 0
-1.52304822581 -2.87777337176 0
-1.35062262216 -2.68630670762 0
-1.45174245066 -2.06917480887 0
-1.50733540394 -2.23595933394 0
-1.46944559363 -1.82313043643 0
-1.53247540261 -1.65973016716 0
-1.55977975676 -3.43693848123 0
-1.58168841999 -3.07793272981 0
-1.78526878104 -3.68199619098 0
-1.6485185876 -1.28073350122 0
-3.42758388997 0.227631884487 0
-3.9639628607 0.266036845567 2
-3.72476389466 0.348343397463 0
-2.12724654621 -0.782497689278 0
-2.00756455912 -0.907056644825 0
-1.88788256178 -1.03161559013 0
-3.59171677762 0.175353974846 0
-3.07901586832 -0.0667042950588 0
-3.40679661548 0.0532892287475 0
-3.2384340919 0.0224646531456 0
-4.23509222803 0.0682908843178 0
-3.995974294 0.0896393089034 2
-2.85810987592 -0.369128606978 0
-2.96856287724 -0.217916461263 0
-4.55948454985 -0.0393291818143 0
-1.77362819787 -1.4089019697 0
-1.85791095752 -1.24194645287 0
-1.73361702844 -1.58749671743 0
-2.06709226926 -3.82472877037 0
-2.75448490726 -4.17286626861 0
-2.38871070546 -3.98761594143 0
-2.74715777044 -0.442367456686 0
-2.56223759806 -0.564432182296 0
-2.46476593517 -0.67116229427 0
-2.37651019814 -0.781831482468 2
-4.64408254451 -0.325826499336 0
-4.97987146998 -0.448196544517 0
-1.73727271355 -2.96980892899 0
-1.52388126126 -2.4233245112 0
-1.6478491371 -2.6449228097 0
-1.6623835798 -2.20415572783 0
-1.58943584942 -1.94493943762 0
-1.5807557768 -2.09721078768 0
-1.72712924818 -1.82070407662 0
-1.817846875 -3.40712575967 0
-1.82005624503 -3.14612944846 0
-2.08923516384 -3.42507122718 0
-3.74161451705 0.161117668993 0
-2.25593379862 -0.90724558503 0
-2.01478100337 -1.15807378249 0
-2.11721057689 -1.01188897471 0
-3.55860149028 -0.00712631492457 0
-3.15920298049 -0.319957192706 0
-3.21680088408 -0.168498501691 0
-3.38196015254 -0.0835709808971 0
-4.16489122497 -0.151196955265 0
-3.75846513944 -0.0261080697221 0
-3.995974294 -0.0896393089034 2
-2.87633122911 -0.537799511958 0
-3.1016050769 -0.471415873477 0
-4.35753838891 -0.336607769798 0
-1.88807211666 -1.49056766729 0
-1.99778846325 -1.35186298818 0
-1.8648226367 -1.69646871563 0
-3.11744900929 -3.90915741234 0
-2.39344691382 -3.56829503267 0
-2.73496411483 -3.72908236841 0
-2.72839508506 -0.635451304739 0
-2.62726321921 -0.758023422338 0
-2.52613133753 -0.880595531857 2
-2.39404562571 -0.99841240456 0
-4.57198849234 -0.73616873763 0
-4.91964794299 -0.892784473993 0
-1.81769223355 -2.59436776673 0
-1.89880247172 -2.8575532867 0
-1.73818528768 -2.3595660997 0
-1.82545256086 -2.17070686775 0
-1.77902166571 -1.98695742187 0
-1.91486480684 -1.86245646071 0
-2.06615615316 -3.12328711758 0
-2.36223531967 -3.22787014638 0
-2.11025901568 -2.90898138032 0
-2.27610634898 -1.13990641806 0
-2.1298741909 -1.23404612356 0
-4.12037422659 -0.331932741879 0
-3.64197567119 -0.107857342331 0
-3.52548620293 -0.189606604695 0
-3.34291633483 -0.45568278789 0
-3.35458589984 -0.270292708323 0
-3.9639628607 -0.266036845567 2
-3.77531576182 -0.213333798192 0
-4.07585720772 -0.512668508004 0
-2.89455257207 -0.706470416938 0
-3.04400716307 -0.622874544003 0
-3.27102127277 -0.605201601967 0
-4.23928238148 -0.705943867643 0
-2.00251603546 -1.57223334438 0
-2.19754868345 -1.46045841727 0
-2.05070793773 -1.73795550979 0
-3.45531324493 -3.61397431914 0
-3.05919852719 -3.50064642809 0
-2.69044747501 -3.34380340737 0
-2.8801596578 -0.848710090133 0
-2.69098300563 -0.951056516295 2
-2.55328962026 -1.07529189014 0
-2.4155962215 -1.19952725114 0
-4.43458878429 -1.12289161654 0
-4.81981430348 -1.33018422783 0
-1.9963096627 -2.54120096836 0
-1.96636860768 -2.29167839761 0
-1.93932928 -2.0663382471 0
-2.07800415771 -1.9389065358 0
-2.65658990867 -3.09258681859 0
-2.33820718232 -2.96442036828 0
-2.28723145722 -2.66317515265 0
-2.27790282273 -1.32376261214 0
-3.9009688679 -0.433883739118 2
-3.45925561801 -0.554567194481 0
-3.63384334383 -0.292710351451 0
-3.49237090535 -0.372086894466 0
-3.76740610997 -0.36329705151 0
-3.98255461499 -0.715243202721 0
-3.80901699437 -0.587785252292 2
-3.06071005907 -0.777489539381 0
-3.42614033066 -0.737047484252 0
-3.24342520511 -0.757268511817 0
-4.10838234761 -0.870620843255 0
-4.19111730968 -1.07169649419 0
-4.6811743532 -1.75687412041 0
-2.18655106862 -1.61345454863 0
-2.3223941995 -1.48895359772 0
-2.22180560205 -1.76024867141 0
-3.76535733002 -3.2896936297 0
-3.36035649 -3.19149042347 0
-2.9823824656 -3.07624343452 0
-2.86576673418 -0.990949761768 2
-3.04486483035 -0.998993066541 2
-2.72992360241 -1.11545072449 0
-2.59408047152 -1.2399516754 0
-2.45823734063 -1.36445263656 0
-4.40513218372 -1.46857384112 0
-2.21204540572 -2.40270656886 0
-2.25893515419 -2.02369409558 0
-2.11265188606 -2.15768625171 0
-2.61717957176 -2.8015118066 0
-2.52084861884 -2.60127996838 0
-3.57515913907 -0.638681031779 0
-3.65069395597 -0.479936079921 0
-3.82387504384 -0.861505008526 0
-3.69106264899 -0.722794863827 2
-3.22252093396 -0.974927912182 2
-3.13808190789 -1.17978816811 0
-3.55089698145 -0.834573253721 2
-3.39302503165 -0.919527772551 2
-4.02235525895 -1.32861649963 0
-3.98328672115 -1.02799562775 0
-4.04508497187 -2.93892626146 0
-4.50484433951 -2.16941869559 0
-4.20238118032 -1.88767271979 0
-2.48049313014 -1.57023897669 0
-2.40724165915 -1.78441003911 0
-3.60317030559 -2.87525352021 0
-2.91851191727 -2.71803969806 0
-3.2743174562 -2.80868346168 0
-2.63850635489 -1.54735050437 0
-2.96131128395 -1.14876851582 0
-2.83656494537 -1.24385391606 0
-2.6938706601 -1.37463399652 0
-3.94221407309 -1.64532573803 0
-2.42760569037 -1.97646190259 0
-2.4309795582 -2.26215889551 0
-2.70718917736 -2.31985769765 0
-2.76529260843 -2.53651627983 0
-3.70250893496 -0.958287868962 0
-4.29224396801 -2.56449638703 0
-3.12171778886 -1.3491745421 0
-3.32221544238 -1.12307023024 0
-3.29377354383 -1.31138198328 0
-3.82375754912 -1.40375093909 0
-3.51543025674 -1.05713393021 0
-3.77321267898 -1.16666428702 0
-3.83246590694 -2.5877259392 0
-4.0737171523 -2.23977369686 0
-3.81335422053 -1.96347343395 0
-2.60835809364 -1.81061448733 0
-3.45834094375 -2.50516781852 0
-3.19665020583 -2.46312445853 0
-2.80467940337 -1.52328005703 0
-2.72868504676 -1.68703206262 0
-2.95453437181 -1.3858968632 0
-3.71319897772 -1.70405715991 0
-2.65341986637 -2.11936039245 0
-2.90830131938 -2.28065309176 0
-3.44479370671 -1.50091743737 0
-3.18811535992 -1.52339937529 0
-3.52791801284 -1.25940685127 0
-3.6610941907 -2.19417373703 0
-3.50366215967 -1.88883333492 0
-2.82684930258 -1.83908277584 0
-3.32934566851 -2.17554332926 0
-3.08824174999 -2.11076779802 0
-3.00617468125 -1.61565617378 0
-3.32264200488 -1.74560805422 0
-2.86594799009 -2.05104584101 0
-3.06331656926 -1.86989325494 0
855 803 800 0
629 632 631 0
628 629 573 0
628 686 629 0
630 635 580 0
743 744 688 0
693 635 687 0
524 472 523 0
575 576 523 0
525 578 526 0
576 577 524 0
580 578 574 0
686 632 629 0
689 688 745 0
633 689 687 0
633 631 689 0
689 632 688 0
575 631 576 0
575 573 629 0
686 743 688 0
684 685 627 0
853 906 854 0
796 851 852 0
903 957 904 0
1004 958 957 0
855 907 909 0
909 963 964 0
854 905 855 0
959 960 1006 0
905 959 907 0
855 905 907 0
854 906 905 0
906 958 960 0
1006 1008 963 0
741 742 684 0
742 743 685 0
796 742 741 0
798 743 742 0
1005 961 1004 0
852 798 796 0
957 958 904 0
795 796 741 0
629 631 575 0
633 577 576 0
635 630 687 0
580 574 630 0
524 523 576 0
627 686 628 0
687 745 693 0
685 743 686 0
627 685 686 0
684 742 685 0
745 748 693 0
797 799 744 0
743 797 744 0
798 853 797 0
798 852 853 0
796 798 742 0
850 796 795 0
851 903 904 0
852 851 904 0
850 903 851 0
906 904 958 0
800 799 853 0
796 850 851 0
803 749 748 0
800 803 748 0
857 802 803 0
866 856 910 0
747 749 802 0
747 692 694 0
856 801 802 0
746 692 747 0
701 746 758 0
756 701 757 0
756 730 701 0
690 634 691 0
674 690 730 0
674 616 634 0
694 749 747 0
636 694 692 0
635 693 694 0
920 919 908 0
1016 973 974 0
972 919 973 0
917 918 972 0
757 810 756 0
917 864 918 0
863 896 844 0
864 863 811 0
917 896 863 0
896 917 916 0
863 844 810 0
1008 964 963 0
1018 1007 1056 0
1018 1017 974 0
1008 1055 1056 0
964 1008 1007 0
1006 1055 1008 0
1006 1005 1053 0
1055 1006 1053 0
745 799 748 0
689 631 632 0
630 633 687 0
630 577 633 0
744 799 745 0
688 744 745 0
687 689 745 0
632 686 688 0
743 798 797 0
800 748 799 0
853 854 800 0
797 853 799 0
852 904 853 0
909 907 963 0
910 909 964 0
910 856 857 0
959 905 906 0
857 855 909 0
910 857 909 0
802 749 803 0
800 854 855 0
904 906 853 0
960 959 906 0
961 960 958 0
961 1006 960 0
959 1006 963 0
964 908 910 0
1008 1056 1007 0
616 673 615 0
701 690 746 0
731 787 732 0
1015 972 973 0
972 918 919 0
971 972 1015 0
971 917 972 0
920 974 973 0
919 920 973 0
908 962 920 0
1015 973 1016 0
962 964 1007 0
962 908 964 0
974 962 1007 0
974 920 962 0
1018 974 1007 0
1017 1016 974 0
855 857 803 0
919 866 908 0
757 812 811 0
730 690 701 0
856 802 857 0
865 812 813 0
801 758 746 0
908 866 910 0
919 918 865 0
916 917 971 0
801 813 758 0
802 801 747 0
856 813 801 0
693 749 694 0
693 748 749 0
812 864 811 0
758 812 757 0
701 758 757 0
746 747 801 0
865 864 812 0
919 865 866 0
918 864 865 0
787 788 732 0
810 787 756 0
810 843 787 0
843 788 787 0
843 810 844 0
694 636 635 0
731 674 730 0
636 578 580 0
616 579 634 0
616 559 579 0
673 616 674 0
731 673 674 0
617 615 673 0
615 560 616 0
526 507 474 0
525 526 474 0
473 525 474 0
574 578 525 0
636 579 578 0
636 634 579 0
635 636 580 0
692 691 636 0
690 674 634 0
579 559 578 0
559 560 507 0
578 559 526 0
616 560 559 0
617 673 676 0
731 730 787 0
676 731 732 0
676 673 731 0
559 507 526 0
473 524 525 0
525 524 574 0
691 692 746 0
690 691 746 0
634 636 691 0
633 576 631 0
574 577 630 0
574 524 577 0
813 812 758 0
866 813 856 0
866 865 813 0
811 810 757 0
917 863 864 0
863 810 811 0
756 787 730 0
961 958 1004 0
1006 961 1005 0
959 963 907 0
473 472 524 0
1069 1086 1071 1
1049 1025 1071 1
942 930 889 1
941 991 992 1
887 941 889 1
887 888 941 1
1023 979 980 1
1069 1023 1038 1
1022 979 1023 1
979 928 929 1
930 980 929 1
1025 1049 1001 1
1022 1025 1001 1
1022 1069 1025 1
942 889 941 1
940 991 941 1
1038 1086 1069 1
1128 1126 1085 1
1204 1203 1167 1
1168 1138 1130 1
1197 1204 1168 1
1203 1176 1167 1
1177 1176 1212 1
1177 1140 1139 1
1095 1086 1130 1
1247 1237 1268 1
1281 1247 1268 1
1280 1248 1247 1
1247 1248 1213 1
1281 1280 1247 1
1140 1178 1141 1
1178 1177 1213 1
1141 1178 1179 1
1140 1177 1178 1
1048 1050 1002 1
1139 1095 1138 1
1177 1139 1176 1
1097 1095 1139 1
1140 1097 1139 1
1130 1087 1126 1
1096 1050 1048 1
1096 1140 1098 1
1050 1096 1098 1
1048 1049 1096 1
1140 1141 1098 1
1049 1097 1096 1
1001 1049 1048 1
1002 1001 1048 1
955 979 1001 1
1071 1095 1049 1
1178 1214 1179 1
1177 1212 1213 1
1176 1139 1138 1
1096 1097 1140 1
1049 1095 1097 1
1071 1086 1095 1
1212 1247 1213 1
1213 1214 1178 1
1237 1247 1212 1
1248 1214 1213 1
955 1001 1002 1
1127 1114 1084 1
1125 1127 1084 1
1155 1163 1127 1
1155 1125 1161 1
1161 1125 1157 1
1037 1083 1084 1
1036 1037 1084 1
1036 990 1037 1
1120 1121 1157 1
1083 1120 1125 1
1079 1121 1120 1
1031 1079 1035 1
1031 1078 1079 1
1078 1118 1121 1
1118 1119 1157 1
1268 1295 1281 1
1270 1239 1269 1
1167 1176 1138 1
1168 1204 1167 1
1270 1238 1239 1
1268 1237 1238 1
1237 1212 1203 1
1233 1264 1232 1
1197 1233 1232 1
1199 1163 1196 1
1198 1199 1233 1
1198 1164 1199 1
1270 1295 1268 1
1238 1270 1268 1
1237 1203 1238 1
1232 1262 1239 1
1269 1298 1270 1
1201 1192 1166 1
1192 1157 1156 1
1166 1192 1156 1
1201 1196 1192 1
1157 1119 1156 1
1292 1291 1262 1
1265 1292 1263 1
1235 1265 1263 1
1261 1267 1265 1
1267 1291 1292 1
1291 1294 1297 1
1264 1292 1262 1
1267 1294 1291 1
1261 1265 1234 1
1235 1202 1234 1
1037 990 1035 1
1114 1073 1084 1
989 990 1036 1
1166 1202 1201 1
1235 1201 1202 1
1265 1235 1234 1
1267 1292 1265 1
1264 1231 1263 1
1263 1231 1230 1
1297 1269 1291 1
1130 1162 1168 1
1162 1126 1128 1
1168 1162 1198 1
1197 1168 1198 1
1233 1197 1198 1
1232 1239 1204 1
1167 1138 1168 1
1130 1126 1162 1
1095 1130 1138 1
1086 1087 1130 1
1164 1163 1199 1
1162 1164 1198 1
1128 1127 1164 1
1204 1197 1232 1
1238 1204 1239 1
1238 1203 1204 1
1269 1297 1298 1
1295 1270 1298 1
1262 1291 1269 1
1269 1239 1262 1
1264 1263 1292 1
1031 1035 988 1
1079 1078 1121 1
936 981 940 1
989 936 937 1
989 981 936 1
989 937 938 1
990 938 939 1
988 1035 990 1
940 941 888 1
886 940 888 1
991 1026 1039 1
936 940 886 1
1036 1026 989 1
1039 1085 1087 1
992 991 1039 1
1023 992 1038 1
1023 980 992 1
1072 1085 1039 1
1026 1072 1039 1
1026 1036 1073 1
937 936 886 1
1157 1121 1118 1
1083 1035 1079 1
1125 1155 1127 1
1079 1120 1083 1
1120 1157 1125 1
1192 1161 1157 1
1232 1264 1262 1
1212 1176 1203 1
1162 1128 1164 1
1201 1230 1196 1
1230 1235 1263 1
1196 1230 1231 1
1201 1235 1230 1
1026 981 989 1
1073 1072 1026 1
1084 1073 1036 1
1114 1072 1073 1
1114 1085 1072 1
1127 1163 1164 1
1083 1125 1084 1
1161 1163 1155 1
1039 1087 1038 1
1233 1231 1264 1
1114 1128 1085 1
1199 1231 1233 1
1199 1196 1231 1
1114 1127 1128 1
1161 1196 1163 1
1161 1192 1196 1
1023 1069 1022 1
981 1026 991 1
1087 1086 1038 1
990 939 988 1
1083 1037 1035 1
989 938 990 1
992 1039 1038 1
942 941 992 1
980 942 992 1
980 930 942 1
940 981 991 1
979 955 928 1
1087 1085 1126 1
1022 1001 979 1
929 980 979 1
1069 1071 1025 1
444 392 443 2
495 444 443 2
494 442 444 2
546 494 495 2
539 488 487 2
431 380 392 2
391 392 343 2
343 392 380 2
593 542 595 2
644 591 593 2
671 644 648 2
671 613 644 2
540 489 491 2
542 540 491 2
591 557 540 2
593 595 648 2
386 438 398 2
438 387 439 2
491 489 439 2
452 398 438 2
489 452 438 2
540 557 505 2
648 644 593 2
644 613 591 2
504 495 451 2
556 504 505 2
556 547 504 2
613 612 557 2
591 613 557 2
670 727 669 2
547 495 504 2
558 602 614 2
769 822 768 2
657 714 715 2
614 657 672 2
704 703 759 2
646 704 657 2
646 703 704 2
768 759 713 2
770 771 714 2
729 699 672 2
772 729 715 2
755 699 729 2
641 642 587 2
394 427 376 2
386 387 438 2
505 557 556 2
489 505 452 2
489 540 505 2
439 489 438 2
540 593 591 2
342 348 379 2
379 391 342 2
398 379 348 2
398 391 379 2
386 398 348 2
451 452 504 2
595 650 648 2
391 343 342 2
443 391 398 2
452 451 398 2
495 494 444 2
451 495 443 2
398 451 443 2
452 505 504 2
547 546 495 2
494 546 539 2
385 344 335 2
542 593 540 2
708 706 650 2
706 761 728 2
825 772 771 2
786 755 729 2
873 923 872 2
873 823 840 2
784 785 840 2
671 728 670 2
613 671 670 2
648 650 706 2
761 785 728 2
612 669 656 2
825 771 824 2
874 825 824 2
875 826 825 2
784 769 727 2
872 824 822 2
823 872 822 2
923 874 872 2
784 727 728 2
785 784 728 2
769 768 727 2
823 769 784 2
823 822 769 2
824 771 770 2
822 824 770 2
874 875 825 2
642 699 700 2
589 642 643 2
641 699 642 2
592 602 548 2
759 714 704 2
657 614 602 2
729 672 715 2
657 602 646 2
641 614 672 2
641 586 614 2
592 548 590 2
600 592 590 2
646 602 592 2
645 646 592 2
600 645 592 2
655 703 645 2
713 703 655 2
704 714 657 2
548 506 496 2
590 548 538 2
602 558 548 2
534 558 586 2
506 481 453 2
539 546 590 2
672 699 641 2
586 558 614 2
771 772 715 2
824 872 874 2
768 822 770 2
823 873 872 2
772 786 729 2
823 784 840 2
727 670 728 2
713 727 768 2
669 613 670 2
713 669 727 2
655 600 601 2
656 655 601 2
612 656 601 2
669 713 656 2
713 759 703 2
706 708 761 2
671 706 728 2
671 648 706 2
786 772 826 2
826 772 825 2
700 643 642 2
700 699 755 2
344 393 345 2
394 376 345 2
453 481 427 2
488 496 445 2
506 534 481 2
539 590 538 2
586 535 534 2
481 430 428 2
445 453 427 2
393 445 394 2
345 393 394 2
344 385 393 2
506 558 534 2
496 506 453 2
496 538 548 2
445 496 453 2
488 539 538 2
483 484 430 2
534 483 481 2
586 587 535 2
481 483 430 2
714 759 770 2
715 714 771 2
715 672 657 2
587 642 589 2
537 587 589 2
586 641 587 2
483 537 484 2
427 394 445 2
428 427 481 2
428 376 427 2
535 537 483 2
534 535 483 2
587 537 535 2
601 600 547 2
612 601 556 2
557 612 556 2
613 669 612 2
656 713 655 2
770 759 768 2
601 547 556 2
703 646 645 2
590 546 600 2
600 546 547 2
538 496 488 2
600 655 645 2
548 558 506 2
340 390 341 2
442 436 390 2
539 487 494 2
488 437 487 2
488 445 437 2
390 436 385 2
341 390 385 2
431 442 390 2
380 431 390 2
330 380 340 2
330 343 380 2
392 444 431 2
443 392 391 2
442 487 436 2
444 442 431 2
494 487 442 2
393 385 436 2
380 390 340 2
437 393 436 2
487 437 436 2
445 393 437 2
335 341 385 2
31 50 30 3
17 31 30 3
24 27 40 3
83 59 60 3
81 82 70 3
59 81 69 3
59 83 81 3
49 48 30 3
69 49 50 3
69 68 49 3
29 16 17 3
320 279 278 3
326 368 320 3
373 326 327 3
373 374 369 3
281 322 280 3
320 281 279 3
323 322 281 3
368 323 320 3
368 371 323 3
321 365 319 3
280 321 319 3
419 413 367 3
370 419 367 3
370 421 419 3
321 370 367 3
321 322 370 3
422 477 421 3
527 475 528 3
521 573 575 3
469 521 522 3
470 469 522 3
413 468 469 3
468 520 521 3
415 414 364 3
279 237 278 3
422 421 370 3
238 201 237 3
280 238 279 3
320 323 281 3
319 277 280 3
321 367 365 3
322 321 280 3
279 281 280 3
371 370 322 3
371 422 370 3
276 317 274 3
319 276 275 3
318 317 276 3
275 274 234 3
277 275 234 3
319 318 276 3
419 475 468 3
415 367 413 3
421 475 419 3
420 422 371 3
477 475 421 3
317 308 274 3
363 317 318 3
363 353 317 3
277 236 238 3
263 225 235 3
188 166 199 3
224 223 189 3
306 262 264 3
261 223 224 3
152 167 168 3
110 136 124 3
138 167 136 3
186 153 152 3
154 151 125 3
124 154 125 3
187 185 154 3
204 169 170 3
239 237 202 3
282 239 240 3
278 237 239 3
202 169 203 3
168 166 152 3
202 168 167 3
199 166 168 3
137 110 109 3
139 137 111 3
138 110 137 3
202 167 169 3
136 153 124 3
7 12 16 3
52 35 34 3
54 52 36 3
55 73 52 3
75 101 73 3
117 145 118 3
91 117 118 3
116 146 117 3
178 214 177 3
149 183 178 3
121 149 146 3
121 144 149 3
90 99 116 3
160 194 193 3
157 160 193 3
157 129 160 3
149 144 176 3
129 101 127 3
126 129 157 3
126 102 129 3
209 246 214 3
183 209 178 3
220 246 209 3
246 258 287 3
214 246 252 3
220 258 246 3
212 220 183 3
251 258 220 3
292 293 250 3
267 292 250 3
294 337 336 3
302 258 293 3
302 342 298 3
65 46 64 3
66 65 92 3
93 66 92 3
86 61 66 3
45 28 46 3
65 45 46 3
47 28 45 3
66 47 65 3
66 61 47 3
20 33 18 3
19 23 34 3
11 19 9 3
11 23 19 3
34 35 20 3
53 74 72 3
71 53 72 3
35 52 53 3
33 32 51 3
34 36 52 3
147 177 179 3
15 25 13 3
18 15 8 3
18 28 15 3
47 61 41 3
93 113 86 3
119 93 92 3
119 120 93 3
114 141 115 3
88 114 87 3
113 141 114 3
63 89 85 3
375 328 329 3
428 375 376 3
377 372 375 3
430 378 428 3
284 283 243 3
324 325 284 3
372 324 328 3
372 325 324 3
378 423 372 3
428 378 377 3
429 423 378 3
374 424 426 3
476 425 479 3
424 423 478 3
426 424 478 3
480 426 478 3
425 374 426 3
374 373 424 3
429 482 478 3
241 243 283 3
240 241 282 3
240 205 241 3
241 206 243 3
207 181 217 3
207 173 181 3
245 208 244 3
174 173 207 3
205 172 206 3
142 115 143 3
141 120 148 3
143 141 173 3
115 89 114 3
286 328 284 3
285 286 245 3
285 300 329 3
30 48 29 3
68 95 94 3
49 68 67 3
69 95 68 3
202 203 239 3
204 240 203 3
205 206 241 3
172 174 206 3
171 172 205 3
140 115 142 3
283 284 325 3
329 345 376 3
285 329 286 3
300 345 329 3
375 428 377 3
122 94 95 3
151 185 184 3
150 151 184 3
154 124 153 3
123 125 151 3
123 98 125 3
123 96 98 3
239 203 240 3
429 378 430 3
222 223 260 3
259 222 260 3
185 187 222 3
184 185 221 3
187 223 222 3
151 154 185 3
199 168 201 3
189 186 166 3
225 189 188 3
223 186 189 3
138 136 110 3
532 531 585 3
476 422 420 3
529 476 479 3
477 422 476 3
528 477 529 3
528 475 477 3
478 531 480 3
328 375 372 3
430 484 429 3
150 123 151 3
682 664 625 3
395 384 346 3
485 447 434 3
383 433 434 3
668 664 723 3
652 597 651 3
555 608 611 3
651 596 611 3
503 500 552 3
498 446 486 3
819 783 839 3
651 611 668 3
710 666 653 3
543 492 503 3
544 543 596 3
493 492 543 3
726 783 765 3
668 726 709 3
723 739 781 3
682 723 664 3
783 781 837 3
935 885 882 3
552 555 503 3
519 552 500 3
608 555 552 3
625 608 570 3
625 664 608 3
739 723 682 3
492 485 441 3
555 543 503 3
653 597 652 3
553 598 609 3
553 501 545 3
543 544 493 3
596 597 544 3
555 596 543 3
555 611 596 3
651 709 652 3
596 651 597 3
668 709 651 3
664 668 611 3
723 726 668 3
502 553 554 3
598 653 609 3
610 658 603 3
666 610 609 3
667 665 610 3
782 777 724 3
884 883 832 3
885 884 833 3
937 883 884 3
831 776 832 3
883 831 832 3
815 836 779 3
834 835 778 3
835 888 887 3
778 835 815 3
834 888 835 3
410 407 462 3
606 550 604 3
551 550 606 3
567 551 607 3
515 499 551 3
517 515 567 3
499 550 551 3
462 499 515 3
462 446 498 3
603 554 610 3
717 776 718 3
665 717 718 3
724 776 717 3
725 724 667 3
725 782 724 3
780 828 774 3
721 780 774 3
779 836 780 3
780 836 828 3
831 778 776 3
831 834 778 3
836 835 887 3
836 887 889 3
888 834 886 3
815 835 836 3
837 794 849 3
839 783 837 3
892 839 890 3
943 892 890 3
921 869 892 3
921 868 869 3
882 838 891 3
766 711 710 3
819 766 765 3
869 819 839 3
869 818 819 3
892 869 839 3
818 766 819 3
868 818 869 3
868 817 818 3
818 764 766 3
781 739 794 3
837 781 794 3
726 723 781 3
883 834 831 3
833 884 832 3
937 886 883 3
782 833 832 3
777 782 832 3
776 777 832 3
776 724 777 3
725 711 764 3
838 868 891 3
782 838 833 3
782 764 817 3
666 710 711 3
765 709 726 3
725 666 711 3
652 709 710 3
921 891 868 3
817 868 838 3
782 817 838 3
764 818 817 3
725 764 782 3
711 766 764 3
667 666 725 3
765 783 819 3
710 765 766 3
710 709 765 3
781 783 726 3
837 890 839 3
883 886 834 3
902 890 849 3
890 837 849 3
943 890 902 3
945 921 892 3
885 833 882 3
939 885 935 3
938 884 885 3
938 937 884 3
838 882 833 3
945 944 921 3
956 993 943 3
1040 1003 1051 3
1041 1040 1088 3
993 1003 1040 3
994 993 1040 3
931 882 891 3
939 935 988 3
939 938 885 3
984 935 931 3
931 935 882 3
944 983 931 3
921 944 891 3
945 994 944 3
984 988 935 3
983 984 931 3
1030 1031 984 3
983 1030 984 3
891 944 931 3
994 1041 1029 3
1076 1078 1030 3
944 994 983 3
1030 1078 1031 3
1029 1041 1076 3
1030 1029 1076 3
983 994 1029 3
993 994 945 3
943 993 945 3
892 943 945 3
902 956 943 3
956 1003 993 3
1041 1077 1076 3
1040 1041 994 3
1088 1089 1041 3
1077 1117 1119 3
1030 983 1029 3
1089 1117 1077 3
1041 1089 1077 3
1088 1132 1089 3
988 984 1031 3
1088 1040 1051 3
1088 1051 1099 3
1131 1089 1132 3
1169 1131 1132 3
1129 1117 1089 3
1165 1129 1131 3
1165 1166 1129 3
1169 1165 1131 3
1119 1118 1077 3
1118 1078 1076 3
1088 1099 1132 3
1077 1118 1076 3
1156 1119 1117 3
1180 1142 1181 3
1200 1165 1169 3
1229 1200 1205 3
1236 1229 1205 3
1236 1261 1229 3
1202 1165 1200 3
1132 1142 1169 3
1156 1117 1129 3
1099 1142 1132 3
1131 1129 1089 3
1205 1200 1169 3
1166 1156 1129 3
1216 1181 1217 3
1169 1180 1205 3
1169 1142 1180 3
1202 1166 1165 3
1216 1180 1181 3
1251 1216 1217 3
1240 1205 1216 3
1234 1200 1229 3
1234 1202 1200 3
1251 1240 1216 3
1236 1266 1267 3
1180 1216 1205 3
1272 1299 1300 3
1271 1272 1300 3
1251 1285 1272 3
1252 1273 1285 3
1267 1261 1236 3
1313 1285 1303 3
1293 1294 1267 3
1285 1313 1299 3
1324 1340 1321 3
1325 1323 1340 3
1300 1325 1318 3
1300 1299 1325 3
1325 1299 1323 3
1266 1271 1293 3
1271 1240 1272 3
1293 1271 1300 3
1240 1251 1272 3
1236 1205 1240 3
1266 1236 1240 3
1271 1266 1240 3
1293 1267 1266 3
1261 1234 1229 3
1217 1252 1251 3
1285 1273 1303 3
1272 1285 1299 3
1251 1252 1285 3
1313 1328 1335 3
1297 1324 1298 3
1302 1303 1273 3
1327 1302 1319 3
1318 1297 1294 3
1300 1318 1293 3
1324 1321 1298 3
1325 1340 1324 3
1340 1338 1322 3
1318 1325 1324 3
1323 1338 1340 3
1293 1318 1294 3
1341 1330 1344 3
1319 1326 1327 3
1301 1277 1306 3
1321 1295 1298 3
1297 1318 1324 3
1339 1346 1334 3
1320 1339 1334 3
1310 1320 1334 3
1322 1339 1320 3
1340 1322 1321 3
1338 1339 1322 3
1338 1335 1347 3
1327 1326 1341 3
1244 1278 1277 3
1279 1246 1257 3
1321 1296 1295 3
1335 1342 1347 3
1313 1335 1323 3
1299 1313 1323 3
1303 1328 1313 3
1328 1342 1335 3
1327 1328 1303 3
1302 1327 1303 3
1319 1301 1326 3
1306 1326 1301 3
1308 1306 1278 3
1245 1246 1279 3
1331 1330 1308 3
1308 1330 1306 3
1250 1284 1260 3
1215 1250 1227 3
1283 1284 1250 3
1282 1283 1249 3
1312 1334 1332 3
1282 1311 1283 3
1282 1310 1311 3
1248 1282 1249 3
1333 1346 1343 3
1284 1312 1309 3
1334 1346 1332 3
1310 1334 1311 3
1310 1296 1320 3
1241 1274 1243 3
1172 1206 1208 3
1207 1242 1241 3
1228 1260 1242 3
1194 1228 1207 3
1194 1195 1228 3
1241 1243 1208 3
1260 1275 1242 3
1337 1345 1331 3
1347 1349 1346 3
1338 1347 1339 3
1342 1344 1347 3
1323 1335 1338 3
1306 1277 1278 3
1278 1244 1245 3
1276 1256 1243 3
1194 1160 1195 3
965 1004 957 3
903 912 957 3
1058 1059 1105 3
1057 1058 1105 3
1100 1057 1105 3
1100 1052 1057 3
1010 966 1011 3
1009 1010 1058 3
1009 965 1010 3
957 912 965 3
1107 1108 1149 3
1186 1147 1149 3
1105 1059 1107 3
1010 1011 1059 3
1060 1108 1107 3
1011 1012 1059 3
1058 1010 1059 3
966 967 1011 3
895 949 894 3
1059 1012 1060 3
948 915 894 3
1012 969 1013 3
914 915 969 3
1227 1260 1228 3
1248 1249 1214 3
1282 1280 1310 3
965 1009 1004 3
1296 1281 1295 3
1334 1312 1311 3
1312 1284 1283 3
1311 1312 1283 3
1332 1309 1312 3
1348 1337 1336 3
1349 1348 1343 3
1349 1344 1345 3
1274 1242 1275 3
1260 1227 1250 3
1275 1260 1284 3
1242 1207 1228 3
1280 1281 1310 3
1052 1005 1004 3
1105 1106 1100 3
1060 1107 1059 3
1107 1149 1147 3
1105 1107 1147 3
1109 1150 1108 3
1150 1188 1149 3
1255 1221 1222 3
1287 1288 1256 3
1254 1221 1255 3
1288 1286 1254 3
1258 1259 1289 3
1258 1226 1259 3
1253 1218 1220 3
1054 1005 1052 3
1296 1322 1320 3
1281 1296 1310 3
1321 1322 1296 3
1054 1052 1100 3
1103 1054 1100 3
1101 1053 1054 3
1249 1250 1215 3
1280 1282 1248 3
1283 1250 1249 3
1211 1174 1175 3
1246 1211 1210 3
1209 1174 1211 3
1333 1329 1309 3
1332 1333 1309 3
1343 1329 1333 3
1349 1343 1346 3
1309 1304 1284 3
1346 1333 1332 3
1329 1304 1309 3
1336 1329 1343 3
1305 1287 1276 3
1336 1314 1329 3
1336 1315 1314 3
1316 1315 1336 3
1279 1289 1307 3
1279 1257 1289 3
1308 1279 1307 3
1278 1245 1279 3
1246 1225 1257 3
1187 1185 1148 3
1218 1219 1184 3
1220 1218 1184 3
1253 1219 1218 3
1288 1315 1286 3
1255 1288 1254 3
1287 1315 1288 3
1259 1226 1253 3
1224 1190 1219 3
1305 1274 1275 3
1314 1287 1305 3
1243 1274 1276 3
1345 1348 1349 3
1331 1345 1344 3
1337 1348 1345 3
1275 1304 1305 3
1275 1284 1304 3
1346 1339 1347 3
1211 1246 1245 3
1191 1189 1224 3
1225 1191 1224 3
1210 1173 1191 3
1111 1112 1152 3
1111 1110 1064 3
1066 1065 1112 3
1064 1066 1111 3
1018 1065 1066 3
1054 1053 1005 3
1175 1210 1211 3
1225 1258 1257 3
1307 1331 1308 3
1278 1279 1308 3
1226 1224 1219 3
1253 1226 1219 3
1258 1224 1226 3
1257 1258 1289 3
1225 1224 1258 3
1210 1225 1246 3
1221 1254 1220 3
1223 1255 1222 3
1316 1336 1337 3
1317 1316 1337 3
1317 1290 1316 3
1286 1315 1290 3
1253 1286 1259 3
1253 1254 1286 3
1287 1314 1315 3
1255 1256 1288 3
1256 1276 1287 3
1341 1328 1327 3
1330 1341 1326 3
1306 1330 1326 3
1331 1344 1330 3
1344 1342 1341 3
1347 1344 1349 3
1342 1328 1341 3
1209 1245 1244 3
1190 1189 1151 3
1145 1184 1182 3
1185 1183 1148 3
1253 1220 1254 3
1184 1183 1220 3
1182 1184 1219 3
1145 1146 1184 3
1112 1145 1152 3
1102 1146 1145 3
1185 1187 1222 3
1220 1185 1221 3
1220 1183 1185 3
1224 1189 1190 3
1113 1067 1110 3
1104 1055 1101 3
1136 1175 1137 3
1151 1189 1153 3
1211 1245 1209 3
1153 1189 1191 3
1135 1153 1173 3
1135 1113 1153 3
1143 1183 1144 3
1182 1190 1152 3
1145 1182 1152 3
1219 1190 1182 3
1348 1336 1343 3
1307 1317 1331 3
1290 1289 1259 3
1286 1290 1259 3
1317 1289 1290 3
1331 1317 1337 3
1307 1289 1317 3
1208 1243 1223 3
1305 1304 1329 3
1314 1305 1329 3
1276 1274 1305 3
1225 1210 1191 3
1190 1151 1152 3
1173 1153 1191 3
1151 1111 1152 3
1104 1056 1055 3
1112 1065 1102 3
1145 1112 1102 3
1111 1066 1112 3
1018 1056 1065 3
1136 1137 1094 3
1093 1135 1136 3
1047 1093 1094 3
1046 1092 1093 3
1175 1174 1137 3
1173 1175 1136 3
1173 1210 1175 3
1093 1092 1135 3
1110 1111 1151 3
1113 1110 1151 3
1067 1063 1110 3
1016 1064 1063 3
1017 1018 1066 3
1064 1017 1066 3
1047 1046 1093 3
1067 1113 1092 3
1044 1067 1092 3
1063 1064 1110 3
1016 1063 1015 3
1016 1017 1064 3
1046 1047 1000 3
954 953 999 3
1135 1173 1136 3
1094 1093 1136 3
1092 1113 1135 3
1153 1113 1151 3
1045 1044 1092 3
999 1045 1046 3
998 970 1014 3
997 998 1045 3
952 950 916 3
997 952 998 3
997 950 952 3
1044 1014 1063 3
1046 1045 1092 3
998 1014 1044 3
952 970 998 3
1044 1063 1067 3
971 1014 970 3
1015 1063 1014 3
999 1046 1000 3
954 999 1000 3
953 997 999 3
898 950 951 3
897 898 951 3
897 844 898 3
971 1015 1014 3
1045 998 1044 3
900 899 953 3
970 916 971 3
953 951 997 3
1045 999 997 3
954 900 953 3
898 896 950 3
950 896 916 3
970 952 916 3
997 951 950 3
898 844 896 3
953 899 951 3
846 847 792 3
790 846 792 3
845 899 846 3
951 899 897 3
900 847 846 3
844 897 843 3
846 899 900 3
789 845 790 3
734 789 790 3
734 788 789 3
788 843 842 3
842 897 845 3
789 842 845 3
843 897 842 3
845 897 899 3
792 847 791 3
736 679 733 3
792 736 790 3
737 679 736 3
735 737 791 3
735 677 680 3
789 788 842 3
734 790 733 3
676 734 733 3
732 788 734 3
678 679 737 3
846 790 845 3
737 792 791 3
737 736 792 3
619 679 678 3
675 676 733 3
680 737 735 3
621 680 677 3
678 737 680 3
621 622 680 3
514 566 565 3
619 678 622 3
563 620 619 3
509 563 562 3
560 615 563 3
675 617 676 3
562 563 619 3
615 617 620 3
734 676 732 3
736 733 790 3
675 620 617 3
679 675 733 3
679 620 675 3
680 622 678 3
561 564 618 3
565 622 621 3
619 620 679 3
621 677 618 3
563 615 620 3
455 456 510 3
560 563 509 3
510 561 508 3
455 510 508 3
511 565 564 3
566 622 565 3
513 566 514 3
562 619 566 3
564 561 510 3
511 564 510 3
621 618 564 3
406 457 402 3
405 406 355 3
405 461 406 3
621 564 565 3
402 352 354 3
456 402 457 3
456 401 402 3
622 566 619 3
405 355 353 3
460 405 404 3
461 457 406 3
565 512 514 3
406 402 354 3
512 457 461 3
456 455 401 3
511 456 457 3
511 510 456 3
458 418 459 3
460 404 458 3
461 460 514 3
461 405 460 3
403 418 458 3
509 459 507 3
560 509 507 3
513 514 460 3
459 513 458 3
474 459 418 3
509 513 459 3
509 562 513 3
418 403 417 3
507 459 474 3
513 562 566 3
416 470 471 3
417 416 471 3
364 363 318 3
416 414 470 3
366 363 414 3
400 454 399 3
460 458 513 3
308 353 355 3
366 403 404 3
508 454 455 3
418 473 474 3
350 399 349 3
351 352 401 3
350 351 400 3
306 264 307 3
305 306 351 3
305 262 306 3
351 306 352 3
224 189 225 3
262 224 225 3
262 261 224 3
260 223 261 3
304 260 261 3
259 221 222 3
189 166 188 3
187 186 223 3
187 153 186 3
309 308 355 3
200 199 236 3
277 234 235 3
225 188 200 3
262 225 264 3
188 199 200 3
320 278 282 3
236 199 201 3
238 236 201 3
263 274 307 3
235 234 263 3
236 235 200 3
236 277 235 3
277 319 275 3
280 277 238 3
235 225 200 3
201 202 237 3
512 461 514 3
511 512 565 3
511 457 512 3
263 234 274 3
264 263 307 3
264 225 263 3
404 403 458 3
455 454 400 3
304 303 260 3
305 304 261 3
349 303 304 3
327 326 282 3
532 479 480 3
529 477 476 3
582 528 529 3
414 416 366 3
363 364 414 3
522 471 470 3
416 403 366 3
523 471 522 3
417 403 416 3
473 417 472 3
473 418 417 3
305 350 304 3
304 350 349 3
262 305 261 3
306 307 352 3
400 399 350 3
260 303 259 3
309 355 354 3
307 309 354 3
274 308 309 3
238 237 279 3
353 404 405 3
317 353 308 3
366 404 353 3
401 455 400 3
351 401 400 3
352 402 401 3
350 305 351 3
354 355 406 3
307 354 352 3
307 274 309 3
523 472 471 3
185 222 221 3
417 471 472 3
521 469 468 3
523 522 575 3
275 276 274 3
415 470 414 3
365 415 364 3
413 469 415 3
365 367 415 3
318 365 364 3
318 319 365 3
521 571 573 3
419 468 413 3
475 527 520 3
366 353 363 3
482 531 478 3
537 482 484 3
537 536 482 3
571 628 573 3
575 522 521 3
482 429 484 3
532 480 531 3
530 532 533 3
530 479 532 3
373 325 372 3
420 368 369 3
327 325 373 3
283 327 282 3
378 372 377 3
478 423 429 3
373 372 423 3
589 536 537 3
684 626 683 3
583 533 584 3
638 583 584 3
639 638 584 3
695 637 638 3
582 530 583 3
583 530 533 3
637 582 583 3
683 637 695 3
581 582 637 3
581 528 582 3
529 479 530 3
469 470 415 3
327 283 325 3
425 480 479 3
424 373 423 3
420 374 425 3
476 420 425 3
371 368 420 3
369 326 373 3
420 369 374 3
368 326 369 3
322 323 371 3
320 282 326 3
426 480 425 3
278 239 282 3
588 589 643 3
531 536 585 3
531 482 536 3
571 572 628 3
582 529 530 3
626 581 637 3
628 572 627 3
571 527 572 3
527 528 581 3
572 527 581 3
520 468 475 3
571 520 527 3
571 521 520 3
640 639 588 3
698 753 697 3
640 698 697 3
700 755 754 3
638 637 583 3
750 695 696 3
626 627 572 3
581 626 572 3
637 683 626 3
639 696 638 3
585 639 584 3
697 696 639 3
640 697 639 3
643 640 588 3
643 698 640 3
753 805 752 3
683 741 684 3
627 626 684 3
695 750 740 3
638 696 695 3
585 584 533 3
698 643 700 3
585 588 639 3
585 536 588 3
532 585 533 3
536 589 588 3
806 859 804 3
750 806 751 3
805 859 806 3
696 752 750 3
753 808 807 3
809 754 755 3
807 805 753 3
860 807 808 3
860 859 807 3
911 913 860 3
968 1011 967 3
969 968 914 3
1012 1011 968 3
912 903 858 3
913 912 858 3
966 965 912 3
751 795 740 3
858 804 859 3
850 795 804 3
740 795 741 3
752 805 806 3
697 752 696 3
697 753 752 3
806 804 751 3
809 841 862 3
754 809 808 3
753 754 808 3
698 700 754 3
786 841 809 3
841 786 826 3
875 876 826 3
862 808 809 3
911 861 915 3
911 860 861 3
967 911 914 3
967 912 913 3
859 805 807 3
809 755 786 3
860 808 861 3
753 698 754 3
740 741 683 3
695 740 683 3
751 804 795 3
750 751 740 3
750 752 806 3
895 862 841 3
826 876 841 3
1068 1021 1024 3
1042 1070 1024 3
1028 1020 1068 3
1068 1019 1021 3
1115 1074 1075 3
1115 1091 1074 3
1154 1115 1116 3
1154 1134 1115 3
1109 1062 1091 3
996 969 948 3
975 978 1019 3
982 1028 1027 3
915 948 969 3
976 975 1019 3
1020 976 1019 3
1068 1020 1019 3
1028 1074 1027 3
949 924 976 3
894 949 948 3
895 876 924 3
978 1021 1019 3
927 978 975 3
874 927 875 3
874 926 927 3
1020 982 976 3
977 1021 978 3
1124 1090 1082 3
858 850 804 3
862 861 808 3
924 927 975 3
841 876 895 3
875 927 876 3
915 861 862 3
1010 965 966 3
967 914 968 3
1052 1004 1009 3
858 903 850 3
913 858 859 3
860 913 859 3
911 967 913 3
967 966 912 3
923 926 874 3
895 894 862 3
1082 1034 1033 3
1104 1102 1065 3
1056 1104 1065 3
1101 1103 1146 3
1053 1101 1055 3
1054 1103 1101 3
1009 1058 1057 3
1101 1146 1104 3
1106 1143 1100 3
1052 1009 1057 3
1147 1148 1106 3
1105 1147 1106 3
1186 1187 1147 3
1146 1144 1184 3
1104 1146 1102 3
1144 1183 1184 3
1103 1144 1146 3
1103 1143 1144 3
1143 1148 1183 3
1100 1143 1103 3
1106 1148 1143 3
1256 1223 1243 3
1316 1290 1315 3
1255 1223 1256 3
1185 1222 1221 3
1147 1187 1148 3
1186 1222 1187 3
1188 1208 1223 3
1186 1188 1222 3
1186 1149 1188 3
1061 1012 1013 3
1034 986 1033 3
1042 1024 995 3
1070 1090 1075 3
1075 1028 1068 3
1070 1075 1068 3
1024 1070 1068 3
1042 1082 1090 3
1116 1115 1075 3
1133 1124 1160 3
1075 1090 1116 3
1070 1042 1090 3
1115 1134 1091 3
947 925 893 3
1206 1170 1207 3
1208 1206 1241 3
1172 1170 1206 3
924 949 895 3
927 924 876 3
975 976 924 3
982 1020 1028 3
996 982 1027 3
996 949 982 3
1043 1013 996 3
1074 1043 1027 3
1062 1013 1043 3
1108 1062 1109 3
1061 1060 1012 3
1108 1061 1062 3
1108 1060 1061 3
1012 968 969 3
915 862 894 3
1013 1062 1061 3
914 911 915 3
1206 1207 1241 3
1154 1170 1134 3
1109 1091 1134 3
1160 1194 1171 3
1154 1116 1133 3
1123 1081 1122 3
1160 1124 1159 3
1124 1081 1123 3
1171 1207 1170 3
1215 1214 1249 3
1195 1193 1227 3
1179 1214 1215 3
1188 1172 1208 3
1108 1150 1149 3
1134 1172 1150 3
1193 1215 1227 3
1158 1193 1195 3
1158 1179 1193 3
995 946 987 3
995 947 946 3
1042 995 1034 3
1024 1021 995 3
977 925 947 3
1021 977 995 3
893 873 840 3
978 926 977 3
923 873 925 3
1158 1141 1179 3
1159 1158 1195 3
1160 1159 1195 3
1124 1082 1081 3
1159 1124 1123 3
1124 1133 1090 3
1122 1098 1141 3
1159 1123 1158 3
1081 1080 1122 3
1150 1172 1188 3
1222 1188 1223 3
1109 1134 1150 3
1134 1170 1172 3
1241 1242 1274 3
1032 986 985 3
1098 1080 1050 3
1033 986 1032 3
1081 1082 1033 3
1141 1158 1122 3
1195 1227 1228 3
1123 1122 1158 3
1193 1179 1215 3
1074 1028 1075 3
1062 1043 1091 3
976 982 949 3
1091 1043 1074 3
996 948 949 3
1043 996 1027 3
1013 969 996 3
926 925 977 3
927 926 978 3
923 925 926 3
1034 1082 1042 3
1032 1080 1033 3
1171 1170 1154 3
1133 1160 1171 3
1154 1133 1171 3
1116 1090 1133 3
1194 1207 1171 3
1080 1032 1050 3
1122 1080 1098 3
1081 1033 1080 3
934 881 933 3
987 934 933 3
946 922 934 3
995 977 947 3
893 840 871 3
871 840 821 3
870 871 821 3
893 925 873 3
922 893 871 3
946 947 893 3
1032 985 1002 3
922 871 870 3
934 922 881 3
946 893 922 3
880 932 933 3
933 932 985 3
830 880 881 3
867 901 880 3
830 867 880 3
830 816 867 3
901 955 932 3
814 785 761 3
987 933 986 3
995 987 1034 3
946 934 987 3
820 830 870 3
821 820 870 3
814 767 820 3
987 986 1034 3
880 933 881 3
985 986 933 3
955 985 932 3
955 1002 985 3
840 785 821 3
1032 1002 1050 3
707 650 649 3
702 712 654 3
708 650 707 3
955 901 928 3
901 867 848 3
762 707 712 3
814 762 767 3
708 707 762 3
716 773 760 3
901 877 928 3
814 821 785 3
708 762 761 3
767 775 820 3
761 762 814 3
827 773 829 3
901 848 877 3
848 793 827 3
775 816 830 3
820 775 830 3
767 738 775 3
793 773 827 3
775 793 816 3
760 773 793 3
773 716 774 3
877 827 878 3
929 877 878 3
848 867 816 3
793 848 816 3
827 877 848 3
870 881 922 3
814 820 821 3
830 881 870 3
738 793 775 3
901 932 880 3
649 650 595 3
541 568 594 3
654 707 649 3
829 773 774 3
879 829 828 3
878 827 829 3
929 878 930 3
929 928 877 3
569 567 623 3
516 518 568 3
517 567 569 3
624 654 599 3
705 738 681 3
738 767 712 3
793 738 760 3
712 707 654 3
738 712 702 3
767 762 712 3
516 490 464 3
408 409 464 3
388 389 440 3
358 409 408 3
338 358 389 3
267 312 294 3
292 267 294 3
250 228 267 3
268 269 266 3
357 409 358 3
311 357 358 3
226 249 265 3
435 384 395 3
448 435 395 3
486 446 435 3
409 410 463 3
432 384 435 3
356 381 407 3
356 331 381 3
310 356 357 3
331 334 381 3
288 331 310 3
266 265 310 3
249 291 288 3
291 301 334 3
310 331 356 3
334 384 381 3
291 334 331 3
288 291 331 3
249 257 291 3
301 346 334 3
334 346 384 3
257 301 291 3
226 218 249 3
219 248 257 3
289 332 333 3
383 434 395 3
382 383 333 3
435 448 486 3
383 395 346 3
434 447 395 3
382 433 383 3
347 360 397 3
382 347 396 3
314 360 347 3
433 485 434 3
396 433 382 3
441 485 433 3
653 598 597 3
710 653 652 3
666 609 653 3
667 610 666 3
501 447 493 3
544 545 493 3
553 502 501 3
395 447 448 3
598 544 597 3
554 553 609 3
545 544 598 3
553 545 598 3
501 493 545 3
485 493 447 3
485 492 493 3
359 410 409 3
356 359 357 3
356 407 359 3
647 681 623 3
407 446 462 3
359 407 410 3
381 432 407 3
665 658 610 3
724 665 667 3
724 717 665 3
778 718 776 3
722 780 721 3
662 722 721 3
660 719 720 3
722 779 780 3
778 763 718 3
778 815 763 3
763 815 779 3
498 486 497 3
718 658 665 3
502 554 549 3
497 502 549 3
448 501 502 3
448 447 501 3
702 681 738 3
828 829 774 3
541 542 491 3
490 541 491 3
440 490 491 3
595 594 649 3
542 541 594 3
464 463 516 3
878 829 879 3
233 197 232 3
273 233 232 3
230 195 198 3
182 155 175 3
210 182 175 3
219 218 182 3
132 108 135 3
231 230 271 3
273 316 313 3
230 233 270 3
272 315 273 3
316 360 313 3
362 316 315 3
361 412 411 3
409 357 359 3
265 249 288 3
191 226 227 3
192 191 227 3
158 156 191 3
218 219 257 3
248 247 290 3
257 248 290 3
219 247 248 3
314 347 332 3
313 360 314 3
397 450 449 3
361 411 360 3
412 467 411 3
462 465 410 3
432 435 446 3
407 432 446 3
381 384 432 3
681 702 654 3
661 721 716 3
647 661 705 3
647 605 661 3
705 760 738 3
660 720 663 3
716 721 774 3
606 607 551 3
660 606 604 3
658 659 604 3
720 779 722 3
663 720 722 3
719 779 720 3
663 607 606 3
661 662 721 3
605 607 662 3
661 605 662 3
647 623 605 3
681 647 705 3
623 567 605 3
605 567 607 3
624 623 681 3
569 518 517 3
624 569 623 3
624 568 569 3
654 624 681 3
599 568 624 3
502 497 448 3
603 604 549 3
554 603 549 3
658 604 603 3
609 610 554 3
659 719 660 3
718 659 658 3
718 719 659 3
497 486 448 3
550 498 549 3
498 499 462 3
549 498 497 3
550 499 498 3
716 760 705 3
879 889 930 3
878 879 930 3
828 836 879 3
604 550 549 3
659 660 604 3
763 719 718 3
763 779 719 3
663 722 662 3
607 663 662 3
606 660 663 3
716 705 661 3
567 515 551 3
836 889 879 3
408 464 440 3
440 491 439 3
387 388 439 3
466 518 516 3
462 515 465 3
518 569 568 3
649 599 654 3
465 463 410 3
515 517 465 3
466 463 465 3
517 466 465 3
517 518 466 3
466 516 463 3
594 568 599 3
649 594 599 3
595 542 594 3
541 516 568 3
541 490 516 3
440 464 490 3
409 463 464 3
608 552 570 3
608 664 611 3
158 191 192 3
130 105 132 3
76 103 104 3
76 77 103 3
346 301 333 3
332 289 314 3
333 332 382 3
346 333 383 3
301 290 333 3
500 450 467 3
570 552 519 3
503 450 500 3
388 387 337 3
449 503 492 3
467 450 411 3
467 519 500 3
347 382 332 3
397 449 396 3
411 397 360 3
411 450 397 3
441 433 396 3
449 441 396 3
347 397 396 3
450 503 449 3
449 492 441 3
336 386 348 3
210 247 219 3
361 362 412 3
316 361 360 3
316 362 361 3
337 387 386 3
336 337 386 3
228 269 267 3
339 389 388 3
312 338 294 3
312 358 338 3
388 440 439 3
294 338 339 3
389 408 440 3
339 338 389 3
337 339 388 3
337 294 339 3
358 408 389 3
316 273 315 3
336 348 302 3
293 336 302 3
292 294 336 3
271 313 314 3
233 273 270 3
273 313 270 3
271 314 289 3
231 271 247 3
270 313 271 3
342 302 348 3
164 161 132 3
165 164 135 3
134 165 133 3
163 197 198 3
195 161 164 3
198 197 233 3
164 198 195 3
165 163 198 3
230 231 195 3
272 273 232 3
196 175 162 3
196 210 175 3
270 271 230 3
247 210 231 3
289 247 271 3
290 301 257 3
289 290 247 3
289 333 290 3
182 190 155 3
198 233 230 3
298 258 302 3
330 298 343 3
287 252 246 3
295 287 298 3
295 252 287 3
340 295 330 3
287 258 298 3
297 253 295 3
214 178 209 3
292 336 293 3
342 343 298 3
52 54 55 3
23 36 34 3
20 19 34 3
22 37 39 3
20 9 19 3
21 38 37 3
55 77 76 3
134 133 107 3
198 164 165 3
106 133 108 3
134 163 165 3
106 79 107 3
133 106 107 3
80 58 78 3
106 80 78 3
108 105 80 3
55 76 75 3
74 52 73 3
102 74 73 3
53 52 74 3
54 77 55 3
39 54 36 3
77 105 103 3
58 77 54 3
58 80 77 3
132 105 108 3
135 164 132 3
133 135 108 3
133 165 135 3
162 155 131 3
130 162 131 3
161 196 162 3
156 155 190 3
128 156 158 3
159 128 158 3
159 127 128 3
131 155 156 3
103 131 104 3
130 161 162 3
130 131 103 3
105 130 103 3
132 161 130 3
175 155 162 3
196 231 210 3
195 196 161 3
195 231 196 3
210 219 182 3
159 194 160 3
104 127 101 3
158 194 159 3
190 191 156 3
190 226 191 3
218 226 190 3
182 218 190 3
257 249 218 3
156 128 127 3
100 126 99 3
72 100 99 3
102 126 100 3
74 102 72 3
73 101 102 3
127 159 129 3
131 127 104 3
131 156 127 3
159 160 129 3
192 194 158 3
229 192 227 3
229 194 192 3
311 266 310 3
267 269 312 3
269 229 266 3
312 269 268 3
228 229 269 3
228 193 229 3
311 310 357 3
312 311 358 3
268 266 311 3
227 266 229 3
265 288 310 3
227 265 266 3
227 226 265 3
211 176 193 3
250 211 228 3
250 293 251 3
176 157 193 3
312 268 311 3
341 297 340 3
146 178 177 3
117 146 145 3
116 121 146 3
295 298 330 3
78 79 106 3
108 80 106 3
58 56 78 3
341 296 297 3
56 37 38 3
78 56 57 3
58 39 56 3
105 77 80 3
39 37 56 3
54 39 58 3
36 23 39 3
5 13 6 3
3 4 5 3
18 33 28 3
25 15 28 3
9 20 18 3
10 11 4 3
91 64 90 3
92 91 118 3
120 113 93 3
65 47 45 3
18 8 9 3
46 28 33 3
51 46 33 3
32 35 51 3
20 32 33 3
20 35 32 3
53 71 51 3
64 91 65 3
15 13 8 3
41 25 28 3
47 41 28 3
42 26 41 3
27 43 44 3
14 27 24 3
26 43 27 3
11 22 23 3
4 11 9 3
8 4 9 3
3 10 4 3
10 22 11 3
149 178 146 3
212 183 176 3
211 212 176 3
211 251 212 3
220 209 183 3
117 91 90 3
147 118 145 3
119 92 118 3
193 194 229 3
251 220 212 3
250 251 211 3
293 258 251 3
144 121 126 3
157 144 126 3
157 176 144 3
228 211 193 3
183 149 176 3
99 126 121 3
116 99 121 3
72 102 100 3
75 76 104 3
101 75 104 3
73 55 75 3
129 102 101 3
53 51 35 3
216 181 180 3
255 217 216 3
255 256 217 3
296 255 254 3
296 299 255 3
299 300 256 3
335 299 296 3
300 285 256 3
285 245 244 3
78 57 79 3
23 22 39 3
38 57 56 3
37 22 21 3
244 217 256 3
208 174 207 3
242 208 245 3
206 174 208 3
207 217 244 3
244 208 207 3
243 206 208 3
242 243 208 3
284 242 245 3
284 243 242 3
286 284 245 3
328 324 284 3
283 282 241 3
172 171 140 3
177 145 146 3
213 177 214 3
213 179 177 3
148 147 179 3
119 118 147 3
10 21 22 3
4 8 5 3
344 299 335 3
5 8 13 3
2 5 6 3
1 3 5 3
252 253 214 3
340 297 295 3
296 254 297 3
335 296 341 3
253 213 214 3
295 253 252 3
297 254 253 3
215 216 179 3
253 215 213 3
254 216 215 3
177 147 145 3
216 217 181 3
213 215 179 3
254 255 216 3
253 254 215 3
255 299 256 3
148 120 119 3
180 148 179 3
216 180 179 3
181 148 180 3
181 173 148 3
5 2 1 3
25 26 14 3
7 2 6 3
12 7 6 3
13 14 6 3
17 16 12 3
14 24 12 3
6 14 12 3
13 25 14 3
30 29 17 3
376 375 329 3
26 25 41 3
43 26 42 3
27 14 26 3
44 40 27 3
17 12 24 3
139 111 112 3
204 170 171 3
169 138 170 3
97 82 110 3
125 97 124 3
98 82 97 3
109 111 137 3
109 81 83 3
69 50 59 3
95 69 70 3
98 96 70 3
94 67 68 3
67 48 49 3
31 17 24 3
84 111 83 3
85 84 83 3
85 112 84 3
63 87 89 3
43 63 44 3
62 88 63 3
42 62 43 3
61 86 62 3
112 111 84 3
328 286 329 3
148 119 147 3
173 141 148 3
63 85 60 3
88 87 63 3
113 88 86 3
113 114 88 3
66 93 86 3
120 141 113 3
89 112 85 3
114 89 87 3
115 112 89 3
143 115 141 3
174 143 173 3
142 172 140 3
174 142 143 3
174 172 142 3
170 139 171 3
112 115 140 3
170 138 137 3
204 203 169 3
205 204 171 3
205 240 204 3
152 166 186 3
136 152 153 3
136 167 152 3
169 167 138 3
202 201 168 3
30 50 49 3
60 85 83 3
40 60 59 3
50 31 40 3
43 62 63 3
44 63 60 3
40 31 24 3
60 40 44 3
59 50 40 3
62 86 88 3
42 61 62 3
42 41 61 3
139 170 137 3
140 139 112 3
140 171 139 3
82 98 70 3
123 150 122 3
96 123 122 3
95 96 122 3
95 70 96 3
97 110 124 3
69 81 70 3
109 110 82 3
81 109 82 3
83 111 109 3
97 125 98 3
154 153 187 3
65 91 92 3
51 64 46 3
90 116 117 3
71 90 64 3
51 71 64 3
72 99 71 3
71 99 90 3
300 344 345 3
244 256 285 3
299 344 300 3
473 472 3
523 472 3
575 523 3
575 573 3
628 573 3
628 627 3
684 627 3
741 684 3
795 741 3
850 795 3
903 850 3
957 903 3
1004 957 3
1005 1004 3
1053 1005 3
1055 1053 3
1056 1055 3
1056 1018 3
1018 1017 3
1017 1016 3
1016 1015 3
1015 971 3
971 916 3
916 896 3
896 844 3
844 843 3
843 788 3
788 732 3
732 676 3
676 617 3
617 615 3
615 560 3
560 507 3
507 474 3
474 473 3
955 928 2
929 928 2
930 929 2
930 889 2
889 887 2
888 887 2
888 886 2
937 886 2
938 937 2
939 938 2
988 939 2
1031 988 2
1078 1031 2
1118 1078 2
1119 1118 2
1156 1119 2
1166 1156 2
1202 1166 2
1234 1202 2
1261 1234 2
1267 1261 2
1294 1267 2
1297 1294 2
1298 1297 2
1298 1295 2
1295 1281 2
1281 1280 2
1280 1248 2
1248 1214 2
1214 1179 2
1179 1141 2
1141 1098 2
1098 1050 2
1050 1002 2
1002 955 2
344 335 1
341 335 1
341 340 1
340 330 1
343 330 1
343 342 1
348 342 1
386 348 1
387 386 1
439 387 1
491 439 1
542 491 1
595 542 1
650 595 1
708 650 1
761 708 1
785 761 1
840 785 1
873 840 1
923 873 1
923 874 1
875 874 1
875 826 1
826 786 1
786 755 1
755 700 1
700 643 1
643 589 1
589 537 1
537 484 1
484 430 1
430 428 1
428 376 1
376 345 1
345 344 1
67 48 0
48 29 0
29 16 0
16 7 0
7 2 0
2 1 0
1 3 0
3 10 0
10 21 0
21 38 0
38 57 0
57 79 0
79 107 0
107 134 0
134 163 0
163 197 0
197 232 0
232 272 0
272 315 0
315 362 0
362 412 0
412 467 0
467 519 0
519 570 0
570 625 0
625 682 0
682 739 0
739 794 0
794 849 0
849 902 0
902 956 0
956 1003 0
1003 1051 0
1051 1099 0
1099 1142 0
1142 1181 0
1181 1217 0
1217 1252 0
1252 1273 0
1273 1302 0
1302 1319 0
1319 1301 0
1301 1277 0
1277 1244 0
1244 1209 0
1209 1174 0
1174 1137 0
1137 1094 0
1094 1047 0
1047 1000 0
1000 954 0
954 900 0
900 847 0
847 791 0
791 735 0
735 677 0
677 618 0
618 561 0
561 508 0
508 454 0
454 399 0
399 349 0
349 303 0
303 259 0
259 221 0
221 184 0
184 150 0
150 122 0
122 94 0
94 67 0
