386 692 80
0.9 0 1
0.89344428022 0.0623735072453 1
1 0 0
0.89344428022 -0.0623735072453 1
0.874063637293 0.122020992923 1
0.992114701314 0.125333233564 0
0.992114701314 -0.125333233564 0
0.874063637293 -0.122020992923 1
0.842705098312 -0.176335575688 1
0.842705098312 0.176335575688 1
0.913234446396 0.174515154688 0
0.968583161129 0.248689887165 0
0.968583161129 -0.248689887165 0
0.894839075203 -0.206302020764 0
0.800739181908 -0.222943447643 1
0.800739181908 0.222943447643 1
0.870297134826 0.233613294521 0
0.929776485888 0.368124552685 0
0.929776485888 -0.368124552685 0
0.824456684221 -0.304668436356 0
0.75 -0.259807621135 1
0.75 0.259807621135 1
0.82450302646 0.304696357288 0
0.876306680044 0.481753674102 0
0.824214351479 0.390217055871 0
0.876306680044 -0.481753674102 0
0.692705098312 -0.285316954889 1
0.824213613872 -0.390215758471 0
0.71470422355 -0.342525537877 0
0.692705098312 0.285316954889 1
0.740423889496 0.336371650428 0
0.809016994375 0.587785252292 0
0.809016994375 -0.587785252292 0
0.752482331407 0.495682949602 0
0.740907108449 0.41066595907 0
0.752482331407 -0.495682951211 0
0.63135853898 -0.29835656861 1
0.740877126754 -0.410587991471 0
0.649820421776 -0.371400299329 0
0.63135853898 0.29835656861 1
0.664960698378 0.353098848545 0
0.697907040825 -0.561653146358 0
0.56864146102 -0.29835656861 1
0.697906596212 0.561651382686 0
0.728968627421 0.684547105929 0
0.728968627421 -0.684547105929 0
0.671810141925 0.458401769953 0
0.651342677652 -0.497564401442 0
0.59248290797 -0.355785023998 0
0.619860199205 -0.421730499049 0
0.523226737066 -0.344720032819 0
0.619859260805 0.421728237493 0
0.58375519615 -0.570405035312 0
0.56864146102 0.29835656861 1
0.578869763649 0.368568616458 0
0.604121403307 0.541908128074 0
0.6090535489 -0.664731886171 0
0.507294901688 -0.285316954889 1
0.619618671685 0.648288894803 0
0.637423989749 0.770513242776 0
0.637423989749 -0.770513242776 0
0.561189492663 0.48626707664 0
0.561189492663 -0.486267080298 0
0.541115371921 -0.411419178802 0
0.473992613865 -0.36730931311 0
0.541115371921 0.411419175144 0
0.491720814995 0.543945742101 0
0.52405946108 -0.613776525182 0
0.491720220811 -0.543941693015 0
0.507294901688 0.285316954889 1
0.523226737066 0.34472003121 0
0.524059295118 0.613773251465 0
0.529606336942 -0.722453664789 0
0.437240845838 -0.322366582031 0
0.45 -0.259807621135 1
0.529606244741 0.722451833504 0
0.535826794979 0.844327925502 0
0.535826794979 -0.844327925502 0
0.441624313911 0.482859705034 0
0.441624313911 -0.482859706643 0
0.42333413374 -0.390552105433 0
0.444697614894 0.401014926599 0
0.391573778066 -0.546275202381 0
0.432628600609 0.589329728415 0
0.434479989237 -0.673119558894 0
0.45 0.259807621135 1
0.437240845838 0.322366580422 0
0.37247438512 0.439064074471 0
0.434479989237 0.673119555236 0
0.430347651923 -0.783167466193 0
0.34322499283 -0.352025959097 0
0.391093763608 -0.288837587044 0
0.399260818092 -0.222943447643 1
0.430347651923 0.783167464583 0
0.425779291565 0.904827052466 0
0.425779291565 -0.904827052466 0
0.361885206086 0.524500599746 0
0.322821091882 -0.496891758741 0
0.344192477729 -0.420299970809 0
0.393960821344 0.376521551528 0
0.337610332889 -0.286719543068 0
0.350315560261 -0.61784781933 0
0.2530120309 -0.506876419271 0
0.373536386223 0.634713714729 0
0.299688434601 0.579795668196 0
0.29407353084 -0.382172009578 0
0.35388139659 -0.731083410042 0
0.241137220469 -0.587192407857 0
0.357294901688 -0.176335575688 1
0.399260818092 0.222943447643 1
0.391093763608 0.288837585435 0
0.343224027793 0.352028178506 0
0.31181082708 0.424390723892 0
0.337734478375 0.719355605222 0
0.323981661931 -0.830317278667 0
0.284126902171 -0.284601497043 0
0.327120864044 -0.235356285143 0
0.3323958373 0.836428516891 0
0.309016994375 0.951056516295 0
0.309016994375 -0.951056516295 0
0.277872494774 0.502570084891 0
0.223092780377 -0.438836222983 0
0.274767452082 -0.66910867275 0
0.183202969919 -0.516861077753 0
0.274766210443 0.669113113177 0
0.220145788528 0.589991208656 0
0.166320611971 -0.398381411342 0
0.243954585999 -0.344044048346 0
0.247839679334 -0.765613698987 0
0.201560065431 -0.678361202536 0
0.153267780927 -0.611227618042 0
0.357294901688 0.176335575688 1
0.325936362707 -0.122020992923 1
0.273123476629 -0.157572328878 0
0.294826107654 0.298525139722 0
0.327120864044 0.235356283534 0
0.243954585999 0.344044046737 0
0.201185924282 0.40732838767 0
0.247838788058 0.765616891628 0
0.218754712044 -0.869849783865 0
0.205839752132 -0.278826772182 0
0.233903047008 -0.217860739754 0
0.218754232599 0.869851495145 0
0.187381314586 0.982287250729 0
0.187381314586 -0.982287250729 0
0.183202969919 0.516861076144 0
0.11056783964 -0.463205167769 0
0.106925402774 -0.546804691861 0
0.160036544558 0.455156243771 0
0.201562034433 0.678356664641 0
0.140603142456 0.600186751165 0
0.101869121941 -0.381115561021 0
0.160909419005 -0.337490676345 0
0.158798597435 -0.776865284369 0
0.0949973288877 -0.689392167472 0
0.0291701414894 -0.529418550053 0
0.0553117394031 -0.623176887899 0
0.30655571978 -0.0623735072453 1
0.325936362707 0.122020992923 1
0.281231577677 0.168574732453 0
0.241731699316 -0.0718452415761 0
0.228761300006 -0.132099687677 0
0.205839752132 0.278826768524 0
0.248197080892 0.223522344753 0
0.137721465749 0.395719001192 0
0.160909419005 0.337490674736 0
0.158800013232 0.776862020896 0
0.0510135367056 0.53244896165 0
0.112611551222 -0.883260436493 0
0.158809196445 -0.234523727091 0
0.180930274242 -0.18217516285 0
0.112612309319 0.883258685115 0
0.0627905195293 0.998026728428 0
0.0627905195293 -0.998026728428 0
0.0627987954419 0.465590150283 0
0.0146039017612 -0.446229934795 0
0.3 3.85818993296e-16 1
0.30655571978 0.0623735072453 1
0.0553117394031 0.62317688629 0
0.0949973288877 0.689392165863 0
0.0374176319106 -0.363849710699 0
0.101964638011 -0.309748130081 0
0.0459544570613 -0.785320501448 0
-0.0485851197956 -0.512032406196 0
0.000158799719213 -0.704786113434 0
-0.0471411630019 -0.609134759263 0
0.235510295756 -0.0126424024594 0
0.246423716793 0.0836931195295 0
0.227077788792 0.133803913807 0
0.207178333501 0.185348487945 0
0.174006787198 -0.0530219269142 0
0.183383456323 -0.106043848926 0
0.0742570092662 0.384109616764 0
0.158812064919 0.234521793361 0
0.101964638011 0.309748126423 0
0.0459544570613 0.785320499839 0
-0.0471411630019 0.609134757654 0
-0.048580052842 0.512027130693 0
-0.0065547416979 -0.888029003285 0
-0.0371937004264 -0.366464342764 0
0.0603906422485 -0.210276753897 0
0.127957503524 -0.146489583897 0
-0.0065547416979 0.888029001676 0
-0.0627905195293 0.998026728428 0
-0.0627905195293 -0.998026728428 0
-0.0309736511959 0.421173460369 0
-0.110023923786 -0.415490479096 0
0.000158799719213 0.704786111825 0
0.0461016343405 -0.281087141619 0
0.206027674029 0.042358946594 0
-0.117653198743 -0.489576102191 0
-0.0584405596912 -0.791494970634 0
-0.115751212291 -0.58197644115 0
-0.0795925933678 -0.684304730918 0
0.164630118073 -8.04502686691e-10 0
0.126912371094 0.170308532106 0
0.183383456323 0.106043847317 0
0.096905494851 -0.0398141429793 0
0.102408147047 -0.0922024437748 0
0.0316628962119 0.32011307893 0
0.075164114847 0.255744823806 0
-0.0584405596912 0.791494969025 0
-0.0795959085036 0.684308583308 0
-0.115746815331 0.581971858179 0
-0.117653788829 0.489575563768 0
-0.120848977399 -0.8838400505 0
-0.186721275641 -0.467119796137 0
-0.0837469585089 -0.296878879294 0
-0.00976136728168 -0.252426151108 0
-0.0255727130227 -0.180128605332 0
0.0476041182388 -0.154183989594 0
-0.120848977399 0.883840048891 0
-0.110031115459 0.415495317012 0
-0.187381314586 0.982287250729 0
-0.187381314586 -0.982287250729 0
-0.0716711336483 0.334044445558 0
-0.162069480924 -0.34393736162 0
0.138812958858 0.0635805960742 0
-0.18041211728 -0.546428807089 0
-0.151279148135 -0.767654697813 0
-0.186567541851 -0.655721680931 0
-0.155472702771 -0.279979367874 0
0.0931381994794 0.0200652911852 0
0.0623308080829 0.177398402908 0
0.108624448822 0.111322883561 0
0.0222824550441 -0.0544430568053 0
-0.00976136728168 0.252426149499 0
-0.0870786208539 0.270721224516 0
-0.170583874612 0.770309421333 0
-0.186564114025 0.655718110122 0
-0.18041211728 0.54642880548 0
-0.186727522767 0.46712400094 0
-0.227625556595 -0.856422680542 0
-0.267390670411 -0.521422921852 0
-0.244511110843 -0.393470728078 0
-0.102486106011 -0.20739800918 0
-0.0514887874494 -0.114689030665 0
-0.227626828968 0.856424156197 0
-0.162069480924 0.343937360011 0
-0.309016994375 0.951056516295 0
-0.309016994375 -0.951056516295 0
-0.15576027134 0.280114803292 0
-0.268439363845 -0.266236218186 0
-0.26159561217 -0.614474650173 0
-0.261892005393 -0.734161509572 0
0.017130942938 0.0274378828365 0
-0.188680217684 -0.209783083455 0
-0.0255727130227 0.180128603723 0
0.0273980497638 0.10316251073 0
-0.0628046942528 -0.035191524121 0
-0.102486106011 0.207398005522 0
-0.26188954875 0.734158946825 0
-0.26159561217 0.614474648564 0
-0.267395874641 0.52142642183 0
-0.244511110843 0.393470726469 0
-0.341484386699 -0.817045773641 0
-0.31963579135 -0.357296797653 0
-0.352724557605 -0.578865979093 0
-0.331222215696 -0.445569321243 0
-0.138684643841 -0.0859986464957 0
-0.341483071299 0.817044401312 0
-0.235721792407 0.317775033278 0
-0.425779291565 0.904827052466 0
-0.425779291565 -0.904827052466 0
-0.357406730072 -0.297779319772 0
-0.205486757779 0.189004134131 0
-0.274504179484 0.235358266878 0
-0.292551860951 -0.193562783541 0
-0.347947211236 -0.686852261192 0
-0.0562037363241 0.0698292931598 0
-0.221887730548 -0.139586799036 0
-0.0790614258303 0.137770984018 0
-0.149548800895 -8.04502686691e-10 0
-0.138692784159 0.0860002409873 0
-0.347947211236 0.686852259583 0
-0.352728768115 0.578868811126 0
-0.331222215696 0.445569317585 0
-0.319629072975 0.357293630478 0
-0.439191528726 -0.763330818179 0
-0.442644234507 -0.63939599125 0
-0.408274711211 -0.399043901696 0
-0.422947279106 -0.500680444729 0
-0.235145497634 -0.0519083301683 0
-0.316664356009 -0.120889346846 0
-0.220316128731 0.120456230321 0
-0.439191528726 0.76333081657 0
-0.357406730072 0.297779318163 0
-0.535826794979 0.844327925502 0
-0.387420318543 -0.233997200334 0
-0.535826794979 -0.844327925502 0
-0.451392220288 -0.331101581822 0
-0.313286564512 0.152941500479 0
-0.387420318543 0.233997198725 0
-0.409195540388 -0.166955202102 0
-0.235145497634 0.0519083285593 0
-0.442647143959 0.639397948399 0
-0.417219851275 0.518307653493 0
-0.408268896405 0.399041160695 0
-0.537556958792 -0.703287106536 0
-0.515679658219 -0.570811164039 0
-0.501250293852 -0.442833483877 0
-0.322383754162 -0.0299821323658 0
-0.425287779351 -0.0703518527878 0
-0.328103152316 0.0609250841635 0
-0.537558515964 0.703288151919 0
-0.451392220288 0.331101578164 0
-0.637423989749 0.770513242776 0
-0.485654302859 -0.258290950136 0
-0.637423989749 -0.770513242776 0
-0.549975951435 -0.366054134657 0
-0.485654302859 0.258290946478 0
-0.412071453512 0.139592714678 0
-0.512875608553 -0.159354113995 0
-0.527954016279 -0.0803103282527 0
-0.515682844273 0.570812858927 0
-0.50124576986 0.442831349353 0
-0.619611594751 -0.626232672753 0
-0.598604550118 -0.488685330518 0
-0.429713942604 -8.04502686691e-10 0
-0.425287779351 0.0703518511788 0
-0.619613299444 0.62623358086 0
-0.549975951435 0.366054133048 0
-0.588694387943 0.283773268778 0
-0.728968627421 0.684547105929 0
-0.588694387943 -0.283773270387 0
-0.61678981587 -0.197287752536 0
-0.728968627421 -0.684547105929 0
-0.653202470907 -0.402652775372 0
-0.61678981587 0.197287748878 0
-0.512868996722 0.159352815426 0
-0.635643202379 -0.0907560221428 0
-0.53300671357 -8.04502686691e-10 0
-0.598601423482 0.488683855743 0
-0.701474567504 -0.537134987676 0
-0.527954016279 0.0803103266437 0
-0.701472893545 0.537134197236 0
-0.653202470907 0.402652771714 0
-0.696587131169 0.310455674349 0
-0.809016994375 0.587785252292 0
-0.696587131169 -0.310455678007 0
-0.729310830896 -0.201783535691 0
-0.809016994375 -0.587785252292 0
-0.762277453451 -0.441324967989 0
-0.728070757005 0.21354751694 0
-0.635643202379 0.0907560184849 0
-0.748403997206 -0.101693653097 0
-0.641353087445 -8.04502686691e-10 0
-0.762277453451 0.44132496638 0
-0.810592712379 0.338649816695 0
-0.876306680044 0.481753674102 0
-0.845656467737 -0.23072850713 0
-0.810592712379 -0.338649818304 0
-0.876306680044 -0.481753674102 0
-0.846288455973 0.224715535493 0
-0.748403997206 0.101693651488 0
-0.867553433746 -0.113250974731 0
-0.754802018828 -8.04502686691e-10 0
-0.929776485888 0.368124552685 0
-0.968583161129 -0.248689887165 0
-0.929776485888 -0.368124552685 0
-0.968583161129 0.248689887165 0
-0.867553433746 0.113250971073 0
-0.992114701314 -0.125333233564 0
-0.874678580626 -8.04502686691e-10 0
-0.992114701314 0.125333233564 0
-1 5.60868655309e-16 0
1 3 2 0
4 3 1 0
3 4 7 0
4 8 7 0
14 7 8 0
14 9 15 0
7 14 13 0
8 9 14 0
14 15 20 0
14 20 13 0
20 15 21 0
29 20 21 0
19 13 20 0
38 28 29 0
29 21 27 0
37 29 27 0
20 28 19 0
39 38 29 0
36 26 28 0
50 48 38 0
39 37 49 0
42 57 46 0
26 36 33 0
53 69 68 0
48 63 53 0
36 48 42 0
50 63 48 0
50 64 63 0
39 50 38 0
37 39 29 0
49 50 39 0
43 49 37 0
43 51 49 0
69 80 83 0
53 63 69 0
57 53 68 0
42 48 53 0
64 65 80 0
49 51 64 0
36 42 33 0
28 20 29 0
36 28 38 0
26 19 28 0
38 48 36 0
43 58 51 0
74 58 75 0
74 81 65 0
92 74 75 0
92 91 74 0
108 102 98 0
157 155 131 0
123 107 102 0
108 123 102 0
130 129 123 0
123 129 107 0
124 131 108 0
183 199 169 0
155 183 154 0
130 155 154 0
157 185 155 0
157 186 185 0
140 120 115 0
83 85 69 0
61 57 73 0
61 46 57 0
42 46 33 0
92 75 93 0
91 99 81 0
101 91 92 0
117 101 92 0
116 91 101 0
116 128 106 0
74 65 58 0
91 116 106 0
64 80 63 0
99 80 81 0
83 102 85 0
98 83 80 0
98 102 83 0
147 127 152 0
106 128 122 0
99 106 122 0
99 91 106 0
80 99 98 0
81 74 91 0
116 142 141 0
103 98 122 0
108 103 124 0
108 98 103 0
130 123 108 0
115 107 129 0
140 115 129 0
120 96 115 0
90 78 73 0
115 90 107 0
96 78 90 0
73 78 61 0
85 73 68 0
85 90 73 0
117 93 109 0
133 134 109 0
116 101 117 0
141 128 116 0
170 141 142 0
170 153 141 0
176 147 152 0
122 98 99 0
153 127 128 0
124 103 122 0
147 124 122 0
127 147 122 0
128 127 122 0
153 182 152 0
176 156 147 0
148 131 124 0
92 93 117 0
53 57 42 0
63 80 69 0
49 64 50 0
65 81 80 0
51 65 64 0
51 58 65 0
85 107 90 0
69 85 68 0
102 107 85 0
140 145 120 0
96 90 115 0
214 186 213 0
212 214 240 0
185 186 214 0
212 185 214 0
183 155 185 0
131 155 130 0
108 131 130 0
148 157 131 0
156 184 186 0
148 156 157 0
148 147 156 0
68 73 57 0
227 211 207 0
241 214 213 0
265 241 264 0
240 214 241 0
186 184 213 0
124 147 148 0
228 229 256 0
237 228 242 0
200 229 228 0
176 200 207 0
181 209 200 0
117 109 134 0
169 145 140 0
278 264 254 0
302 278 279 0
301 302 279 0
277 301 279 0
311 321 301 0
321 320 302 0
300 289 278 0
319 299 300 0
329 319 337 0
329 310 319 0
289 264 278 0
299 276 289 0
320 319 300 0
310 284 299 0
265 264 289 0
276 265 289 0
261 276 284 0
253 265 276 0
235 253 261 0
226 240 253 0
212 199 183 0
185 212 183 0
240 226 212 0
174 199 205 0
240 241 265 0
239 241 213 0
253 240 265 0
226 199 212 0
156 176 184 0
154 183 169 0
129 154 140 0
129 130 154 0
205 199 226 0
169 140 154 0
174 169 199 0
174 145 169 0
133 158 161 0
205 226 235 0
299 289 300 0
261 253 276 0
287 312 286 0
307 287 282 0
307 313 287 0
376 383 379 0
366 376 371 0
382 375 374 0
386 384 385 0
377 375 382 0
366 377 376 0
366 367 377 0
280 291 267 0
314 309 288 0
239 264 241 0
279 254 255 0
279 278 254 0
277 279 255 0
263 277 255 0
285 311 301 0
302 320 300 0
237 242 263 0
227 237 255 0
207 228 237 0
211 213 184 0
211 239 213 0
207 211 184 0
227 239 211 0
237 227 207 0
255 254 227 0
254 264 239 0
176 181 200 0
201 202 231 0
257 230 231 0
141 153 128 0
162 171 142 0
201 182 170 0
253 235 226 0
134 133 161 0
192 162 161 0
142 117 134 0
201 170 202 0
116 117 142 0
320 321 338 0
299 284 276 0
187 177 188 0
191 187 215 0
161 158 187 0
337 347 329 0
310 299 319 0
354 348 363 0
320 338 337 0
319 320 337 0
300 278 302 0
321 330 338 0
354 338 348 0
347 354 362 0
337 338 354 0
277 263 285 0
184 176 207 0
227 254 239 0
186 157 156 0
237 263 255 0
315 293 294 0
332 324 312 0
303 291 280 0
324 322 315 0
304 291 303 0
333 314 323 0
334 333 323 0
367 351 352 0
352 351 334 0
330 345 348 0
334 351 333 0
361 360 346 0
280 267 256 0
347 337 354 0
351 366 361 0
333 351 346 0
367 366 351 0
375 377 367 0
364 375 365 0
374 381 382 0
384 383 376 0
380 371 379 0
355 352 339 0
365 355 350 0
365 352 355 0
374 375 364 0
367 352 365 0
375 367 365 0
351 361 346 0
372 361 371 0
372 363 360 0
380 372 371 0
380 373 372 0
330 321 311 0
301 321 302 0
314 333 328 0
330 348 338 0
328 330 311 0
328 346 345 0
363 348 360 0
361 372 360 0
373 362 363 0
315 322 303 0
334 323 339 0
314 304 323 0
328 311 309 0
346 328 333 0
345 360 348 0
328 345 330 0
346 360 345 0
288 263 267 0
314 288 304 0
309 285 288 0
288 285 263 0
314 328 309 0
311 285 309 0
285 301 277 0
188 210 187 0
132 136 160 0
210 238 215 0
190 194 216 0
160 190 189 0
164 136 135 0
194 164 163 0
160 136 164 0
244 269 245 0
195 221 194 0
292 294 290 0
269 292 290 0
271 294 292 0
287 286 262 0
305 315 294 0
312 305 286 0
312 324 305 0
269 243 245 0
271 292 268 0
219 231 202 0
266 270 246 0
268 292 269 0
294 293 290 0
270 257 246 0
266 290 270 0
243 266 246 0
269 290 266 0
293 280 270 0
324 332 340 0
322 324 339 0
304 322 323 0
304 303 322 0
315 305 324 0
294 286 305 0
270 290 293 0
248 247 236 0
313 326 331 0
312 313 332 0
307 326 313 0
243 218 215 0
257 231 246 0
280 256 257 0
315 303 293 0
267 263 242 0
256 267 242 0
291 288 267 0
293 303 280 0
304 288 291 0
230 201 231 0
256 230 257 0
270 280 257 0
242 228 256 0
209 181 182 0
201 209 182 0
229 200 209 0
256 229 230 0
228 207 200 0
230 229 201 0
188 177 178 0
268 269 244 0
187 158 177 0
191 161 187 0
191 192 161 0
218 191 215 0
218 219 191 0
171 170 142 0
192 171 162 0
202 170 171 0
162 142 134 0
161 162 134 0
192 202 171 0
363 362 354 0
372 373 363 0
379 371 376 0
366 371 361 0
210 215 187 0
217 210 188 0
217 238 210 0
266 243 269 0
219 202 192 0
191 219 192 0
246 218 243 0
246 219 218 0
246 231 219 0
182 153 170 0
229 209 201 0
152 127 153 0
181 152 182 0
181 176 152 0
188 178 159 0
382 381 385 0
382 384 377 0
364 358 369 0
384 386 383 0
377 384 376 0
382 385 384 0
356 341 344 0
368 356 359 0
368 357 356 0
317 336 318 0
342 343 331 0
335 353 336 0
357 343 342 0
369 358 368 0
364 349 358 0
331 332 313 0
349 350 331 0
313 312 287 0
355 340 350 0
340 339 324 0
350 340 332 0
339 323 322 0
355 339 340 0
352 334 339 0
275 259 252 0
374 378 381 0
369 368 370 0
374 369 378 0
374 364 369 0
378 369 370 0
160 159 132 0
164 194 190 0
137 163 135 0
137 166 163 0
188 159 160 0
368 359 370 0
349 343 358 0
365 349 364 0
365 350 349 0
274 297 275 0
273 274 251 0
273 296 274 0
335 336 317 0
325 335 316 0
356 344 359 0
325 341 335 0
325 327 341 0
318 326 307 0
317 318 297 0
336 326 318 0
136 132 110 0
86 111 110 0
135 163 164 0
331 343 349 0
332 331 350 0
326 342 331 0
298 318 307 0
336 342 326 0
316 335 317 0
357 358 343 0
336 353 342 0
368 358 357 0
353 341 356 0
208 197 179 0
151 150 180 0
222 232 249 0
306 325 316 0
283 306 281 0
308 325 306 0
198 225 206 0
197 198 168 0
224 251 225 0
274 296 297 0
249 272 250 0
296 317 297 0
295 296 273 0
295 316 296 0
225 233 206 0
224 225 198 0
252 233 225 0
274 252 251 0
297 298 275 0
250 273 251 0
327 325 308 0
353 335 341 0
357 353 356 0
357 342 353 0
295 306 316 0
327 344 341 0
275 282 259 0
274 275 252 0
298 282 275 0
318 298 297 0
307 282 298 0
272 295 273 0
258 272 249 0
281 295 272 0
87 111 86 0
87 71 82 0
216 244 245 0
217 216 245 0
194 221 216 0
160 164 190 0
166 195 194 0
206 236 220 0
238 245 243 0
215 238 243 0
217 245 238 0
189 217 188 0
160 189 188 0
190 217 189 0
190 216 217 0
281 258 260 0
308 306 283 0
272 273 250 0
306 295 281 0
316 317 296 0
258 234 260 0
283 281 260 0
223 197 208 0
232 203 204 0
258 232 234 0
258 249 232 0
139 118 143 0
150 139 167 0
114 118 139 0
125 114 139 0
126 125 150 0
105 104 125 0
104 89 114 0
272 258 281 0
223 222 249 0
224 223 250 0
208 222 223 0
222 203 232 0
250 223 249 0
208 196 222 0
173 203 172 0
204 234 232 0
165 193 195 0
138 165 166 0
138 146 149 0
197 168 179 0
197 224 198 0
138 166 137 0
113 138 137 0
149 175 165 0
138 149 165 0
146 175 149 0
206 193 175 0
198 206 175 0
233 236 206 0
225 251 252 0
223 224 197 0
250 251 224 0
220 247 221 0
206 220 193 0
236 247 220 0
259 262 236 0
252 259 233 0
282 262 259 0
271 286 294 0
247 271 268 0
262 286 271 0
233 259 236 0
282 287 262 0
195 166 165 0
220 195 193 0
221 244 216 0
220 221 195 0
247 244 221 0
248 271 247 0
262 248 236 0
262 271 248 0
268 244 247 0
70 71 87 0
54 71 70 0
76 60 77 0
89 84 72 0
125 139 150 0
97 79 84 0
105 97 104 0
121 113 97 0
59 60 76 0
180 208 179 0
203 196 172 0
203 222 196 0
172 144 173 0
204 203 173 0
180 179 151 0
196 180 167 0
196 208 180 0
118 94 95 0
143 118 119 0
143 167 139 0
144 143 119 0
150 151 126 0
104 114 125 0
167 180 150 0
172 167 143 0
172 196 167 0
168 151 179 0
111 135 136 0
110 111 136 0
100 82 88 0
111 100 112 0
87 82 100 0
70 87 86 0
100 88 112 0
146 138 121 0
166 194 163 0
172 143 144 0
118 114 94 0
126 105 125 0
146 126 151 0
146 121 126 0
121 97 105 0
55 71 54 0
40 55 54 0
52 66 55 0
66 82 71 0
55 66 71 0
52 47 62 0
72 67 56 0
76 72 59 0
76 89 72 0
89 94 114 0
84 89 104 0
97 84 104 0
67 72 84 0
76 94 89 0
112 137 135 0
88 113 112 0
79 88 82 0
79 97 88 0
121 138 113 0
126 121 105 0
168 146 151 0
175 193 165 0
168 175 146 0
168 198 175 0
112 135 111 0
87 100 111 0
113 137 112 0
94 77 95 0
119 118 95 0
79 82 66 0
84 79 67 0
97 113 88 0
55 41 52 0
66 62 79 0
35 47 41 0
62 67 79 0
52 62 66 0
56 67 62 0
47 56 62 0
44 59 56 0
77 94 76 0
47 52 41 0
34 47 35 0
44 56 47 0
40 41 55 0
34 35 25 0
44 34 32 0
44 47 34 0
45 44 32 0
59 72 56 0
60 59 45 0
40 30 41 0
31 30 22 0
23 31 22 0
35 41 31 0
34 24 32 0
45 59 44 0
41 30 31 0
31 23 25 0
25 24 34 0
31 25 35 0
23 18 25 0
25 18 24 0
16 23 22 0
16 10 17 0
17 18 23 0
17 11 12 0
16 17 23 0
10 11 17 0
17 12 18 0
5 11 10 0
5 6 11 0
11 6 12 0
2 6 5 0
3 6 2 0
2 1 1
5 2 1
10 5 1
16 10 1
22 16 1
30 22 1
40 30 1
54 40 1
70 54 1
86 70 1
110 86 1
132 110 1
159 132 1
178 159 1
177 178 1
158 177 1
133 158 1
109 133 1
93 109 1
75 93 1
58 75 1
43 58 1
37 43 1
27 37 1
21 27 1
15 21 1
9 15 1
8 9 1
4 8 1
1 4 1
3 6 0
6 12 0
12 18 0
18 24 0
24 32 0
32 45 0
45 60 0
60 77 0
77 95 0
95 119 0
119 144 0
144 173 0
173 204 0
204 234 0
234 260 0
260 283 0
283 308 0
308 327 0
327 344 0
344 359 0
359 370 0
370 378 0
378 381 0
381 385 0
385 386 0
386 383 0
383 379 0
379 380 0
380 373 0
373 362 0
362 347 0
347 329 0
329 310 0
310 284 0
284 261 0
261 235 0
235 205 0
205 174 0
174 145 0
145 120 0
120 96 0
96 78 0
78 61 0
61 46 0
46 33 0
33 26 0
26 19 0
19 13 0
13 7 0
7 3 0
