MFEM mesh v1.0

#
# MFEM Geometry Types (see mesh/geom.hpp):
#
# POINT       = 0
# SEGMENT     = 1
# TRIANGLE    = 2
# SQUARE      = 3
# TETRAHEDRON = 4
# CUBE        = 5
#
        
dimension
2

elements
658
1 2 350 346 353
1 2 340 350 349
1 2 340 328 341
1 2 350 356 349
1 2 328 313 322
1 2 341 328 337
1 2 346 341 337
1 2 350 340 341
1 2 327 313 328
1 2 357 359 356
1 2 132 109 107
1 2 231 232 209
1 2 208 231 209
1 2 186 208 209
1 2 185 187 208
1 2 255 280 279
1 2 253 255 277
1 2 278 254 277
1 2 231 210 233
1 2 210 211 234
1 2 233 256 255
1 2 214 234 211
1 2 214 237 234
1 2 297 314 306
1 2 292 288 306
1 2 278 277 298
1 2 254 253 277
1 2 252 254 276
1 2 232 253 254
1 2 298 315 314
1 2 278 298 297
1 2 279 299 298
1 2 277 279 298
1 2 277 255 279
1 2 297 298 314
1 2 329 330 342
1 2 314 329 321
1 2 315 330 329
1 2 288 297 306
1 2 271 272 292
1 2 266 276 288
1 2 336 346 337
1 2 329 342 335
1 2 345 346 336
1 2 323 337 322
1 2 307 308 322
1 2 321 336 323
1 2 289 307 290
1 2 292 291 271
1 2 308 323 322
1 2 292 308 291
1 2 292 306 309
1 2 41 62 40
1 2 68 45 67
1 2 86 89 67
1 2 82 83 63
1 2 64 85 82
1 2 45 64 62
1 2 68 85 64
1 2 85 106 82
1 2 68 64 45
1 2 84 83 107
1 2 63 61 82
1 2 175 156 153
1 2 187 185 163
1 2 164 187 163
1 2 191 188 167
1 2 211 187 188
1 2 211 210 187
1 2 200 223 201
1 2 156 177 178
1 2 221 220 225
1 2 198 220 221
1 2 175 176 199
1 2 204 220 198
1 2 180 204 198
1 2 199 180 198
1 2 157 181 180
1 2 181 205 204
1 2 243 221 225
1 2 222 244 223
1 2 180 176 157
1 2 83 84 63
1 2 85 68 88
1 2 106 85 110
1 2 82 62 64
1 2 21 5 24
1 2 131 132 107
1 2 137 113 136
1 2 160 134 158
1 2 112 113 137
1 2 114 112 137
1 2 158 134 137
1 2 111 88 114
1 2 89 86 112
1 2 161 136 138
1 2 182 162 186
1 2 182 158 162
1 2 184 160 182
1 2 207 184 206
1 2 207 183 184
1 2 230 207 206
1 2 205 181 183
1 2 89 68 67
1 2 134 111 114
1 2 137 134 114
1 2 135 159 133
1 2 160 135 134
1 2 160 159 135
1 2 110 85 88
1 2 132 108 109
1 2 133 159 157
1 2 110 133 131
1 2 110 111 133
1 2 182 160 158
1 2 181 157 159
1 2 183 181 159
1 2 160 183 159
1 2 207 205 183
1 2 229 205 207
1 2 209 230 206
1 2 252 251 229
1 2 228 204 205
1 2 228 220 204
1 2 242 228 251
1 2 242 225 220
1 2 175 153 152
1 2 109 84 107
1 2 42 44 23
1 2 67 44 65
1 2 67 45 44
1 2 24 23 44
1 2 6 22 4
1 2 6 7 25
1 2 122 121 99
1 2 125 104 126
1 2 97 93 77
1 2 98 99 77
1 2 121 142 118
1 2 144 121 122
1 2 144 166 142
1 2 42 65 44
1 2 25 46 43
1 2 66 87 86
1 2 117 92 116
1 2 113 112 87
1 2 230 209 232
1 2 229 230 252
1 2 229 207 230
1 2 114 88 89
1 2 135 111 134
1 2 184 183 160
1 2 157 155 133
1 2 110 88 111
1 2 186 185 208
1 2 182 186 206
1 2 162 161 186
1 2 137 136 162
1 2 90 113 87
1 2 90 91 115
1 2 115 91 117
1 2 113 115 136
1 2 113 90 115
1 2 232 252 230
1 2 61 62 82
1 2 41 40 21
1 2 228 205 229
1 2 61 40 62
1 2 23 4 22
1 2 42 23 22
1 2 24 5 23
1 2 190 191 167
1 2 119 94 118
1 2 260 257 237
1 2 166 189 190
1 2 166 144 168
1 2 41 44 45
1 2 41 24 44
1 2 62 41 45
1 2 21 24 41
1 2 5 4 23
1 2 123 145 122
1 2 123 146 145
1 2 101 123 100
1 2 78 101 100
1 2 148 125 126
1 2 79 102 101
1 2 79 80 102
1 2 101 102 124
1 2 216 194 195
1 2 146 170 169
1 2 147 148 171
1 2 174 196 172
1 2 145 144 122
1 2 169 145 146
1 2 147 170 146
1 2 192 168 169
1 2 169 193 192
1 2 236 213 212
1 2 168 144 145
1 2 169 168 145
1 2 189 166 168
1 2 219 197 202
1 2 241 218 219
1 2 262 241 238
1 2 264 265 286
1 2 241 264 240
1 2 262 265 264
1 2 125 147 124
1 2 149 148 126
1 2 172 171 148
1 2 174 172 149
1 2 217 218 240
1 2 216 217 240
1 2 216 195 217
1 2 172 195 171
1 2 196 218 195
1 2 238 241 219
1 2 265 285 287
1 2 263 240 264
1 2 282 263 286
1 2 258 259 235
1 2 263 258 239
1 2 282 259 258
1 2 262 285 265
1 2 97 118 93
1 2 144 142 121
1 2 166 190 165
1 2 323 336 337
1 2 315 329 314
1 2 315 316 330
1 2 118 94 93
1 2 121 118 97
1 2 142 165 141
1 2 119 143 120
1 2 142 141 118
1 2 165 143 141
1 2 166 165 142
1 2 190 167 165
1 2 96 75 74
1 2 51 47 31
1 2 87 69 90
1 2 46 27 47
1 2 65 86 67
1 2 43 66 65
1 2 66 86 65
1 2 7 8 26
1 2 0 9 8
1 2 51 31 50
1 2 54 73 50
1 2 47 27 31
1 2 70 47 51
1 2 70 69 47
1 2 90 70 91
1 2 69 46 47
1 2 9 27 26
1 2 8 9 26
1 2 0 14 9
1 2 0 1 14
1 2 72 71 93
1 2 94 72 93
1 2 52 71 72
1 2 54 33 53
1 2 49 29 35
1 2 56 49 35
1 2 71 52 48
1 2 71 77 93
1 2 71 56 77
1 2 49 48 30
1 2 49 56 71
1 2 17 35 18
1 2 17 19 35
1 2 35 19 36
1 2 59 79 78
1 2 60 59 39
1 2 60 80 59
1 2 58 37 39
1 2 38 20 37
1 2 55 38 57
1 2 36 20 38
1 2 76 57 78
1 2 56 76 77
1 2 55 57 76
1 2 36 55 56
1 2 36 38 55
1 2 37 58 38
1 2 179 197 173
1 2 226 249 238
1 2 197 174 173
1 2 226 219 202
1 2 226 238 219
1 2 203 226 202
1 2 203 227 226
1 2 261 285 262
1 2 286 265 287
1 2 274 294 293
1 2 213 214 191
1 2 98 100 122
1 2 76 98 77
1 2 76 78 98
1 2 56 55 76
1 2 58 78 57
1 2 148 149 172
1 2 146 123 124
1 2 104 103 126
1 2 36 56 35
1 2 20 36 19
1 2 38 58 57
1 2 59 58 39
1 2 104 102 80
1 2 78 58 59
1 2 124 147 146
1 2 101 124 123
1 2 125 148 147
1 2 102 125 124
1 2 102 104 125
1 2 100 98 78
1 2 220 228 242
1 2 199 198 221
1 2 204 180 181
1 2 155 131 133
1 2 252 276 251
1 2 106 131 107
1 2 82 106 83
1 2 110 131 106
1 2 184 182 206
1 2 89 112 114
1 2 68 89 88
1 2 86 87 112
1 2 137 162 158
1 2 111 135 133
1 2 229 251 228
1 2 176 175 154
1 2 155 176 154
1 2 180 199 176
1 2 130 132 154
1 2 152 130 154
1 2 108 132 130
1 2 107 83 106
1 2 276 278 297
1 2 232 254 252
1 2 232 231 253
1 2 279 280 299
1 2 276 254 278
1 2 253 231 233
1 2 305 304 287
1 2 334 320 319
1 2 333 332 320
1 2 212 213 189
1 2 241 262 264
1 2 257 280 256
1 2 318 301 302
1 2 281 301 300
1 2 257 281 280
1 2 237 257 256
1 2 260 281 257
1 2 236 260 237
1 2 259 282 283
1 2 283 282 302
1 2 260 283 281
1 2 260 259 283
1 2 316 315 299
1 2 211 191 214
1 2 300 280 281
1 2 317 300 301
1 2 317 316 300
1 2 210 231 208
1 2 190 213 191
1 2 339 348 344
1 2 358 354 355
1 2 335 345 336
1 2 321 335 336
1 2 342 345 335
1 2 236 237 213
1 2 299 280 300
1 2 316 299 300
1 2 315 298 299
1 2 237 214 213
1 2 259 260 236
1 2 256 234 237
1 2 255 256 280
1 2 233 210 234
1 2 256 233 234
1 2 255 253 233
1 2 355 354 348
1 2 155 157 176
1 2 132 155 154
1 2 132 131 155
1 2 248 271 270
1 2 251 266 242
1 2 272 271 248
1 2 272 288 292
1 2 266 272 248
1 2 266 288 272
1 2 309 323 308
1 2 292 309 308
1 2 306 321 309
1 2 223 224 201
1 2 223 244 224
1 2 222 223 200
1 2 199 222 200
1 2 221 243 222
1 2 222 243 244
1 2 247 243 225
1 2 248 247 225
1 2 270 267 247
1 2 245 268 269
1 2 247 267 243
1 2 270 289 267
1 2 245 246 224
1 2 267 245 244
1 2 267 268 245
1 2 186 209 206
1 2 161 185 186
1 2 136 161 162
1 2 163 185 161
1 2 117 116 139
1 2 138 117 140
1 2 91 92 117
1 2 164 167 188
1 2 140 164 163
1 2 143 167 164
1 2 187 210 208
1 2 46 26 27
1 2 66 46 69
1 2 87 66 69
1 2 65 42 43
1 2 43 22 25
1 2 66 43 46
1 2 42 22 43
1 2 69 70 90
1 2 14 34 31
1 2 2 15 1
1 2 2 3 15
1 2 16 15 3
1 2 33 16 13
1 2 33 34 16
1 2 73 75 95
1 2 92 73 95
1 2 51 50 73
1 2 34 50 31
1 2 14 15 34
1 2 27 14 31
1 2 1 15 14
1 2 16 3 13
1 2 54 75 73
1 2 32 48 52
1 2 18 29 12
1 2 18 35 29
1 2 13 3 11
1 2 75 54 53
1 2 52 74 53
1 2 96 95 75
1 2 16 34 15
1 2 48 49 71
1 2 28 48 32
1 2 28 30 48
1 2 73 92 70
1 2 28 10 12
1 2 30 28 12
1 2 29 30 12
1 2 29 49 30
1 2 32 13 28
1 2 53 32 52
1 2 13 11 28
1 2 28 11 10
1 2 33 13 32
1 2 53 33 32
1 2 54 34 33
1 2 54 50 34
1 2 99 97 77
1 2 122 99 98
1 2 121 97 99
1 2 74 52 72
1 2 96 74 94
1 2 75 53 74
1 2 94 74 72
1 2 9 14 27
1 2 25 26 46
1 2 6 25 22
1 2 7 26 25
1 2 108 130 129
1 2 105 126 103
1 2 104 81 103
1 2 151 127 150
1 2 174 151 150
1 2 149 128 151
1 2 174 150 173
1 2 149 151 174
1 2 196 219 218
1 2 190 189 213
1 2 123 122 100
1 2 128 149 126
1 2 105 128 126
1 2 105 127 128
1 2 128 127 151
1 2 202 179 203
1 2 227 249 226
1 2 250 249 227
1 2 261 238 249
1 2 250 274 273
1 2 286 287 304
1 2 318 302 304
1 2 240 218 241
1 2 286 263 264
1 2 194 215 193
1 2 218 217 195
1 2 239 215 216
1 2 263 239 240
1 2 263 282 258
1 2 302 282 286
1 2 304 302 286
1 2 301 281 283
1 2 239 235 215
1 2 302 301 283
1 2 236 212 235
1 2 189 168 192
1 2 238 261 262
1 2 80 79 59
1 2 81 80 60
1 2 79 101 78
1 2 81 104 80
1 2 196 174 197
1 2 219 196 197
1 2 171 170 147
1 2 196 195 172
1 2 215 235 212
1 2 194 216 215
1 2 170 194 193
1 2 171 195 194
1 2 216 240 239
1 2 266 248 242
1 2 276 266 251
1 2 276 297 288
1 2 308 307 291
1 2 270 247 248
1 2 291 270 271
1 2 313 307 322
1 2 313 312 296
1 2 267 244 243
1 2 165 167 143
1 2 120 95 96
1 2 119 141 143
1 2 94 119 96
1 2 118 141 119
1 2 143 164 139
1 2 96 119 120
1 2 164 188 187
1 2 211 188 191
1 2 116 95 120
1 2 116 92 95
1 2 143 139 120
1 2 138 136 115
1 2 117 138 115
1 2 140 163 138
1 2 139 140 117
1 2 120 139 116
1 2 164 140 139
1 2 163 161 138
1 2 91 70 92
1 2 73 70 51
1 2 179 202 197
1 2 273 249 250
1 2 293 273 274
1 2 261 249 273
1 2 318 304 320
1 2 317 301 318
1 2 192 212 189
1 2 193 215 192
1 2 170 193 169
1 2 170 171 194
1 2 215 212 192
1 2 239 258 235
1 2 259 236 235
1 2 273 284 261
1 2 303 311 319
1 2 311 324 319
1 2 311 325 324
1 2 310 325 311
1 2 357 354 358
1 2 359 357 358
1 2 332 331 317
1 2 331 330 316
1 2 317 331 316
1 2 332 343 331
1 2 344 343 333
1 2 344 352 343
1 2 334 344 333
1 2 334 339 344
1 2 354 357 352
1 2 345 353 346
1 2 351 345 342
1 2 351 353 345
1 2 329 335 321
1 2 343 342 330
1 2 351 357 353
1 2 343 351 342
1 2 343 352 351
1 2 339 338 347
1 2 351 352 357
1 2 332 333 343
1 2 318 332 317
1 2 318 320 332
1 2 326 324 338
1 2 319 326 334
1 2 319 324 326
1 2 339 326 338
1 2 339 334 326
1 2 355 348 347
1 2 348 352 344
1 2 347 348 339
1 2 354 352 348
1 2 333 320 334
1 2 305 303 319
1 2 304 305 320
1 2 287 303 305
1 2 287 285 303
1 2 303 293 311
1 2 320 305 319
1 2 285 284 303
1 2 284 293 303
1 2 261 284 285
1 2 273 293 284
1 2 294 311 293
1 2 294 310 311
1 2 338 324 325
1 2 152 154 175
1 2 129 152 153
1 2 129 130 152
1 2 156 175 177
1 2 246 245 269
1 2 178 200 201
1 2 177 200 178
1 2 199 177 175
1 2 199 221 222
1 2 248 225 242
1 2 199 200 177
1 2 289 291 307
1 2 268 289 290
1 2 270 291 289
1 2 321 323 309
1 2 314 321 306
1 2 346 350 341
1 2 356 350 353
1 2 340 327 328
1 2 245 224 244
1 2 313 327 312
1 2 328 322 337
1 2 295 296 312
1 2 296 275 290
1 2 343 330 331
1 2 289 268 267
1 2 296 290 307
1 2 313 296 307
1 2 295 275 296
1 2 275 269 290
1 2 290 269 268
1 2 356 353 357

boundary
60
2 1 359 356
2 1 356 349
2 1 349 340
2 1 340 327
2 1 327 312
2 1 312 295
2 1 295 275
2 1 275 269
2 1 269 246
2 1 246 224
2 1 224 201
2 1 201 178
2 1 178 156
2 1 156 153
2 1 153 129
2 1 129 108
2 1 108 109
2 1 109 84
2 1 84 63
2 1 63 61
2 1 61 40
2 1 40 21
2 1 21 5
2 1 5 4
2 1 4 6
2 1 6 7
2 1 7 8
2 1 8 0
2 1 0 1
2 1 1 2
2 1 2 3
2 1 3 11
2 1 11 10
2 1 10 12
2 1 12 18
2 1 18 17
2 1 17 19
2 1 19 20
2 1 20 37
2 1 37 39
2 1 39 60
2 1 60 81
2 1 81 103
2 1 103 105
2 1 105 127
2 1 127 150
2 1 150 173
2 1 173 179
2 1 179 203
2 1 203 227
2 1 227 250
2 1 250 274
2 1 274 294
2 1 294 310
2 1 310 325
2 1 325 338
2 1 338 347
2 1 347 355
2 1 355 358
2 1 358 359

vertices
360
2
-0.978147600734 0.207911690818
-0.994521895368 0.104528463268
-1 -1.50945241034e-15
-0.994521895368 -0.104528463268
-0.809016994375 0.587785252292
-0.743144825477 0.669130606359
-0.866025403784 0.5
-0.913545457643 0.406736643076
-0.951056516295 0.309016994375
-0.895941831168 0.256382599991
-0.951056516295 -0.309016994375
-0.978147600734 -0.207911690818
-0.913545457643 -0.406736643076
-0.888484193374 -0.167087615158
-0.877984309921 0.107117744169
-0.911767349217 0.00404459378127
-0.855294067557 -0.0611094735201
-0.809016994375 -0.587785252292
-0.866025403784 -0.5
-0.743144825477 -0.669130606359
-0.669130606359 -0.743144825477
-0.669130606359 0.743144825477
-0.774519053543 0.489621008364
-0.718307802843 0.56124893563
-0.662096552143 0.632876862896
-0.794127559563 0.397237259426
-0.813736061485 0.304853512538
-0.787591390207 0.207280268806
-0.852993689061 -0.299539978802
-0.798842252324 -0.454704333986
-0.825917972742 -0.377122156394
-0.761446718929 0.109707027124
-0.772360643998 -0.225014133123
-0.798820783849 -0.126263538772
-0.823534697409 0.008089188587
-0.73907380145 -0.536968548817
-0.679305350575 -0.619232761598
-0.587785252292 -0.809016994375
-0.584565304298 -0.702699774506
-0.5 -0.866025403784
-0.587785252292 0.809016994375
-0.584565304298 0.702699772457
-0.683012703045 0.479242016728
-0.696085039709 0.400671961439
-0.581048277096 0.596623119243
-0.5 0.662254719774
-0.709157374323 0.322101906149
-0.691727594837 0.189129514889
-0.743571725715 -0.320722948965
-0.714782807431 -0.416431762759
-0.735302045602 0.0121337833927
-0.674297815351 0.0901189077554
-0.656868031767 -0.280585945752
-0.683012703045 -0.183012702021
-0.709157374323 -0.0854394603385
-0.578434015884 -0.573305674897
-0.604578687162 -0.475732433215
-0.5 -0.662254721822
-0.5 -0.764140063957
-0.423684212494 -0.820445121937
-0.406736643076 -0.913545457643
-0.5 0.866025403784
-0.5 0.764140061908
-0.406736643076 0.913545457643
-0.433333335382 0.73017827983
-0.591506352547 0.468863025092
-0.598042521903 0.370144881373
-0.5 0.560369377639
-0.425000001793 0.636783381679
-0.604578689211 0.271426739703
-0.595863797419 0.170978763021
-0.630723360489 -0.378159189483
-0.578434015884 -0.318592322635
-0.617651023825 0.0315382262054
-0.591506354596 -0.218863029702
-0.604578689211 -0.119133738819
-0.5 -0.560369379688
-0.5 -0.458484037554
-0.394736843831 -0.683704267427
-0.34736842294 -0.774864837783
-0.3 -0.866025404042
-0.309016994375 -0.951056516295
-0.400000001024 0.81508273195
-0.300000002049 0.866025401993
-0.309016994375 0.951056516295
-0.350000001537 0.713197389816
-0.5 0.458484035505
-0.5 0.35659869542
-0.34000000082 0.621500580871
-0.42000000041 0.539992307164
-0.5 0.254713353286
-0.5 0.152828011152
-0.5 0.0509426690181
-0.5 -0.356598697469
-0.5 -0.254713355335
-0.5 -0.050942671067
-0.5 -0.152828013201
-0.412280702509 -0.374473319831
-0.421052631849 -0.525513869361
-0.372807019458 -0.458930904753
-0.342105263697 -0.59254369912
-0.294736842806 -0.683704269476
-0.247368421915 -0.774864837783
-0.207911690818 -0.978147600734
-0.200000001024 -0.866025404042
-0.104528463268 -0.994521895368
-0.275000001281 0.789611395904
-0.200000001024 0.866025401993
-0.104528463268 0.994521895368
-0.207911690818 0.978147600734
-0.260000001229 0.703008854578
-0.242255640349 0.601583146398
-0.394736843831 0.420053599887
-0.40350877317 0.319955720399
-0.31473684424 0.501561871545
-0.40350877317 0.235051268279
-0.394736843831 0.00402178736778
-0.394736843831 0.131378465548
-0.394736843831 -0.27616290094
-0.407894738864 -0.171596365861
-0.394736843831 -0.0723922187205
-0.324561405018 -0.392347940144
-0.289473685612 -0.501383128764
-0.217105266002 -0.59254369912
-0.194736843831 -0.683704267427
-0.14736842294 -0.774864835734
-0.1 -0.866025404042
5.60041650678e-16 -1
-0.0522642341929 -0.930273650429
-6.46396393305e-16 1
-0.0522642341929 0.93027364838
-0.180000003688 0.784517128286
-0.100000002049 0.866025401993
-0.132631580748 0.693356557929
-0.224511279468 0.500157438219
-0.148471180954 0.544435427193
-0.307017544291 0.283312747426
-0.289473685612 0.381623164268
-0.298245614952 0.19662083266
-0.310526316436 0.0123334865201
-0.289473685612 0.109928919943
-0.315789475679 -0.190364718521
-0.289473685612 -0.297612446544
-0.289473687661 -0.0938417622762
-0.236842105479 -0.410222560456
-0.169473685203 -0.501383130812
-0.142105263697 -0.59254369912
-0.0947368428062 -0.683704267427
-0.0723684226837 -0.774864835734
-1.02445474326e-09 -0.866025404042
0.104528463268 -0.994521895368
0.0522642300951 -0.930273650429
0.0522642300951 0.93027364838
0.104528463268 0.994521895368
-1.02445474326e-09 0.866025401993
-0.0326315817727 0.774864831637
0.207911690818 0.978147600734
-0.00526316026716 0.683704263329
-0.206766918587 0.398731730039
-0.0724310803902 0.588713418216
-0.123809526883 0.463335718367
-0.184210527394 0.210741784899
-0.184210527394 0.292250058606
-0.184210527394 0.129233511192
-0.215789474655 -0.00697110472896
-0.223684212494 -0.209133071181
-0.184210527394 -0.319061992149
-0.184210529443 -0.089819973884
-0.136842106503 -0.410222562505
-0.0894736856124 -0.501383130812
-0.0421052647215 -0.59254369912
0.00526315616934 -0.683704267427
0.0326315776749 -0.774864835734
0.207911690818 -0.978147600734
0.1 -0.866025404042
0.0999999979511 0.866025401993
0.0723684185859 0.774864831637
0.199999998976 0.866025401993
0.309016994375 0.951056516295
0.309016994375 -0.951056516295
0.0947368407573 0.683704263329
0.0421052606237 0.592543695022
-0.109022558116 0.378814293518
-0.00827067895631 0.521300561187
-0.0423558934986 0.446737855623
-0.114035088582 0.176065017354
-0.0789473691759 0.270800513002
-0.0789473691759 0.0670298287338
-0.121052632873 -0.026275695978
-0.0864661669233 -0.33897942867
-0.131578949309 -0.227901423842
-0.0789473691759 -0.136740853485
-0.0390977460324 -0.430139996978
0.00827067485849 -0.521300567334
0.07045112473 -0.607328567754
0.13263157665 -0.693356566125
0.17999999959 -0.784517132383
0.199999998976 -0.866025404042
0.194736839733 0.683704263329
0.180701751151 0.774864833685
0.299999997951 0.866025401993
0.406736643076 0.913545457643
0.299999997951 -0.866025404042
0.406736643076 -0.913545457643
0.142105261648 0.592543695022
0.0894736815146 0.501383126715
-0.0112781976455 0.358896859045
0.0390977419346 0.43013999288
-0.017543861752 0.173383824409
0.0263157890423 0.266331857412
0.0263157890423 0.0455802831292
-0.0263157910912 -0.0455802851781
0.0112781935476 -0.358896863143
-0.0263157931402 -0.26633185946
0.0175438556052 -0.156402938493
0.0744360880688 -0.480444290284
0.145989971837 -0.590117859738
0.201228068304 -0.644618430682
0.25999999918 -0.703008858676
0.274999997183 -0.789611400002
0.242105260624 0.592543695022
0.294736840757 0.683704265378
0.334210523809 0.752074690584
0.373684208909 0.820445117839
0.5 0.866025403784
0.342105261648 0.592543697071
0.399999996927 -0.815082736048
0.5 -0.866025403784
0.189473682539 0.501383126715
0.136842102405 0.410222558407
0.0864661628254 0.338979424573
0.078947367127 0.136740851437
0.131578947261 0.227901421793
0.121052630824 0.00589862345336
0.0789473650781 -0.0670298307827
0.109022554019 -0.378814297615
0.0789473650781 -0.304762295079
0.114035084484 -0.21002680148
0.399999996927 -0.730178283928
0.159348369073 -0.486879151302
0.269824559958 -0.595880295239
0.339999998771 -0.682631792298
0.289473683564 0.501383126715
0.394736841782 0.683704265378
0.447368419866 0.774864833685
0.543892623898 0.735635856013
0.587785252292 0.809016994375
0.4210526298 0.576456537355
0.394736839733 0.47993358111
0.499999997951 -0.764140063957
0.587785252292 -0.809016994375
0.23684210343 0.410222558407
0.184210525345 0.3190619901
0.184210523296 0.115291303783
0.223684208397 0.209133069133
0.215789472606 0.00697110063114
0.184210523296 -0.0884793763873
0.24561403072 -0.151934282903
0.224411024269 -0.43425115881
0.184210523296 -0.343192730698
0.210526313363 -0.246669776502
0.499999997951 -0.662254721822
0.419999998361 -0.621500587018
0.279649120737 -0.488751731802
0.344912278135 -0.567936304275
0.419999998361 -0.539992311262
0.324561400921 0.392347936046
0.499999997951 0.662254719774
0.586935925565 0.670764112073
0.669130606359 0.743144825477
0.499999997951 0.560369377639
0.499999997951 0.458484035505
0.403508769072 0.393241666344
0.584565300201 -0.702699774506
0.669130606359 -0.743144825477
0.743144825477 0.669130606359
0.289473681515 0.263650662418
0.289473681515 0.0938417602273
0.315789471581 0.190364716472
0.347368418842 0.0311018391802
0.310526314388 -0.0734646958983
0.307017540193 -0.215389189418
0.289473681515 -0.381623166317
0.298245608805 -0.298506178892
0.589652673239 -0.589801073717
0.499999997951 -0.560369379688
0.394736839733 -0.420053601936
0.499999997951 -0.458484037554
0.412280698411 0.306549753627
0.589652673239 0.58980106757
0.679305348526 0.619232759549
0.586935925565 0.466993427805
0.499999997951 0.35659869542
0.679305348526 -0.619232761598
0.743144825477 -0.669130606359
0.809016994375 0.587785252292
0.739073799401 0.536968546768
0.394736839733 0.208239336785
0.407894734766 0.0951823556751
0.405263156169 -0.0316380818669
0.405263156169 -0.113146355574
0.394736839733 -0.212886741304
0.394736839733 -0.335149153914
0.619536897651 -0.49772629421
0.499999997951 -0.356598697469
0.609575488148 -0.409551655231
0.499999997951 0.254713353286
0.673871853178 0.475502822153
0.608669906956 0.367235435794
0.586935925565 0.263222745585
0.809016994375 -0.587785252292
0.739073799401 -0.536968548817
0.866025403784 0.5
0.798842250275 0.454704331937
0.499999997951 0.152828011152
0.499999997951 0.0509426690181
0.499999997951 -0.050942671067
0.499999997951 -0.152828013201
0.499999997951 -0.254713355335
0.699228165484 -0.422002457196
0.599614080693 -0.321377016251
0.601425247175 0.162755636184
0.717339818009 0.377872178217
0.673871853178 0.271732137885
0.798842250275 -0.454704333986
0.866025403784 -0.5
0.762185252516 -0.368284756195
0.913545457643 0.406736643076
0.837176618667 0.343489087041
0.594180585345 0.0728968446822
0.586935925565 -0.016961944771
0.588573612914 -0.100513878838
0.590211300263 -0.184065810856
0.680422604625 -0.215303606461
0.725528256805 -0.281865176355
0.688361174789 0.0948510223952
0.702850496399 0.172683261216
0.760807780792 0.280241532233
0.913545457643 -0.406736643076
0.860845211298 -0.277779199721
0.951056516295 0.309016994375
0.864194143903 0.269375186944
0.673871853178 0.0170187856229
0.695605834569 -0.0827392084363
0.764455573507 -0.189477208713
0.760807780792 0.0509995139679
0.804275745623 0.182610888297
0.951056516295 -0.309016994375
0.886002580622 -0.194609233639
0.978147600734 0.207911690818
0.891211671188 0.195261288896
0.793408752879 -0.0222234710327
0.803382892258 -0.0970892390209
0.847743708405 0.0849802423129
0.911159954044 -0.111439267557
0.978147600734 -0.207911690818
0.994521895368 0.104528463268
0.891211673237 -0.0126504016227
0.994521895368 -0.104528463268
1 0
