MFEM mesh v1.0

#
# MFEM Geometry Types (see mesh/geom.hpp):
#
# POINT       = 0
# SEGMENT     = 1
# TRIANGLE    = 2
# SQUARE      = 3
# TETRAHEDRON = 4
# CUBE        = 5
#
        
dimension
2

elements
1108
1 2 198 238 239
1 2 217 239 257
1 2 256 216 257
1 2 177 198 217
1 2 216 177 217
1 2 257 216 217
1 2 240 233 199
1 2 258 240 216
1 2 258 277 240
1 2 258 216 256
1 2 294 313 277
1 2 258 294 277
1 2 258 256 294
1 2 274 240 277
1 2 274 233 240
1 2 199 177 216
1 2 197 199 233
1 2 159 157 199
1 2 197 159 199
1 2 197 156 159
1 2 175 215 214
1 2 157 177 199
1 2 274 254 233
1 2 199 216 240
1 2 198 177 157
1 2 198 239 217
1 2 159 120 157
1 2 190 149 156
1 2 215 176 190
1 2 254 215 233
1 2 254 214 215
1 2 175 191 150
1 2 215 175 176
1 2 214 191 175
1 2 149 118 156
1 2 190 176 149
1 2 233 190 197
1 2 233 215 190
1 2 134 175 150
1 2 331 298 297
1 2 260 297 296
1 2 297 265 304
1 2 296 297 298
1 2 260 265 297
1 2 261 260 296
1 2 265 264 304
1 2 249 222 265
1 2 209 180 222
1 2 253 219 261
1 2 212 253 252
1 2 219 260 261
1 2 212 219 253
1 2 213 173 209
1 2 219 213 249
1 2 212 173 213
1 2 249 213 209
1 2 213 219 212
1 2 222 249 209
1 2 260 219 249
1 2 265 260 249
1 2 264 265 222
1 2 304 331 297
1 2 209 173 170
1 2 139 140 180
1 2 224 264 222
1 2 224 222 181
1 2 223 224 181
1 2 223 264 224
1 2 128 139 96
1 2 97 128 96
1 2 140 139 128
1 2 141 140 97
1 2 180 209 170
1 2 181 180 140
1 2 181 222 180
1 2 139 180 170
1 2 141 181 140
1 2 98 141 97
1 2 171 182 141
1 2 182 223 181
1 2 128 97 140
1 2 181 141 182
1 2 62 97 96
1 2 130 151 171
1 2 141 130 171
1 2 98 112 130
1 2 63 98 97
1 2 98 82 112
1 2 63 97 62
1 2 63 62 35
1 2 52 53 82
1 2 27 52 35
1 2 27 28 52
1 2 98 130 141
1 2 151 130 112
1 2 82 98 63
1 2 111 112 76
1 2 111 151 112
1 2 82 76 112
1 2 52 82 63
1 2 53 76 82
1 2 19 28 27
1 2 50 76 53
1 2 28 33 50
1 2 52 28 53
1 2 19 33 28
1 2 48 51 77
1 2 76 48 77
1 2 26 51 48
1 2 76 50 48
1 2 111 76 77
1 2 63 35 52
1 2 33 10 30
1 2 50 33 26
1 2 48 50 26
1 2 53 28 50
1 2 19 10 33
1 2 51 49 79
1 2 49 78 79
1 2 33 49 26
1 2 33 58 49
1 2 26 49 51
1 2 30 58 33
1 2 9 30 10
1 2 9 32 30
1 2 114 79 78
1 2 60 32 59
1 2 94 60 93
1 2 58 32 60
1 2 78 92 114
1 2 58 78 49
1 2 32 58 30
1 2 31 32 9
1 2 31 59 32
1 2 92 78 58
1 2 59 93 60
1 2 46 59 31
1 2 46 74 59
1 2 136 114 92
1 2 136 92 94
1 2 74 110 93
1 2 73 74 46
1 2 73 109 74
1 2 60 94 92
1 2 74 93 59
1 2 110 137 93
1 2 179 137 150
1 2 60 92 58
1 2 138 94 137
1 2 138 136 94
1 2 110 150 137
1 2 94 93 137
1 2 73 108 109
1 2 137 179 138
1 2 109 149 134
1 2 134 176 175
1 2 134 149 176
1 2 110 134 150
1 2 109 108 149
1 2 110 109 134
1 2 110 74 109
1 2 150 191 179
1 2 118 149 108
1 2 156 120 159
1 2 190 156 197
1 2 118 120 156
5 2 389 403 381
5 2 387 389 364
5 2 358 387 364
5 2 386 407 387
5 2 413 403 389
5 2 290 292 255
5 2 291 290 255
5 2 274 291 255
5 2 312 326 291
5 2 326 325 290
5 2 346 375 357
5 2 312 346 326
5 2 290 291 326
5 2 277 313 314
5 2 314 348 346
5 2 294 329 313
5 2 376 396 400
5 2 325 327 290
5 2 388 408 386
5 2 358 361 386
5 2 418 396 412
5 2 427 409 421
5 2 385 375 399
5 2 361 385 388
5 2 386 361 388
5 2 358 357 361
5 2 376 347 377
5 2 375 348 378
5 2 375 346 348
5 2 314 347 348
5 2 312 314 346
5 2 313 347 314
5 2 429 412 419
5 2 421 418 434
5 2 427 421 434
5 2 406 399 421
5 2 399 378 400
5 2 400 396 418
5 2 399 400 418
5 2 378 376 400
5 2 375 378 399
5 2 376 377 396
5 2 348 376 378
5 2 348 347 376
5 2 377 372 396
5 2 364 362 335
5 2 389 381 363
5 2 399 406 385
5 2 440 427 441
5 2 408 388 409
5 2 312 277 314
5 2 363 364 389
5 2 255 214 254
5 2 255 292 263
5 2 274 255 254
5 2 274 312 291
5 2 194 236 195
5 2 330 334 301
5 2 302 330 295
5 2 302 335 330
5 2 352 363 351
5 2 334 352 317
5 2 334 363 352
5 2 274 277 312
5 2 352 351 317
5 2 364 363 362
5 2 381 351 363
5 2 317 351 318
5 2 282 280 318
5 2 334 362 363
5 2 281 319 317
5 2 301 295 330
5 2 282 245 244
5 2 259 220 218
5 2 123 131 133
5 2 88 123 121
5 2 90 87 121
5 2 91 116 88
5 2 161 163 123
5 2 202 163 161
5 2 204 207 167
5 2 243 281 280
5 2 218 179 221
5 2 259 218 221
5 2 220 178 218
5 2 280 317 318
5 2 275 281 243
5 2 236 275 237
5 2 301 281 275
5 2 319 334 317
5 2 301 319 281
5 2 301 334 319
5 2 280 281 317
5 2 244 280 282
5 2 244 243 280
5 2 204 244 245
5 2 204 202 244
5 2 263 234 255
5 2 167 207 169
5 2 234 191 214
5 2 234 221 191
5 2 255 234 214
5 2 263 221 234
5 2 302 263 292
5 2 295 259 263
5 2 327 302 292
5 2 290 327 292
5 2 325 335 327
5 2 236 237 195
5 2 259 262 220
5 2 262 275 236
5 2 220 236 194
5 2 179 218 178
5 2 262 301 275
5 2 220 262 236
5 2 259 295 262
5 2 263 259 221
5 2 295 301 262
5 2 245 207 204
5 2 178 136 138
5 2 153 194 154
5 2 179 178 138
5 2 179 191 221
5 2 202 204 163
5 2 203 202 161
5 2 243 244 202
5 2 237 243 202
5 2 237 275 243
5 2 135 167 127
5 2 122 161 123
5 2 88 122 123
5 2 154 194 195
5 2 116 154 122
5 2 116 115 154
5 2 167 169 127
5 2 163 167 131
5 2 163 204 167
5 2 203 195 237
5 2 202 203 237
5 2 161 162 203
5 2 131 123 163
5 2 122 162 161
5 2 87 89 91
5 2 121 87 88
5 2 90 89 87
5 2 91 81 80
5 2 133 131 135
5 2 160 133 174
5 2 121 123 133
5 2 135 131 167
5 2 168 135 127
5 2 174 133 135
5 2 160 121 133
5 2 80 81 51
5 2 115 80 79
5 2 115 116 80
5 2 122 88 116
5 2 89 81 91
5 2 88 87 91
5 2 90 124 89
5 2 208 174 168
5 2 174 135 168
5 2 125 90 121
5 2 160 125 121
5 2 165 126 125
5 2 205 165 201
5 2 205 206 166
5 2 80 116 91
5 2 153 115 114
5 2 153 154 115
5 2 178 153 136
5 2 162 195 203
5 2 154 162 122
5 2 154 195 162
5 2 178 194 153
5 2 178 220 194
5 2 160 165 125
5 2 200 160 174
5 2 208 200 174
5 2 208 248 241
5 2 201 165 160
5 2 89 113 81
5 2 136 153 114
5 2 160 200 201
5 2 278 248 285
5 2 115 79 114
5 2 124 113 89
5 2 51 79 80
5 2 241 248 278
5 2 200 241 201
5 2 200 208 241
5 2 113 152 111
5 2 81 113 77
5 2 124 152 113
5 2 51 81 77
5 2 299 306 305
5 2 225 267 266
5 2 225 235 267
5 2 210 235 225
5 2 124 126 164
5 2 300 278 315
5 2 316 279 300
5 2 279 242 278
5 2 332 316 300
5 2 246 242 279
5 2 166 126 165
5 2 193 166 206
5 2 164 126 166
5 2 201 241 242
5 2 278 285 315
5 2 242 205 201
5 2 300 279 278
5 2 246 205 242
5 2 316 283 279
5 2 350 316 332
5 2 350 320 316
5 2 247 206 246
5 2 242 241 278
5 2 332 300 315
5 2 126 124 90
5 2 125 126 90
5 2 165 205 166
5 2 193 164 166
5 2 247 235 206
5 2 192 152 193
5 2 152 124 164
5 2 111 152 151
5 2 111 77 113
5 2 360 332 349
5 2 192 171 151
5 2 164 193 152
5 2 284 247 283
5 2 267 284 306
5 2 267 247 284
5 2 266 267 299
5 2 235 247 267
5 2 192 235 210
5 2 193 206 235
5 2 350 360 380
5 2 341 350 370
5 2 320 283 316
5 2 206 205 246
5 2 315 349 332
5 2 151 152 192
5 2 380 379 401
5 2 350 332 360
5 2 306 320 341
5 2 283 246 279
5 2 284 283 320
5 2 247 246 283
5 2 349 379 360
5 2 210 225 182
5 2 192 210 171
5 2 192 193 235
5 2 225 266 223
5 2 171 210 182
5 2 267 306 299
5 2 401 422 402
5 2 380 401 402
5 2 393 380 402
5 2 415 393 402
5 2 341 320 350
5 2 360 379 380
5 2 266 264 223
5 2 182 225 223
5 2 338 339 367
5 2 305 338 336
5 2 305 339 338
5 2 266 305 303
5 2 306 341 340
5 2 423 402 422
5 2 303 304 264
5 2 365 337 336
5 2 390 366 365
5 2 392 390 367
5 2 414 404 391
5 2 366 337 365
5 2 331 304 337
5 2 370 350 380
5 2 284 320 306
5 2 448 432 447
5 2 423 415 402
5 2 447 432 437
5 2 432 416 415
5 2 437 432 423
5 2 442 428 432
5 2 448 442 432
5 2 459 448 447
5 2 459 446 448
5 2 438 439 425
5 2 431 438 424
5 2 431 446 438
5 2 393 370 380
5 2 394 393 415
5 2 368 341 370
5 2 369 368 393
5 2 369 339 368
5 2 368 370 393
5 2 422 437 423
5 2 266 303 264
5 2 340 339 305
5 2 306 340 305
5 2 341 368 340
5 2 305 266 299
5 2 336 303 305
5 2 367 365 338
5 2 337 304 336
5 2 336 304 303
5 2 591 597 598
5 2 590 591 598
5 2 580 589 591
5 2 591 589 597
5 2 574 565 579
5 2 568 567 581
5 2 568 552 567
5 2 564 550 548
5 2 579 565 580
5 2 591 579 580
5 2 592 581 582
5 2 549 551 531
5 2 567 552 551
5 2 568 558 553
5 2 553 558 540
5 2 534 553 540
5 2 533 552 553
5 2 580 578 589
5 2 519 533 520
5 2 508 519 520
5 2 549 550 565
5 2 531 517 529
5 2 532 531 551
5 2 532 518 531
5 2 533 532 552
5 2 518 507 506
5 2 530 548 550
5 2 529 530 549
5 2 516 528 530
5 2 566 578 580
5 2 550 566 565
5 2 551 549 565
5 2 567 551 565
5 2 552 532 551
5 2 549 530 550
5 2 564 578 566
5 2 560 557 544
5 2 542 560 544
5 2 573 572 560
5 2 581 573 568
5 2 581 572 573
5 2 580 565 566
5 2 566 550 564
5 2 496 507 508
5 2 548 530 528
5 2 533 534 520
5 2 532 533 519
5 2 552 568 553
5 2 528 516 515
5 2 529 516 530
5 2 531 529 549
5 2 517 516 529
5 2 519 518 532
5 2 505 516 517
5 2 506 505 517
5 2 500 494 506
5 2 507 500 506
5 2 507 495 500
5 2 492 504 493
5 2 504 515 505
5 2 515 516 505
5 2 506 493 505
5 2 518 506 517
5 2 531 518 517
5 2 519 507 518
5 2 500 495 494
5 2 507 519 508
5 2 495 507 496
5 2 486 495 496
5 2 494 493 506
5 2 485 494 495
5 2 485 484 494
5 2 484 492 493
5 2 474 473 485
5 2 460 474 475
5 2 474 486 475
5 2 461 473 474
5 2 446 461 460
5 2 459 473 461
5 2 483 482 492
5 2 473 483 484
5 2 472 482 483
5 2 485 495 486
5 2 474 485 486
5 2 484 493 494
5 2 473 484 485
5 2 460 461 474
5 2 472 483 473
5 2 493 504 505
5 2 453 463 449
5 2 453 460 463
5 2 433 439 449
5 2 446 460 453
5 2 452 466 462
5 2 472 473 459
5 2 482 472 477
5 2 483 492 484
5 2 475 463 460
5 2 466 477 472
5 2 462 472 459
5 2 447 462 459
5 2 466 472 462
5 2 447 452 462
5 2 425 439 433
5 2 405 425 417
5 2 428 414 411
5 2 446 431 442
5 2 424 414 431
5 2 446 453 438
5 2 410 404 424
5 2 452 447 437
5 2 448 446 442
5 2 459 461 446
5 2 439 438 453
5 2 449 439 453
5 2 425 410 424
5 2 383 382 405
5 2 391 404 384
5 2 390 391 366
5 2 390 414 391
5 2 394 369 393
5 2 411 414 392
5 2 394 411 392
5 2 428 431 414
5 2 416 428 411
5 2 416 432 428
5 2 423 432 415
5 2 442 431 428
5 2 392 369 394
5 2 392 367 369
5 2 416 411 394
5 2 414 390 392
5 2 415 416 394
5 2 424 404 414
5 2 405 404 410
5 2 384 366 391
5 2 356 331 337
5 2 339 340 368
5 2 405 417 395
5 2 339 369 367
5 2 425 433 417
5 2 410 425 405
5 2 425 424 438
5 2 383 395 371
5 2 353 382 354
5 2 405 395 383
5 2 383 371 354
5 2 382 404 405
5 2 382 384 404
5 2 354 382 383
5 2 353 355 382
5 2 390 365 367
5 2 356 366 384
5 2 356 337 366
5 2 355 324 356
5 2 321 322 353
5 2 289 324 323
5 2 338 365 336
5 2 356 324 331
5 2 342 321 354
5 2 324 296 298
5 2 322 287 289
5 2 353 322 323
5 2 288 287 322
5 2 287 253 289
5 2 324 289 296
5 2 331 324 298
5 2 355 384 382
5 2 324 355 323
5 2 356 384 355
5 2 286 321 307
5 2 287 288 251
5 2 321 342 307
5 2 322 321 288
5 2 354 371 342
5 2 353 354 321
5 2 353 323 355
5 2 261 296 289
5 2 286 288 321
5 2 269 286 307
5 2 269 250 286
5 2 253 287 252
5 2 253 261 289
5 2 250 251 286
5 2 307 268 269
5 2 183 226 184
5 2 183 227 226
5 2 142 183 184
5 2 142 103 145
5 2 228 269 227
5 2 211 250 228
5 2 287 251 252
5 2 322 289 323
5 2 268 226 227
5 2 211 252 251
5 2 250 211 251
5 2 288 286 251
5 2 269 228 250
5 2 211 185 172
5 2 211 212 252
5 2 268 227 269
5 2 132 129 170
5 2 173 132 170
5 2 144 102 101
5 2 227 183 186
5 2 102 67 66
5 2 145 183 142
5 2 102 145 103
5 2 186 183 145
5 2 185 186 144
5 2 172 185 144
5 2 228 186 185
5 2 228 227 186
5 2 103 67 102
5 2 145 144 186
5 2 172 212 211
5 2 228 185 211
5 2 144 132 172
5 2 100 143 107
5 2 66 95 101
5 2 142 143 100
5 2 102 144 145
5 2 184 143 142
5 2 172 173 212
5 2 172 132 173
5 2 101 129 132
5 2 144 101 132
5 2 102 66 101
5 2 95 139 129
5 2 71 107 75
5 2 18 20 43
5 2 100 107 71
5 2 65 100 71
5 2 99 142 100
5 2 95 96 139
5 2 170 129 139
5 2 12 14 1
5 2 38 37 14
5 2 61 38 34
5 2 62 61 34
5 2 95 66 61
5 2 67 64 38
5 2 43 71 54
5 2 64 65 36
5 2 38 64 37
5 2 67 99 64
5 2 67 103 99
5 2 75 54 71
5 2 61 96 95
5 2 36 43 20
5 2 101 95 129
5 2 38 66 67
5 2 38 61 66
5 2 36 13 37
5 2 43 36 65
5 2 71 43 65
5 2 54 29 43
5 2 20 13 36
5 2 4 8 13
5 2 12 27 35
5 2 14 12 34
5 2 38 14 34
5 2 37 13 14
5 2 3 19 12
5 2 2 17 16
5 2 99 65 64
5 2 142 99 103
5 2 100 65 99
5 2 7 20 18
5 2 2 7 18
5 2 16 5 7
5 2 0 11 9
5 2 8 0 3
5 2 8 11 0
5 2 25 15 29
5 2 5 16 22
5 2 21 5 22
5 2 4 7 5
5 2 8 4 6
5 2 20 7 4
5 2 29 15 18
5 2 15 40 17
5 2 18 15 2
5 2 25 39 15
5 2 5 21 6
5 2 84 72 56
5 2 34 35 62
5 2 96 61 62
5 2 1 13 8
5 2 12 1 3
5 2 14 13 1
5 2 29 54 47
5 2 25 29 24
5 2 18 43 29
5 2 16 7 2
5 2 54 75 47
5 2 24 29 47
5 2 64 36 37
5 2 12 19 27
5 2 35 34 12
5 2 11 6 23
5 2 10 0 9
5 2 8 6 11
5 2 1 8 3
5 2 13 20 4
5 2 17 2 15
5 2 42 17 40
5 2 42 16 17
5 2 3 10 19
5 2 5 6 4
5 2 23 31 11
5 2 40 15 39
5 2 68 40 39
5 2 41 22 16
5 2 3 0 10
5 2 21 23 6
5 2 44 21 22
5 2 41 44 22
5 2 56 72 44
5 2 45 23 21
5 2 44 45 21
5 2 72 73 45
5 2 41 56 44
5 2 84 108 72
5 2 31 9 11
5 2 23 46 31
5 2 104 105 69
5 2 69 105 70
5 2 45 46 23
5 2 56 57 84
5 2 45 44 72
5 2 41 55 56
5 2 188 147 187
5 2 55 70 83
5 2 57 55 83
5 2 41 70 55
5 2 104 146 105
5 2 45 73 46
5 2 86 84 57
5 2 108 73 72
5 2 84 118 108
5 2 188 148 147
5 2 229 188 187
5 2 158 198 157
5 2 189 196 155
5 2 189 232 196
5 2 86 120 118
5 2 84 86 118
5 2 85 83 117
5 2 106 105 147
5 2 155 117 148
5 2 70 105 106
5 2 42 70 41
5 2 16 42 41
5 2 40 69 42
5 2 69 68 104
5 2 42 69 70
5 2 40 68 69
5 2 119 120 86
5 2 147 105 146
5 2 187 147 146
5 2 148 106 147
5 2 189 155 148
5 2 230 189 188
5 2 231 232 189
5 2 83 70 106
5 2 148 117 106
5 2 57 56 55
5 2 158 196 198
5 2 119 158 157
5 2 119 155 158
5 2 119 157 120
5 2 85 117 119
5 2 57 85 86
5 2 57 83 85
5 2 155 196 158
5 2 117 155 119
5 2 86 85 119
5 2 83 106 117
5 2 148 188 189
5 2 271 230 270
5 2 198 196 238
5 2 188 229 230
5 2 308 270 309
5 2 231 271 272
5 2 230 229 270
5 2 231 230 271
5 2 231 189 230
5 2 308 272 271
5 2 333 308 309
5 2 343 344 308
5 2 272 273 232
5 2 232 273 238
5 2 196 232 238
5 2 231 272 232
5 2 270 308 271
5 2 310 273 272
5 2 276 257 239
5 2 311 276 273
5 2 311 328 293
5 2 239 238 273
5 2 373 343 345
5 2 397 373 374
5 2 397 372 373
5 2 239 273 276
5 2 333 345 343
5 2 308 333 343
5 2 309 345 333
5 2 257 276 256
5 2 293 276 311
5 2 329 293 328
5 2 256 276 293
5 2 359 329 328
5 2 373 345 374
5 2 344 343 372
5 2 347 329 359
5 2 310 272 308
5 2 344 310 308
5 2 311 273 310
5 2 344 311 310
5 2 397 374 398
5 2 420 419 398
5 2 397 396 372
5 2 435 420 436
5 2 443 450 435
5 2 451 443 436
5 2 455 450 443
5 2 434 418 429
5 2 450 434 435
5 2 441 427 434
5 2 328 311 344
5 2 372 359 344
5 2 329 294 293
5 2 313 329 347
5 2 294 256 293
5 2 419 420 435
5 2 429 419 435
5 2 434 429 435
5 2 418 412 429
5 2 397 398 419
5 2 346 357 326
5 2 440 426 427
5 2 357 358 325
5 2 426 407 408
5 2 427 426 408
5 2 430 413 426
5 2 357 325 326
5 2 385 357 375
5 2 385 361 357
5 2 387 358 386
5 2 364 335 358
5 2 407 389 387
5 2 408 407 386
5 2 413 389 407
5 2 302 295 263
5 2 335 302 327
5 2 358 335 325
5 2 362 334 335
5 2 335 334 330
5 2 464 450 455
5 2 443 451 455
5 2 359 377 347
5 2 344 359 328
5 2 372 377 359
5 2 373 372 343
5 2 397 412 396
5 2 419 412 397
5 2 409 427 408
5 2 406 409 388
5 2 385 406 388
5 2 399 418 421
5 2 406 421 409
5 2 454 441 450
5 2 464 454 450
5 2 456 444 454
5 2 470 456 464
5 2 444 430 440
5 2 426 413 407
5 2 468 455 465
5 2 469 457 456
5 2 480 469 470
5 2 480 479 469
5 2 440 430 426
5 2 454 440 441
5 2 444 457 445
5 2 454 444 440
5 2 456 457 444
5 2 430 444 445
5 2 454 464 456
5 2 434 450 441
5 2 435 436 443
5 2 465 455 451
5 2 467 464 455
5 2 468 467 455
5 2 468 470 467
5 2 468 465 476
5 2 491 497 503
5 2 481 491 490
5 2 481 489 491
5 2 488 487 476
5 2 488 499 498
5 2 470 464 467
5 2 478 489 481
5 2 476 478 468
5 2 487 489 478
5 2 469 471 457
5 2 471 469 479
5 2 457 458 445
5 2 470 469 456
5 2 471 458 457
5 2 479 480 490
5 2 478 470 468
5 2 478 476 487
5 2 510 512 501
5 2 498 487 488
5 2 510 498 499
5 2 497 487 498
5 2 514 503 509
5 2 481 480 470
5 2 478 481 470
5 2 497 489 487
5 2 497 491 489
5 2 490 480 481
5 2 526 535 546
5 2 509 521 514
5 2 509 512 521
5 2 501 512 509
5 2 498 501 497
5 2 498 510 501
5 2 522 510 511
5 2 522 523 510
5 2 524 522 511
5 2 536 535 523
5 2 503 514 513
5 2 490 491 502
5 2 521 512 523
5 2 497 509 503
5 2 497 501 509
5 2 511 510 499
5 2 523 535 521
5 2 510 523 512
5 2 522 536 523
5 2 538 537 524
5 2 514 525 513
5 2 502 503 513
5 2 526 546 547
5 2 514 526 527
5 2 521 535 526
5 2 503 502 491
5 2 562 569 575
5 2 536 554 535
5 2 536 555 554
5 2 514 527 525
5 2 556 538 543
5 2 522 537 536
5 2 522 524 537
5 2 547 563 561
5 2 545 547 561
5 2 527 526 547
5 2 525 527 545
5 2 514 521 526
5 2 538 556 537
5 2 527 547 545
5 2 559 543 541
5 2 557 559 541
5 2 570 569 555
5 2 583 569 584
5 2 546 563 547
5 2 554 546 535
5 2 554 569 562
5 2 555 569 554
5 2 537 555 536
5 2 556 559 570
5 2 562 563 546
5 2 554 562 546
5 2 575 577 562
5 2 583 575 569
5 2 583 594 586
5 2 593 583 584
5 2 585 593 584
5 2 590 579 591
5 2 592 590 599
5 2 592 582 590
5 2 586 588 577
5 2 583 586 575
5 2 594 588 586
5 2 576 561 563
5 2 556 555 537
5 2 559 556 543
5 2 559 571 570
5 2 592 593 585
5 2 582 579 590
5 2 567 582 581
5 2 574 579 582
5 2 567 574 582
5 2 567 565 574
5 2 601 603 600
5 2 599 601 596
5 2 599 598 601
5 2 577 587 576
5 2 577 588 587
5 2 562 577 563
5 2 575 586 577
5 2 596 595 588
5 2 557 541 539
5 2 563 577 576
5 2 557 539 544
5 2 572 557 560
5 2 585 572 581
5 2 592 585 581
5 2 584 572 585
5 2 571 559 557
5 2 584 571 572
5 2 570 555 556
5 2 584 570 571
5 2 584 569 570
5 2 572 571 557
5 2 588 595 587
5 2 596 600 595
5 2 594 596 588
5 2 593 594 583
5 2 593 599 594
5 2 601 598 602
5 2 594 599 596
5 2 593 592 599
5 2 558 560 542
5 2 558 573 560
5 2 598 599 590
5 2 602 598 597
5 2 602 603 601
5 2 596 601 600
5 2 558 568 573
5 2 540 558 542
5 2 553 534 533

boundary
150
99 1 198 238
99 1 157 198
99 1 120 157
99 1 118 120
99 1 108 118
99 1 73 108
99 1 46 73
99 1 31 46
99 1 9 31
99 1 9 10
99 1 10 19
99 1 19 27
99 1 27 35
99 1 35 62
99 1 62 96
99 1 96 139
99 1 139 170
99 1 170 173
99 1 173 212
99 1 212 252
99 1 294 313
99 1 256 294
99 1 256 257
99 1 239 257
99 1 238 239
99 1 304 331
99 1 264 304
99 1 223 264
99 1 182 223
99 1 171 182
99 1 151 171
99 1 111 151
99 1 77 111
99 1 51 77
99 1 51 79
99 1 79 114
99 1 114 136
99 1 136 138
99 1 138 179
99 1 179 191
99 1 191 214
99 1 214 254
99 1 254 274
99 1 274 277
99 1 277 313
99 1 252 253
99 1 253 261
99 1 261 296
99 1 296 298
99 1 298 331
100 1 430 413
100 1 413 403
100 1 403 381
100 1 381 351
100 1 351 318
100 1 318 282
100 1 282 245
100 1 245 207
100 1 207 169
100 1 169 127
100 1 127 168
100 1 168 208
100 1 208 248
100 1 248 285
100 1 285 315
100 1 315 349
100 1 349 379
100 1 379 401
100 1 401 422
100 1 422 437
100 1 490 479
100 1 479 471
100 1 471 458
100 1 458 445
100 1 445 430
100 1 492 504
100 1 504 515
100 1 515 528
100 1 528 548
100 1 548 564
100 1 564 578
100 1 578 589
100 1 589 597
100 1 597 602
100 1 602 603
100 1 603 600
100 1 600 595
100 1 595 587
100 1 587 576
100 1 576 561
100 1 561 545
100 1 545 525
100 1 525 513
100 1 513 502
100 1 502 490
100 1 437 452
100 1 452 466
100 1 466 477
100 1 477 482
100 1 482 492
2 1 539 544
2 1 544 542
2 1 542 540
2 1 540 534
2 1 534 520
2 1 520 508
2 1 508 496
2 1 496 486
2 1 486 475
2 1 475 463
2 1 463 449
2 1 449 433
2 1 433 417
2 1 417 395
2 1 395 371
2 1 371 342
2 1 342 307
2 1 307 268
2 1 268 226
2 1 226 184
2 1 184 143
2 1 143 107
2 1 107 75
2 1 75 47
2 1 47 24
2 1 24 25
2 1 25 39
2 1 39 68
2 1 68 104
2 1 104 146
2 1 146 187
2 1 187 229
2 1 229 270
2 1 270 309
2 1 309 345
2 1 345 374
2 1 374 398
2 1 398 420
2 1 420 436
2 1 436 451
2 1 451 465
2 1 465 476
2 1 476 488
2 1 488 499
2 1 499 511
2 1 511 524
2 1 524 538
2 1 538 543
2 1 543 541
2 1 541 539

vertices
604
2
-2.30571374931 -4.02251298937e-09
-2.63655177703 0.372591329788
-3.88257525059 -0.50881347603
-2.30571374931 0.272122911134
-3.02222728405 -0.199755050725
-2.99545593326 -0.511478615767
-2.63654088707 -0.372590149466
-3.43241959338 -0.229266807948
-2.6450178103 -4.02251298937e-09
-2 -0.303
-2 -8.77076189454e-16
-2.30169601161 -0.335983069292
-2.30170100071 0.608106007137
-3.0087930034 0.413286794065
-2.61124377801 0.743055403627
-4.39308141907 -0.622704814134
-3.42326973651 -0.615935083418
-3.76913692641 -0.869564734575
-3.90763033219 -0.110329343406
-2 0.303
-3.44156944001 0.157401477767
-2.61124377801 -0.743055421917
-2.96868458248 -0.82320216032
-2.30170100071 -0.608106015182
-5 2.73463179603e-15
-4.96057350657 -0.626666167822
-1.33333333846 0.302999990046
-2 0.606
-1.83333334358 0.45449998708
-4.42495888837 0.0580791474683
-1.83333334358 -0.151500011301
-2 -0.606
-1.83333334358 -0.45450000537
-1.66666667179 0.201999992023
-2.34091758248 0.949106596066
-2 0.909
-3.42326973651 0.615935075373
-2.96868458248 0.823202152275
-2.72627303957 1.2200343105
-4.84291580564 -1.24344943582
-4.29798465762 -1.12126289908
-3.16207881985 -1.22485537226
-3.65569859199 -1.23031598288
-3.88255994523 0.619141127262
-2.72628593745 -0.9944425312
-2.34091758248 -0.949106604111
-2 -0.909
-4.96057350657 0.626666167822
-1.16666667691 0.45449998708
-1.33333333846 0.0504999847443
-1.50000001024 0.45449998708
-1 0.303
-1.83333334358 0.757499991393
-1.66666667179 0.605999994359
-4.39308141907 0.564624804301
-3.0677807951 -1.55259741551
-2.6767037885 -1.37259279256
-2.60841556555 -1.74333296722
-1.66666667179 -0.303000008335
-1.83333334358 -0.757500009683
-1.66666667179 -0.606000002404
-2.34091198895 1.21577129783
-2 1.212
-1.66666667179 1.00999999669
-3.16205692725 1.22485511834
-3.65569859199 1.10378151181
-2.6767037885 1.59818607781
-3.08274475074 1.64810002719
-4.64888242944 -1.84062276342
-4.06214500271 -1.70138045589
-3.5427099625 -1.70464280157
-4.29798465762 1.12126289103
-2.34091758248 -1.21577136734
-2 -1.212
-1.83333334358 -1.06050000375
-4.84291580564 1.24344943582
-1.33333333846 0.706999992382
-1 0.606
-1.33333333846 -0.202000000068
-1 8.77076189454e-16
-0.714285719408 0.0432857123428
-0.714285719408 0.302999990046
-1.50000001024 0.858499989416
-2.97348276011 -1.88033944853
-2.31764422247 -1.55404749035
-2.50752883126 -2.04337366984
-2.28558939955 -1.88884392959
-0.142857168469 0.238071425742
-0.142857147979 -4.02251298937e-09
-0.428571433694 0.302999990046
-0.142857147979 0.476142855507
-0.428571433694 0.0865714184637
-1.33333333846 -0.505000004381
-1.66666667179 -0.909000006717
-1.33333333846 -0.808000008694
-2.28558939955 1.62217915831
-2 1.515
-1.66666667179 1.41399999903
-1.33333333846 1.21199999274
-3.5427099625 1.70464279352
-4.0621363768 1.70137839893
-2.60840475756 1.96892220587
-2.97346442237 2.05947970016
-3.38699200832 2.03552579481
-4.38153340022 -2.40876837051
-3.85400703675 -2.21079240416
-3.38699200832 -2.16206026588
-4.64888242944 1.84062276342
-2 -1.515
-1.83333334358 -1.36350000806
-1.66666667179 -1.21200000079
-1 0.909
-1.16666667691 1.06049999571
-0.714285719408 0.649285710724
-1 -0.303
-0.714285719408 -0.25971429197
-0.428571433694 -0.216428575605
-2.74900229112 -2.21150436954
-2 -1.818
-2.29807051718 -2.24021250341
-2 -2.121
0.142857137735 0.302999990046
-0.142857147979 -0.303000008335
0.142857137735 -0.129857142874
-0.428571433694 0.69257142709
0.142857137735 0.541071419811
-0.142857147979 0.73585713321
1 -8.77076189454e-16
-1.83333334358 1.66649999409
-2.28558471779 1.88884276391
-1.16666667691 1.36349998977
0.428571423449 -0.0865714367532
-2.34710776885 2.16294214953
0.428571423449 0.21642856756
-1.50000001024 -1.56550000411
0.714285709163 -4.02251298937e-09
-1 -0.606
-1.33333333846 -1.11100000276
-1 -0.909
-2 1.818
-1.66666667179 1.81799999112
-1.33333333846 1.61599999508
-3.85400703675 2.21079239612
-4.38153340022 2.40876837051
-2.64318784712 2.37824124942
-3.21329223897 2.36513135214
-4.04508497187 -2.93892626146
-3.50769500808 -2.72399858482
-3.04377085207 -2.53845336182
-1.66666667179 -1.71700000114
-1.33333333846 -1.41400000708
-1 1.212
-0.714285719408 0.952285704793
-0.714285719408 -0.562714286039
-0.428571433694 -0.519428579918
-2.64318784712 -2.58594648345
-1.83333334358 -1.96950000645
-2 -2.424
-2.29806553833 -2.49904909992
-1.83333334358 -2.27250001076
0.428571423449 0.605999994359
0.142857137735 -0.432857147187
-0.142857168469 -0.5410714381
0.428571423449 -0.303000008335
-0.428571433694 0.908999998672
0.142857137735 0.779142849576
-0.142857168469 0.973928562975
0.714285709163 -0.303000008335
1 0.303
1 -0.303
-2 2.121
-1 1.515
-2.3052333517 2.60933523
-2 2.424
0.714285709163 0.346285706411
-1.16666667691 -1.66650001238
-1.33333333846 -1.81800000941
-1.77399417411 -2.64242174845
-0.714285719408 -0.909000006717
-1 -1.212
-1.66666667179 2.07049998618
-1.33333333846 1.91899999939
-1 1.818
-3.50770270173 2.72400165014
-4.04508497187 2.93892626146
-2.6561677923 2.68830911104
-3.04377085207 2.68680815154
-3.64484313711 -3.42273552964
-3.11407425964 -3.10045693854
-2.66958257758 -3.00876460441
-1.50000001024 -1.96950001669
-1 -1.515
-0.714285719408 1.25528570911
-0.428571433694 1.21199999274
-0.428571433694 -0.822428573986
-0.142857147979 -0.779142857621
-2.30344818794 -2.85335075964
-1.66666667179 -2.12100000348
-2 -2.72454545455
-1.66666667179 -2.42400000779
0.714285709163 0.605999994359
0.428571423449 0.822428565941
0.428571423449 -0.692571435135
0.142857137735 -0.670928576952
0.714285709163 -0.649285718769
0.142857137735 1.08214285389
-0.142857147979 1.21199999274
1 -0.606
1 0.606
-1.66666667179 2.32299999148
-0.714285719408 1.55828571342
-2.28193355052 3.07245877455
-2 2.72454545455
-1.7607671714 2.5123837443
-1 -1.818
-1.16666667691 -1.96950000645
-1.52239943857 -2.74096891476
-1.71301195325 -2.83317108932
-0.714285719408 -1.21200000079
-1.71301195325 2.83317108128
-0.428571433694 -1.21200000079
-0.714285719408 -1.5150000051
-1.33333333846 2.42399999975
-1 2.121
-1.16666667691 2.27249999247
-0.714285719408 1.86128570749
-3.64484313711 3.42273552964
-3.11179728584 3.19647241279
-2.66958257758 3.00876459637
-3.18711994874 -3.85256621388
-2.78152185798 -3.56127363619
-2.45938496567 -3.32992124711
-2.20347772604 -3.14613370175
-1.33333333846 -2.2220000015
-0.714285719408 -1.77471429305
-0.428571433694 1.51499999705
-0.142857147979 -1.08214286193
0.142857137735 -0.909000006717
-2 -3
-1.788 -3
-1.30861822219 -2.54795301879
0.714285709163 0.865714282306
0.428571423449 1.21199999274
0.428571423449 -0.909000006717
0.714285709163 -0.952285723082
1 -0.909
0.142857137735 1.38514284796
-0.142857147979 1.6448571359
1 0.909
-1.53691602502 2.59508477643
-2.45938496567 3.32992123907
-2.16150835218 3.29052441471
-2 3
-1.788 3
-1 -2.121
-0.714285719408 -2.12100000348
-1.404 -3
-1.596 -3
-1.28699142745 -2.83317589401
-0.428571433694 -1.42842857237
-1.42337842092 2.83317108128
-1.596 3
-0.142857147979 -1.38514286625
-0.428571433694 -1.81800000941
-1 2.424
-1.22599452615 2.64241080948
-0.714285719408 2.1642857118
-0.428571433694 1.90457142385
-3.18711994874 3.85256621388
-2.78152185798 3.56127362814
-2.67913397489 -4.22163962751
-2.38087321621 -3.68512227573
-2.04987962502 -3.58980124063
-1.8407651897 -3.23591114539
-1 -2.424
0.142857137735 -1.21200000079
-1.58987916176 -3.21101454695
-1 -2.72454545455
0.714285709163 1.21199999274
0.428571423449 1.42842856432
0.714285709163 -1.25528571715
0.428571423449 -1.29857143352
1 -1.212
0.142857137735 1.68814285227
-0.142857168469 1.88292856567
1 1.212
-2.38087321621 3.68512226768
-1.8407651897 3.23591113735
-2.04987962502 3.58980123258
-1.58987909005 3.21101680295
-0.428571433694 -2.42400000779
-0.714285719408 -2.42400000779
-0.428571433694 -2.12100000348
-1.35898112865 -3.21106366956
-1.212 -3
-0.142857147979 -1.68814286032
-1.404 3
-1.21853075802 2.83312563646
-1.212 3
-0.428571433694 2.12099999543
0.714285709163 1.51499999705
0.142857137735 -1.5150000051
-0.142857147979 -1.94785714826
-0.714285719408 2.42399999975
-1 2.72454545455
-0.428571433694 2.42399999975
-0.142857147979 2.12099999543
-2.67913397489 4.22163962751
-1.93442681286 -3.96793330767
-2.12889645783 -4.52413526233
-1.74078739271 -3.69770534711
-1.58218211502 -3.47636828459
-0.714285719408 -2.68161039334
-1 -3
-0.750000007683 -3.00000000402
1 1.515
0.428571423449 1.73142856864
0.714285709163 -1.55828572146
1 -1.515
0.428571423449 -1.5150000051
0.142857137735 1.99114285658
-1.93442844174 3.96793796089
-1.72913206763 3.5299198499
-1.44228923222 3.4763682663
-1.2520428577 3.21101680295
-0.142857147979 -2.42400000779
-0.428571433694 -2.63867532737
-0.142857168469 -2.18592857803
-1.30239472054 -3.47635976113
-1.09343002978 -3.30086336436
0.142857137735 -1.81800000941
-1 3
0.714285709163 1.774714285
-1.72197823806 -4.32936977283
0.428571423449 -1.81800000941
0.142857137735 -2.12100000348
-0.714285719408 2.72454545126
-0.734307787599 2.96340693035
-0.428571433694 2.72454545126
-0.142857147979 2.72454545126
-0.142857147979 2.42399999975
0.142857137735 2.29414285065
-2.12889645783 4.52413526233
-1.3588481749 -4.15556283526
-1.36563016834 -3.80959626299
-1.54508497187 -4.75528258148
-0.461813968571 -2.92587711126
-0.855598609294 -3.21871266937
-0.541373059192 -3.10522974043
1 1.818
0.428571423449 2.12099999543
1 -1.818
0.714285709163 -1.81800000941
-1.36563016834 3.8095962447
-1.56036074558 4.22865422714
-1.13064863778 3.52966432014
-0.908134251282 3.26649053017
-0.142857147979 -2.7245454593
0.142857137735 -2.55280519544
-1.05839883774 -3.52965986156
0.714285709163 2.12099999543
0.198740062955 -2.786050398
0.428571423449 -2.12100000348
0.714285709163 -2.07771428711
0.428571423449 -2.33742857506
-0.5 2.99999999598
-0.635266301348 3.26645012568
-0.250000002561 2.99999999598
0.142857137735 2.59574025336
0.103141318637 2.84806735118
0.428571423449 2.42399999975
-1.54508497187 4.75528258148
-0.969203622517 -3.93298674585
-0.954539145766 -4.37725192094
-0.936906572929 -4.91143625364
-0.250000002561 -3.00000000402
-0.592380296525 -3.366631746
-0.797788418175 -3.58658931861
-0.318569458852 -3.21863350974
1 2.121
0.714285709163 2.38071428338
1 -2.121
-0.969203622517 3.9329867378
-0.954539145766 4.37725190265
-0.797788418175 3.58658931057
-5.12227416039e-09 -3.00000000402
0.395457488387 -2.80780745216
0.552447221291 -2.61882220203
0.249999992317 -3.00000000402
0.714285709163 -2.42400000779
-0.318569458852 3.21863349145
-0.398421707468 3.47324212189
0.0394848096552 3.21863349145
0.428571423449 2.63867531933
0.249999992317 2.99999999598
-0.936906572929 4.91143625364
-0.491534069173 -3.77013065674
-0.505680561071 -4.43395594671
-0.313952597647 -4.99013364214
-0.0705582868034 -3.29931152018
-0.302045678536 -3.47324215043
1 2.424
0.714285709163 2.72454545126
1 -2.424
-0.491534069173 3.7701306487
-0.505680561071 4.43395592842
0.149545055488 -3.21850979658
0.695574297752 -2.76647317883
0.5 -3.00000000402
0.410784439101 -3.17217313078
-0.263106601092 4.11611054912
0.230200722562 3.31588301155
-0.263106601092 -4.11611055716
1 -2.72454545455
0.0324138994631 3.47329370319
0.5 2.99999999598
0.41077934756 3.17216765215
-0.313952597647 4.99013364214
-0.103988563273 -3.76999665805
0.00363834621724 -4.5201267254
0.313952597647 -4.99013364214
0.299048840812 -3.46441090925
1 2.72454545455
0.749999997439 2.99999999598
0.119638012368 3.92507240419
0.00363834621724 4.52012671735
0.749999997439 -3.00000000402
0.635270747482 -3.26645893379
0.438993222955 3.43741204973
0.180081072897 -4.07936230711
1 -3
0.472149867539 3.74912425357
0.771707939237 3.2664589155
0.313952597647 4.99013364214
0.472149867539 -3.7491242821
0.505680550826 -4.43395594671
0.936906572929 -4.91143625364
1 3
0.487732050929 4.0673753682
0.505680550826 4.43395592842
0.908134241037 -3.26649053822
0.797788407931 -3.58658931861
0.797788407931 3.58658931057
0.954539135522 -4.37725192094
1.17585653875 -3.23753036797
1.212 -3
0.969203612273 3.9329867378
1.09343001954 3.30086335631
1.05839924753 3.52966432014
0.936906572929 4.91143625364
0.969203612273 -3.93298674585
1.54508497187 -4.75528258148
1.212 3
0.954539135522 4.37725190265
1.05839924753 -3.52966434867
1.50275597815 -4.22865424542
1.30239632894 -3.47636828459
1.42096096363 -3.21101681099
1.404 -3
1.30239632894 3.4763682663
1.5603606124 4.22865876547
1.57251603536 3.80960338515
1.35898191748 3.21106703197
1.54508497187 4.75528258148
1.36563151038 -3.8096033932
2.12889645783 -4.52413526233
1.404 3
1.70504899901 -3.90105562584
2.08485696147 -4.00339061145
1.62790535775 -3.22328733145
1.78832914521 -3.55007990996
1.596 -3
1.58987915152 3.2110145389
1.78832914521 3.55007990192
2.00449430896 3.96793796089
2.12889645783 4.52413526233
2.67913397489 -4.22163962751
1.596 3
2.38087320596 -3.68512227573
1.788 -3
1.84076459551 -3.23590855352
2.16150834194 -3.29052442276
1.788 3
1.79399158367 3.23473514515
2.02209342879 3.26124366181
2.38087320596 3.68512226768
2.67913397489 4.22163962751
2.78152184773 -3.56127363619
3.18711994874 -3.85256621388
2.45938495543 -3.32992124711
2 -3
2.28193354028 -3.0724587826
2 3
2.30344817769 2.8533507516
2.45938495543 3.32992123907
2.78152184773 3.56127362814
3.18711994874 3.85256621388
2.66958256734 -3.00876460441
3.08285674414 -3.27830132432
3.64484313711 -3.42273552964
2.76447004291 3.22299422687
3.06300081179 -2.90245319737
2 -2.72454545455
2.30523849447 -2.60933836263
2 2.72454545455
2.29807050694 2.49905034171
2.67233835084 2.83223843809
3.11408168693 3.10046144834
3.64484313711 3.42273552964
2.64318783688 -2.58594648345
3.50769499783 -2.72399858482
4.04508497187 -2.93892626146
3.04377084183 -2.53845336182
2 -2.424
2.34710197043 -2.16294146095
2 2.424
2.29807050694 2.24021249537
2.64319955664 2.37824594142
3.04377084183 2.53845335377
3.50769499783 2.72399857678
4.04508497187 2.93892626146
2.74900228088 -2.21150436954
3.75574334735 -2.33315214203
3.38700579748 -2.16206368756
4.38153340022 -2.40876837051
2 -2.121
2.60840474731 -1.96892221392
2.28558470754 -1.88884277195
2 2.121
2.6255961546 2.05693081556
2.2855893893 1.88884392154
2.97348274987 2.05948424874
3.38699199808 2.16206025783
3.85400702651 2.21079239612
4.38153340022 2.40876837051
2.97348274987 -1.88033944853
3.54269460593 -1.70464091657
4.06213636656 -1.76849504289
4.64888242944 -1.84062276342
5 0
4.64888242944 1.84062276342
4.96057350657 -0.626666167822
4.84291580564 1.24344943582
4.84291580564 -1.24344943582
4.96057350657 0.626666167822
2 -1.818
2.67671579512 -1.59818756107
2.2855893893 -1.6221791766
2 1.818
2.60841555531 1.74333295918
2.31764421223 1.55404747206
3.08274474049 1.64810002719
3.54269460593 1.5781064455
4.06213636656 1.70137839893
3.08274474049 -1.46895289122
3.65569858174 -1.23031598288
4.2131992492 -1.16936763049
4.42495050833 0.0580799977658
4.21318998813 1.23648316219
4.39308140883 -0.622704814134
4.39308967618 0.564625716066
2 -1.515
2.7014944071 -1.29631429316
2.31764421223 -1.28738213294
2 1.515
2.72628592721 1.22003445393
2.3176494267 1.28738335424
3.16205691701 1.04570797433
3.65571505498 1.10378344803
3.16205691701 -1.04570798237
3.76913690592 -0.869564734575
3.88257524034 -0.50881347603
3.90764584244 -4.02251298937e-09
3.88255993499 0.619141127262
2.87595360482 0.888504202077
2.72627302932 -0.994441015007
2 -1.212
2.34091197871 -0.94910594846
2 1.212
2.61124376777 0.743055403627
2.34091197871 0.949105940415
3.4226240841 0.458529075737
3.00879299316 0.613041830523
3.00879299316 -0.613041848812
3.4226240841 -0.458529094027
3.44156942977 -4.02251298937e-09
2.61124376777 -0.743055421917
2 -0.909
2.28970614056 -0.67095902375
2 0.909
2.63654087683 0.372590141421
2.28970614056 0.670959015705
3.02222727381 0.19975504268
3.02220885411 -0.199756915233
2.63654087683 -0.372590149466
2 -0.606
2.30169600137 -0.335983069292
2 0.606
2.30169600137 0.335983061247
2.64501780006 -4.02251298937e-09
2 -0.303
2.30571373907 -4.02251298937e-09
2 0.303
2 8.77076189454e-16
