MFEM mesh v1.0

#
# MFEM Geometry Types (see mesh/geom.hpp):
#
# POINT       = 0
# SEGMENT     = 1
# TRIANGLE    = 2
# SQUARE      = 3
# TETRAHEDRON = 4
# CUBE        = 5
#
        
dimension
2

elements
2626
1 2 854 802 799
1 2 628 631 630
1 2 627 628 572
1 2 627 685 628
1 2 629 634 579
1 2 742 743 687
1 2 692 634 686
1 2 523 471 522
1 2 574 575 522
1 2 524 577 525
1 2 575 576 523
1 2 579 577 573
1 2 685 631 628
1 2 688 687 744
1 2 632 688 686
1 2 632 630 688
1 2 688 631 687
1 2 574 630 575
1 2 574 572 628
1 2 685 742 687
1 2 683 684 626
1 2 852 905 853
1 2 795 850 851
1 2 902 956 903
1 2 1003 957 956
1 2 854 906 908
1 2 908 962 963
1 2 853 904 854
1 2 958 959 1005
1 2 904 958 906
1 2 854 904 906
1 2 853 905 904
1 2 905 957 959
1 2 1005 1007 962
1 2 740 741 683
1 2 741 742 684
1 2 795 741 740
1 2 797 742 741
1 2 1004 960 1003
1 2 851 797 795
1 2 956 957 903
1 2 794 795 740
1 2 628 630 574
1 2 632 576 575
1 2 634 629 686
1 2 579 573 629
1 2 523 522 575
1 2 626 685 627
1 2 686 744 692
1 2 684 742 685
1 2 626 684 685
1 2 683 741 684
1 2 744 747 692
1 2 796 798 743
1 2 742 796 743
1 2 797 852 796
1 2 797 851 852
1 2 795 797 741
1 2 849 795 794
1 2 850 902 903
1 2 851 850 903
1 2 849 902 850
1 2 905 903 957
1 2 799 798 852
1 2 795 849 850
1 2 802 748 747
1 2 799 802 747
1 2 856 801 802
1 2 865 855 909
1 2 746 748 801
1 2 746 691 693
1 2 855 800 801
1 2 745 691 746
1 2 700 745 757
1 2 755 700 756
1 2 755 729 700
1 2 689 633 690
1 2 673 689 729
1 2 673 615 633
1 2 693 748 746
1 2 635 693 691
1 2 634 692 693
1 2 919 918 907
1 2 1015 972 973
1 2 971 918 972
1 2 916 917 971
1 2 756 809 755
1 2 916 863 917
1 2 862 895 843
1 2 863 862 810
1 2 916 895 862
1 2 895 916 915
1 2 862 843 809
1 2 1007 963 962
1 2 1017 1006 1055
1 2 1017 1016 973
1 2 1007 1054 1055
1 2 963 1007 1006
1 2 1005 1054 1007
1 2 1005 1004 1052
1 2 1054 1005 1052
1 2 744 798 747
1 2 688 630 631
1 2 629 632 686
1 2 629 576 632
1 2 743 798 744
1 2 687 743 744
1 2 686 688 744
1 2 631 685 687
1 2 742 797 796
1 2 799 747 798
1 2 852 853 799
1 2 796 852 798
1 2 851 903 852
1 2 908 906 962
1 2 909 908 963
1 2 909 855 856
1 2 958 904 905
1 2 856 854 908
1 2 909 856 908
1 2 801 748 802
1 2 799 853 854
1 2 903 905 852
1 2 959 958 905
1 2 960 959 957
1 2 960 1005 959
1 2 958 1005 962
1 2 963 907 909
1 2 1007 1055 1006
1 2 615 672 614
1 2 700 689 745
1 2 730 786 731
1 2 1014 971 972
1 2 971 917 918
1 2 970 971 1014
1 2 970 916 971
1 2 919 973 972
1 2 918 919 972
1 2 907 961 919
1 2 1014 972 1015
1 2 961 963 1006
1 2 961 907 963
1 2 973 961 1006
1 2 973 919 961
1 2 1017 973 1006
1 2 1016 1015 973
1 2 854 856 802
1 2 918 865 907
1 2 756 811 810
1 2 729 689 700
1 2 855 801 856
1 2 864 811 812
1 2 800 757 745
1 2 907 865 909
1 2 918 917 864
1 2 915 916 970
1 2 800 812 757
1 2 801 800 746
1 2 855 812 800
1 2 692 748 693
1 2 692 747 748
1 2 811 863 810
1 2 757 811 756
1 2 700 757 756
1 2 745 746 800
1 2 864 863 811
1 2 918 864 865
1 2 917 863 864
1 2 786 787 731
1 2 809 786 755
1 2 809 842 786
1 2 842 787 786
1 2 842 809 843
1 2 693 635 634
1 2 730 673 729
1 2 635 577 579
1 2 615 578 633
1 2 615 558 578
1 2 672 615 673
1 2 730 672 673
1 2 616 614 672
1 2 614 559 615
1 2 525 506 473
1 2 524 525 473
1 2 472 524 473
1 2 573 577 524
1 2 635 578 577
1 2 635 633 578
1 2 634 635 579
1 2 691 690 635
1 2 689 673 633
1 2 578 558 577
1 2 558 559 506
1 2 577 558 525
1 2 615 559 558
1 2 616 672 675
1 2 730 729 786
1 2 675 730 731
1 2 675 672 730
1 2 558 506 525
1 2 472 523 524
1 2 524 523 573
1 2 690 691 745
1 2 689 690 745
1 2 633 635 690
1 2 632 575 630
1 2 573 576 629
1 2 573 523 576
1 2 812 811 757
1 2 865 812 855
1 2 865 864 812
1 2 810 809 756
1 2 916 862 863
1 2 862 809 810
1 2 755 786 729
1 2 960 957 1003
1 2 1005 960 1004
1 2 958 962 906
1 2 472 471 523
2 2 1068 1085 1070
2 2 1048 1024 1070
2 2 941 929 888
2 2 940 990 991
2 2 886 940 888
2 2 886 887 940
2 2 1022 978 979
2 2 1068 1022 1037
2 2 1021 978 1022
2 2 978 927 928
2 2 929 979 928
2 2 1024 1048 1000
2 2 1021 1024 1000
2 2 1021 1068 1024
2 2 941 888 940
2 2 939 990 940
2 2 1037 1085 1068
2 2 1127 1125 1084
2 2 1203 1202 1166
2 2 1167 1137 1129
2 2 1196 1203 1167
2 2 1202 1175 1166
2 2 1176 1175 1211
2 2 1176 1139 1138
2 2 1094 1085 1129
2 2 1246 1236 1267
2 2 1280 1246 1267
2 2 1279 1247 1246
2 2 1246 1247 1212
2 2 1280 1279 1246
2 2 1139 1177 1140
2 2 1177 1176 1212
2 2 1140 1177 1178
2 2 1139 1176 1177
2 2 1047 1049 1001
2 2 1138 1094 1137
2 2 1176 1138 1175
2 2 1096 1094 1138
2 2 1139 1096 1138
2 2 1129 1086 1125
2 2 1095 1049 1047
2 2 1095 1139 1097
2 2 1049 1095 1097
2 2 1047 1048 1095
2 2 1139 1140 1097
2 2 1048 1096 1095
2 2 1000 1048 1047
2 2 1001 1000 1047
2 2 954 978 1000
2 2 1070 1094 1048
2 2 1177 1213 1178
2 2 1176 1211 1212
2 2 1175 1138 1137
2 2 1095 1096 1139
2 2 1048 1094 1096
2 2 1070 1085 1094
2 2 1211 1246 1212
2 2 1212 1213 1177
2 2 1236 1246 1211
2 2 1247 1213 1212
2 2 954 1000 1001
2 2 1126 1113 1083
2 2 1124 1126 1083
2 2 1154 1162 1126
2 2 1154 1124 1160
2 2 1160 1124 1156
2 2 1036 1082 1083
2 2 1035 1036 1083
2 2 1035 989 1036
2 2 1119 1120 1156
2 2 1082 1119 1124
2 2 1078 1120 1119
2 2 1030 1078 1034
2 2 1030 1077 1078
2 2 1077 1117 1120
2 2 1117 1118 1156
2 2 1267 1294 1280
2 2 1269 1238 1268
2 2 1166 1175 1137
2 2 1167 1203 1166
2 2 1269 1237 1238
2 2 1267 1236 1237
2 2 1236 1211 1202
2 2 1232 1263 1231
2 2 1196 1232 1231
2 2 1198 1162 1195
2 2 1197 1198 1232
2 2 1197 1163 1198
2 2 1269 1294 1267
2 2 1237 1269 1267
2 2 1236 1202 1237
2 2 1231 1261 1238
2 2 1268 1297 1269
2 2 1200 1191 1165
2 2 1191 1156 1155
2 2 1165 1191 1155
2 2 1200 1195 1191
2 2 1156 1118 1155
2 2 1291 1290 1261
2 2 1264 1291 1262
2 2 1234 1264 1262
2 2 1260 1266 1264
2 2 1266 1290 1291
2 2 1290 1293 1296
2 2 1263 1291 1261
2 2 1266 1293 1290
2 2 1260 1264 1233
2 2 1234 1201 1233
2 2 1036 989 1034
2 2 1113 1072 1083
2 2 988 989 1035
2 2 1165 1201 1200
2 2 1234 1200 1201
2 2 1264 1234 1233
2 2 1266 1291 1264
2 2 1263 1230 1262
2 2 1262 1230 1229
2 2 1296 1268 1290
2 2 1129 1161 1167
2 2 1161 1125 1127
2 2 1167 1161 1197
2 2 1196 1167 1197
2 2 1232 1196 1197
2 2 1231 1238 1203
2 2 1166 1137 1167
2 2 1129 1125 1161
2 2 1094 1129 1137
2 2 1085 1086 1129
2 2 1163 1162 1198
2 2 1161 1163 1197
2 2 1127 1126 1163
2 2 1203 1196 1231
2 2 1237 1203 1238
2 2 1237 1202 1203
2 2 1268 1296 1297
2 2 1294 1269 1297
2 2 1261 1290 1268
2 2 1268 1238 1261
2 2 1263 1262 1291
2 2 1030 1034 987
2 2 1078 1077 1120
2 2 935 980 939
2 2 988 935 936
2 2 988 980 935
2 2 988 936 937
2 2 989 937 938
2 2 987 1034 989
2 2 939 940 887
2 2 885 939 887
2 2 990 1025 1038
2 2 935 939 885
2 2 1035 1025 988
2 2 1038 1084 1086
2 2 991 990 1038
2 2 1022 991 1037
2 2 1022 979 991
2 2 1071 1084 1038
2 2 1025 1071 1038
2 2 1025 1035 1072
2 2 936 935 885
2 2 1156 1120 1117
2 2 1082 1034 1078
2 2 1124 1154 1126
2 2 1078 1119 1082
2 2 1119 1156 1124
2 2 1191 1160 1156
2 2 1231 1263 1261
2 2 1211 1175 1202
2 2 1161 1127 1163
2 2 1200 1229 1195
2 2 1229 1234 1262
2 2 1195 1229 1230
2 2 1200 1234 1229
2 2 1025 980 988
2 2 1072 1071 1025
2 2 1083 1072 1035
2 2 1113 1071 1072
2 2 1113 1084 1071
2 2 1126 1162 1163
2 2 1082 1124 1083
2 2 1160 1162 1154
2 2 1038 1086 1037
2 2 1232 1230 1263
2 2 1113 1127 1084
2 2 1198 1230 1232
2 2 1198 1195 1230
2 2 1113 1126 1127
2 2 1160 1195 1162
2 2 1160 1191 1195
2 2 1022 1068 1021
2 2 980 1025 990
2 2 1086 1085 1037
2 2 989 938 987
2 2 1082 1036 1034
2 2 988 937 989
2 2 991 1038 1037
2 2 941 940 991
2 2 979 941 991
2 2 979 929 941
2 2 939 980 990
2 2 978 954 927
2 2 1086 1084 1125
2 2 1021 1000 978
2 2 928 979 978
2 2 1068 1070 1024
3 2 443 391 442
3 2 494 443 442
3 2 493 441 443
3 2 545 493 494
3 2 538 487 486
3 2 430 379 391
3 2 390 391 342
3 2 342 391 379
3 2 592 541 594
3 2 643 590 592
3 2 670 643 647
3 2 670 612 643
3 2 539 488 490
3 2 541 539 490
3 2 590 556 539
3 2 592 594 647
3 2 385 437 397
3 2 437 386 438
3 2 490 488 438
3 2 451 397 437
3 2 488 451 437
3 2 539 556 504
3 2 647 643 592
3 2 643 612 590
3 2 503 494 450
3 2 555 503 504
3 2 555 546 503
3 2 612 611 556
3 2 590 612 556
3 2 669 726 668
3 2 546 494 503
3 2 557 601 613
3 2 768 821 767
3 2 656 713 714
3 2 613 656 671
3 2 703 702 758
3 2 645 703 656
3 2 645 702 703
3 2 767 758 712
3 2 769 770 713
3 2 728 698 671
3 2 771 728 714
3 2 754 698 728
3 2 640 641 586
3 2 393 426 375
3 2 385 386 437
3 2 504 556 555
3 2 488 504 451
3 2 488 539 504
3 2 438 488 437
3 2 539 592 590
3 2 341 347 378
3 2 378 390 341
3 2 397 378 347
3 2 397 390 378
3 2 385 397 347
3 2 450 451 503
3 2 594 649 647
3 2 390 342 341
3 2 442 390 397
3 2 451 450 397
3 2 494 493 443
3 2 450 494 442
3 2 397 450 442
3 2 451 504 503
3 2 546 545 494
3 2 493 545 538
3 2 384 343 334
3 2 541 592 539
3 2 707 705 649
3 2 705 760 727
3 2 824 771 770
3 2 785 754 728
3 2 872 922 871
3 2 872 822 839
3 2 783 784 839
3 2 670 727 669
3 2 612 670 669
3 2 647 649 705
3 2 760 784 727
3 2 611 668 655
3 2 824 770 823
3 2 873 824 823
3 2 874 825 824
3 2 783 768 726
3 2 871 823 821
3 2 822 871 821
3 2 922 873 871
3 2 783 726 727
3 2 784 783 727
3 2 768 767 726
3 2 822 768 783
3 2 822 821 768
3 2 823 770 769
3 2 821 823 769
3 2 873 874 824
3 2 641 698 699
3 2 588 641 642
3 2 640 698 641
3 2 591 601 547
3 2 758 713 703
3 2 656 613 601
3 2 728 671 714
3 2 656 601 645
3 2 640 613 671
3 2 640 585 613
3 2 591 547 589
3 2 599 591 589
3 2 645 601 591
3 2 644 645 591
3 2 599 644 591
3 2 654 702 644
3 2 712 702 654
3 2 703 713 656
3 2 547 505 495
3 2 589 547 537
3 2 601 557 547
3 2 533 557 585
3 2 505 480 452
3 2 538 545 589
3 2 671 698 640
3 2 585 557 613
3 2 770 771 714
3 2 823 871 873
3 2 767 821 769
3 2 822 872 871
3 2 771 785 728
3 2 822 783 839
3 2 726 669 727
3 2 712 726 767
3 2 668 612 669
3 2 712 668 726
3 2 654 599 600
3 2 655 654 600
3 2 611 655 600
3 2 668 712 655
3 2 712 758 702
3 2 705 707 760
3 2 670 705 727
3 2 670 647 705
3 2 785 771 825
3 2 825 771 824
3 2 699 642 641
3 2 699 698 754
3 2 343 392 344
3 2 393 375 344
3 2 452 480 426
3 2 487 495 444
3 2 505 533 480
3 2 538 589 537
3 2 585 534 533
3 2 480 429 427
3 2 444 452 426
3 2 392 444 393
3 2 344 392 393
3 2 343 384 392
3 2 505 557 533
3 2 495 505 452
3 2 495 537 547
3 2 444 495 452
3 2 487 538 537
3 2 482 483 429
3 2 533 482 480
3 2 585 586 534
3 2 480 482 429
3 2 713 758 769
3 2 714 713 770
3 2 714 671 656
3 2 586 641 588
3 2 536 586 588
3 2 585 640 586
3 2 482 536 483
3 2 426 393 444
3 2 427 426 480
3 2 427 375 426
3 2 534 536 482
3 2 533 534 482
3 2 586 536 534
3 2 600 599 546
3 2 611 600 555
3 2 556 611 555
3 2 612 668 611
3 2 655 712 654
3 2 769 758 767
3 2 600 546 555
3 2 702 645 644
3 2 589 545 599
3 2 599 545 546
3 2 537 495 487
3 2 599 654 644
3 2 547 557 505
3 2 339 389 340
3 2 441 435 389
3 2 538 486 493
3 2 487 436 486
3 2 487 444 436
3 2 389 435 384
3 2 340 389 384
3 2 430 441 389
3 2 379 430 389
3 2 329 379 339
3 2 329 342 379
3 2 391 443 430
3 2 442 391 390
3 2 441 486 435
3 2 443 441 430
3 2 493 486 441
3 2 392 384 435
3 2 379 389 339
3 2 436 392 435
3 2 486 436 435
3 2 444 392 436
3 2 334 340 384
4 2 30 49 29
4 2 16 30 29
4 2 23 26 39
4 2 82 58 59
4 2 80 81 69
4 2 58 80 68
4 2 58 82 80
4 2 48 47 29
4 2 68 48 49
4 2 68 67 48
4 2 28 15 16
4 2 319 278 277
4 2 325 367 319
4 2 372 325 326
4 2 372 373 368
4 2 280 321 279
4 2 319 280 278
4 2 322 321 280
4 2 367 322 319
4 2 367 370 322
4 2 320 364 318
4 2 279 320 318
4 2 418 412 366
4 2 369 418 366
4 2 369 420 418
4 2 320 369 366
4 2 320 321 369
4 2 421 476 420
4 2 526 474 527
4 2 520 572 574
4 2 468 520 521
4 2 469 468 521
4 2 412 467 468
4 2 467 519 520
4 2 414 413 363
4 2 278 236 277
4 2 421 420 369
4 2 237 200 236
4 2 279 237 278
4 2 319 322 280
4 2 318 276 279
4 2 320 366 364
4 2 321 320 279
4 2 278 280 279
4 2 370 369 321
4 2 370 421 369
4 2 275 316 273
4 2 318 275 274
4 2 317 316 275
4 2 274 273 233
4 2 276 274 233
4 2 318 317 275
4 2 418 474 467
4 2 414 366 412
4 2 420 474 418
4 2 419 421 370
4 2 476 474 420
4 2 316 307 273
4 2 362 316 317
4 2 362 352 316
4 2 276 235 237
4 2 262 224 234
4 2 187 165 198
4 2 223 222 188
4 2 305 261 263
4 2 260 222 223
4 2 151 166 167
4 2 109 135 123
4 2 137 166 135
4 2 185 152 151
4 2 153 150 124
4 2 123 153 124
4 2 186 184 153
4 2 203 168 169
4 2 238 236 201
4 2 281 238 239
4 2 277 236 238
4 2 201 168 202
4 2 167 165 151
4 2 201 167 166
4 2 198 165 167
4 2 136 109 108
4 2 138 136 110
4 2 137 109 136
4 2 201 166 168
4 2 135 152 123
4 2 6 11 15
4 2 51 34 33
4 2 53 51 35
4 2 54 72 51
4 2 74 100 72
4 2 116 144 117
4 2 90 116 117
4 2 115 145 116
4 2 177 213 176
4 2 148 182 177
4 2 120 148 145
4 2 120 143 148
4 2 89 98 115
4 2 159 193 192
4 2 156 159 192
4 2 156 128 159
4 2 148 143 175
4 2 128 100 126
4 2 125 128 156
4 2 125 101 128
4 2 208 245 213
4 2 182 208 177
4 2 219 245 208
4 2 245 257 286
4 2 213 245 251
4 2 219 257 245
4 2 211 219 182
4 2 250 257 219
4 2 291 292 249
4 2 266 291 249
4 2 293 336 335
4 2 301 257 292
4 2 301 341 297
4 2 64 45 63
4 2 65 64 91
4 2 92 65 91
4 2 85 60 65
4 2 44 27 45
4 2 64 44 45
4 2 46 27 44
4 2 65 46 64
4 2 65 60 46
4 2 19 32 17
4 2 18 22 33
4 2 10 18 8
4 2 10 22 18
4 2 33 34 19
4 2 52 73 71
4 2 70 52 71
4 2 34 51 52
4 2 32 31 50
4 2 33 35 51
4 2 146 176 178
4 2 14 24 12
4 2 17 14 7
4 2 17 27 14
4 2 46 60 40
4 2 92 112 85
4 2 118 92 91
4 2 118 119 92
4 2 113 140 114
4 2 87 113 86
4 2 112 140 113
4 2 62 88 84
4 2 374 327 328
4 2 427 374 375
4 2 376 371 374
4 2 429 377 427
4 2 283 282 242
4 2 323 324 283
4 2 371 323 327
4 2 371 324 323
4 2 377 422 371
4 2 427 377 376
4 2 428 422 377
4 2 373 423 425
4 2 475 424 478
4 2 423 422 477
4 2 425 423 477
4 2 479 425 477
4 2 424 373 425
4 2 373 372 423
4 2 428 481 477
4 2 240 242 282
4 2 239 240 281
4 2 239 204 240
4 2 240 205 242
4 2 206 180 216
4 2 206 172 180
4 2 244 207 243
4 2 173 172 206
4 2 204 171 205
4 2 141 114 142
4 2 140 119 147
4 2 142 140 172
4 2 114 88 113
4 2 285 327 283
4 2 284 285 244
4 2 284 299 328
4 2 29 47 28
4 2 67 94 93
4 2 48 67 66
4 2 68 94 67
4 2 201 202 238
4 2 203 239 202
4 2 204 205 240
4 2 171 173 205
4 2 170 171 204
4 2 139 114 141
4 2 282 283 324
4 2 328 344 375
4 2 284 328 285
4 2 299 344 328
4 2 374 427 376
4 2 121 93 94
4 2 150 184 183
4 2 149 150 183
4 2 153 123 152
4 2 122 124 150
4 2 122 97 124
4 2 122 95 97
4 2 238 202 239
4 2 428 377 429
4 2 221 222 259
4 2 258 221 259
4 2 184 186 221
4 2 183 184 220
4 2 186 222 221
4 2 150 153 184
4 2 198 167 200
4 2 188 185 165
4 2 224 188 187
4 2 222 185 188
4 2 137 135 109
4 2 531 530 584
4 2 475 421 419
4 2 528 475 478
4 2 476 421 475
4 2 527 476 528
4 2 527 474 476
4 2 477 530 479
4 2 327 374 371
4 2 429 483 428
4 2 149 122 150
4 2 681 663 624
4 2 394 383 345
4 2 484 446 433
4 2 382 432 433
4 2 667 663 722
4 2 651 596 650
4 2 554 607 610
4 2 650 595 610
4 2 502 499 551
4 2 497 445 485
4 2 818 782 838
4 2 650 610 667
4 2 709 665 652
4 2 542 491 502
4 2 543 542 595
4 2 492 491 542
4 2 725 782 764
4 2 667 725 708
4 2 722 738 780
4 2 681 722 663
4 2 782 780 836
4 2 934 884 881
4 2 551 554 502
4 2 518 551 499
4 2 607 554 551
4 2 624 607 569
4 2 624 663 607
4 2 738 722 681
4 2 491 484 440
4 2 554 542 502
4 2 652 596 651
4 2 552 597 608
4 2 552 500 544
4 2 542 543 492
4 2 595 596 543
4 2 554 595 542
4 2 554 610 595
4 2 650 708 651
4 2 595 650 596
4 2 667 708 650
4 2 663 667 610
4 2 722 725 667
4 2 501 552 553
4 2 597 652 608
4 2 609 657 602
4 2 665 609 608
4 2 666 664 609
4 2 781 776 723
4 2 883 882 831
4 2 884 883 832
4 2 936 882 883
4 2 830 775 831
4 2 882 830 831
4 2 814 835 778
4 2 833 834 777
4 2 834 887 886
4 2 777 834 814
4 2 833 887 834
4 2 409 406 461
4 2 605 549 603
4 2 550 549 605
4 2 566 550 606
4 2 514 498 550
4 2 516 514 566
4 2 498 549 550
4 2 461 498 514
4 2 461 445 497
4 2 602 553 609
4 2 716 775 717
4 2 664 716 717
4 2 723 775 716
4 2 724 723 666
4 2 724 781 723
4 2 779 827 773
4 2 720 779 773
4 2 778 835 779
4 2 779 835 827
4 2 830 777 775
4 2 830 833 777
4 2 835 834 886
4 2 835 886 888
4 2 887 833 885
4 2 814 834 835
4 2 836 793 848
4 2 838 782 836
4 2 891 838 889
4 2 942 891 889
4 2 920 868 891
4 2 920 867 868
4 2 881 837 890
4 2 765 710 709
4 2 818 765 764
4 2 868 818 838
4 2 868 817 818
4 2 891 868 838
4 2 817 765 818
4 2 867 817 868
4 2 867 816 817
4 2 817 763 765
4 2 780 738 793
4 2 836 780 793
4 2 725 722 780
4 2 882 833 830
4 2 832 883 831
4 2 936 885 882
4 2 781 832 831
4 2 776 781 831
4 2 775 776 831
4 2 775 723 776
4 2 724 710 763
4 2 837 867 890
4 2 781 837 832
4 2 781 763 816
4 2 665 709 710
4 2 764 708 725
4 2 724 665 710
4 2 651 708 709
4 2 920 890 867
4 2 816 867 837
4 2 781 816 837
4 2 763 817 816
4 2 724 763 781
4 2 710 765 763
4 2 666 665 724
4 2 764 782 818
4 2 709 764 765
4 2 709 708 764
4 2 780 782 725
4 2 836 889 838
4 2 882 885 833
4 2 901 889 848
4 2 889 836 848
4 2 942 889 901
4 2 944 920 891
4 2 884 832 881
4 2 938 884 934
4 2 937 883 884
4 2 937 936 883
4 2 837 881 832
4 2 944 943 920
4 2 955 992 942
4 2 1039 1002 1050
4 2 1040 1039 1087
4 2 992 1002 1039
4 2 993 992 1039
4 2 930 881 890
4 2 938 934 987
4 2 938 937 884
4 2 983 934 930
4 2 930 934 881
4 2 943 982 930
4 2 920 943 890
4 2 944 993 943
4 2 983 987 934
4 2 982 983 930
4 2 1029 1030 983
4 2 982 1029 983
4 2 890 943 930
4 2 993 1040 1028
4 2 1075 1077 1029
4 2 943 993 982
4 2 1029 1077 1030
4 2 1028 1040 1075
4 2 1029 1028 1075
4 2 982 993 1028
4 2 992 993 944
4 2 942 992 944
4 2 891 942 944
4 2 901 955 942
4 2 955 1002 992
4 2 1040 1076 1075
4 2 1039 1040 993
4 2 1087 1088 1040
4 2 1076 1116 1118
4 2 1029 982 1028
4 2 1088 1116 1076
4 2 1040 1088 1076
4 2 1087 1131 1088
4 2 987 983 1030
4 2 1087 1039 1050
4 2 1087 1050 1098
4 2 1130 1088 1131
4 2 1168 1130 1131
4 2 1128 1116 1088
4 2 1164 1128 1130
4 2 1164 1165 1128
4 2 1168 1164 1130
4 2 1118 1117 1076
4 2 1117 1077 1075
4 2 1087 1098 1131
4 2 1076 1117 1075
4 2 1155 1118 1116
4 2 1179 1141 1180
4 2 1199 1164 1168
4 2 1228 1199 1204
4 2 1235 1228 1204
4 2 1235 1260 1228
4 2 1201 1164 1199
4 2 1131 1141 1168
4 2 1155 1116 1128
4 2 1098 1141 1131
4 2 1130 1128 1088
4 2 1204 1199 1168
4 2 1165 1155 1128
4 2 1215 1180 1216
4 2 1168 1179 1204
4 2 1168 1141 1179
4 2 1201 1165 1164
4 2 1215 1179 1180
4 2 1250 1215 1216
4 2 1239 1204 1215
4 2 1233 1199 1228
4 2 1233 1201 1199
4 2 1250 1239 1215
4 2 1235 1265 1266
4 2 1179 1215 1204
4 2 1271 1298 1299
4 2 1270 1271 1299
4 2 1250 1284 1271
4 2 1251 1272 1284
4 2 1266 1260 1235
4 2 1312 1284 1302
4 2 1292 1293 1266
4 2 1284 1312 1298
4 2 1323 1339 1320
4 2 1324 1322 1339
4 2 1299 1324 1317
4 2 1299 1298 1324
4 2 1324 1298 1322
4 2 1265 1270 1292
4 2 1270 1239 1271
4 2 1292 1270 1299
4 2 1239 1250 1271
4 2 1235 1204 1239
4 2 1265 1235 1239
4 2 1270 1265 1239
4 2 1292 1266 1265
4 2 1260 1233 1228
4 2 1216 1251 1250
4 2 1284 1272 1302
4 2 1271 1284 1298
4 2 1250 1251 1284
4 2 1312 1327 1334
4 2 1296 1323 1297
4 2 1301 1302 1272
4 2 1326 1301 1318
4 2 1317 1296 1293
4 2 1299 1317 1292
4 2 1323 1320 1297
4 2 1324 1339 1323
4 2 1339 1337 1321
4 2 1317 1324 1323
4 2 1322 1337 1339
4 2 1292 1317 1293
4 2 1340 1329 1343
4 2 1318 1325 1326
4 2 1300 1276 1305
4 2 1320 1294 1297
4 2 1296 1317 1323
4 2 1338 1345 1333
4 2 1319 1338 1333
4 2 1309 1319 1333
4 2 1321 1338 1319
4 2 1339 1321 1320
4 2 1337 1338 1321
4 2 1337 1334 1346
4 2 1326 1325 1340
4 2 1243 1277 1276
4 2 1278 1245 1256
4 2 1320 1295 1294
4 2 1334 1341 1346
4 2 1312 1334 1322
4 2 1298 1312 1322
4 2 1302 1327 1312
4 2 1327 1341 1334
4 2 1326 1327 1302
4 2 1301 1326 1302
4 2 1318 1300 1325
4 2 1305 1325 1300
4 2 1307 1305 1277
4 2 1244 1245 1278
4 2 1330 1329 1307
4 2 1307 1329 1305
4 2 1249 1283 1259
4 2 1214 1249 1226
4 2 1282 1283 1249
4 2 1281 1282 1248
4 2 1311 1333 1331
4 2 1281 1310 1282
4 2 1281 1309 1310
4 2 1247 1281 1248
4 2 1332 1345 1342
4 2 1283 1311 1308
4 2 1333 1345 1331
4 2 1309 1333 1310
4 2 1309 1295 1319
4 2 1240 1273 1242
4 2 1171 1205 1207
4 2 1206 1241 1240
4 2 1227 1259 1241
4 2 1193 1227 1206
4 2 1193 1194 1227
4 2 1240 1242 1207
4 2 1259 1274 1241
4 2 1336 1344 1330
4 2 1346 1348 1345
4 2 1337 1346 1338
4 2 1341 1343 1346
4 2 1322 1334 1337
4 2 1305 1276 1277
4 2 1277 1243 1244
4 2 1275 1255 1242
4 2 1193 1159 1194
4 2 964 1003 956
4 2 902 911 956
4 2 1057 1058 1104
4 2 1056 1057 1104
4 2 1099 1056 1104
4 2 1099 1051 1056
4 2 1009 965 1010
4 2 1008 1009 1057
4 2 1008 964 1009
4 2 956 911 964
4 2 1106 1107 1148
4 2 1185 1146 1148
4 2 1104 1058 1106
4 2 1009 1010 1058
4 2 1059 1107 1106
4 2 1010 1011 1058
4 2 1057 1009 1058
4 2 965 966 1010
4 2 894 948 893
4 2 1058 1011 1059
4 2 947 914 893
4 2 1011 968 1012
4 2 913 914 968
4 2 1226 1259 1227
4 2 1247 1248 1213
4 2 1281 1279 1309
4 2 964 1008 1003
4 2 1295 1280 1294
4 2 1333 1311 1310
4 2 1311 1283 1282
4 2 1310 1311 1282
4 2 1331 1308 1311
4 2 1347 1336 1335
4 2 1348 1347 1342
4 2 1348 1343 1344
4 2 1273 1241 1274
4 2 1259 1226 1249
4 2 1274 1259 1283
4 2 1241 1206 1227
4 2 1279 1280 1309
4 2 1051 1004 1003
4 2 1104 1105 1099
4 2 1059 1106 1058
4 2 1106 1148 1146
4 2 1104 1106 1146
4 2 1108 1149 1107
4 2 1149 1187 1148
4 2 1254 1220 1221
4 2 1286 1287 1255
4 2 1253 1220 1254
4 2 1287 1285 1253
4 2 1257 1258 1288
4 2 1257 1225 1258
4 2 1252 1217 1219
4 2 1053 1004 1051
4 2 1295 1321 1319
4 2 1280 1295 1309
4 2 1320 1321 1295
4 2 1053 1051 1099
4 2 1102 1053 1099
4 2 1100 1052 1053
4 2 1248 1249 1214
4 2 1279 1281 1247
4 2 1282 1249 1248
4 2 1210 1173 1174
4 2 1245 1210 1209
4 2 1208 1173 1210
4 2 1332 1328 1308
4 2 1331 1332 1308
4 2 1342 1328 1332
4 2 1348 1342 1345
4 2 1308 1303 1283
4 2 1345 1332 1331
4 2 1328 1303 1308
4 2 1335 1328 1342
4 2 1304 1286 1275
4 2 1335 1313 1328
4 2 1335 1314 1313
4 2 1315 1314 1335
4 2 1278 1288 1306
4 2 1278 1256 1288
4 2 1307 1278 1306
4 2 1277 1244 1278
4 2 1245 1224 1256
4 2 1186 1184 1147
4 2 1217 1218 1183
4 2 1219 1217 1183
4 2 1252 1218 1217
4 2 1287 1314 1285
4 2 1254 1287 1253
4 2 1286 1314 1287
4 2 1258 1225 1252
4 2 1223 1189 1218
4 2 1304 1273 1274
4 2 1313 1286 1304
4 2 1242 1273 1275
4 2 1344 1347 1348
4 2 1330 1344 1343
4 2 1336 1347 1344
4 2 1274 1303 1304
4 2 1274 1283 1303
4 2 1345 1338 1346
4 2 1210 1245 1244
4 2 1190 1188 1223
4 2 1224 1190 1223
4 2 1209 1172 1190
4 2 1110 1111 1151
4 2 1110 1109 1063
4 2 1065 1064 1111
4 2 1063 1065 1110
4 2 1017 1064 1065
4 2 1053 1052 1004
4 2 1174 1209 1210
4 2 1224 1257 1256
4 2 1306 1330 1307
4 2 1277 1278 1307
4 2 1225 1223 1218
4 2 1252 1225 1218
4 2 1257 1223 1225
4 2 1256 1257 1288
4 2 1224 1223 1257
4 2 1209 1224 1245
4 2 1220 1253 1219
4 2 1222 1254 1221
4 2 1315 1335 1336
4 2 1316 1315 1336
4 2 1316 1289 1315
4 2 1285 1314 1289
4 2 1252 1285 1258
4 2 1252 1253 1285
4 2 1286 1313 1314
4 2 1254 1255 1287
4 2 1255 1275 1286
4 2 1340 1327 1326
4 2 1329 1340 1325
4 2 1305 1329 1325
4 2 1330 1343 1329
4 2 1343 1341 1340
4 2 1346 1343 1348
4 2 1341 1327 1340
4 2 1208 1244 1243
4 2 1189 1188 1150
4 2 1144 1183 1181
4 2 1184 1182 1147
4 2 1252 1219 1253
4 2 1183 1182 1219
4 2 1181 1183 1218
4 2 1144 1145 1183
4 2 1111 1144 1151
4 2 1101 1145 1144
4 2 1184 1186 1221
4 2 1219 1184 1220
4 2 1219 1182 1184
4 2 1223 1188 1189
4 2 1112 1066 1109
4 2 1103 1054 1100
4 2 1135 1174 1136
4 2 1150 1188 1152
4 2 1210 1244 1208
4 2 1152 1188 1190
4 2 1134 1152 1172
4 2 1134 1112 1152
4 2 1142 1182 1143
4 2 1181 1189 1151
4 2 1144 1181 1151
4 2 1218 1189 1181
4 2 1347 1335 1342
4 2 1306 1316 1330
4 2 1289 1288 1258
4 2 1285 1289 1258
4 2 1316 1288 1289
4 2 1330 1316 1336
4 2 1306 1288 1316
4 2 1207 1242 1222
4 2 1304 1303 1328
4 2 1313 1304 1328
4 2 1275 1273 1304
4 2 1224 1209 1190
4 2 1189 1150 1151
4 2 1172 1152 1190
4 2 1150 1110 1151
4 2 1103 1055 1054
4 2 1111 1064 1101
4 2 1144 1111 1101
4 2 1110 1065 1111
4 2 1017 1055 1064
4 2 1135 1136 1093
4 2 1092 1134 1135
4 2 1046 1092 1093
4 2 1045 1091 1092
4 2 1174 1173 1136
4 2 1172 1174 1135
4 2 1172 1209 1174
4 2 1092 1091 1134
4 2 1109 1110 1150
4 2 1112 1109 1150
4 2 1066 1062 1109
4 2 1015 1063 1062
4 2 1016 1017 1065
4 2 1063 1016 1065
4 2 1046 1045 1092
4 2 1066 1112 1091
4 2 1043 1066 1091
4 2 1062 1063 1109
4 2 1015 1062 1014
4 2 1015 1016 1063
4 2 1045 1046 999
4 2 953 952 998
4 2 1134 1172 1135
4 2 1093 1092 1135
4 2 1091 1112 1134
4 2 1152 1112 1150
4 2 1044 1043 1091
4 2 998 1044 1045
4 2 997 969 1013
4 2 996 997 1044
4 2 951 949 915
4 2 996 951 997
4 2 996 949 951
4 2 1043 1013 1062
4 2 1045 1044 1091
4 2 997 1013 1043
4 2 951 969 997
4 2 1043 1062 1066
4 2 970 1013 969
4 2 1014 1062 1013
4 2 998 1045 999
4 2 953 998 999
4 2 952 996 998
4 2 897 949 950
4 2 896 897 950
4 2 896 843 897
4 2 970 1014 1013
4 2 1044 997 1043
4 2 899 898 952
4 2 969 915 970
4 2 952 950 996
4 2 1044 998 996
4 2 953 899 952
4 2 897 895 949
4 2 949 895 915
4 2 969 951 915
4 2 996 950 949
4 2 897 843 895
4 2 952 898 950
4 2 845 846 791
4 2 789 845 791
4 2 844 898 845
4 2 950 898 896
4 2 899 846 845
4 2 843 896 842
4 2 845 898 899
4 2 788 844 789
4 2 733 788 789
4 2 733 787 788
4 2 787 842 841
4 2 841 896 844
4 2 788 841 844
4 2 842 896 841
4 2 844 896 898
4 2 791 846 790
4 2 735 678 732
4 2 791 735 789
4 2 736 678 735
4 2 734 736 790
4 2 734 676 679
4 2 788 787 841
4 2 733 789 732
4 2 675 733 732
4 2 731 787 733
4 2 677 678 736
4 2 845 789 844
4 2 736 791 790
4 2 736 735 791
4 2 618 678 677
4 2 674 675 732
4 2 679 736 734
4 2 620 679 676
4 2 677 736 679
4 2 620 621 679
4 2 513 565 564
4 2 618 677 621
4 2 562 619 618
4 2 508 562 561
4 2 559 614 562
4 2 674 616 675
4 2 561 562 618
4 2 614 616 619
4 2 733 675 731
4 2 735 732 789
4 2 674 619 616
4 2 678 674 732
4 2 678 619 674
4 2 679 621 677
4 2 560 563 617
4 2 564 621 620
4 2 618 619 678
4 2 620 676 617
4 2 562 614 619
4 2 454 455 509
4 2 559 562 508
4 2 509 560 507
4 2 454 509 507
4 2 510 564 563
4 2 565 621 564
4 2 512 565 513
4 2 561 618 565
4 2 563 560 509
4 2 510 563 509
4 2 620 617 563
4 2 405 456 401
4 2 404 405 354
4 2 404 460 405
4 2 620 563 564
4 2 401 351 353
4 2 455 401 456
4 2 455 400 401
4 2 621 565 618
4 2 404 354 352
4 2 459 404 403
4 2 460 456 405
4 2 564 511 513
4 2 405 401 353
4 2 511 456 460
4 2 455 454 400
4 2 510 455 456
4 2 510 509 455
4 2 457 417 458
4 2 459 403 457
4 2 460 459 513
4 2 460 404 459
4 2 402 417 457
4 2 508 458 506
4 2 559 508 506
4 2 512 513 459
4 2 458 512 457
4 2 473 458 417
4 2 508 512 458
4 2 508 561 512
4 2 417 402 416
4 2 506 458 473
4 2 512 561 565
4 2 415 469 470
4 2 416 415 470
4 2 363 362 317
4 2 415 413 469
4 2 365 362 413
4 2 399 453 398
4 2 459 457 512
4 2 307 352 354
4 2 365 402 403
4 2 507 453 454
4 2 417 472 473
4 2 349 398 348
4 2 350 351 400
4 2 349 350 399
4 2 305 263 306
4 2 304 305 350
4 2 304 261 305
4 2 350 305 351
4 2 223 188 224
4 2 261 223 224
4 2 261 260 223
4 2 259 222 260
4 2 303 259 260
4 2 258 220 221
4 2 188 165 187
4 2 186 185 222
4 2 186 152 185
4 2 308 307 354
4 2 199 198 235
4 2 276 233 234
4 2 224 187 199
4 2 261 224 263
4 2 187 198 199
4 2 319 277 281
4 2 235 198 200
4 2 237 235 200
4 2 262 273 306
4 2 234 233 262
4 2 235 234 199
4 2 235 276 234
4 2 276 318 274
4 2 279 276 237
4 2 234 224 199
4 2 200 201 236
4 2 511 460 513
4 2 510 511 564
4 2 510 456 511
4 2 262 233 273
4 2 263 262 306
4 2 263 224 262
4 2 403 402 457
4 2 454 453 399
4 2 303 302 259
4 2 304 303 260
4 2 348 302 303
4 2 326 325 281
4 2 531 478 479
4 2 528 476 475
4 2 581 527 528
4 2 413 415 365
4 2 362 363 413
4 2 521 470 469
4 2 415 402 365
4 2 522 470 521
4 2 416 402 415
4 2 472 416 471
4 2 472 417 416
4 2 304 349 303
4 2 303 349 348
4 2 261 304 260
4 2 305 306 351
4 2 399 398 349
4 2 259 302 258
4 2 308 354 353
4 2 306 308 353
4 2 273 307 308
4 2 237 236 278
4 2 352 403 404
4 2 316 352 307
4 2 365 403 352
4 2 400 454 399
4 2 350 400 399
4 2 351 401 400
4 2 349 304 350
4 2 353 354 405
4 2 306 353 351
4 2 306 273 308
4 2 522 471 470
4 2 184 221 220
4 2 416 470 471
4 2 520 468 467
4 2 522 521 574
4 2 274 275 273
4 2 414 469 413
4 2 364 414 363
4 2 412 468 414
4 2 364 366 414
4 2 317 364 363
4 2 317 318 364
4 2 520 570 572
4 2 418 467 412
4 2 474 526 519
4 2 365 352 362
4 2 481 530 477
4 2 536 481 483
4 2 536 535 481
4 2 570 627 572
4 2 574 521 520
4 2 481 428 483
4 2 531 479 530
4 2 529 531 532
4 2 529 478 531
4 2 372 324 371
4 2 419 367 368
4 2 326 324 372
4 2 282 326 281
4 2 377 371 376
4 2 477 422 428
4 2 372 371 422
4 2 588 535 536
4 2 683 625 682
4 2 582 532 583
4 2 637 582 583
4 2 638 637 583
4 2 694 636 637
4 2 581 529 582
4 2 582 529 532
4 2 636 581 582
4 2 682 636 694
4 2 580 581 636
4 2 580 527 581
4 2 528 478 529
4 2 468 469 414
4 2 326 282 324
4 2 424 479 478
4 2 423 372 422
4 2 419 373 424
4 2 475 419 424
4 2 370 367 419
4 2 368 325 372
4 2 419 368 373
4 2 367 325 368
4 2 321 322 370
4 2 319 281 325
4 2 425 479 424
4 2 277 238 281
4 2 587 588 642
4 2 530 535 584
4 2 530 481 535
4 2 570 571 627
4 2 581 528 529
4 2 625 580 636
4 2 627 571 626
4 2 570 526 571
4 2 526 527 580
4 2 571 526 580
4 2 519 467 474
4 2 570 519 526
4 2 570 520 519
4 2 639 638 587
4 2 697 752 696
4 2 639 697 696
4 2 699 754 753
4 2 637 636 582
4 2 749 694 695
4 2 625 626 571
4 2 580 625 571
4 2 636 682 625
4 2 638 695 637
4 2 584 638 583
4 2 696 695 638
4 2 639 696 638
4 2 642 639 587
4 2 642 697 639
4 2 752 804 751
4 2 682 740 683
4 2 626 625 683
4 2 694 749 739
4 2 637 695 694
4 2 584 583 532
4 2 697 642 699
4 2 584 587 638
4 2 584 535 587
4 2 531 584 532
4 2 535 588 587
4 2 805 858 803
4 2 749 805 750
4 2 804 858 805
4 2 695 751 749
4 2 752 807 806
4 2 808 753 754
4 2 806 804 752
4 2 859 806 807
4 2 859 858 806
4 2 910 912 859
4 2 967 1010 966
4 2 968 967 913
4 2 1011 1010 967
4 2 911 902 857
4 2 912 911 857
4 2 965 964 911
4 2 750 794 739
4 2 857 803 858
4 2 849 794 803
4 2 739 794 740
4 2 751 804 805
4 2 696 751 695
4 2 696 752 751
4 2 805 803 750
4 2 808 840 861
4 2 753 808 807
4 2 752 753 807
4 2 697 699 753
4 2 785 840 808
4 2 840 785 825
4 2 874 875 825
4 2 861 807 808
4 2 910 860 914
4 2 910 859 860
4 2 966 910 913
4 2 966 911 912
4 2 858 804 806
4 2 808 754 785
4 2 859 807 860
4 2 752 697 753
4 2 739 740 682
4 2 694 739 682
4 2 750 803 794
4 2 749 750 739
4 2 749 751 805
4 2 894 861 840
4 2 825 875 840
4 2 1067 1020 1023
4 2 1041 1069 1023
4 2 1027 1019 1067
4 2 1067 1018 1020
4 2 1114 1073 1074
4 2 1114 1090 1073
4 2 1153 1114 1115
4 2 1153 1133 1114
4 2 1108 1061 1090
4 2 995 968 947
4 2 974 977 1018
4 2 981 1027 1026
4 2 914 947 968
4 2 975 974 1018
4 2 1019 975 1018
4 2 1067 1019 1018
4 2 1027 1073 1026
4 2 948 923 975
4 2 893 948 947
4 2 894 875 923
4 2 977 1020 1018
4 2 926 977 974
4 2 873 926 874
4 2 873 925 926
4 2 1019 981 975
4 2 976 1020 977
4 2 1123 1089 1081
4 2 857 849 803
4 2 861 860 807
4 2 923 926 974
4 2 840 875 894
4 2 874 926 875
4 2 914 860 861
4 2 1009 964 965
4 2 966 913 967
4 2 1051 1003 1008
4 2 857 902 849
4 2 912 857 858
4 2 859 912 858
4 2 910 966 912
4 2 966 965 911
4 2 922 925 873
4 2 894 893 861
4 2 1081 1033 1032
4 2 1103 1101 1064
4 2 1055 1103 1064
4 2 1100 1102 1145
4 2 1052 1100 1054
4 2 1053 1102 1100
4 2 1008 1057 1056
4 2 1100 1145 1103
4 2 1105 1142 1099
4 2 1051 1008 1056
4 2 1146 1147 1105
4 2 1104 1146 1105
4 2 1185 1186 1146
4 2 1145 1143 1183
4 2 1103 1145 1101
4 2 1143 1182 1183
4 2 1102 1143 1145
4 2 1102 1142 1143
4 2 1142 1147 1182
4 2 1099 1142 1102
4 2 1105 1147 1142
4 2 1255 1222 1242
4 2 1315 1289 1314
4 2 1254 1222 1255
4 2 1184 1221 1220
4 2 1146 1186 1147
4 2 1185 1221 1186
4 2 1187 1207 1222
4 2 1185 1187 1221
4 2 1185 1148 1187
4 2 1060 1011 1012
4 2 1033 985 1032
4 2 1041 1023 994
4 2 1069 1089 1074
4 2 1074 1027 1067
4 2 1069 1074 1067
4 2 1023 1069 1067
4 2 1041 1081 1089
4 2 1115 1114 1074
4 2 1132 1123 1159
4 2 1074 1089 1115
4 2 1069 1041 1089
4 2 1114 1133 1090
4 2 946 924 892
4 2 1205 1169 1206
4 2 1207 1205 1240
4 2 1171 1169 1205
4 2 923 948 894
4 2 926 923 875
4 2 974 975 923
4 2 981 1019 1027
4 2 995 981 1026
4 2 995 948 981
4 2 1042 1012 995
4 2 1073 1042 1026
4 2 1061 1012 1042
4 2 1107 1061 1108
4 2 1060 1059 1011
4 2 1107 1060 1061
4 2 1107 1059 1060
4 2 1011 967 968
4 2 914 861 893
4 2 1012 1061 1060
4 2 913 910 914
4 2 1205 1206 1240
4 2 1153 1169 1133
4 2 1108 1090 1133
4 2 1159 1193 1170
4 2 1153 1115 1132
4 2 1122 1080 1121
4 2 1159 1123 1158
4 2 1123 1080 1122
4 2 1170 1206 1169
4 2 1214 1213 1248
4 2 1194 1192 1226
4 2 1178 1213 1214
4 2 1187 1171 1207
4 2 1107 1149 1148
4 2 1133 1171 1149
4 2 1192 1214 1226
4 2 1157 1192 1194
4 2 1157 1178 1192
4 2 994 945 986
4 2 994 946 945
4 2 1041 994 1033
4 2 1023 1020 994
4 2 976 924 946
4 2 1020 976 994
4 2 892 872 839
4 2 977 925 976
4 2 922 872 924
4 2 1157 1140 1178
4 2 1158 1157 1194
4 2 1159 1158 1194
4 2 1123 1081 1080
4 2 1158 1123 1122
4 2 1123 1132 1089
4 2 1121 1097 1140
4 2 1158 1122 1157
4 2 1080 1079 1121
4 2 1149 1171 1187
4 2 1221 1187 1222
4 2 1108 1133 1149
4 2 1133 1169 1171
4 2 1240 1241 1273
4 2 1031 985 984
4 2 1097 1079 1049
4 2 1032 985 1031
4 2 1080 1081 1032
4 2 1140 1157 1121
4 2 1194 1226 1227
4 2 1122 1121 1157
4 2 1192 1178 1214
4 2 1073 1027 1074
4 2 1061 1042 1090
4 2 975 981 948
4 2 1090 1042 1073
4 2 995 947 948
4 2 1042 995 1026
4 2 1012 968 995
4 2 925 924 976
4 2 926 925 977
4 2 922 924 925
4 2 1033 1081 1041
4 2 1031 1079 1032
4 2 1170 1169 1153
4 2 1132 1159 1170
4 2 1153 1132 1170
4 2 1115 1089 1132
4 2 1193 1206 1170
4 2 1079 1031 1049
4 2 1121 1079 1097
4 2 1080 1032 1079
4 2 933 880 932
4 2 986 933 932
4 2 945 921 933
4 2 994 976 946
4 2 892 839 870
4 2 870 839 820
4 2 869 870 820
4 2 892 924 872
4 2 921 892 870
4 2 945 946 892
4 2 1031 984 1001
4 2 921 870 869
4 2 933 921 880
4 2 945 892 921
4 2 879 931 932
4 2 932 931 984
4 2 829 879 880
4 2 866 900 879
4 2 829 866 879
4 2 829 815 866
4 2 900 954 931
4 2 813 784 760
4 2 986 932 985
4 2 994 986 1033
4 2 945 933 986
4 2 819 829 869
4 2 820 819 869
4 2 813 766 819
4 2 986 985 1033
4 2 879 932 880
4 2 984 985 932
4 2 954 984 931
4 2 954 1001 984
4 2 839 784 820
4 2 1031 1001 1049
4 2 706 649 648
4 2 701 711 653
4 2 707 649 706
4 2 954 900 927
4 2 900 866 847
4 2 761 706 711
4 2 813 761 766
4 2 707 706 761
4 2 715 772 759
4 2 900 876 927
4 2 813 820 784
4 2 707 761 760
4 2 766 774 819
4 2 760 761 813
4 2 826 772 828
4 2 900 847 876
4 2 847 792 826
4 2 774 815 829
4 2 819 774 829
4 2 766 737 774
4 2 792 772 826
4 2 774 792 815
4 2 759 772 792
4 2 772 715 773
4 2 876 826 877
4 2 928 876 877
4 2 847 866 815
4 2 792 847 815
4 2 826 876 847
4 2 869 880 921
4 2 813 819 820
4 2 829 880 869
4 2 737 792 774
4 2 900 931 879
4 2 648 649 594
4 2 540 567 593
4 2 653 706 648
4 2 828 772 773
4 2 878 828 827
4 2 877 826 828
4 2 928 877 929
4 2 928 927 876
4 2 568 566 622
4 2 515 517 567
4 2 516 566 568
4 2 623 653 598
4 2 704 737 680
4 2 737 766 711
4 2 792 737 759
4 2 711 706 653
4 2 737 711 701
4 2 766 761 711
4 2 515 489 463
4 2 407 408 463
4 2 387 388 439
4 2 357 408 407
4 2 337 357 388
4 2 266 311 293
4 2 291 266 293
4 2 249 227 266
4 2 267 268 265
4 2 356 408 357
4 2 310 356 357
4 2 225 248 264
4 2 434 383 394
4 2 447 434 394
4 2 485 445 434
4 2 408 409 462
4 2 431 383 434
4 2 355 380 406
4 2 355 330 380
4 2 309 355 356
4 2 330 333 380
4 2 287 330 309
4 2 265 264 309
4 2 248 290 287
4 2 290 300 333
4 2 309 330 355
4 2 333 383 380
4 2 290 333 330
4 2 287 290 330
4 2 248 256 290
4 2 300 345 333
4 2 333 345 383
4 2 256 300 290
4 2 225 217 248
4 2 218 247 256
4 2 288 331 332
4 2 382 433 394
4 2 381 382 332
4 2 434 447 485
4 2 382 394 345
4 2 433 446 394
4 2 381 432 382
4 2 346 359 396
4 2 381 346 395
4 2 313 359 346
4 2 432 484 433
4 2 395 432 381
4 2 440 484 432
4 2 652 597 596
4 2 709 652 651
4 2 665 608 652
4 2 666 609 665
4 2 500 446 492
4 2 543 544 492
4 2 552 501 500
4 2 394 446 447
4 2 597 543 596
4 2 553 552 608
4 2 544 543 597
4 2 552 544 597
4 2 500 492 544
4 2 484 492 446
4 2 484 491 492
4 2 358 409 408
4 2 355 358 356
4 2 355 406 358
4 2 646 680 622
4 2 406 445 461
4 2 358 406 409
4 2 380 431 406
4 2 664 657 609
4 2 723 664 666
4 2 723 716 664
4 2 777 717 775
4 2 721 779 720
4 2 661 721 720
4 2 659 718 719
4 2 721 778 779
4 2 777 762 717
4 2 777 814 762
4 2 762 814 778
4 2 497 485 496
4 2 717 657 664
4 2 501 553 548
4 2 496 501 548
4 2 447 500 501
4 2 447 446 500
4 2 701 680 737
4 2 827 828 773
4 2 540 541 490
4 2 489 540 490
4 2 439 489 490
4 2 594 593 648
4 2 541 540 593
4 2 463 462 515
4 2 877 828 878
4 2 232 196 231
4 2 272 232 231
4 2 229 194 197
4 2 181 154 174
4 2 209 181 174
4 2 218 217 181
4 2 131 107 134
4 2 230 229 270
4 2 272 315 312
4 2 229 232 269
4 2 271 314 272
4 2 315 359 312
4 2 361 315 314
4 2 360 411 410
4 2 408 356 358
4 2 264 248 287
4 2 190 225 226
4 2 191 190 226
4 2 157 155 190
4 2 217 218 256
4 2 247 246 289
4 2 256 247 289
4 2 218 246 247
4 2 313 346 331
4 2 312 359 313
4 2 396 449 448
4 2 360 410 359
4 2 411 466 410
4 2 461 464 409
4 2 431 434 445
4 2 406 431 445
4 2 380 383 431
4 2 680 701 653
4 2 660 720 715
4 2 646 660 704
4 2 646 604 660
4 2 704 759 737
4 2 659 719 662
4 2 715 720 773
4 2 605 606 550
4 2 659 605 603
4 2 657 658 603
4 2 719 778 721
4 2 662 719 721
4 2 718 778 719
4 2 662 606 605
4 2 660 661 720
4 2 604 606 661
4 2 660 604 661
4 2 646 622 604
4 2 680 646 704
4 2 622 566 604
4 2 604 566 606
4 2 623 622 680
4 2 568 517 516
4 2 623 568 622
4 2 623 567 568
4 2 653 623 680
4 2 598 567 623
4 2 501 496 447
4 2 602 603 548
4 2 553 602 548
4 2 657 603 602
4 2 608 609 553
4 2 658 718 659
4 2 717 658 657
4 2 717 718 658
4 2 496 485 447
4 2 549 497 548
4 2 497 498 461
4 2 548 497 496
4 2 549 498 497
4 2 715 759 704
4 2 878 888 929
4 2 877 878 929
4 2 827 835 878
4 2 603 549 548
4 2 658 659 603
4 2 762 718 717
4 2 762 778 718
4 2 662 721 661
4 2 606 662 661
4 2 605 659 662
4 2 715 704 660
4 2 566 514 550
4 2 835 888 878
4 2 407 463 439
4 2 439 490 438
4 2 386 387 438
4 2 465 517 515
4 2 461 514 464
4 2 517 568 567
4 2 648 598 653
4 2 464 462 409
4 2 514 516 464
4 2 465 462 464
4 2 516 465 464
4 2 516 517 465
4 2 465 515 462
4 2 593 567 598
4 2 648 593 598
4 2 594 541 593
4 2 540 515 567
4 2 540 489 515
4 2 439 463 489
4 2 408 462 463
4 2 607 551 569
4 2 607 663 610
4 2 157 190 191
4 2 129 104 131
4 2 75 102 103
4 2 75 76 102
4 2 345 300 332
4 2 331 288 313
4 2 332 331 381
4 2 345 332 382
4 2 300 289 332
4 2 499 449 466
4 2 569 551 518
4 2 502 449 499
4 2 387 386 336
4 2 448 502 491
4 2 466 449 410
4 2 466 518 499
4 2 346 381 331
4 2 396 448 395
4 2 410 396 359
4 2 410 449 396
4 2 440 432 395
4 2 448 440 395
4 2 346 396 395
4 2 449 502 448
4 2 448 491 440
4 2 335 385 347
4 2 209 246 218
4 2 360 361 411
4 2 315 360 359
4 2 315 361 360
4 2 336 386 385
4 2 335 336 385
4 2 227 268 266
4 2 338 388 387
4 2 311 337 293
4 2 311 357 337
4 2 387 439 438
4 2 293 337 338
4 2 388 407 439
4 2 338 337 388
4 2 336 338 387
4 2 336 293 338
4 2 357 407 388
4 2 315 272 314
4 2 335 347 301
4 2 292 335 301
4 2 291 293 335
4 2 270 312 313
4 2 232 272 269
4 2 272 312 269
4 2 270 313 288
4 2 230 270 246
4 2 269 312 270
4 2 341 301 347
4 2 163 160 131
4 2 164 163 134
4 2 133 164 132
4 2 162 196 197
4 2 194 160 163
4 2 197 196 232
4 2 163 197 194
4 2 164 162 197
4 2 229 230 194
4 2 271 272 231
4 2 195 174 161
4 2 195 209 174
4 2 269 270 229
4 2 246 209 230
4 2 288 246 270
4 2 289 300 256
4 2 288 289 246
4 2 288 332 289
4 2 181 189 154
4 2 197 232 229
4 2 297 257 301
4 2 329 297 342
4 2 286 251 245
4 2 294 286 297
4 2 294 251 286
4 2 339 294 329
4 2 286 257 297
4 2 296 252 294
4 2 213 177 208
4 2 291 335 292
4 2 341 342 297
4 2 51 53 54
4 2 22 35 33
4 2 19 18 33
4 2 21 36 38
4 2 19 8 18
4 2 20 37 36
4 2 54 76 75
4 2 133 132 106
4 2 197 163 164
4 2 105 132 107
4 2 133 162 164
4 2 105 78 106
4 2 132 105 106
4 2 79 57 77
4 2 105 79 77
4 2 107 104 79
4 2 54 75 74
4 2 73 51 72
4 2 101 73 72
4 2 52 51 73
4 2 53 76 54
4 2 38 53 35
4 2 76 104 102
4 2 57 76 53
4 2 57 79 76
4 2 131 104 107
4 2 134 163 131
4 2 132 134 107
4 2 132 164 134
4 2 161 154 130
4 2 129 161 130
4 2 160 195 161
4 2 155 154 189
4 2 127 155 157
4 2 158 127 157
4 2 158 126 127
4 2 130 154 155
4 2 102 130 103
4 2 129 160 161
4 2 129 130 102
4 2 104 129 102
4 2 131 160 129
4 2 174 154 161
4 2 195 230 209
4 2 194 195 160
4 2 194 230 195
4 2 209 218 181
4 2 158 193 159
4 2 103 126 100
4 2 157 193 158
4 2 189 190 155
4 2 189 225 190
4 2 217 225 189
4 2 181 217 189
4 2 256 248 217
4 2 155 127 126
4 2 99 125 98
4 2 71 99 98
4 2 101 125 99
4 2 73 101 71
4 2 72 100 101
4 2 126 158 128
4 2 130 126 103
4 2 130 155 126
4 2 158 159 128
4 2 191 193 157
4 2 228 191 226
4 2 228 193 191
4 2 310 265 309
4 2 266 268 311
4 2 268 228 265
4 2 311 268 267
4 2 227 228 268
4 2 227 192 228
4 2 310 309 356
4 2 311 310 357
4 2 267 265 310
4 2 226 265 228
4 2 264 287 309
4 2 226 264 265
4 2 226 225 264
4 2 210 175 192
4 2 249 210 227
4 2 249 292 250
4 2 175 156 192
4 2 311 267 310
4 2 340 296 339
4 2 145 177 176
4 2 116 145 144
4 2 115 120 145
4 2 294 297 329
4 2 77 78 105
4 2 107 79 105
4 2 57 55 77
4 2 340 295 296
4 2 55 36 37
4 2 77 55 56
4 2 57 38 55
4 2 104 76 79
4 2 38 36 55
4 2 53 38 57
4 2 35 22 38
4 2 4 12 5
4 2 2 3 4
4 2 17 32 27
4 2 24 14 27
4 2 8 19 17
4 2 9 10 3
4 2 90 63 89
4 2 91 90 117
4 2 119 112 92
4 2 64 46 44
4 2 17 7 8
4 2 45 27 32
4 2 50 45 32
4 2 31 34 50
4 2 19 31 32
4 2 19 34 31
4 2 52 70 50
4 2 63 90 64
4 2 14 12 7
4 2 40 24 27
4 2 46 40 27
4 2 41 25 40
4 2 26 42 43
4 2 13 26 23
4 2 25 42 26
4 2 10 21 22
4 2 3 10 8
4 2 7 3 8
4 2 2 9 3
4 2 9 21 10
4 2 148 177 145
4 2 211 182 175
4 2 210 211 175
4 2 210 250 211
4 2 219 208 182
4 2 116 90 89
4 2 146 117 144
4 2 118 91 117
4 2 192 193 228
4 2 250 219 211
4 2 249 250 210
4 2 292 257 250
4 2 143 120 125
4 2 156 143 125
4 2 156 175 143
4 2 227 210 192
4 2 182 148 175
4 2 98 125 120
4 2 115 98 120
4 2 71 101 99
4 2 74 75 103
4 2 100 74 103
4 2 72 54 74
4 2 128 101 100
4 2 52 50 34
4 2 215 180 179
4 2 254 216 215
4 2 254 255 216
4 2 295 254 253
4 2 295 298 254
4 2 298 299 255
4 2 334 298 295
4 2 299 284 255
4 2 284 244 243
4 2 77 56 78
4 2 22 21 38
4 2 37 56 55
4 2 36 21 20
4 2 243 216 255
4 2 207 173 206
4 2 241 207 244
4 2 205 173 207
4 2 206 216 243
4 2 243 207 206
4 2 242 205 207
4 2 241 242 207
4 2 283 241 244
4 2 283 242 241
4 2 285 283 244
4 2 327 323 283
4 2 282 281 240
4 2 171 170 139
4 2 176 144 145
4 2 212 176 213
4 2 212 178 176
4 2 147 146 178
4 2 118 117 146
4 2 9 20 21
4 2 3 7 4
4 2 343 298 334
4 2 4 7 12
4 2 1 4 5
4 2 0 2 4
4 2 251 252 213
4 2 339 296 294
4 2 295 253 296
4 2 334 295 340
4 2 252 212 213
4 2 294 252 251
4 2 296 253 252
4 2 214 215 178
4 2 252 214 212
4 2 253 215 214
4 2 176 146 144
4 2 215 216 180
4 2 212 214 178
4 2 253 254 215
4 2 252 253 214
4 2 254 298 255
4 2 147 119 118
4 2 179 147 178
4 2 215 179 178
4 2 180 147 179
4 2 180 172 147
4 2 4 1 0
4 2 24 25 13
4 2 6 1 5
4 2 11 6 5
4 2 12 13 5
4 2 16 15 11
4 2 13 23 11
4 2 5 13 11
4 2 12 24 13
4 2 29 28 16
4 2 375 374 328
4 2 25 24 40
4 2 42 25 41
4 2 26 13 25
4 2 43 39 26
4 2 16 11 23
4 2 138 110 111
4 2 203 169 170
4 2 168 137 169
4 2 96 81 109
4 2 124 96 123
4 2 97 81 96
4 2 108 110 136
4 2 108 80 82
4 2 68 49 58
4 2 94 68 69
4 2 97 95 69
4 2 93 66 67
4 2 66 47 48
4 2 30 16 23
4 2 83 110 82
4 2 84 83 82
4 2 84 111 83
4 2 62 86 88
4 2 42 62 43
4 2 61 87 62
4 2 41 61 42
4 2 60 85 61
4 2 111 110 83
4 2 327 285 328
4 2 147 118 146
4 2 172 140 147
4 2 62 84 59
4 2 87 86 62
4 2 112 87 85
4 2 112 113 87
4 2 65 92 85
4 2 119 140 112
4 2 88 111 84
4 2 113 88 86
4 2 114 111 88
4 2 142 114 140
4 2 173 142 172
4 2 141 171 139
4 2 173 141 142
4 2 173 171 141
4 2 169 138 170
4 2 111 114 139
4 2 169 137 136
4 2 203 202 168
4 2 204 203 170
4 2 204 239 203
4 2 151 165 185
4 2 135 151 152
4 2 135 166 151
4 2 168 166 137
4 2 201 200 167
4 2 29 49 48
4 2 59 84 82
4 2 39 59 58
4 2 49 30 39
4 2 42 61 62
4 2 43 62 59
4 2 39 30 23
4 2 59 39 43
4 2 58 49 39
4 2 61 85 87
4 2 41 60 61
4 2 41 40 60
4 2 138 169 136
4 2 139 138 111
4 2 139 170 138
4 2 81 97 69
4 2 122 149 121
4 2 95 122 121
4 2 94 95 121
4 2 94 69 95
4 2 96 109 123
4 2 68 80 69
4 2 108 109 81
4 2 80 108 81
4 2 82 110 108
4 2 96 124 97
4 2 153 152 186
4 2 64 90 91
4 2 50 63 45
4 2 89 115 116
4 2 70 89 63
4 2 50 70 63
4 2 71 98 70
4 2 70 98 89
4 2 299 343 344
4 2 243 255 284
4 2 298 343 299

boundary
175
4 1 472 471
4 1 522 471
4 1 574 522
4 1 574 572
4 1 627 572
4 1 627 626
4 1 683 626
4 1 740 683
4 1 794 740
4 1 849 794
4 1 902 849
4 1 956 902
4 1 1003 956
4 1 1004 1003
4 1 1052 1004
4 1 1054 1052
4 1 1055 1054
4 1 1055 1017
4 1 1017 1016
4 1 1016 1015
4 1 1015 1014
4 1 1014 970
4 1 970 915
4 1 915 895
4 1 895 843
4 1 843 842
4 1 842 787
4 1 787 731
4 1 731 675
4 1 675 616
4 1 616 614
4 1 614 559
4 1 559 506
4 1 506 473
4 1 473 472
3 1 954 927
3 1 928 927
3 1 929 928
3 1 929 888
3 1 888 886
3 1 887 886
3 1 887 885
3 1 936 885
3 1 937 936
3 1 938 937
3 1 987 938
3 1 1030 987
3 1 1077 1030
3 1 1117 1077
3 1 1118 1117
3 1 1155 1118
3 1 1165 1155
3 1 1201 1165
3 1 1233 1201
3 1 1260 1233
3 1 1266 1260
3 1 1293 1266
3 1 1296 1293
3 1 1297 1296
3 1 1297 1294
3 1 1294 1280
3 1 1280 1279
3 1 1279 1247
3 1 1247 1213
3 1 1213 1178
3 1 1178 1140
3 1 1140 1097
3 1 1097 1049
3 1 1049 1001
3 1 1001 954
2 1 343 334
2 1 340 334
2 1 340 339
2 1 339 329
2 1 342 329
2 1 342 341
2 1 347 341
2 1 385 347
2 1 386 385
2 1 438 386
2 1 490 438
2 1 541 490
2 1 594 541
2 1 649 594
2 1 707 649
2 1 760 707
2 1 784 760
2 1 839 784
2 1 872 839
2 1 922 872
2 1 922 873
2 1 874 873
2 1 874 825
2 1 825 785
2 1 785 754
2 1 754 699
2 1 699 642
2 1 642 588
2 1 588 536
2 1 536 483
2 1 483 429
2 1 429 427
2 1 427 375
2 1 375 344
2 1 344 343
1 1 66 47
1 1 47 28
1 1 28 15
1 1 15 6
1 1 6 1
1 1 1 0
1 1 0 2
1 1 2 9
1 1 9 20
1 1 20 37
1 1 37 56
1 1 56 78
1 1 78 106
1 1 106 133
1 1 133 162
1 1 162 196
1 1 196 231
1 1 231 271
1 1 271 314
1 1 314 361
1 1 361 411
1 1 411 466
1 1 466 518
1 1 518 569
1 1 569 624
1 1 624 681
1 1 681 738
1 1 738 793
1 1 793 848
1 1 848 901
1 1 901 955
1 1 955 1002
1 1 1002 1050
1 1 1050 1098
1 1 1098 1141
1 1 1141 1180
1 1 1180 1216
1 1 1216 1251
1 1 1251 1272
1 1 1272 1301
1 1 1301 1318
1 1 1318 1300
1 1 1300 1276
1 1 1276 1243
1 1 1243 1208
1 1 1208 1173
1 1 1173 1136
1 1 1136 1093
1 1 1093 1046
1 1 1046 999
1 1 999 953
1 1 953 899
1 1 899 846
1 1 846 790
1 1 790 734
1 1 734 676
1 1 676 617
1 1 617 560
1 1 560 507
1 1 507 453
1 1 453 398
1 1 398 348
1 1 348 302
1 1 302 258
1 1 258 220
1 1 220 183
1 1 183 149
1 1 149 121
1 1 121 93
1 1 93 66

vertices
1349
2
4.29224396801 2.56449638703
4.50484433951 2.16941869559
4.04508497187 2.93892626146
3.69824309479 2.6986046483
3.93046417034 2.34834301841
4.12886069774 1.97787216268
4.6811743532 1.75687412041
3.59077608221 2.14538883489
3.37258074607 2.47295802189
3.76535733002 3.2896936297
3.4479871578 3.012415663
4.28661282993 1.60879270102
3.75995436894 1.83102295497
3.91614480169 1.46975372181
3.27263447155 1.95530807374
4.81981430348 1.33018422783
4.4156758831 1.20885188582
3.09828459341 2.21811498594
3.14999686056 2.75206937862
2.87090815452 2.50823691686
3.45531324493 3.61397431914
3.1706123647 3.30253441811
2.90329610966 3.01011188946
4.0264721229 1.13023188221
3.4452039394 1.62958021113
3.56917563646 1.33953401815
3.66594097872 1.03936435716
2.97398845151 1.77687537428
4.91964794299 0.892784473993
4.5049913181 0.817535382173
4.11565476806 0.746881221764
2.60892188187 2.27934640544
2.7812603249 2.06324083422
2.65243415642 2.73568904247
2.41787734434 2.47910272246
2.37645399466 2.97997904625
2.85469222288 3.57967082057
3.11744900929 3.90915741234
2.60798009029 3.27030359385
3.75028331042 0.680576077013
3.13483276743 1.47146023819
3.24346858053 1.21729412101
3.32884309146 0.954402896181
3.40865971978 0.618580537141
2.69473925437 1.61003174841
2.56253746623 1.81024383514
2.8083988403 1.39874121735
4.97987146998 0.448196544517
4.56056299346 0.400975768475
4.16356625656 0.393113589859
2.3639514147 2.06532215764
2.15997627998 2.70852458787
2.13786387317 2.29637635864
2.12133230699 3.1653358003
1.87894202152 2.90894286663
2.52996903288 3.81559602771
2.75448490726 4.17286626861
2.28859250693 3.50030950096
3.79738824563 0.315030205936
3.44580430067 0.344680182604
2.93891596369 1.1029936054
3.01302160464 0.874803892799
3.08859818856 0.560497933237
2.26310601715 1.70421935741
2.43351807532 1.45395936358
2.54377148211 1.2250157854
5 0
4.57857082978 -2.21503348996e-09
4.18287529394 -2.21503348996e-09
4.1635757635 -0.39311424994
2.09277142826 1.89257219109
1.92243684961 2.08092503501
1.76306282101 2.59522455485
1.95716186283 2.45420335799
1.48751153703 2.76425963304
1.64165869462 3.05071305267
1.8065130136 3.35706372091
2.16963878429 4.03186446675
2.36934331236 4.40297765928
1.98212900523 3.68341291538
3.81153626396 -2.21503348996e-09
3.79261346654 -0.368082310768
3.46433298007 -2.21503348996e-09
3.13904391196 -2.21503348996e-09
3.12827995478 0.239678018597
2.65402490939 0.996072207221
2.78920023915 0.506165213071
2.72161256915 0.751118705024
2.8119780806 0.253082600306
1.92006815637 1.67751302877
2.09297158624 1.45275730926
2.27108523973 1.1546452658
2.35592153282 0.942608480867
4.97987146998 -0.448196544517
4.55886985646 -0.419788041895
4.50498623681 -0.817534474838
3.75100055174 -0.680706248674
4.11564540455 -0.746879535844
1.72057312654 1.87903854856
1.66172721159 2.10445830945
1.34331594393 2.49629932374
1.60095378487 2.33726178758
1.39260679939 3.1706036495
1.27133443837 2.86832526092
1.52204908526 3.49324606928
1.80801040801 4.20602124541
1.96512515827 4.59763886276
1.62681343232 3.85271072525
3.45197383403 -0.276131086661
3.40870096433 -0.618588030335
3.12831565703 -0.239682049135
2.83475593229 -2.21503348996e-09
2.44075783616 0.730571706176
2.50865150058 0.455253127103
2.54182710782 0.173634140562
1.71887125095 1.50173258141
1.83913211649 1.33620769527
1.95939298203 1.17068280912
2.08040325677 0.934276466776
2.18136996001 0.665196121006
1.53142968009 1.68987376272
4.91964794299 -0.892784473993
4.41567092474 -1.20885041504
3.66594097872 -1.03936436159
4.0264721229 -1.13023189689
1.44905063412 2.09553956959
1.06865556684 2.62370367185
0.816308358979 2.55414483806
1.2081989159 2.24520980834
1.07055071608 3.29481631882
0.970028995043 2.98544228972
1.17805473197 3.62567968131
1.41485459815 4.35447470842
1.54508497187 4.75528258148
1.29257661178 3.97814175822
3.32884309146 -0.954402900611
3.08863348103 -0.560504350754
3.03524545164 -0.794412590724
2.81199255615 -0.253085237585
2.5418512952 -0.173636870042
2.2457812156 0.407549203401
2.2705487942 -0.0606544180205
2.27600779643 0.143698679065
1.3067194976 1.86904921242
1.68086593336 1.13901598822
1.53050325534 1.33716041777
1.7995220826 0.940419046732
1.93852133345 0.603989042552
1.35434658719 1.51277069294
4.81981430348 -1.33018422783
4.28661282993 -1.60879271569
3.24346858053 -1.21729412544
3.56917563646 -1.33953402258
3.91614480169 -1.46975373649
0.657436886949 3.06783035089
0.677613801488 2.75076084246
1.08159617296 2.00994249585
0.620331880749 2.47107713306
0.950603651302 2.36376533563
0.893460779817 2.09035541835
0.822093230041 3.72144120125
0.737001745251 3.38366667182
1.11260466978 4.87463956091
0.912739472848 4.08126560478
1.02794084281 4.46126148299
3.10497020614 -1.5334705039
2.93891596369 -1.10299362008
2.8445879634 -1.32359375125
2.71758997554 -0.800343917849
2.78922919025 -0.506170472954
2.5086754216 -0.455257475221
2.26508980223 -0.265007504861
2.01523019608 0.248147371104
2.02715303705 -0.115673697082
0.465028728326 3.43297994235
1.06246603612 1.73028776827
1.49432722479 0.997001674602
1.29229123964 1.24780187371
1.6483444815 0.714162214041
1.71118508392 0.546691683278
1.76928388446 0.32107768575
0.421364107096 3.11063481936
1.1211477617 1.40587482418
4.6811743532 -1.75687412041
4.12886530778 -1.97787452336
3.42210663196 -1.67754227114
3.75994569181 -1.83101902549
2.97395246241 -1.77685388565
3.27200871405 -1.95493420338
0.380518539697 2.80910071771
0.394733454934 2.50660378218
0.505853806628 2.21628641601
0.736430621926 1.89217802185
0.705325386678 2.1707683511
0.561481007432 4.14501927306
0.511634958919 3.77704095691
0.671166329088 4.95474880884
0.614596511344 4.53713367335
2.69470845926 -1.61001336387
2.7250286855 -1.9168552787
2.43349281227 -1.45394427779
2.57311672445 -1.18529152923
2.38707061474 -0.895882588135
2.4478730028 -0.675570031678
2.21379182461 -0.547791921465
1.99968729028 -0.362889748757
1.79416483947 0.089435529626
1.7813012109 -0.232362237396
1.14745270894 1.15474709661
0.1897367441 3.45775666933
0.771441960029 1.62231424474
0.928961540972 1.53756224379
1.35532339463 0.809768027096
1.22943007641 0.98800056857
1.42675474745 0.651387945072
1.49818611052 0.493007863047
1.56214753824 0.217574094272
0.126668179991 2.82051581837
0.0990893436587 3.13591894857
0.984363966141 1.23435337362
4.50484433951 -2.16941869559
4.00020088023 -2.26644421056
3.59078424712 -2.14539372597
3.19619549131 -2.24650877027
2.8798108002 -2.15369650212
0.16913502912 2.54213044156
0.306382226577 2.26180449117
0.555672133393 1.71018299584
0.516409440913 1.96366723588
0.205920272233 4.17702032234
0.197556704932 3.80530851374
0.224324151753 4.99496533271
0.214832414607 4.57311310078
2.35051050582 -2.22707594801
2.53339403126 -2.07558997576
2.37128666497 -1.72415482262
2.18872252357 -1.30770084046
2.08016271478 -1.56144438026
2.16241296629 -1.05077748506
2.136938227 -0.80200633144
1.90275502336 -0.714115913112
1.63546151122 -0.379481020158
1.71118508392 -0.546691697952
1.57879721381 -2.21503348996e-09
1.56213959871 -0.217573565986
1.00948444894 1.06610627536
-0.155428602039 3.46088650178
-0.1408342902 3.13591894857
-0.114389586835 2.54708201081
0.548654689499 1.47871444384
0.803876773737 1.35699136367
1.03380613358 0.903209218313
1.15542841764 0.738993677646
1.26881698404 0.520810255913
1.3125772996 0.362248312667
1.35633761515 0.203686379665
-0.12718216947 2.83193091904
0.855915165838 1.07328366739
4.29224396801 -2.56449638703
3.87153645267 -2.55501389777
3.48230103681 -2.54624077391
3.1203822788 -2.53808333717
2.5622357438 -2.37472512177
2.78566914823 -2.53053910836
0.101989544557 2.27099354369
0.157484201395 2.02431876273
0.347962020755 1.52452123086
0.152210482072 1.78993245066
0.329465519478 1.76593309025
-0.187663565099 4.17865391802
-0.17103664267 3.80842652398
-0.224324151753 4.99496533271
-0.205416578525 4.57395535633
2.18874339172 -2.51708475863
2.10355365146 -2.13394173469
1.97022524986 -2.28883036195
2.18873295252 -1.91239280467
1.95937616048 -1.17067276365
1.90148699414 -1.44360441419
1.84359783804 -1.71653604423
1.70935701598 -1.44212060405
1.79953603568 -0.940425392537
1.64833428818 -0.714157034729
1.49818611052 -0.493007867477
1.37091032124 -0.041770375725
1.34142083567 -0.285884603545
0.882670524887 0.913420164525
-0.102403127218 2.28018260645
-0.430718691024 3.43606789509
-0.37978643354 3.11437687626
-0.340867271499 2.51639130072
0.424214273621 1.30559729219
0.612846803957 1.22700662897
0.225414111023 1.35289627963
0.902000450904 0.761129421538
1.10565398876 0.414958880317
1.01379190247 0.605712462428
0.736313762363 0.923308253796
1.1647039239 0.190755249758
1.18095558852 -2.21503348996e-09
-0.428309644506 2.80042791872
0.559618948083 1.039946268
4.04508497187 -2.93892626146
3.62092935305 -2.87878625026
3.24989589746 -2.86467236676
2.87060785607 -2.77239995557
2.53985615917 -2.72550346619
1.95564439935 -2.64266947007
2.25210807449 -2.73441045556
-0.0911809518851 2.03030151748
-0.0806756183325 1.79638216218
0.147269352011 1.57032802812
-0.543224730569 4.14666236543
-0.537866637146 3.7722806124
-0.671166329088 4.95474880884
-0.623898274381 4.53544565864
1.84107042601 -2.43887052109
1.73166558541 -2.24426614644
1.87250818906 -2.04680813237
1.70367013403 -1.22632113994
1.596297443 -1.83186643404
1.58967377906 -1.60354479214
1.5281736553 -1.44072132168
1.34141636904 -0.595093152461
1.38608694345 -0.752599784295
1.50516008679 -1.10009190298
1.54364665229 -0.922285944503
1.29816635493 -0.442595305686
1.16197944774 -0.210868181278
0.753071466004 0.65793872594
-0.366363534579 2.25091949466
-0.770886613308 3.37747491803
-0.698502988739 3.0603415246
-0.567344945918 2.48570060088
0.983929588599 0.178556894799
0.36493606946 1.12315773474
0.138308875857 1.17208700887
0.0199944335222 1.46735224602
0.0805860297574 1.31613998761
0.858448793602 0.512899277406
0.93623487064 0.351374824081
0.473868662473 0.880595531857
0.623489801859 0.781831482468
1 0
0.983929588599 -0.178556894799
-0.8291762288 2.70896276769
-0.848146612149 3.71597309163
0.309016994375 0.951056516295
3.76535733002 -3.2896936297
3.36013715422 -3.22147523295
2.97660074986 -3.11096438066
2.65107812653 -3.1021058685
1.75581848086 -2.72515701605
2.31841333194 -2.96182159273
2.03227180758 -2.89698300629
-0.452236565717 1.98137782663
-0.312046037812 1.76908266394
-0.135490231808 1.57138817496
-0.486436218011 1.72929090201
-0.930777325696 4.07800187608
-1.01882786631 4.46377649911
-1.11260466978 4.87463956091
1.67625044675 -2.50553347718
1.49236473813 -2.33996828899
1.52690789013 -2.17059726133
1.52442382278 -2.70354963474
1.37602531153 -2.04013101237
1.46667353154 -1.27789785122
1.33727832962 -1.14226696689
1.37378812756 -1.82370275837
1.35513337874 -1.4991788863
1.17846248548 -0.704098568375
1.29512868244 -0.969085202876
1.17888508335 -1.18205832928
1.09767482765 -0.433621132571
0.93623487064 -0.351374824081
1.01378989454 -0.605711278491
0.934862831081 -0.74093082372
0.350527460548 0.812604629839
0.685708500618 0.535828026158
-0.646561725202 2.18698608578
-1.03734434446 3.30398070247
-1.00910173311 2.97073976471
-0.839340265225 2.40552318006
0.844653159701 0.1532819418
0.134233265818 0.990949761768
-0.0448648303505 0.998993066541
-0.0529834772954 1.17976878099
-0.103233212236 1.36765105183
0.73149934712 0.28349963753
0.392037929866 0.674152755454
0.505191732203 0.543935049479
0.820181289986 -0.0780356260542
0.788298729144 -0.253723042674
-1.11413005145 2.60663680754
-1.20278960997 3.61561871528
-1.30974081979 3.97171007711
0.194227841398 0.733639231283
3.45531324493 -3.61397431914
3.05725852731 -3.48632486711
2.69639904536 -3.37060329947
2.3709727003 -3.26624453407
1.35702695032 -2.8842536735
1.57251226536 -3.01019168868
1.81204749766 -3.08700661311
2.05711186636 -3.13262294374
-0.798757613915 1.86878630658
-0.305472592642 1.3383628409
-0.413897665137 1.52195011558
-0.706730303547 1.65347773049
-1.42370706603 4.35115784125
-1.54508497187 4.75528258148
1.19607159374 -2.18795616698
1.44797611418 -2.5003883167
1.31918880327 -2.34065599527
1.31197351665 -2.6837112513
1.1607435864 -2.87814438833
1.1635098091 -3.1093056756
1.15606358988 -2.0371727761
1.24791958066 -1.3255044722
1.16739273879 -1.81613027509
1.17872188769 -1.59508777407
1.01329401742 -0.883308634406
1.0675542779 -1.01194050479
1.01351745102 -1.29982826363
1.04053585934 -1.15588438933
0.696109309044 -0.373568061508
0.858448793602 -0.512899277406
0.858448786064 -0.871844995069
0.753071466004 -0.65793872594
0.618345544784 0.413717343505
-0.836617192567 2.11168917802
-1.36156958794 3.18555038404
-1.23372283926 2.88643805264
-1.04735737624 2.31125931063
0.677932212295 0.115265396179
0.659147398695 -0.0204029319796
-0.0385141694346 0.857584384716
-0.222520933956 0.974927912182
-0.282353054529 1.14594920144
-1.49802917428 3.50481345516
0.564778399714 0.245483102153
0.277564629705 0.527613803883
0.368264123675 0.356692540439
0.640362585094 -0.156071249893
-1.02667265993 2.03639227027
-1.52333112901 2.74281667673
-1.38499828604 2.47136104022
-1.64397470015 3.8462699982
-1.79949295735 4.21012303963
0.145691240808 0.567271454436
0.031004403281 0.690366791852
0.566755402895 -0.348415205932
3.11744900929 -3.90915741234
2.73569449991 -3.74524559185
2.39479632573 -3.5988760134
2.08339746164 -3.38197558817
1.36352678841 -3.15608550006
1.14893924412 -3.27122310796
1.5787723298 -3.2485042956
1.8203129939 -3.35221328002
-1.02020736646 1.75551834924
-0.679000851865 1.42358747408
-0.539537441022 1.26231057186
-0.913759491792 1.54663175267
-0.84521147734 1.38957471308
-1.96512515827 4.59763886276
1.0403646422 -2.11876277672
1.11711389908 -2.34186325382
1.2364908445 -2.49562156934
1.11720707325 -2.68963279488
0.983929588599 -2.8214431052
1 -3
0.983929588599 -3.1785568948
1.00314218225 -1.89948691733
1.01341567143 -1.49969235331
1.01341984096 -1.68495683471
0.858448786064 -1.05131785425
0.858448786064 -1.41026357262
0.816297858317 -1.2445640784
0.603919888943 -0.493413070097
0.623489793505 -0.96137361912
0.535234064828 -0.67116229427
0.623489801859 -0.781831482468
-1.61062233347 3.06565938768
-1.25537447702 2.2169954412
0.511211264889 0.0772488608015
0.492426451289 -0.0584194571122
-0.178334572053 0.784106242848
-0.482432658768 1.07711723884
-0.393025031654 0.919527772551
-1.78250783429 3.36862400732
-1.88645953255 2.99628470989
0.356377220579 0.197962432932
0.163091329544 0.381074852313
0.474205098091 -0.227090372337
-1.48246604575 2.08341331287
-1.37643768534 1.89105529106
-1.27597490118 1.70879442927
-2.16112122094 4.03596631219
-1.77036323982 2.61233129095
-1.67261515853 2.33990956281
-1.96561399425 3.6913661373
0.0274831983517 0.470588990573
-0.108124922596 0.560103139078
0.406671703706 -0.363210679723
0.93623487064 -3.35137482408
2.75448490726 -4.17286626861
1.0940122582 -3.46715054554
2.39278957238 -3.96974521815
2.08090875352 -3.72258325769
1.79607683075 -3.6346429689
1.31387856213 -3.47016393845
1.551605437 -3.49735260091
-1.12074171903 1.54077515953
-0.720367702861 1.167131895
-1.01142210282 1.35556195209
-0.911721472081 1.17194087039
-2.36934331236 4.40297765928
0.894018554496 -2.04186892828
0.906520581251 -2.26307831299
1.04049882529 -2.4912040279
0.93623487064 -2.64862517592
0.844653159701 -2.8467180582
0.863218729723 -3.08997578031
0.788298729144 -3.25372304267
0.753071456452 -1.96781182601
0.858448786064 -1.76920929099
0.795222394443 -1.61039647925
0.681081642565 -1.52473306181
0.623489793505 -1.1409157417
0.695479607392 -1.35137419005
0.529976583114 -1.38218540676
0.43776240194 -0.564432182296
0.412772506394 -0.732208103045
0.450318417466 -1.04750238492
0.473868662473 -0.880595531857
0.326268964285 -0.1294385898
0.344490317483 0.0392323254243
-0.330029123304 0.70658082825
-0.633161497426 0.996003927307
-0.550896981452 0.834573253721
-2.10267934073 3.28475381612
-2.16229673164 2.92691005259
-1.96299010931 2.76693995519
0.196554173433 0.136884118205
0.0486180396272 0.234535910987
0.234079544185 -0.249283598389
-1.70181464143 1.95438584925
-1.52838653701 1.66268358406
-1.31183003151 1.42539018676
-2.44260580926 3.88531084499
-2.00954615186 2.48599195584
-1.95034610336 2.21297632049
-2.40632553017 3.57213936671
-0.0993181044229 0.332187703768
-0.247254238229 0.429839486304
0.28982625789 -0.466780399759
0.696109309044 -3.37356807175
0.858448793602 -3.51289927741
2.36934331236 -4.40297765928
1.18127807666 -3.64818834143
1.0068949652 -3.6584029347
2.03131031574 -4.15493192294
1.76148128813 -3.86575267487
1.33483965586 -3.83419288901
-1.15472033495 1.26696773329
-0.818258244841 0.999807420765
-1.06480533775 1.11066428268
-2.75448490726 4.17286626861
0.753071456452 -2.15493655348
0.623489793505 -2.03862639555
0.753071466004 -2.34206127406
0.742507872398 -3.00139465405
0.858448793602 -2.48710072259
0.73149934712 -2.71650036247
0.677932212295 -2.88473460382
0.640362585094 -3.15607124989
0.566755402895 -3.34841521618
0.492426451289 -3.05841945711
0.652285723157 -1.87145079509
0.623489793505 -1.67954212991
0.548679225192 -1.54938202903
0.403217938638 -1.38131608512
0.473868656879 -1.23454094549
0.271604914937 -0.635451304739
0.290310947961 -0.793253911819
0.309016991229 -1.13403768513
0.309016994375 -0.951056516295
0.215316858809 -0.0561997400919
-0.395190382279 0.527491279085
0.100329640881 -0.167019363069
-0.543126516084 0.625143071866
-0.753634732453 0.859067283087
-0.691062648987 0.722794863827
-2.42285083693 3.20088363515
-2.43813393073 2.85753538504
-2.21923656642 2.66777290151
-0.910030506933 0.842940940023
0.0587691576767 0.0350899115733
-0.10318684541 0.174120346825
0.141890124084 -0.369128606978
-1.91251369325 1.83044628934
-1.77765444878 1.61714702774
-1.41524699509 1.12013836926
-1.60702384366 1.44060514407
-1.44577002241 1.27376491939
-2.72409038732 3.73465540852
-2.19964416483 2.30083657887
-2.23770309215 2.02009932012
-2.69607609622 3.33076142702
-0.263451012562 0.279909794127
-0.419485513046 0.302596725453
0.123668770887 -0.537799511958
0.753071466004 -3.65793872594
0.603919888943 -3.4934130701
0.623489801859 -3.78183148247
1.96512515827 -4.59763886276
1.06110432051 -3.87957942417
0.859311192631 -3.8051351087
1.72243671233 -4.30367761169
1.3991109197 -4.04284429124
-1.21422270007 1.05085532896
-1.09370742142 0.952281014597
-3.11744900929 3.90915741234
0.473868656879 -1.94243176684
0.473868662473 -2.11940446814
0.623489801859 -2.21816851753
0.629131589205 -2.39906311573
0.511211264889 -2.9227511392
0.618345544784 -2.5862826565
0.505191732203 -2.45606495052
0.564778399714 -2.75451689785
0.406671703706 -3.36321067972
0.344490317483 -2.96076767458
0.375581005472 -3.16198917715
0.473868656879 -1.76545905894
0.379667699225 -1.54822294035
0.268725592428 -1.35581634914
0.163363885752 -1.16728205378
0.105447427934 -0.706470416938
0.119840342197 -0.848710090133
0.134233265818 -0.990949761768
-0.510011238987 0.442662771851
-0.0320681869351 -0.0966903134017
-0.0374553748755 -0.268813569701
-1.38617356111 0.973807924982
-0.657947362548 0.540314564632
-0.863936636936 0.715588623972
-0.809016994375 0.587785252292
-2.67031967283 2.95942013299
-2.64661861318 2.61771179944
-2.41714713342 2.45503174241
-1.06560655363 0.735914104951
-0.164466014751 -0.0263612432449
-0.254991730447 0.113704792909
-0.101605076903 -0.471415873477
-2.11528198944 1.71117184063
-2.09092941749 1.52334978724
-1.87958671095 1.43245138512
-1.53993863802 0.983451138814
-1.57288841444 1.12986196182
-1.71627632735 1.27176678171
-3.03874289947 3.50604697049
-2.29302795585 1.8391588884
-2.46538972572 2.24520980834
-2.47754971774 1.97202491257
-2.96620037171 3.1345046477
-0.40550703174 0.105978344313
-0.591716777619 0.175353974846
-0.624832075205 0.357834274861
-0.0440071630701 -0.622874544003
0.535234064828 -3.67116229427
0.43776240194 -3.5644321823
0.722984099037 -3.92680035839
0.473868662473 -3.88059553186
1.54508497187 -4.75528258148
1.14001265693 -4.19405021851
0.892359060601 -4.12930363836
1.32427237353 -4.44934418875
-1.26916402836 0.851308625632
-3.45531324493 3.61397431914
0.279886372182 -1.87261120533
0.309016994375 -2.0489434837
0.350527460548 -2.18739537016
0.392037929866 -2.32584724455
0.356377220579 -2.80203756707
0.380151026771 -2.48457735205
0.472464713242 -2.61954712495
0.28982625789 -3.46678039976
0.283391585372 -3.28183420623
0.160111467037 -3.200457702
0.196554173433 -2.86311588179
0.178332820235 -3.03178679702
0.309016991229 -1.68298116332
0.221625123845 -1.51994662443
0.134233256461 -1.33031659267
-0.0448648366564 -1.16599537949
-0.0607100590698 -0.777489539381
-0.0448648303505 -0.998993066541
0.123668770887 -3.5377995222
-1.20968461103 0.701176142621
-0.216800873835 -0.168498501691
-0.159202970247 -0.319957192706
-1.463703596 0.80820236302
-0.762900475657 0.395859005877
-0.98875593719 0.596554430405
-0.900968867902 0.433883739118
-2.94660071698 2.72410045038
-2.83813106021 2.47856985228
-2.85620120387 2.09706128456
-1.18974105705 0.566389255401
-0.344976113965 -0.10798392397
-0.342916324588 -0.45568278789
-0.271021272774 -0.605201601967
-1.64626492015 0.802928182692
-2.42046323225 1.63626264805
-2.26160735242 1.52873794842
-2.06798886188 1.34641815998
-1.94103905413 1.22713972614
-1.69370371494 0.993094362891
-1.81921839464 1.11268051223
-3.33220599762 3.18507004791
-2.58633200739 1.74853417964
-2.72972566749 1.92334809484
-3.2743174562 2.80868344701
-0.558601490276 -0.00712631492457
-0.74161451705 0.161117668993
-0.243425205111 -0.757268511817
0.271604914937 -3.63545130474
0.372736780786 -3.75802342234
0.309016994375 -3.9510565163
0.583529344838 -4.05125688895
0.371191329203 -4.12337190146
1.11260466978 -4.87463956091
0.721322863569 -4.26570045635
0.894621292497 -4.53539915282
-1.34823382911 0.614092800054
-3.76535733002 3.2896936297
0.104383582812 -1.8407073768
0.134233265818 -2.00905023823
0.172877208956 -2.16339524141
0.211521171696 -2.31774023147
0.20653216886 -2.49953211833
0.261715422163 -2.68402634287
0.141890124084 -3.36912860698
0.0314371330025 -3.21791645102
0.0486180396272 -2.76546408901
0.0587691576767 -2.96491009867
0.0745338989185 -1.67236452275
-0.0448648366564 -1.83400462494
0.0446842150248 -1.50402165845
-0.104083540481 -1.34101941038
-0.222520937885 -1.14995194555
-0.222520933956 -0.974927912182
0.105447427934 -3.70647041694
-0.0440071630701 -3.622874544
-0.0257858098725 -3.45420363902
-0.354585889591 -0.270292708323
-1.55543258512 0.686763671514
-0.963962860696 0.266036845567
-1.06708262914 0.422096748877
-2.20380052152 1.21977751222
-2.94709685021 1.8433542051
-3.19665020583 2.46312444386
-3.12658681779 2.15139675026
-1.23319637192 0.410309760861
-0.525486202934 -0.189606604695
-0.641975671185 -0.107857342331
-0.492370905348 -0.372086894466
-0.459255618005 -0.554567194481
-0.426140330663 -0.737047484252
-1.70771171079 0.631631169704
-1.80786430026 0.863860154045
-1.39931012494 0.398522772845
-2.49921336211 1.48533180739
-2.68261038529 1.53435664266
-2.37996521115 1.26525926021
-2.06554837484 1.09549906265
-1.93406802829 0.97730795443
-3.60316835912 2.87524851644
-2.87301526347 1.58525480629
-3.45835133172 2.50519433723
-0.758465139436 -0.0261080697221
-0.995974293995 0.0896393089034
-0.393025031654 -0.919527772551
0.119840342197 -3.84871009013
0.134233265818 -3.99094976177
0.224134997208 -4.24670448212
0.449315906455 -4.33989319645
0.671166329088 -4.95474880884
0.547570345036 -4.61220411955
-1.57046511776 0.544993260099
-4.04508497187 2.93892626146
-0.0448648303505 -2.00100693346
-0.0385141694346 -2.14241561528
0.0368756153964 -2.4615768351
0.031004403281 -2.30963320815
0.0427468275118 -2.61352046206
-0.0993181044229 -2.66781229623
-0.0868470879149 -3.28590252126
-0.0790158580793 -3.06670429506
-0.0949080210132 -2.87149972306
-0.192911591095 -1.85405892248
-0.133692887271 -1.51203257767
-0.0892788670857 -1.67301860643
-0.234941612682 -1.40003756692
-0.336190338094 -1.28804254594
-0.393025033076 -1.11301851505
-0.0607100590698 -3.77748953938
-0.193558585545 -3.70318209108
-0.193461743829 -3.53927866082
-0.205131308832 -3.3538885915
-1.13931412216 0.251456851953
-2.26953330335 1.06145711493
-1.56542387797 0.386735784829
-3.06949531247 1.68086884571
-3.22584668708 1.94595188142
-3.37323030166 2.21005181953
-1.31466538442 0.236876851747
-1.16331191516 0.0746994229931
-0.63384334383 -0.292710351451
-0.775315761823 -0.213333798192
-0.650693955972 -0.479936079921
-0.57515913907 -0.638681031779
-0.550896981452 -0.834573253721
-1.78709911302 0.490323402092
-2.0113875582 0.792379832281
-1.88745065163 0.640400349407
-1.49001663643 0.222296861786
-2.5537303817 1.27850257223
-2.7481886486 1.34785260164
-3.06823385001 1.32538125659
-2.56040756317 1.05614863585
-2.40024385406 0.969326570249
-2.16699782169 0.872227839654
-3.8407564511 2.54262981207
-3.18811535992 1.52339937086
-3.64260185896 2.27411193298
-0.995974293995 -0.0896393089034
-0.528343847979 -1.01255882475
0.0013505746623 -4.16998546715
-0.0448648303505 -3.99899306654
-0.222520933956 -3.97492791218
0.0594222988555 -4.38484501444
0.13245721034 -4.65506686925
0.224324151753 -4.99496533271
-1.731537631 0.374948796813
-4.29224396801 2.56449638703
-0.222520933956 -2.02507208782
-0.276275035717 -2.15924563588
-0.149512365134 -2.30152619507
-0.124415239901 -2.48466924565
-0.247254238229 -2.5701605137
-0.252412573204 -2.78091697596
-0.216800873835 -3.16849850169
-0.238434081654 -2.97753534685
-0.393025033076 -1.88698148938
-0.279355643112 -1.65655731786
-0.393025033076 -1.50000000734
-0.483237583175 -1.3685299668
-0.550896985504 -1.21481711659
-0.293291814433 -3.81135493255
-0.326407101775 -3.62887464278
-0.342916324588 -3.45568277765
-0.354585889591 -3.27029269808
-1.66536789869 0.207716871825
-3.32264200488 1.74560803954
-3.47349550945 1.99478513339
-1.33064953315 0.0597595318047
-1.16599032159 -0.104458908069
-0.76740610997 -0.36329705151
-0.963962860696 -0.266036845567
-0.809016994375 -0.587785252292
-0.691062648987 -0.722794863827
-0.69106264989 -0.895507125439
-1.88046476094 0.337151822596
-1.96432515836 0.50161133718
-2.0740545565 0.665144959732
-1.66532476914 0.0298797596726
-1.49798715114 -0.044819655291
-3.29377354383 1.31138196861
-2.74566666619 1.14157373436
-2.96131128395 1.14876850114
-3.16111475663 1.14489067324
-2.69098300563 0.951056516295
-2.37651019814 0.781831482468
-2.52613133753 0.880595531857
-2.246928534 0.65793872594
-4.037427899 2.24469352408
-3.56549578446 1.48457571874
-3.81335422053 1.96347342952
-1.14726324626 -0.280259844529
-0.69106264989 -1.24093162792
-0.69106264989 -1.06821937156
-0.393025031654 -3.91952777255
-0.222950399595 -4.21786270812
-0.400515652169 -4.12058582483
-0.145584861418 -4.55797406001
-0.224324151753 -4.99496533271
-1.84071916094 0.193136881864
-4.50484433951 2.16941869559
-0.393025031654 -2.08047222745
-0.330029123304 -2.29341917175
-0.337419069221 -2.67126431973
-0.395190382279 -2.47250872091
-0.427583889968 -2.77236812576
-0.525486202934 -3.1896066047
-0.406796615484 -2.94671076101
-0.344976113965 -3.10798393421
-0.550896985504 -1.59506096409
-0.550896985504 -1.97530482184
-0.438131308125 -1.7245010986
-0.69106264989 -1.5863561304
-0.69106264989 -1.41364387403
-0.550896981452 -3.83457325372
-0.426140330663 -3.73704748425
-0.459255618005 -3.55456719448
-0.492370905348 -3.37208689447
-0.63384334383 -3.29271035145
-3.61702390585 1.71707218824
-1.33600633576 -0.119278507771
-0.900968867902 -0.433883739118
-0.806311984832 -0.948273720524
-1.06708262914 -0.422096753307
-0.999379031825 -0.577087262604
-0.863936636936 -0.715588628402
-2.0160704114 0.178556894799
-2.06376512936 0.351374824081
-2.1415512064 0.512899277406
-3.52791801284 1.25940683659
-1.83266238713 -0.0149398934034
-1.66536789869 -0.2077168865
-1.49001663643 -0.222296876461
-3.32221544238 1.12307021557
-2.82712279104 0.836604758593
-2.86576673418 0.990949761768
-3.04486483035 0.998993066541
-3.22252093396 0.974927912182
-2.619490957 0.708405730622
-2.46017770931 0.643236911171
-2.36510927404 0.518859724645
-4.24259818321 1.87460541492
-3.82375079796 1.40374333321
-4.01702419065 1.6210184528
-1.33056362237 -0.294482842714
-1.25542096678 -0.4564596115
-0.870585645894 -1.31316157402
-0.820718145297 -1.10599276282
-0.57154529269 -4.02688935996
-0.500778718852 -4.32057888312
-0.751047225903 -4.02719687056
-0.630121653089 -4.57246310911
-0.671166329088 -4.95474880884
-2 0
-4.6811743532 1.75687412041
-0.550896981452 -2.16542674628
-0.543126516084 -2.37485692813
-0.493453590193 -2.64857737816
-0.518290063383 -2.51171715827
-0.657947362548 -2.45968543537
-0.641975671185 -3.10785734233
-0.591716777619 -2.82464602515
-0.558601490276 -3.00712631492
-0.673541941842 -2.09687615975
-0.69106264989 -1.93178063287
-0.638500525745 -1.73621818806
-0.810744647226 -1.69208018675
-0.870585645894 -1.44269576373
-0.805620180728 -3.86129152238
-0.691062648987 -3.72279486383
-0.634136307178 -3.57117622993
-0.696669890728 -3.40298532302
-0.775315761823 -3.21333379819
-0.950373630459 -0.841519708019
-0.950373630459 -0.971053897729
-1.18974105705 -0.566389259831
-1.03681062398 -0.708382397971
-2.1553468403 0.1532819418
-2.27004082852 0.394482538119
-2.7884788283 0.682259768531
-1.07171789796 -1.13837579034
-3.77321267898 1.16666428259
-3.51542860737 1.05713206127
-1.84605439878 -0.163737306876
-1.731537631 -0.374948801243
-1.56542387797 -0.386735789259
-3.39302503165 0.919527772551
-2.99205337045 0.758872731943
-3.17833457205 0.784106242848
-2.62849563838 0.541112379323
-2.51351305099 0.408589086523
-4.32203958446 1.52342276941
-4.10309827104 1.28516682508
-1.38010309253 -0.555691267302
-1.0235126368 -1.27490149499
-0.768509478558 -4.23750777693
-0.94312096149 -4.02752589472
-0.920908987914 -4.5196929899
-1.11260466978 -4.87463956091
-2.17981871001 -0.0780356260542
-2.0160704114 -0.178556894799
-4.81981430348 1.33018422783
-0.691062648987 -2.27720513617
-0.809016994375 -2.41221474771
-0.724763894663 -2.65165660254
-0.758465139436 -3.02610806972
-0.74161451705 -2.83888233101
-0.810744647226 -2.15264619005
-0.820712469817 -1.98946415015
-0.844304588944 -1.81987323351
-1.01021462913 -1.65719418045
-1.05010863165 -1.47174764317
-0.907750900283 -3.74438977253
-0.809016994375 -3.58778525229
-0.900968867902 -3.43388373912
-0.963962860696 -3.26603684557
-0.995974293995 -3.0896393089
-1.08002912587 -0.836115042879
-1.11992312839 -1.00185008569
-1.20968461103 -0.701176157295
-2.32206778771 0.115265396179
-2.39853045335 0.276065793724
-1.38255859807 -0.69396991662
-2.34085260131 -0.0204029319796
-2.89209192376 0.565569076861
-1.1764396277 -1.23664140572
-1.28947261608 -1.03264627365
-3.94675425202 1.06474725407
-3.70251103509 0.958289575372
-3.55089698145 0.834573253721
-1.89765138402 -0.363161813227
-1.78709911302 -0.490323416766
-1.57046511776 -0.544993274774
-3.3300291233 0.70658082825
-3.11965380946 0.594356104001
-3.25742209587 0.560923686421
-2.64650500114 0.206525676724
-2.74212754354 0.327391318929
-4.47485644647 1.07682347642
-4.12834811176 0.958101301063
-1.55543258512 -0.686763686189
-1.20303562256 -1.36872048466
-1.15022856151 -3.88583152859
-1.16861994347 -4.15816121971
-1.33962479219 -4.42939662915
-1.54508497187 -4.75528258148
-2.21170127086 -0.253723042674
-2.35963741491 -0.156071249893
-2.06376512936 -0.351374824081
-4.91964794299 0.892784473993
-0.929593404224 -2.28680065057
-0.900968867902 -2.56611626088
-1.03866226463 -2.44188090211
-0.963962860696 -2.73396315443
-0.995974293995 -2.9103606911
-1.05016980185 -2.16138656208
-0.950362279499 -2.04714765719
-1.05010863165 -1.90352827896
-1.16979061875 -1.77896932341
-1.1997111232 -1.63988442814
-1.22963161741 -1.50079953287
-1.04371351334 -3.58998845794
-1.13083335723 -3.35055023127
-1.17192656609 -2.96070040887
-1.16784930757 -3.1560340212
-1.25068078353 -3.66468569082
-1.31939311029 -0.846065511205
-2.48878873511 0.0772488608015
-1.4490486057 -0.840660815331
-2.50757354871 -0.0584194571122
-2.89708092659 0.383777190005
-3.00836737315 0.489066641881
-1.32936660836 -1.19838131645
-1.42910160956 -0.990954844625
-3.82387504384 0.861505004096
-3.99969445122 0.640148702321
-3.69106264899 0.722794863827
-3.54312651608 0.625143071866
-1.96432515836 -0.501611351855
-1.88745065163 -0.640400364081
-1.72830658241 -0.679557445513
-3.39519038228 0.527491279085
-3.24725423823 0.429839486304
-2.95138196037 0.234535910987
-2.65550968252 0.0392323254243
-2.80344582657 0.136884118205
-4.54061956242 0.788696456151
-4.29561151824 0.611664749899
-1.58646125261 -0.884753627948
-1.36926061089 -1.36411636951
-1.42086644743 -4.00244070439
-1.6424182869 -4.31575632346
-1.96512515827 -4.59763886276
-2.62441899453 -0.161989177149
-2.30389069096 -0.373568061508
-2.4332445971 -0.348415205932
-2.1415512064 -0.512899277406
-4.97987146998 0.448196544517
-1.15099387025 -2.30680538498
-1.08732145148 -2.60661268605
-1.33908386979 -2.86646586959
-1.23564913192 -2.48496124601
-1.14220774606 -2.79692399052
-1.20527415881 -2.05876416567
-1.31404906215 -2.19341016987
-1.29132259711 -1.91055836462
-1.33931170855 -1.70206142969
-1.40915460317 -1.52985141232
-1.32125832496 -3.44699303417
-1.36019222891 -3.23033540473
-1.34963804935 -3.04840063716
-1.50841605012 -3.70649483994
-3.09931810442 0.332187703768
-1.4756446108 -1.24907949625
-1.58202859022 -1.13404261275
-4.08619647714 0.436340973766
-3.80901699437 0.587785252292
-3.9009688679 0.433883739118
-3.51829005314 0.488282841733
-3.65794736255 0.540314564632
-2.06718959247 -0.649169543784
-1.94750760537 -0.773728509575
-1.80809457722 -0.855586528065
-3.49345357995 0.351422621843
-2.98395592578 0.0552614374802
-3.26345100232 0.279909794127
-3.09490803126 0.128500276944
-4.15924859947 0.25576606754
-2.82166717976 -0.0317867970189
-4.37714222342 0.228546620207
-4.64408254451 0.325826484661
-1.73495558112 -1.08282911169
-1.59861133816 -1.47200394128
-1.72509523409 -3.97778849989
-2.03785453321 -4.13480606723
-2.36934331236 -4.40297765928
-2.76592046606 -0.249283598389
-2.59332829629 -0.363210679723
-2.39608011106 -0.493413070097
-2.246928534 -0.65793872594
-5 6.12323399574e-16
-1.37149226281 -2.36046028485
-1.418267426 -2.52012014659
-1.52304822581 -2.87777337176
-1.35062262216 -2.68630670762
-1.45174245066 -2.06917480887
-1.50733540394 -2.23595933394
-1.46944559363 -1.82313043643
-1.53247540261 -1.65973016716
-1.55977975676 -3.43693848123
-1.58168841999 -3.07793272981
-1.78526878104 -3.68199619098
-1.6485185876 -1.28073350122
-3.42758388997 0.227631884487
-3.9639628607 0.266036845567
-3.72476389466 0.348343397463
-2.12724654621 -0.782497689278
-2.00756455912 -0.907056644825
-1.88788256178 -1.03161559013
-3.59171677762 0.175353974846
-3.07901586832 -0.0667042950588
-3.40679661548 0.0532892287475
-3.2384340919 0.0224646531456
-4.23509222803 0.0682908843178
-3.995974294 0.0896393089034
-2.85810987592 -0.369128606978
-2.96856287724 -0.217916461263
-4.55948454985 -0.0393291818143
-1.77362819787 -1.4089019697
-1.85791095752 -1.24194645287
-1.73361702844 -1.58749671743
-2.06709226926 -3.82472877037
-2.75448490726 -4.17286626861
-2.38871070546 -3.98761594143
-2.74715777044 -0.442367456686
-2.56223759806 -0.564432182296
-2.46476593517 -0.67116229427
-2.37651019814 -0.781831482468
-4.64408254451 -0.325826499336
-4.97987146998 -0.448196544517
-1.73727271355 -2.96980892899
-1.52388126126 -2.4233245112
-1.6478491371 -2.6449228097
-1.6623835798 -2.20415572783
-1.58943584942 -1.94493943762
-1.5807557768 -2.09721078768
-1.72712924818 -1.82070407662
-1.817846875 -3.40712575967
-1.82005624503 -3.14612944846
-2.08923516384 -3.42507122718
-3.74161451705 0.161117668993
-2.25593379862 -0.90724558503
-2.01478100337 -1.15807378249
-2.11721057689 -1.01188897471
-3.55860149028 -0.00712631492457
-3.15920298049 -0.319957192706
-3.21680088408 -0.168498501691
-3.38196015254 -0.0835709808971
-4.16489122497 -0.151196955265
-3.75846513944 -0.0261080697221
-3.995974294 -0.0896393089034
-2.87633122911 -0.537799511958
-3.1016050769 -0.471415873477
-4.35753838891 -0.336607769798
-1.88807211666 -1.49056766729
-1.99778846325 -1.35186298818
-1.8648226367 -1.69646871563
-3.11744900929 -3.90915741234
-2.39344691382 -3.56829503267
-2.73496411483 -3.72908236841
-2.72839508506 -0.635451304739
-2.62726321921 -0.758023422338
-2.52613133753 -0.880595531857
-2.39404562571 -0.99841240456
-4.57198849234 -0.73616873763
-4.91964794299 -0.892784473993
-1.81769223355 -2.59436776673
-1.89880247172 -2.8575532867
-1.73818528768 -2.3595660997
-1.82545256086 -2.17070686775
-1.77902166571 -1.98695742187
-1.91486480684 -1.86245646071
-2.06615615316 -3.12328711758
-2.36223531967 -3.22787014638
-2.11025901568 -2.90898138032
-2.27610634898 -1.13990641806
-2.1298741909 -1.23404612356
-4.12037422659 -0.331932741879
-3.64197567119 -0.107857342331
-3.52548620293 -0.189606604695
-3.34291633483 -0.45568278789
-3.35458589984 -0.270292708323
-3.9639628607 -0.266036845567
-3.77531576182 -0.213333798192
-4.07585720772 -0.512668508004
-2.89455257207 -0.706470416938
-3.04400716307 -0.622874544003
-3.27102127277 -0.605201601967
-4.23928238148 -0.705943867643
-2.00251603546 -1.57223334438
-2.19754868345 -1.46045841727
-2.05070793773 -1.73795550979
-3.45531324493 -3.61397431914
-3.05919852719 -3.50064642809
-2.69044747501 -3.34380340737
-2.8801596578 -0.848710090133
-2.69098300563 -0.951056516295
-2.55328962026 -1.07529189014
-2.4155962215 -1.19952725114
-4.43458878429 -1.12289161654
-4.81981430348 -1.33018422783
-1.9963096627 -2.54120096836
-1.96636860768 -2.29167839761
-1.93932928 -2.0663382471
-2.07800415771 -1.9389065358
-2.65658990867 -3.09258681859
-2.33820718232 -2.96442036828
-2.28723145722 -2.66317515265
-2.27790282273 -1.32376261214
-3.9009688679 -0.433883739118
-3.45925561801 -0.554567194481
-3.63384334383 -0.292710351451
-3.49237090535 -0.372086894466
-3.76740610997 -0.36329705151
-3.98255461499 -0.715243202721
-3.80901699437 -0.587785252292
-3.06071005907 -0.777489539381
-3.42614033066 -0.737047484252
-3.24342520511 -0.757268511817
-4.10838234761 -0.870620843255
-4.19111730968 -1.07169649419
-4.6811743532 -1.75687412041
-2.18655106862 -1.61345454863
-2.3223941995 -1.48895359772
-2.22180560205 -1.76024867141
-3.76535733002 -3.2896936297
-3.36035649 -3.19149042347
-2.9823824656 -3.07624343452
-2.86576673418 -0.990949761768
-3.04486483035 -0.998993066541
-2.72992360241 -1.11545072449
-2.59408047152 -1.2399516754
-2.45823734063 -1.36445263656
-4.40513218372 -1.46857384112
-2.21204540572 -2.40270656886
-2.25893515419 -2.02369409558
-2.11265188606 -2.15768625171
-2.61717957176 -2.8015118066
-2.52084861884 -2.60127996838
-3.57515913907 -0.638681031779
-3.65069395597 -0.479936079921
-3.82387504384 -0.861505008526
-3.69106264899 -0.722794863827
-3.22252093396 -0.974927912182
-3.13808190789 -1.17978816811
-3.55089698145 -0.834573253721
-3.39302503165 -0.919527772551
-4.02235525895 -1.32861649963
-3.98328672115 -1.02799562775
-4.04508497187 -2.93892626146
-4.50484433951 -2.16941869559
-4.20238118032 -1.88767271979
-2.48049313014 -1.57023897669
-2.40724165915 -1.78441003911
-3.60317030559 -2.87525352021
-2.91851191727 -2.71803969806
-3.2743174562 -2.80868346168
-2.63850635489 -1.54735050437
-2.96131128395 -1.14876851582
-2.83656494537 -1.24385391606
-2.6938706601 -1.37463399652
-3.94221407309 -1.64532573803
-2.42760569037 -1.97646190259
-2.4309795582 -2.26215889551
-2.70718917736 -2.31985769765
-2.76529260843 -2.53651627983
-3.70250893496 -0.958287868962
-4.29224396801 -2.56449638703
-3.12171778886 -1.3491745421
-3.32221544238 -1.12307023024
-3.29377354383 -1.31138198328
-3.82375754912 -1.40375093909
-3.51543025674 -1.05713393021
-3.77321267898 -1.16666428702
-3.83246590694 -2.5877259392
-4.0737171523 -2.23977369686
-3.81335422053 -1.96347343395
-2.60835809364 -1.81061448733
-3.45834094375 -2.50516781852
-3.19665020583 -2.46312445853
-2.80467940337 -1.52328005703
-2.72868504676 -1.68703206262
-2.95453437181 -1.3858968632
-3.71319897772 -1.70405715991
-2.65341986637 -2.11936039245
-2.90830131938 -2.28065309176
-3.44479370671 -1.50091743737
-3.18811535992 -1.52339937529
-3.52791801284 -1.25940685127
-3.6610941907 -2.19417373703
-3.50366215967 -1.88883333492
-2.82684930258 -1.83908277584
-3.32934566851 -2.17554332926
-3.08824174999 -2.11076779802
-3.00617468125 -1.61565617378
-3.32264200488 -1.74560805422
-2.86594799009 -2.05104584101
-3.06331656926 -1.86989325494
