MFEM mesh v1.0

#
# MFEM Geometry Types (see mesh/geom.hpp):
#
# POINT       = 0
# SEGMENT     = 1
# TRIANGLE    = 2
# SQUARE      = 3
# TETRAHEDRON = 4
# CUBE        = 5
#
        
dimension
2

elements
692
1 2 0 2 1
1 2 3 2 0
1 2 2 3 6
1 2 3 7 6
1 2 13 6 7
1 2 13 8 14
1 2 6 13 12
1 2 7 8 13
1 2 13 14 19
1 2 13 19 12
1 2 19 14 20
1 2 28 19 20
1 2 18 12 19
1 2 37 27 28
1 2 28 20 26
1 2 36 28 26
1 2 19 27 18
1 2 38 37 28
1 2 35 25 27
1 2 49 47 37
1 2 38 36 48
1 2 41 56 45
1 2 25 35 32
1 2 52 68 67
1 2 47 62 52
1 2 35 47 41
1 2 49 62 47
1 2 49 63 62
1 2 38 49 37
1 2 36 38 28
1 2 48 49 38
1 2 42 48 36
1 2 42 50 48
1 2 68 79 82
1 2 52 62 68
1 2 56 52 67
1 2 41 47 52
1 2 63 64 79
1 2 48 50 63
1 2 35 41 32
1 2 27 19 28
1 2 35 27 37
1 2 25 18 27
1 2 37 47 35
1 2 42 57 50
1 2 73 57 74
1 2 73 80 64
1 2 91 73 74
1 2 91 90 73
1 2 107 101 97
1 2 156 154 130
1 2 122 106 101
1 2 107 122 101
1 2 129 128 122
1 2 122 128 106
1 2 123 130 107
1 2 182 198 168
1 2 154 182 153
1 2 129 154 153
1 2 156 184 154
1 2 156 185 184
1 2 139 119 114
1 2 82 84 68
1 2 60 56 72
1 2 60 45 56
1 2 41 45 32
1 2 91 74 92
1 2 90 98 80
1 2 100 90 91
1 2 116 100 91
1 2 115 90 100
1 2 115 127 105
1 2 73 64 57
1 2 90 115 105
1 2 63 79 62
1 2 98 79 80
1 2 82 101 84
1 2 97 82 79
1 2 97 101 82
1 2 146 126 151
1 2 105 127 121
1 2 98 105 121
1 2 98 90 105
1 2 79 98 97
1 2 80 73 90
1 2 115 141 140
1 2 102 97 121
1 2 107 102 123
1 2 107 97 102
1 2 129 122 107
1 2 114 106 128
1 2 139 114 128
1 2 119 95 114
1 2 89 77 72
1 2 114 89 106
1 2 95 77 89
1 2 72 77 60
1 2 84 72 67
1 2 84 89 72
1 2 116 92 108
1 2 132 133 108
1 2 115 100 116
1 2 140 127 115
1 2 169 140 141
1 2 169 152 140
1 2 175 146 151
1 2 121 97 98
1 2 152 126 127
1 2 123 102 121
1 2 146 123 121
1 2 126 146 121
1 2 127 126 121
1 2 152 181 151
1 2 175 155 146
1 2 147 130 123
1 2 91 92 116
1 2 52 56 41
1 2 62 79 68
1 2 48 63 49
1 2 64 80 79
1 2 50 64 63
1 2 50 57 64
1 2 84 106 89
1 2 68 84 67
1 2 101 106 84
1 2 139 144 119
1 2 95 89 114
1 2 213 185 212
1 2 211 213 239
1 2 184 185 213
1 2 211 184 213
1 2 182 154 184
1 2 130 154 129
1 2 107 130 129
1 2 147 156 130
1 2 155 183 185
1 2 147 155 156
1 2 147 146 155
1 2 67 72 56
1 2 226 210 206
1 2 240 213 212
1 2 264 240 263
1 2 239 213 240
1 2 185 183 212
1 2 123 146 147
1 2 227 228 255
1 2 236 227 241
1 2 199 228 227
1 2 175 199 206
1 2 180 208 199
1 2 116 108 133
1 2 168 144 139
1 2 277 263 253
1 2 301 277 278
1 2 300 301 278
1 2 276 300 278
1 2 310 320 300
1 2 320 319 301
1 2 299 288 277
1 2 318 298 299
1 2 328 318 336
1 2 328 309 318
1 2 288 263 277
1 2 298 275 288
1 2 319 318 299
1 2 309 283 298
1 2 264 263 288
1 2 275 264 288
1 2 260 275 283
1 2 252 264 275
1 2 234 252 260
1 2 225 239 252
1 2 211 198 182
1 2 184 211 182
1 2 239 225 211
1 2 173 198 204
1 2 239 240 264
1 2 238 240 212
1 2 252 239 264
1 2 225 198 211
1 2 155 175 183
1 2 153 182 168
1 2 128 153 139
1 2 128 129 153
1 2 204 198 225
1 2 168 139 153
1 2 173 168 198
1 2 173 144 168
1 2 132 157 160
1 2 204 225 234
1 2 298 288 299
1 2 260 252 275
1 2 286 311 285
1 2 306 286 281
1 2 306 312 286
1 2 375 382 378
1 2 365 375 370
1 2 381 374 373
1 2 385 383 384
1 2 376 374 381
1 2 365 376 375
1 2 365 366 376
1 2 279 290 266
1 2 313 308 287
1 2 238 263 240
1 2 278 253 254
1 2 278 277 253
1 2 276 278 254
1 2 262 276 254
1 2 284 310 300
1 2 301 319 299
1 2 236 241 262
1 2 226 236 254
1 2 206 227 236
1 2 210 212 183
1 2 210 238 212
1 2 206 210 183
1 2 226 238 210
1 2 236 226 206
1 2 254 253 226
1 2 253 263 238
1 2 175 180 199
1 2 200 201 230
1 2 256 229 230
1 2 140 152 127
1 2 161 170 141
1 2 200 181 169
1 2 252 234 225
1 2 133 132 160
1 2 191 161 160
1 2 141 116 133
1 2 200 169 201
1 2 115 116 141
1 2 319 320 337
1 2 298 283 275
1 2 186 176 187
1 2 190 186 214
1 2 160 157 186
1 2 336 346 328
1 2 309 298 318
1 2 353 347 362
1 2 319 337 336
1 2 318 319 336
1 2 299 277 301
1 2 320 329 337
1 2 353 337 347
1 2 346 353 361
1 2 336 337 353
1 2 276 262 284
1 2 183 175 206
1 2 226 253 238
1 2 185 156 155
1 2 236 262 254
1 2 314 292 293
1 2 331 323 311
1 2 302 290 279
1 2 323 321 314
1 2 303 290 302
1 2 332 313 322
1 2 333 332 322
1 2 366 350 351
1 2 351 350 333
1 2 329 344 347
1 2 333 350 332
1 2 360 359 345
1 2 279 266 255
1 2 346 336 353
1 2 350 365 360
1 2 332 350 345
1 2 366 365 350
1 2 374 376 366
1 2 363 374 364
1 2 373 380 381
1 2 383 382 375
1 2 379 370 378
1 2 354 351 338
1 2 364 354 349
1 2 364 351 354
1 2 373 374 363
1 2 366 351 364
1 2 374 366 364
1 2 350 360 345
1 2 371 360 370
1 2 371 362 359
1 2 379 371 370
1 2 379 372 371
1 2 329 320 310
1 2 300 320 301
1 2 313 332 327
1 2 329 347 337
1 2 327 329 310
1 2 327 345 344
1 2 362 347 359
1 2 360 371 359
1 2 372 361 362
1 2 314 321 302
1 2 333 322 338
1 2 313 303 322
1 2 327 310 308
1 2 345 327 332
1 2 344 359 347
1 2 327 344 329
1 2 345 359 344
1 2 287 262 266
1 2 313 287 303
1 2 308 284 287
1 2 287 284 262
1 2 313 327 308
1 2 310 284 308
1 2 284 300 276
1 2 187 209 186
1 2 131 135 159
1 2 209 237 214
1 2 189 193 215
1 2 159 189 188
1 2 163 135 134
1 2 193 163 162
1 2 159 135 163
1 2 243 268 244
1 2 194 220 193
1 2 291 293 289
1 2 268 291 289
1 2 270 293 291
1 2 286 285 261
1 2 304 314 293
1 2 311 304 285
1 2 311 323 304
1 2 268 242 244
1 2 270 291 267
1 2 218 230 201
1 2 265 269 245
1 2 267 291 268
1 2 293 292 289
1 2 269 256 245
1 2 265 289 269
1 2 242 265 245
1 2 268 289 265
1 2 292 279 269
1 2 323 331 339
1 2 321 323 338
1 2 303 321 322
1 2 303 302 321
1 2 314 304 323
1 2 293 285 304
1 2 269 289 292
1 2 247 246 235
1 2 312 325 330
1 2 311 312 331
1 2 306 325 312
1 2 242 217 214
1 2 256 230 245
1 2 279 255 256
1 2 314 302 292
1 2 266 262 241
1 2 255 266 241
1 2 290 287 266
1 2 292 302 279
1 2 303 287 290
1 2 229 200 230
1 2 255 229 256
1 2 269 279 256
1 2 241 227 255
1 2 208 180 181
1 2 200 208 181
1 2 228 199 208
1 2 255 228 229
1 2 227 206 199
1 2 229 228 200
1 2 187 176 177
1 2 267 268 243
1 2 186 157 176
1 2 190 160 186
1 2 190 191 160
1 2 217 190 214
1 2 217 218 190
1 2 170 169 141
1 2 191 170 161
1 2 201 169 170
1 2 161 141 133
1 2 160 161 133
1 2 191 201 170
1 2 362 361 353
1 2 371 372 362
1 2 378 370 375
1 2 365 370 360
1 2 209 214 186
1 2 216 209 187
1 2 216 237 209
1 2 265 242 268
1 2 218 201 191
1 2 190 218 191
1 2 245 217 242
1 2 245 218 217
1 2 245 230 218
1 2 181 152 169
1 2 228 208 200
1 2 151 126 152
1 2 180 151 181
1 2 180 175 151
1 2 187 177 158
1 2 381 380 384
1 2 381 383 376
1 2 363 357 368
1 2 383 385 382
1 2 376 383 375
1 2 381 384 383
1 2 355 340 343
1 2 367 355 358
1 2 367 356 355
1 2 316 335 317
1 2 341 342 330
1 2 334 352 335
1 2 356 342 341
1 2 368 357 367
1 2 363 348 357
1 2 330 331 312
1 2 348 349 330
1 2 312 311 286
1 2 354 339 349
1 2 339 338 323
1 2 349 339 331
1 2 338 322 321
1 2 354 338 339
1 2 351 333 338
1 2 274 258 251
1 2 373 377 380
1 2 368 367 369
1 2 373 368 377
1 2 373 363 368
1 2 377 368 369
1 2 159 158 131
1 2 163 193 189
1 2 136 162 134
1 2 136 165 162
1 2 187 158 159
1 2 367 358 369
1 2 348 342 357
1 2 364 348 363
1 2 364 349 348
1 2 273 296 274
1 2 272 273 250
1 2 272 295 273
1 2 334 335 316
1 2 324 334 315
1 2 355 343 358
1 2 324 340 334
1 2 324 326 340
1 2 317 325 306
1 2 316 317 296
1 2 335 325 317
1 2 135 131 109
1 2 85 110 109
1 2 134 162 163
1 2 330 342 348
1 2 331 330 349
1 2 325 341 330
1 2 297 317 306
1 2 335 341 325
1 2 315 334 316
1 2 356 357 342
1 2 335 352 341
1 2 367 357 356
1 2 352 340 355
1 2 207 196 178
1 2 150 149 179
1 2 221 231 248
1 2 305 324 315
1 2 282 305 280
1 2 307 324 305
1 2 197 224 205
1 2 196 197 167
1 2 223 250 224
1 2 273 295 296
1 2 248 271 249
1 2 295 316 296
1 2 294 295 272
1 2 294 315 295
1 2 224 232 205
1 2 223 224 197
1 2 251 232 224
1 2 273 251 250
1 2 296 297 274
1 2 249 272 250
1 2 326 324 307
1 2 352 334 340
1 2 356 352 355
1 2 356 341 352
1 2 294 305 315
1 2 326 343 340
1 2 274 281 258
1 2 273 274 251
1 2 297 281 274
1 2 317 297 296
1 2 306 281 297
1 2 271 294 272
1 2 257 271 248
1 2 280 294 271
1 2 86 110 85
1 2 86 70 81
1 2 215 243 244
1 2 216 215 244
1 2 193 220 215
1 2 159 163 189
1 2 165 194 193
1 2 205 235 219
1 2 237 244 242
1 2 214 237 242
1 2 216 244 237
1 2 188 216 187
1 2 159 188 187
1 2 189 216 188
1 2 189 215 216
1 2 280 257 259
1 2 307 305 282
1 2 271 272 249
1 2 305 294 280
1 2 315 316 295
1 2 257 233 259
1 2 282 280 259
1 2 222 196 207
1 2 231 202 203
1 2 257 231 233
1 2 257 248 231
1 2 138 117 142
1 2 149 138 166
1 2 113 117 138
1 2 124 113 138
1 2 125 124 149
1 2 104 103 124
1 2 103 88 113
1 2 271 257 280
1 2 222 221 248
1 2 223 222 249
1 2 207 221 222
1 2 221 202 231
1 2 249 222 248
1 2 207 195 221
1 2 172 202 171
1 2 203 233 231
1 2 164 192 194
1 2 137 164 165
1 2 137 145 148
1 2 196 167 178
1 2 196 223 197
1 2 137 165 136
1 2 112 137 136
1 2 148 174 164
1 2 137 148 164
1 2 145 174 148
1 2 205 192 174
1 2 197 205 174
1 2 232 235 205
1 2 224 250 251
1 2 222 223 196
1 2 249 250 223
1 2 219 246 220
1 2 205 219 192
1 2 235 246 219
1 2 258 261 235
1 2 251 258 232
1 2 281 261 258
1 2 270 285 293
1 2 246 270 267
1 2 261 285 270
1 2 232 258 235
1 2 281 286 261
1 2 194 165 164
1 2 219 194 192
1 2 220 243 215
1 2 219 220 194
1 2 246 243 220
1 2 247 270 246
1 2 261 247 235
1 2 261 270 247
1 2 267 243 246
1 2 69 70 86
1 2 53 70 69
1 2 75 59 76
1 2 88 83 71
1 2 124 138 149
1 2 96 78 83
1 2 104 96 103
1 2 120 112 96
1 2 58 59 75
1 2 179 207 178
1 2 202 195 171
1 2 202 221 195
1 2 171 143 172
1 2 203 202 172
1 2 179 178 150
1 2 195 179 166
1 2 195 207 179
1 2 117 93 94
1 2 142 117 118
1 2 142 166 138
1 2 143 142 118
1 2 149 150 125
1 2 103 113 124
1 2 166 179 149
1 2 171 166 142
1 2 171 195 166
1 2 167 150 178
1 2 110 134 135
1 2 109 110 135
1 2 99 81 87
1 2 110 99 111
1 2 86 81 99
1 2 69 86 85
1 2 99 87 111
1 2 145 137 120
1 2 165 193 162
1 2 171 142 143
1 2 117 113 93
1 2 125 104 124
1 2 145 125 150
1 2 145 120 125
1 2 120 96 104
1 2 54 70 53
1 2 39 54 53
1 2 51 65 54
1 2 65 81 70
1 2 54 65 70
1 2 51 46 61
1 2 71 66 55
1 2 75 71 58
1 2 75 88 71
1 2 88 93 113
1 2 83 88 103
1 2 96 83 103
1 2 66 71 83
1 2 75 93 88
1 2 111 136 134
1 2 87 112 111
1 2 78 87 81
1 2 78 96 87
1 2 120 137 112
1 2 125 120 104
1 2 167 145 150
1 2 174 192 164
1 2 167 174 145
1 2 167 197 174
1 2 111 134 110
1 2 86 99 110
1 2 112 136 111
1 2 93 76 94
1 2 118 117 94
1 2 78 81 65
1 2 83 78 66
1 2 96 112 87
1 2 54 40 51
1 2 65 61 78
1 2 34 46 40
1 2 61 66 78
1 2 51 61 65
1 2 55 66 61
1 2 46 55 61
1 2 43 58 55
1 2 76 93 75
1 2 46 51 40
1 2 33 46 34
1 2 43 55 46
1 2 39 40 54
1 2 33 34 24
1 2 43 33 31
1 2 43 46 33
1 2 44 43 31
1 2 58 71 55
1 2 59 58 44
1 2 39 29 40
1 2 30 29 21
1 2 22 30 21
1 2 34 40 30
1 2 33 23 31
1 2 44 58 43
1 2 40 29 30
1 2 30 22 24
1 2 24 23 33
1 2 30 24 34
1 2 22 17 24
1 2 24 17 23
1 2 15 22 21
1 2 15 9 16
1 2 16 17 22
1 2 16 10 11
1 2 15 16 22
1 2 9 10 16
1 2 16 11 17
1 2 4 10 9
1 2 4 5 10
1 2 10 5 11
1 2 1 5 4
1 2 2 5 1

boundary
80
2 1 1 0
2 1 4 1
2 1 9 4
2 1 15 9
2 1 21 15
2 1 29 21
2 1 39 29
2 1 53 39
2 1 69 53
2 1 85 69
2 1 109 85
2 1 131 109
2 1 158 131
2 1 177 158
2 1 176 177
2 1 157 176
2 1 132 157
2 1 108 132
2 1 92 108
2 1 74 92
2 1 57 74
2 1 42 57
2 1 36 42
2 1 26 36
2 1 20 26
2 1 14 20
2 1 8 14
2 1 7 8
2 1 3 7
2 1 0 3
1 1 2 5
1 1 5 11
1 1 11 17
1 1 17 23
1 1 23 31
1 1 31 44
1 1 44 59
1 1 59 76
1 1 76 94
1 1 94 118
1 1 118 143
1 1 143 172
1 1 172 203
1 1 203 233
1 1 233 259
1 1 259 282
1 1 282 307
1 1 307 326
1 1 326 343
1 1 343 358
1 1 358 369
1 1 369 377
1 1 377 380
1 1 380 384
1 1 384 385
1 1 385 382
1 1 382 378
1 1 378 379
1 1 379 372
1 1 372 361
1 1 361 346
1 1 346 328
1 1 328 309
1 1 309 283
1 1 283 260
1 1 260 234
1 1 234 204
1 1 204 173
1 1 173 144
1 1 144 119
1 1 119 95
1 1 95 77
1 1 77 60
1 1 60 45
1 1 45 32
1 1 32 25
1 1 25 18
1 1 18 12
1 1 12 6
1 1 6 2

vertices
386
2
0.9 0
0.89344428022 0.0623735072453
1 0
0.89344428022 -0.0623735072453
0.874063637293 0.122020992923
0.992114701314 0.125333233564
0.992114701314 -0.125333233564
0.874063637293 -0.122020992923
0.842705098312 -0.176335575688
0.842705098312 0.176335575688
0.913234446396 0.174515154688
0.968583161129 0.248689887165
0.968583161129 -0.248689887165
0.894839075203 -0.206302020764
0.800739181908 -0.222943447643
0.800739181908 0.222943447643
0.870297134826 0.233613294521
0.929776485888 0.368124552685
0.929776485888 -0.368124552685
0.824456684221 -0.304668436356
0.75 -0.259807621135
0.75 0.259807621135
0.82450302646 0.304696357288
0.876306680044 0.481753674102
0.824214351479 0.390217055871
0.876306680044 -0.481753674102
0.692705098312 -0.285316954889
0.824213613872 -0.390215758471
0.71470422355 -0.342525537877
0.692705098312 0.285316954889
0.740423889496 0.336371650428
0.809016994375 0.587785252292
0.809016994375 -0.587785252292
0.752482331407 0.495682949602
0.740907108449 0.41066595907
0.752482331407 -0.495682951211
0.63135853898 -0.29835656861
0.740877126754 -0.410587991471
0.649820421776 -0.371400299329
0.63135853898 0.29835656861
0.664960698378 0.353098848545
0.697907040825 -0.561653146358
0.56864146102 -0.29835656861
0.697906596212 0.561651382686
0.728968627421 0.684547105929
0.728968627421 -0.684547105929
0.671810141925 0.458401769953
0.651342677652 -0.497564401442
0.59248290797 -0.355785023998
0.619860199205 -0.421730499049
0.523226737066 -0.344720032819
0.619859260805 0.421728237493
0.58375519615 -0.570405035312
0.56864146102 0.29835656861
0.578869763649 0.368568616458
0.604121403307 0.541908128074
0.6090535489 -0.664731886171
0.507294901688 -0.285316954889
0.619618671685 0.648288894803
0.637423989749 0.770513242776
0.637423989749 -0.770513242776
0.561189492663 0.48626707664
0.561189492663 -0.486267080298
0.541115371921 -0.411419178802
0.473992613865 -0.36730931311
0.541115371921 0.411419175144
0.491720814995 0.543945742101
0.52405946108 -0.613776525182
0.491720220811 -0.543941693015
0.507294901688 0.285316954889
0.523226737066 0.34472003121
0.524059295118 0.613773251465
0.529606336942 -0.722453664789
0.437240845838 -0.322366582031
0.45 -0.259807621135
0.529606244741 0.722451833504
0.535826794979 0.844327925502
0.535826794979 -0.844327925502
0.441624313911 0.482859705034
0.441624313911 -0.482859706643
0.42333413374 -0.390552105433
0.444697614894 0.401014926599
0.391573778066 -0.546275202381
0.432628600609 0.589329728415
0.434479989237 -0.673119558894
0.45 0.259807621135
0.437240845838 0.322366580422
0.37247438512 0.439064074471
0.434479989237 0.673119555236
0.430347651923 -0.783167466193
0.34322499283 -0.352025959097
0.391093763608 -0.288837587044
0.399260818092 -0.222943447643
0.430347651923 0.783167464583
0.425779291565 0.904827052466
0.425779291565 -0.904827052466
0.361885206086 0.524500599746
0.322821091882 -0.496891758741
0.344192477729 -0.420299970809
0.393960821344 0.376521551528
0.337610332889 -0.286719543068
0.350315560261 -0.61784781933
0.2530120309 -0.506876419271
0.373536386223 0.634713714729
0.299688434601 0.579795668196
0.29407353084 -0.382172009578
0.35388139659 -0.731083410042
0.241137220469 -0.587192407857
0.357294901688 -0.176335575688
0.399260818092 0.222943447643
0.391093763608 0.288837585435
0.343224027793 0.352028178506
0.31181082708 0.424390723892
0.337734478375 0.719355605222
0.323981661931 -0.830317278667
0.284126902171 -0.284601497043
0.327120864044 -0.235356285143
0.3323958373 0.836428516891
0.309016994375 0.951056516295
0.309016994375 -0.951056516295
0.277872494774 0.502570084891
0.223092780377 -0.438836222983
0.274767452082 -0.66910867275
0.183202969919 -0.516861077753
0.274766210443 0.669113113177
0.220145788528 0.589991208656
0.166320611971 -0.398381411342
0.243954585999 -0.344044048346
0.247839679334 -0.765613698987
0.201560065431 -0.678361202536
0.153267780927 -0.611227618042
0.357294901688 0.176335575688
0.325936362707 -0.122020992923
0.273123476629 -0.157572328878
0.294826107654 0.298525139722
0.327120864044 0.235356283534
0.243954585999 0.344044046737
0.201185924282 0.40732838767
0.247838788058 0.765616891628
0.218754712044 -0.869849783865
0.205839752132 -0.278826772182
0.233903047008 -0.217860739754
0.218754232599 0.869851495145
0.187381314586 0.982287250729
0.187381314586 -0.982287250729
0.183202969919 0.516861076144
0.11056783964 -0.463205167769
0.106925402774 -0.546804691861
0.160036544558 0.455156243771
0.201562034433 0.678356664641
0.140603142456 0.600186751165
0.101869121941 -0.381115561021
0.160909419005 -0.337490676345
0.158798597435 -0.776865284369
0.0949973288877 -0.689392167472
0.0291701414894 -0.529418550053
0.0553117394031 -0.623176887899
0.30655571978 -0.0623735072453
0.325936362707 0.122020992923
0.281231577677 0.168574732453
0.241731699316 -0.0718452415761
0.228761300006 -0.132099687677
0.205839752132 0.278826768524
0.248197080892 0.223522344753
0.137721465749 0.395719001192
0.160909419005 0.337490674736
0.158800013232 0.776862020896
0.0510135367056 0.53244896165
0.112611551222 -0.883260436493
0.158809196445 -0.234523727091
0.180930274242 -0.18217516285
0.112612309319 0.883258685115
0.0627905195293 0.998026728428
0.0627905195293 -0.998026728428
0.0627987954419 0.465590150283
0.0146039017612 -0.446229934795
0.3 3.85818993296e-16
0.30655571978 0.0623735072453
0.0553117394031 0.62317688629
0.0949973288877 0.689392165863
0.0374176319106 -0.363849710699
0.101964638011 -0.309748130081
0.0459544570613 -0.785320501448
-0.0485851197956 -0.512032406196
0.000158799719213 -0.704786113434
-0.0471411630019 -0.609134759263
0.235510295756 -0.0126424024594
0.246423716793 0.0836931195295
0.227077788792 0.133803913807
0.207178333501 0.185348487945
0.174006787198 -0.0530219269142
0.183383456323 -0.106043848926
0.0742570092662 0.384109616764
0.158812064919 0.234521793361
0.101964638011 0.309748126423
0.0459544570613 0.785320499839
-0.0471411630019 0.609134757654
-0.048580052842 0.512027130693
-0.0065547416979 -0.888029003285
-0.0371937004264 -0.366464342764
0.0603906422485 -0.210276753897
0.127957503524 -0.146489583897
-0.0065547416979 0.888029001676
-0.0627905195293 0.998026728428
-0.0627905195293 -0.998026728428
-0.0309736511959 0.421173460369
-0.110023923786 -0.415490479096
0.000158799719213 0.704786111825
0.0461016343405 -0.281087141619
0.206027674029 0.042358946594
-0.117653198743 -0.489576102191
-0.0584405596912 -0.791494970634
-0.115751212291 -0.58197644115
-0.0795925933678 -0.684304730918
0.164630118073 -8.04502686691e-10
0.126912371094 0.170308532106
0.183383456323 0.106043847317
0.096905494851 -0.0398141429793
0.102408147047 -0.0922024437748
0.0316628962119 0.32011307893
0.075164114847 0.255744823806
-0.0584405596912 0.791494969025
-0.0795959085036 0.684308583308
-0.115746815331 0.581971858179
-0.117653788829 0.489575563768
-0.120848977399 -0.8838400505
-0.186721275641 -0.467119796137
-0.0837469585089 -0.296878879294
-0.00976136728168 -0.252426151108
-0.0255727130227 -0.180128605332
0.0476041182388 -0.154183989594
-0.120848977399 0.883840048891
-0.110031115459 0.415495317012
-0.187381314586 0.982287250729
-0.187381314586 -0.982287250729
-0.0716711336483 0.334044445558
-0.162069480924 -0.34393736162
0.138812958858 0.0635805960742
-0.18041211728 -0.546428807089
-0.151279148135 -0.767654697813
-0.186567541851 -0.655721680931
-0.155472702771 -0.279979367874
0.0931381994794 0.0200652911852
0.0623308080829 0.177398402908
0.108624448822 0.111322883561
0.0222824550441 -0.0544430568053
-0.00976136728168 0.252426149499
-0.0870786208539 0.270721224516
-0.170583874612 0.770309421333
-0.186564114025 0.655718110122
-0.18041211728 0.54642880548
-0.186727522767 0.46712400094
-0.227625556595 -0.856422680542
-0.267390670411 -0.521422921852
-0.244511110843 -0.393470728078
-0.102486106011 -0.20739800918
-0.0514887874494 -0.114689030665
-0.227626828968 0.856424156197
-0.162069480924 0.343937360011
-0.309016994375 0.951056516295
-0.309016994375 -0.951056516295
-0.15576027134 0.280114803292
-0.268439363845 -0.266236218186
-0.26159561217 -0.614474650173
-0.261892005393 -0.734161509572
0.017130942938 0.0274378828365
-0.188680217684 -0.209783083455
-0.0255727130227 0.180128603723
0.0273980497638 0.10316251073
-0.0628046942528 -0.035191524121
-0.102486106011 0.207398005522
-0.26188954875 0.734158946825
-0.26159561217 0.614474648564
-0.267395874641 0.52142642183
-0.244511110843 0.393470726469
-0.341484386699 -0.817045773641
-0.31963579135 -0.357296797653
-0.352724557605 -0.578865979093
-0.331222215696 -0.445569321243
-0.138684643841 -0.0859986464957
-0.341483071299 0.817044401312
-0.235721792407 0.317775033278
-0.425779291565 0.904827052466
-0.425779291565 -0.904827052466
-0.357406730072 -0.297779319772
-0.205486757779 0.189004134131
-0.274504179484 0.235358266878
-0.292551860951 -0.193562783541
-0.347947211236 -0.686852261192
-0.0562037363241 0.0698292931598
-0.221887730548 -0.139586799036
-0.0790614258303 0.137770984018
-0.149548800895 -8.04502686691e-10
-0.138692784159 0.0860002409873
-0.347947211236 0.686852259583
-0.352728768115 0.578868811126
-0.331222215696 0.445569317585
-0.319629072975 0.357293630478
-0.439191528726 -0.763330818179
-0.442644234507 -0.63939599125
-0.408274711211 -0.399043901696
-0.422947279106 -0.500680444729
-0.235145497634 -0.0519083301683
-0.316664356009 -0.120889346846
-0.220316128731 0.120456230321
-0.439191528726 0.76333081657
-0.357406730072 0.297779318163
-0.535826794979 0.844327925502
-0.387420318543 -0.233997200334
-0.535826794979 -0.844327925502
-0.451392220288 -0.331101581822
-0.313286564512 0.152941500479
-0.387420318543 0.233997198725
-0.409195540388 -0.166955202102
-0.235145497634 0.0519083285593
-0.442647143959 0.639397948399
-0.417219851275 0.518307653493
-0.408268896405 0.399041160695
-0.537556958792 -0.703287106536
-0.515679658219 -0.570811164039
-0.501250293852 -0.442833483877
-0.322383754162 -0.0299821323658
-0.425287779351 -0.0703518527878
-0.328103152316 0.0609250841635
-0.537558515964 0.703288151919
-0.451392220288 0.331101578164
-0.637423989749 0.770513242776
-0.485654302859 -0.258290950136
-0.637423989749 -0.770513242776
-0.549975951435 -0.366054134657
-0.485654302859 0.258290946478
-0.412071453512 0.139592714678
-0.512875608553 -0.159354113995
-0.527954016279 -0.0803103282527
-0.515682844273 0.570812858927
-0.50124576986 0.442831349353
-0.619611594751 -0.626232672753
-0.598604550118 -0.488685330518
-0.429713942604 -8.04502686691e-10
-0.425287779351 0.0703518511788
-0.619613299444 0.62623358086
-0.549975951435 0.366054133048
-0.588694387943 0.283773268778
-0.728968627421 0.684547105929
-0.588694387943 -0.283773270387
-0.61678981587 -0.197287752536
-0.728968627421 -0.684547105929
-0.653202470907 -0.402652775372
-0.61678981587 0.197287748878
-0.512868996722 0.159352815426
-0.635643202379 -0.0907560221428
-0.53300671357 -8.04502686691e-10
-0.598601423482 0.488683855743
-0.701474567504 -0.537134987676
-0.527954016279 0.0803103266437
-0.701472893545 0.537134197236
-0.653202470907 0.402652771714
-0.696587131169 0.310455674349
-0.809016994375 0.587785252292
-0.696587131169 -0.310455678007
-0.729310830896 -0.201783535691
-0.809016994375 -0.587785252292
-0.762277453451 -0.441324967989
-0.728070757005 0.21354751694
-0.635643202379 0.0907560184849
-0.748403997206 -0.101693653097
-0.641353087445 -8.04502686691e-10
-0.762277453451 0.44132496638
-0.810592712379 0.338649816695
-0.876306680044 0.481753674102
-0.845656467737 -0.23072850713
-0.810592712379 -0.338649818304
-0.876306680044 -0.481753674102
-0.846288455973 0.224715535493
-0.748403997206 0.101693651488
-0.867553433746 -0.113250974731
-0.754802018828 -8.04502686691e-10
-0.929776485888 0.368124552685
-0.968583161129 -0.248689887165
-0.929776485888 -0.368124552685
-0.968583161129 0.248689887165
-0.867553433746 0.113250971073
-0.992114701314 -0.125333233564
-0.874678580626 -8.04502686691e-10
-0.992114701314 0.125333233564
-1 5.60868655309e-16
