MFEM mesh v1.0

#
# MFEM Geometry Types (see mesh/geom.hpp):
#
# POINT       = 0
# SEGMENT     = 1
# TRIANGLE    = 2
# SQUARE      = 3
# TETRAHEDRON = 4
# CUBE        = 5
#
        
dimension
2

elements
2570
1 2 1275 1291 1292
1 2 1255 1274 1275
1 2 1165 1195 1176
1 2 1145 1165 1176
1 2 1167 1136 1134
1 2 1132 1133 1165
1 2 1132 1099 1133
1 2 1165 1133 1166
1 2 1262 1240 1261
1 2 1188 1186 1215
1 2 1216 1188 1215
1 2 1187 1157 1188
1 2 1155 1180 1185
1 2 1180 1209 1210
1 2 1252 1273 1274
1 2 1252 1230 1254
1 2 1203 1204 1208
1 2 1195 1196 1223
1 2 1241 1263 1249
1 2 1241 1240 1262
1 2 1197 1216 1224
1 2 1197 1187 1216
1 2 1281 1282 1263
1 2 946 904 911
1 2 993 986 953
1 2 765 803 764
1 2 766 812 811
1 2 723 766 722
1 2 767 812 766
1 2 811 803 765
1 2 1107 1143 1141
1 2 986 1024 1022
1 2 1056 1022 1057
1 2 1171 1173 1200
1 2 924 965 923
1 2 966 1007 965
1 2 881 882 924
1 2 940 933 897
1 2 941 940 898
1 2 941 975 940
1 2 1051 1036 1015
1 2 940 897 898
1 2 1016 1051 1015
1 2 889 855 897
1 2 975 974 933
1 2 847 855 889
1 2 1008 1044 1007
1 2 962 922 923
1 2 923 879 881
1 2 1143 1173 1141
1 2 942 899 904
1 2 942 939 899
1 2 1021 981 983
1 2 982 941 981
1 2 941 898 939
1 2 813 854 856
1 2 854 857 896
1 2 1159 1174 1143
1 2 1256 1272 1276
1 2 1236 1212 1235
1 2 1232 1251 1256
1 2 1257 1235 1256
1 2 1227 1202 1218
1 2 1207 1201 1228
1 2 1200 1202 1227
1 2 1323 1333 1325
1 2 1324 1334 1326
1 2 1294 1309 1310
1 2 1335 1334 1325
1 2 573 574 526
1 2 1114 1083 1079
1 2 1237 1238 1234
1 2 1257 1258 1236
1 2 1279 1295 1297
1 2 1258 1278 1259
1 2 1294 1310 1295
1 2 1277 1294 1278
1 2 1277 1276 1293
1 2 1313 1327 1314
1 2 1313 1312 1327
1 2 1298 1313 1314
1 2 1298 1296 1313
1 2 1260 1239 1238
1 2 1311 1310 1324
1 2 1312 1311 1324
1 2 1295 1310 1311
1 2 1279 1259 1278
1 2 1296 1279 1297
1 2 1260 1261 1239
1 2 1296 1280 1279
1 2 1296 1281 1280
1 2 1278 1294 1295
1 2 1324 1325 1334
1 2 1312 1324 1326
1 2 1310 1325 1324
1 2 1297 1295 1312
1 2 1293 1276 1290
1 2 1309 1293 1306
1 2 1321 1309 1306
1 2 1323 1310 1309
1 2 1294 1277 1293
1 2 1252 1274 1253
1 2 1263 1282 1273
1 2 1262 1261 1281
1 2 1241 1216 1240
1 2 1273 1254 1263
1 2 1224 1216 1241
1 2 1239 1215 1214
1 2 1263 1241 1262
1 2 1216 1187 1188
1 2 1216 1215 1240
1 2 1168 1187 1197
1 2 1157 1186 1188
1 2 1214 1238 1239
1 2 1186 1214 1215
1 2 1186 1210 1214
1 2 1296 1298 1281
1 2 1281 1298 1282
1 2 1237 1213 1236
1 2 1214 1234 1238
1 2 1209 1213 1234
1 2 1299 1307 1291
1 2 1255 1253 1274
1 2 1255 1231 1253
1 2 1291 1275 1274
1 2 1231 1206 1229
1 2 1274 1273 1291
1 2 1214 1210 1234
1 2 1239 1240 1215
1 2 1260 1280 1261
1 2 1259 1260 1238
1 2 1259 1279 1260
1 2 1261 1240 1239
1 2 1260 1279 1280
1 2 1281 1263 1262
1 2 1157 1156 1186
1 2 1234 1213 1237
1 2 1328 1322 1315
1 2 1315 1308 1307
1 2 1327 1315 1314
1 2 1322 1308 1315
1 2 1270 1248 1250
1 2 1288 1270 1289
1 2 1305 1288 1289
1 2 1287 1286 1269
1 2 1288 1287 1269
1 2 1332 1319 1320
1 2 1307 1308 1292
1 2 1291 1307 1292
1 2 1299 1315 1307
1 2 1102 1101 1136
1 2 1099 1102 1133
1 2 1099 1065 1102
1 2 1180 1210 1185
1 2 1166 1196 1195
1 2 1306 1290 1300
1 2 1301 1316 1300
1 2 1309 1294 1293
1 2 1311 1312 1295
1 2 1184 1212 1213
1 2 1209 1184 1213
1 2 1179 1182 1172
1 2 1232 1207 1228
1 2 1232 1211 1207
1 2 1182 1211 1183
1 2 1256 1235 1232
1 2 1257 1236 1235
1 2 1080 1079 1041
1 2 1004 1042 1041
1 2 1150 1118 1154
1 2 1042 1081 1082
1 2 1041 1042 1080
1 2 1006 1044 1042
1 2 1116 1109 1142
1 2 1082 1081 1117
1 2 1084 1109 1116
1 2 1200 1201 1171
1 2 1150 1154 1181
1 2 1115 1118 1150
1 2 1079 1115 1114
1 2 1079 1080 1115
1 2 1082 1117 1118
1 2 1152 1153 1118
1 2 1151 1152 1117
1 2 1151 1182 1152
1 2 1182 1183 1153
1 2 1328 1329 1337
1 2 470 517 516
1 2 426 471 470
1 2 382 425 380
1 2 334 382 380
1 2 387 427 382
1 2 427 433 473
1 2 382 427 425
1 2 387 433 427
1 2 518 517 471
1 2 1013 972 971
1 2 878 879 922
1 2 835 834 878
1 2 880 835 878
1 2 836 792 835
1 2 748 792 795
1 2 745 746 791
1 2 793 837 834
1 2 794 793 747
1 2 792 836 795
1 2 756 754 712
1 2 886 844 887
1 2 843 799 844
1 2 919 921 959
1 2 839 880 877
1 2 836 835 880
1 2 977 935 972
1 2 837 793 794
1 2 838 837 794
1 2 879 834 837
1 2 705 710 662
1 2 704 749 705
1 2 656 704 657
1 2 748 795 749
1 2 798 755 750
1 2 797 796 841
1 2 749 797 750
1 2 749 796 797
1 2 840 841 796
1 2 877 840 839
1 2 884 842 840
1 2 892 895 935
1 2 808 852 807
1 2 853 895 852
1 2 762 809 808
1 2 885 895 853
1 2 884 885 842
1 2 884 928 885
1 2 755 710 750
1 2 787 755 798
1 2 742 699 718
1 2 762 742 718
1 2 762 761 742
1 2 929 895 885
1 2 808 761 762
1 2 745 748 703
1 2 1335 1325 1333
1 2 1264 1268 1284
1 2 1302 1318 1317
1 2 1304 1319 1318
1 2 1288 1303 1287
1 2 1320 1319 1303
1 2 1330 1316 1317
1 2 1338 1330 1331
1 2 1333 1321 1330
1 2 1335 1333 1338
1 2 1321 1316 1330
1 2 1323 1321 1333
1 2 1323 1309 1321
1 2 1310 1323 1325
1 2 1306 1316 1321
1 2 1330 1318 1331
1 2 1300 1316 1306
1 2 1317 1318 1330
1 2 1301 1317 1316
1 2 1301 1302 1317
1 2 1332 1331 1319
1 2 1340 1339 1331
1 2 1339 1344 1342
1 2 1331 1339 1338
1 2 1340 1344 1339
1 2 1332 1340 1331
1 2 1342 1338 1339
1 2 1341 1334 1335
1 2 1343 1341 1345
1 2 1343 1336 1341
1 2 1342 1345 1341
1 2 1338 1342 1335
1 2 1344 1345 1342
1 2 1336 1326 1334
1 2 1337 1336 1343
1 2 1337 1329 1336
1 2 1315 1299 1314
1 2 1099 1098 1060
1 2 1077 1110 1113
1 2 1098 1110 1074
1 2 1060 1098 1061
1 2 1099 1132 1098
1 2 912 875 916
1 2 1025 1026 988
1 2 992 1025 987
1 2 1029 1060 1025
1 2 916 954 912
1 2 989 987 1025
1 2 988 989 1025
1 2 988 948 989
1 2 875 906 916
1 2 906 947 948
1 2 833 864 875
1 2 909 951 947
1 2 988 1026 995
1 2 954 988 995
1 2 948 987 989
1 2 947 905 909
1 2 948 947 987
1 2 906 905 947
1 2 916 906 948
1 2 875 864 906
1 2 992 1029 1025
1 2 1026 1061 1037
1 2 907 908 865
1 2 823 858 866
1 2 938 980 949
1 2 864 833 821
1 2 863 864 821
1 2 784 822 821
1 2 824 867 863
1 2 905 906 864
1 2 905 864 863
1 2 909 905 867
1 2 875 870 833
1 2 833 870 828
1 2 863 867 905
1 2 951 992 987
1 2 732 743 776
1 2 698 732 741
1 2 700 743 732
1 2 776 790 785
1 2 776 784 821
1 2 744 776 785
1 2 744 741 776
1 2 1053 1050 1089
1 2 950 991 951
1 2 909 950 951
1 2 908 907 949
1 2 991 992 951
1 2 1060 1026 1025
1 2 1099 1060 1065
1 2 1061 1026 1060
1 2 948 988 954
1 2 1065 1060 1029
1 2 1001 995 1026
1 2 948 954 916
1 2 894 859 851
1 2 937 894 893
1 2 937 938 894
1 2 822 777 779
1 2 821 822 863
1 2 784 777 822
1 2 637 682 681
1 2 583 537 547
1 2 672 626 627
1 2 536 535 491
1 2 626 581 582
1 2 589 543 581
1 2 501 537 492
1 2 501 523 547
1 2 760 761 807
1 2 772 760 806
1 2 728 717 760
1 2 851 859 817
1 2 734 735 689
1 2 643 690 689
1 2 769 778 734
1 2 816 859 858
1 2 769 770 815
1 2 817 859 816
1 2 778 735 734
1 2 777 743 733
1 2 824 822 779
1 2 784 743 777
1 2 680 635 636
1 2 725 680 681
1 2 725 690 680
1 2 686 732 698
1 2 652 686 698
1 2 689 735 733
1 2 790 821 833
1 2 828 790 833
1 2 828 785 790
1 2 686 700 732
1 2 645 686 652
1 2 687 700 686
1 2 642 641 686
1 2 599 642 645
1 2 599 597 642
1 2 641 598 643
1 2 596 641 642
1 2 506 553 507
1 2 462 461 506
1 2 688 733 687
1 2 417 460 461
1 2 328 374 373
1 2 374 419 417
1 2 331 328 321
1 2 419 374 376
1 2 417 373 374
1 2 373 417 418
1 2 461 462 418
1 2 417 461 418
1 2 408 419 376
1 2 504 551 550
1 2 504 506 461
1 2 460 504 461
1 2 596 597 550
1 2 597 599 553
1 2 550 597 553
1 2 596 642 597
1 2 690 644 680
1 2 643 644 690
1 2 643 598 644
1 2 688 643 689
1 2 733 688 689
1 2 687 641 688
1 2 635 590 636
1 2 463 499 508
1 2 408 453 419
1 2 408 409 453
1 2 515 551 504
1 2 635 606 590
1 2 598 551 561
1 2 419 460 417
1 2 409 454 453
1 2 463 460 419
1 2 561 515 552
1 2 504 460 505
1 2 515 504 505
1 2 552 515 505
1 2 561 551 515
1 2 590 561 552
1 2 598 596 551
1 2 506 507 462
1 2 550 506 504
1 2 550 553 506
1 2 498 490 535
1 2 564 516 563
1 2 610 564 563
1 2 611 617 572
1 2 947 951 987
1 2 770 769 725
1 2 816 770 771
1 2 816 815 770
1 2 817 816 771
1 2 858 823 815
1 2 815 823 778
1 2 816 858 815
1 2 893 894 851
1 2 900 858 859
1 2 894 900 859
1 2 938 907 900
1 2 866 865 823
1 2 900 866 858
1 2 907 865 866
1 2 867 865 908
1 2 867 824 865
1 2 824 779 823
1 2 893 936 937
1 2 978 979 937
1 2 1017 978 977
1 2 1017 1018 978
1 2 949 950 908
1 2 938 949 907
1 2 980 990 949
1 2 1028 991 1027
1 2 1062 1028 1027
1 2 1029 992 1028
1 2 950 909 908
1 2 823 865 824
1 2 949 990 950
1 2 909 867 908
1 2 817 772 806
1 2 572 617 569
1 2 564 572 525
1 2 564 611 572
1 2 977 1014 1017
1 2 841 842 798
1 2 1110 1098 1132
1 2 1037 1061 1074
1 2 1037 1001 1026
1 2 1050 1014 1048
1 2 1087 1089 1050
1 2 1018 979 978
1 2 990 980 1019
1 2 991 990 1027
1 2 991 950 990
1 2 978 936 977
1 2 978 937 936
1 2 1019 979 1018
1 2 980 938 979
1 2 938 900 894
1 2 1280 1281 1261
1 2 1234 1210 1209
1 2 1224 1249 1223
1 2 1291 1273 1282
1 2 1208 1229 1203
1 2 1223 1230 1204
1 2 1233 1229 1208
1 2 1204 1230 1208
1 2 1252 1229 1233
1 2 1230 1252 1233
1 2 1263 1254 1249
1 2 1273 1252 1254
1 2 1253 1229 1252
1 2 609 612 654
1 2 563 609 610
1 2 565 518 566
1 2 563 565 609
1 2 563 517 565
1 2 529 527 575
1 2 969 926 968
1 2 970 1012 1013
1 2 928 927 971
1 2 1011 1012 970
1 2 1010 1011 969
1 2 1046 1085 1047
1 2 1011 970 969
1 2 706 751 747
1 2 659 613 614
1 2 751 794 747
1 2 707 751 706
1 2 752 794 751
1 2 614 568 615
1 2 659 614 660
1 2 613 566 567
1 2 614 613 567
1 2 658 612 613
1 2 788 757 803
1 2 716 670 715
1 2 707 708 752
1 2 671 666 625
1 2 715 669 714
1 2 849 848 890
1 2 802 759 805
1 2 802 754 756
1 2 846 800 845
1 2 846 844 801
1 2 712 716 756
1 2 804 848 805
1 2 845 802 805
1 2 804 831 848
1 2 670 624 669
1 2 661 665 709
1 2 758 759 715
1 2 665 666 709
1 2 620 665 661
1 2 619 666 665
1 2 758 788 804
1 2 709 708 661
1 2 801 844 799
1 2 753 801 799
1 2 753 800 801
1 2 716 759 756
1 2 888 887 846
1 2 753 708 709
1 2 625 624 670
1 2 1005 1004 1041
1 2 702 706 747
1 2 975 933 940
1 2 965 1007 1006
1 2 964 965 1006
1 2 799 838 794
1 2 753 754 800
1 2 708 753 752
1 2 709 754 753
1 2 886 882 843
1 2 843 882 838
1 2 844 886 843
1 2 846 887 844
1 2 845 888 846
1 2 831 873 848
1 2 803 831 788
1 2 803 847 831
1 2 955 932 974
1 2 976 955 974
1 2 934 891 914
1 2 976 974 1015
1 2 934 890 891
1 2 914 955 934
1 2 873 914 891
1 2 932 955 914
1 2 960 1000 999
1 2 934 920 890
1 2 1036 1000 1015
1 2 973 967 930
1 2 920 934 960
1 2 1009 1045 1008
1 2 999 1009 973
1 2 1035 1045 1009
1 2 886 925 882
1 2 965 924 966
1 2 881 838 882
1 2 914 873 889
1 2 1151 1172 1182
1 2 1116 1151 1117
1 2 1116 1142 1151
1 2 1044 1006 1007
1 2 1142 1172 1151
1 2 1106 1142 1109
1 2 1106 1140 1142
1 2 1140 1106 1141
1 2 1140 1172 1142
1 2 964 962 923
1 2 1085 1083 1119
1 2 1047 1011 1046
1 2 1049 1047 1086
1 2 1012 1011 1047
1 2 1010 1043 1046
1 2 968 1010 969
1 2 959 968 926
1 2 959 963 968
1 2 1043 1083 1046
1 2 1005 1043 1010
1 2 1041 1079 1043
1 2 1081 1084 1116
1 2 1042 1044 1081
1 2 964 1006 1004
1 2 964 923 965
1 2 924 923 881
1 2 962 964 1004
1 2 982 1016 975
1 2 1084 1044 1045
1 2 805 848 849
1 2 848 891 890
1 2 788 831 804
1 2 873 891 848
1 2 889 873 847
1 2 889 932 914
1 2 934 955 976
1 2 933 932 889
1 2 886 887 930
1 2 933 974 932
1 2 925 930 967
1 2 924 925 966
1 2 924 882 925
1 2 1079 1083 1043
1 2 1004 1006 1042
1 2 1150 1181 1149
1 2 1211 1232 1235
1 2 1154 1153 1183
1 2 1171 1179 1172
1 2 1173 1171 1140
1 2 1201 1179 1171
1 2 1228 1201 1227
1 2 1207 1179 1201
1 2 1149 1180 1155
1 2 1184 1181 1154
1 2 1209 1180 1181
1 2 1085 1086 1047
1 2 791 746 793
1 2 746 701 702
1 2 791 792 745
1 2 834 791 793
1 2 834 835 791
1 2 748 704 703
1 2 792 748 745
1 2 749 750 705
1 2 748 749 704
1 2 797 841 798
1 2 795 796 749
1 2 795 839 796
1 2 840 796 839
1 2 703 655 701
1 2 703 656 655
1 2 745 703 701
1 2 704 656 703
1 2 657 611 656
1 2 654 612 658
1 2 655 654 701
1 2 655 609 654
1 2 1156 1157 1121
1 2 1047 1049 1012
1 2 732 776 741
1 2 743 784 776
1 2 733 743 700
1 2 687 733 700
1 2 735 779 777
1 2 822 824 863
1 2 733 735 777
1 2 770 726 771
1 2 821 790 776
1 2 642 686 645
1 2 875 912 870
1 2 1144 1145 1175
1 2 1148 1144 1175
1 2 1113 1110 1144
1 2 1303 1305 1320
1 2 317 278 275
1 2 365 320 362
1 2 365 364 320
1 2 279 319 321
1 2 279 239 277
1 2 277 278 319
1 2 279 277 319
1 2 239 238 277
1 2 331 376 374
1 2 328 331 374
1 2 321 364 331
1 2 279 321 284
1 2 319 320 364
1 2 235 195 222
1 2 274 235 262
1 2 234 194 235
1 2 305 280 322
1 2 304 274 262
1 2 452 407 443
1 2 275 274 316
1 2 234 199 194
1 2 275 234 274
1 2 275 238 234
1 2 238 275 278
1 2 277 238 278
1 2 198 199 238
1 2 235 194 195
1 2 199 234 238
1 2 239 198 238
1 2 115 146 116
1 2 88 115 116
1 2 134 146 115
1 2 445 491 444
1 2 455 445 410
1 2 492 491 445
1 2 132 131 96
1 2 209 252 251
1 2 208 209 251
1 2 170 172 209
1 2 101 102 136
1 2 170 209 208
1 2 211 252 209
1 2 101 74 76
1 2 135 101 136
1 2 135 133 99
1 2 253 254 211
1 2 296 297 252
1 2 207 168 169
1 2 159 168 196
1 2 183 159 196
1 2 146 134 159
1 2 290 288 336
1 2 435 475 483
1 2 250 294 276
1 2 521 524 569
1 2 317 361 362
1 2 278 317 320
1 2 316 361 317
1 2 154 189 158
1 2 207 196 168
1 2 222 183 221
1 2 183 196 200
1 2 221 183 200
1 2 153 146 183
1 2 154 153 189
1 2 122 116 146
1 2 47 46 23
1 2 72 98 100
1 2 46 72 73
1 2 46 47 72
1 2 72 70 98
1 2 100 115 88
1 2 22 44 23
1 2 17 22 5
1 2 45 44 22
1 2 28 17 8
1 2 16 27 8
1 2 45 22 28
1 2 96 97 132
1 2 850 893 851
1 2 806 850 851
1 2 817 806 851
1 2 772 728 760
1 2 807 852 850
1 2 616 617 662
1 2 892 936 893
1 2 455 483 501
1 2 234 235 274
1 2 189 195 158
1 2 222 221 262
1 2 189 222 195
1 2 189 183 222
1 2 122 153 154
1 2 153 183 189
1 2 146 159 183
1 2 122 146 153
1 2 134 168 159
1 2 73 72 100
1 2 98 131 134
1 2 44 69 70
1 2 74 71 50
1 2 222 262 235
1 2 240 221 200
1 2 196 236 200
1 2 263 305 304
1 2 305 322 351
1 2 304 305 350
1 2 263 280 305
1 2 100 134 115
1 2 73 100 88
1 2 98 134 100
1 2 96 98 70
1 2 131 168 134
1 2 96 131 98
1 2 170 169 132
1 2 170 208 169
1 2 133 170 132
1 2 172 211 209
1 2 251 250 208
1 2 294 251 295
1 2 342 294 295
1 2 318 276 294
1 2 250 207 208
1 2 22 17 28
1 2 6 25 7
1 2 30 10 26
1 2 27 30 51
1 2 16 10 30
1 2 26 49 30
1 2 22 23 5
1 2 69 44 45
1 2 91 64 63
1 2 96 70 69
1 2 47 23 44
1 2 70 47 44
1 2 70 72 47
1 2 194 158 195
1 2 368 360 323
1 2 241 281 273
1 2 282 325 324
1 2 342 318 294
1 2 390 363 342
1 2 435 436 389
1 2 410 366 390
1 2 366 351 322
1 2 410 445 398
1 2 236 207 250
1 2 200 236 240
1 2 196 207 236
1 2 343 389 342
1 2 295 343 342
1 2 297 344 343
1 2 428 391 383
1 2 435 389 391
1 2 475 435 428
1 2 474 475 428
1 2 436 455 410
1 2 523 483 475
1 2 523 501 483
1 2 436 410 390
1 2 492 455 501
1 2 436 390 389
1 2 483 436 435
1 2 483 455 436
1 2 390 366 363
1 2 492 445 455
1 2 397 406 361
1 2 398 397 351
1 2 398 444 397
1 2 445 444 398
1 2 491 490 444
1 2 322 280 318
1 2 366 322 363
1 2 351 350 305
1 2 672 699 717
1 2 523 571 547
1 2 663 710 711
1 2 628 618 664
1 2 616 662 663
1 2 682 727 726
1 2 570 571 522
1 2 569 570 521
1 2 616 618 570
1 2 569 616 570
1 2 525 572 524
1 2 617 616 569
1 2 524 572 569
1 2 611 657 617
1 2 705 662 657
1 2 704 705 657
1 2 750 710 705
1 2 710 663 662
1 2 570 522 521
1 2 618 571 570
1 2 663 618 616
1 2 663 664 618
1 2 593 547 571
1 2 365 407 409
1 2 406 397 443
1 2 362 406 407
1 2 361 350 397
1 2 443 444 490
1 2 452 443 490
1 2 407 406 443
1 2 398 351 366
1 2 410 398 366
1 2 444 443 397
1 2 304 350 316
1 2 274 304 316
1 2 262 221 263
1 2 263 221 240
1 2 280 263 240
1 2 304 262 263
1 2 322 318 363
1 2 536 537 582
1 2 591 545 592
1 2 637 591 592
1 2 638 637 592
1 2 681 636 637
1 2 636 590 591
1 2 727 772 771
1 2 581 543 535
1 2 608 589 626
1 2 672 651 626
1 2 638 592 608
1 2 592 545 546
1 2 498 535 543
1 2 546 500 543
1 2 454 452 498
1 2 536 492 537
1 2 535 536 581
1 2 491 492 536
1 2 728 697 717
1 2 761 760 717
1 2 772 727 728
1 2 726 727 771
1 2 682 638 683
1 2 681 682 726
1 2 683 697 728
1 2 682 683 727
1 2 638 608 651
1 2 637 638 682
1 2 592 589 608
1 2 636 591 637
1 2 582 581 536
1 2 546 543 589
1 2 592 546 589
1 2 545 500 546
1 2 500 499 454
1 2 498 500 454
1 2 545 544 500
1 2 726 770 725
1 2 571 523 522
1 2 583 582 537
1 2 593 583 547
1 2 593 628 583
1 2 628 627 583
1 2 618 628 593
1 2 673 653 628
1 2 626 589 581
1 2 627 626 582
1 2 651 697 683
1 2 626 651 608
1 2 672 697 651
1 2 664 673 628
1 2 651 683 638
1 2 537 501 547
1 2 900 907 866
1 2 778 779 735
1 2 815 778 769
1 2 823 779 778
1 2 551 596 550
1 2 606 635 644
1 2 598 606 644
1 2 561 590 606
1 2 552 544 590
1 2 552 508 544
1 2 490 491 535
1 2 561 606 598
1 2 681 680 636
1 2 725 769 734
1 2 690 725 734
1 2 689 690 734
1 2 644 635 680
1 2 681 726 725
1 2 641 687 686
1 2 598 641 596
1 2 643 688 641
1 2 316 317 275
1 2 317 362 320
1 2 350 361 316
1 2 350 351 397
1 2 409 408 365
1 2 454 499 453
1 2 490 498 452
1 2 498 543 500
1 2 320 319 278
1 2 407 365 362
1 2 361 406 362
1 2 452 409 407
1 2 408 376 364
1 2 463 508 505
1 2 460 463 505
1 2 419 453 463
1 2 452 454 409
1 2 508 552 505
1 2 500 544 499
1 2 544 591 590
1 2 499 544 508
1 2 545 591 544
1 2 364 321 319
1 2 408 364 365
1 2 376 331 364
1 2 463 453 499
1 2 328 284 321
1 2 63 39 40
1 2 89 93 124
1 2 90 89 124
1 2 161 162 125
1 2 63 40 65
1 2 62 66 89
1 2 49 26 48
1 2 51 49 64
1 2 51 30 49
1 2 75 51 64
1 2 52 27 51
1 2 99 74 101
1 2 99 71 74
1 2 135 99 101
1 2 133 97 99
1 2 97 69 71
1 2 27 16 30
1 2 39 48 24
1 2 244 202 243
1 2 51 75 52
1 2 161 125 124
1 2 75 92 102
1 2 125 90 124
1 2 126 125 160
1 2 91 90 125
1 2 92 91 126
1 2 63 90 91
1 2 64 48 39
1 2 8 27 28
1 2 49 48 64
1 2 7 26 10
1 2 7 25 26
1 2 89 65 62
1 2 24 18 39
1 2 39 18 40
1 2 15 24 6
1 2 15 1 18
1 2 113 87 114
1 2 325 370 369
1 2 367 369 411
1 2 282 324 281
1 2 325 369 324
1 2 227 267 225
1 2 192 227 188
1 2 268 267 227
1 2 231 268 227
1 2 272 314 308
1 2 231 272 268
1 2 232 231 192
1 2 232 272 231
1 2 193 232 192
1 2 193 233 232
1 2 314 359 353
1 2 273 314 272
1 2 273 315 314
1 2 273 232 233
1 2 272 232 273
1 2 225 186 188
1 2 307 266 267
1 2 266 265 224
1 2 267 266 225
1 2 307 265 266
1 2 157 193 192
1 2 241 273 233
1 2 241 282 281
1 2 332 353 377
1 2 309 307 267
1 2 354 309 310
1 2 377 354 332
1 2 401 355 354
1 2 355 352 309
1 2 265 307 306
1 2 303 264 306
1 2 224 186 225
1 2 264 223 265
1 2 185 186 224
1 2 266 224 225
1 2 270 269 229
1 2 117 120 148
1 2 188 157 192
1 2 151 152 120
1 2 147 185 184
1 2 117 147 118
1 2 117 148 147
1 2 145 113 114
1 2 121 119 150
1 2 184 149 147
1 2 223 264 226
1 2 184 223 187
1 2 224 265 223
1 2 150 119 149
1 2 182 144 145
1 2 218 215 180
1 2 220 219 182
1 2 142 109 110
1 2 180 142 155
1 2 177 140 142
1 2 181 144 182
1 2 156 143 181
1 2 144 113 145
1 2 143 144 181
1 2 190 156 181
1 2 111 86 112
1 2 143 111 112
1 2 142 123 155
1 2 82 109 108
1 2 83 84 110
1 2 109 83 110
1 2 82 59 83
1 2 85 86 84
1 2 112 87 113
1 2 110 84 111
1 2 85 87 112
1 2 93 89 66
1 2 94 93 66
1 2 63 64 39
1 2 128 165 166
1 2 92 126 127
1 2 243 202 201
1 2 244 246 237
1 2 203 246 245
1 2 136 164 173
1 2 237 246 203
1 2 163 126 160
1 2 197 163 160
1 2 173 164 203
1 2 136 127 164
1 2 136 102 127
1 2 202 244 237
1 2 203 210 173
1 2 253 211 210
1 2 171 211 172
1 2 333 287 286
1 2 296 253 290
1 2 92 75 64
1 2 92 127 102
1 2 171 172 133
1 2 210 171 173
1 2 210 211 171
1 2 135 171 133
1 2 97 71 99
1 2 136 173 135
1 2 135 173 171
1 2 162 201 202
1 2 197 162 202
1 2 160 125 162
1 2 162 161 201
1 2 237 197 202
1 2 126 91 125
1 2 163 203 164
1 2 92 64 91
1 2 65 89 90
1 2 63 65 90
1 2 40 62 65
1 2 93 128 124
1 2 166 165 205
1 2 124 128 161
1 2 93 129 128
1 2 206 243 201
1 2 206 249 243
1 2 711 673 664
1 2 762 718 755
1 2 699 673 718
1 2 429 428 383
1 2 522 474 521
1 2 522 475 474
1 2 84 60 61
1 2 81 80 57
1 2 140 106 108
1 2 141 179 176
1 2 215 258 216
1 2 80 56 57
1 2 81 108 106
1 2 80 81 106
1 2 107 80 106
1 2 79 56 80
1 2 58 59 82
1 2 139 175 138
1 2 37 60 59
1 2 58 57 36
1 2 103 137 130
1 2 33 13 14
1 2 79 55 56
1 2 32 13 33
1 2 54 32 55
1 2 54 31 32
1 2 58 36 37
1 2 84 86 111
1 2 60 84 83
1 2 61 85 84
1 2 57 35 36
1 2 35 34 14
1 2 59 58 37
1 2 32 12 13
1 2 138 175 137
1 2 103 138 137
1 2 77 103 95
1 2 104 138 103
1 2 78 104 77
1 2 54 78 77
1 2 55 79 78
1 2 105 80 107
1 2 105 79 80
1 2 176 212 175
1 2 179 214 176
1 2 330 301 347
1 2 338 330 347
1 2 338 298 330
1 2 256 298 291
1 2 256 259 298
1 2 79 104 78
1 2 283 247 285
1 2 214 256 255
1 2 298 259 301
1 2 255 256 291
1 2 247 255 291
1 2 213 174 212
1 2 214 217 256
1 2 78 54 55
1 2 130 95 103
1 2 43 68 66
1 2 104 103 77
1 2 130 94 95
1 2 53 31 54
1 2 31 53 29
1 2 12 31 11
1 2 12 32 31
1 2 20 19 2
1 2 9 20 3
1 2 42 19 20
1 2 29 42 20
1 2 11 29 9
1 2 53 42 29
1 2 67 77 95
1 2 11 31 29
1 2 54 77 53
1 2 43 19 42
1 2 40 38 62
1 2 21 19 41
1 2 38 21 41
1 2 15 18 24
1 2 4 21 18
1 2 1 4 18
1 2 1 0 4
1 2 4 0 2
1 2 472 425 427
1 2 25 48 26
1 2 24 25 6
1 2 24 48 25
1 2 478 470 516
1 2 477 478 525
1 2 477 430 431
1 2 476 474 429
1 2 384 430 429
1 2 524 521 476
1 2 433 434 481
1 2 382 341 387
1 2 381 337 335
1 2 339 292 340
1 2 286 293 334
1 2 286 249 293
1 2 346 302 348
1 2 257 300 299
1 2 257 260 300
1 2 395 440 421
1 2 298 338 291
1 2 437 438 393
1 2 421 437 392
1 2 379 421 392
1 2 346 379 392
1 2 348 394 395
1 2 440 465 421
1 2 465 484 437
1 2 338 329 291
1 2 415 375 386
1 2 372 388 340
1 2 415 416 371
1 2 415 459 416
1 2 432 415 386
1 2 459 434 416
1 2 434 388 416
1 2 387 340 388
1 2 472 518 471
1 2 341 334 293
1 2 387 341 340
1 2 382 334 341
1 2 249 206 248
1 2 293 249 292
1 2 286 243 249
1 2 204 205 165
1 2 167 204 165
1 2 213 247 204
1 2 212 255 213
1 2 175 212 174
1 2 214 255 212
1 2 248 283 292
1 2 249 248 292
1 2 206 205 248
1 2 255 247 213
1 2 285 329 326
1 2 52 50 27
1 2 38 40 18
1 2 21 38 18
1 2 41 62 38
1 2 2 21 4
1 2 3 2 0
1 2 19 21 2
1 2 167 130 137
1 2 175 174 137
1 2 129 93 94
1 2 174 204 167
1 2 161 166 201
1 2 129 165 128
1 2 130 129 94
1 2 167 165 129
1 2 381 385 337
1 2 380 381 333
1 2 424 431 385
1 2 380 424 381
1 2 426 470 424
1 2 425 426 380
1 2 470 478 431
1 2 517 470 471
1 2 516 525 478
1 2 167 129 130
1 2 41 66 62
1 2 43 42 67
1 2 43 41 19
1 2 95 68 67
1 2 66 41 43
1 2 3 20 2
1 2 20 9 29
1 2 67 53 77
1 2 68 43 67
1 2 94 68 95
1 2 94 66 68
1 2 42 53 67
1 2 33 56 55
1 2 32 33 55
1 2 14 34 33
1 2 1075 1068 1104
1 2 1130 1096 1111
1 2 1058 1039 1075
1 2 1033 1040 1032
1 2 1040 1076 1068
1 2 399 353 359
1 2 368 405 360
1 2 446 400 399
1 2 493 447 446
1 2 458 497 451
1 2 539 585 554
1 2 509 539 554
1 2 538 542 584
1 2 493 538 494
1 2 584 588 629
1 2 497 542 538
1 2 497 503 542
1 2 464 420 447
1 2 413 457 458
1 2 405 399 360
1 2 493 446 451
1 2 447 420 400
1 2 412 457 413
1 2 412 411 456
1 2 958 997 957
1 2 1032 998 1033
1 2 910 911 869
1 2 944 945 903
1 2 953 911 910
1 2 958 998 997
1 2 1304 1302 1287
1 2 1331 1318 1319
1 2 1330 1338 1333
1 2 1085 1119 1120
1 2 1086 1085 1120
1 2 1046 1083 1085
1 2 1031 993 994
1 2 1031 1030 993
1 2 1003 1039 1023
1 2 1066 1030 1031
1 2 1189 1218 1202
1 2 1160 1189 1159
1 2 1127 1160 1159
1 2 1126 1127 1159
1 2 1128 1160 1127
1 2 1161 1162 1191
1 2 1217 1219 1242
1 2 1160 1190 1189
1 2 1160 1161 1190
1 2 1164 1131 1137
1 2 1194 1164 1163
1 2 1191 1190 1161
1 2 1192 1191 1162
1 2 1192 1219 1191
1 2 1059 1024 1030
1 2 1093 1126 1091
1 2 1056 1093 1055
1 2 1128 1127 1093
1 2 1022 1021 983
1 2 1057 1022 1024
1 2 1056 1021 1022
1 2 1095 1094 1057
1 2 1055 1021 1056
1 2 1057 1094 1056
1 2 855 847 812
1 2 898 897 856
1 2 1052 1016 1020
1 2 1090 1052 1091
1 2 1143 1107 1108
1 2 920 888 890
1 2 976 960 934
1 2 931 888 920
1 2 960 999 961
1 2 920 960 961
1 2 976 1000 960
1 2 930 887 931
1 2 975 1016 1015
1 2 1071 1070 1034
1 2 1090 1071 1051
1 2 1107 1106 1070
1 2 982 975 941
1 2 1090 1051 1052
1 2 925 886 930
1 2 975 1015 974
1 2 999 1034 1035
1 2 961 999 973
1 2 931 961 973
1 2 931 920 961
1 2 1000 1034 999
1 2 1015 1000 976
1 2 1036 1034 1000
1 2 967 973 1009
1 2 999 1035 1009
1 2 1071 1034 1036
1 2 1070 1035 1034
1 2 1072 1109 1084
1 2 1070 1073 1035
1 2 1070 1106 1073
1 2 925 967 966
1 2 888 931 887
1 2 967 1008 966
1 2 931 973 930
1 2 967 1009 1008
1 2 1094 1128 1093
1 2 1056 1094 1093
1 2 1095 1128 1094
1 2 1084 1045 1072
1 2 1164 1137 1163
1 2 1095 1097 1129
1 2 1103 1137 1131
1 2 1264 1242 1246
1 2 1283 1264 1284
1 2 1283 1265 1264
1 2 1301 1283 1284
1 2 1266 1244 1243
1 2 1251 1266 1272
1 2 1266 1243 1265
1 2 1251 1228 1244
1 2 1256 1251 1272
1 2 1232 1228 1251
1 2 1211 1212 1183
1 2 1207 1211 1182
1 2 1235 1212 1211
1 2 1213 1212 1236
1 2 1184 1183 1212
1 2 1184 1154 1183
1 2 1312 1326 1327
1 2 1298 1299 1282
1 2 1297 1313 1296
1 2 1314 1299 1298
1 2 1257 1276 1277
1 2 1111 1075 1104
1 2 1096 1058 1075
1 2 1067 1066 1103
1 2 1067 1030 1066
1 2 1031 1023 1058
1 2 1076 1104 1068
1 2 1105 1076 1069
1 2 1105 1112 1076
1 2 1112 1139 1147
1 2 1076 1112 1104
1 2 1105 1139 1112
1 2 985 984 1023
1 2 910 945 952
1 2 910 903 945
1 2 868 826 861
1 2 901 860 871
1 2 956 957 996
1 2 918 956 943
1 2 918 917 956
1 2 952 994 993
1 2 910 952 953
1 2 945 985 952
1 2 996 1023 984
1 2 996 1003 1023
1 2 943 956 984
1 2 957 997 996
1 2 997 1032 1003
1 2 1039 1032 1068
1 2 1023 1039 1058
1 2 1003 1032 1039
1 2 1163 1130 1146
1 2 1112 1138 1104
1 2 1170 1198 1169
1 2 1162 1129 1131
1 2 1192 1162 1164
1 2 1161 1129 1162
1 2 1217 1218 1189
1 2 1219 1217 1190
1 2 1242 1243 1217
1 2 1128 1095 1129
1 2 1160 1128 1161
1 2 1126 1125 1091
1 2 1075 1039 1068
1 2 1272 1266 1285
1 2 1174 1200 1173
1 2 1174 1202 1200
1 2 1143 1174 1173
1 2 1159 1189 1174
1 2 1244 1266 1251
1 2 1218 1244 1227
1 2 1243 1242 1265
1 2 1218 1243 1244
1 2 1218 1217 1243
1 2 1190 1217 1189
1 2 1246 1242 1219
1 2 1245 1246 1219
1 2 1245 1268 1246
1 2 1285 1290 1272
1 2 1244 1228 1227
1 2 1276 1272 1290
1 2 1276 1257 1256
1 2 1194 1163 1193
1 2 1221 1194 1193
1 2 1192 1164 1194
1 2 1190 1191 1219
1 2 1162 1131 1164
1 2 1096 1075 1111
1 2 1103 1096 1130
1 2 1066 1058 1096
1 2 1192 1194 1220
1 2 1130 1163 1137
1 2 1103 1130 1137
1 2 1111 1138 1146
1 2 1247 1222 1248
1 2 1269 1247 1248
1 2 1267 1245 1247
1 2 1192 1220 1219
1 2 1193 1222 1221
1 2 1147 1138 1112
1 2 1170 1147 1139
1 2 1170 1169 1147
1 2 1285 1265 1283
1 2 1290 1285 1300
1 2 1266 1265 1285
1 2 1267 1247 1269
1 2 1177 1205 1193
1 2 1269 1270 1288
1 2 1268 1267 1286
1 2 1248 1270 1269
1 2 1304 1303 1319
1 2 1302 1304 1318
1 2 1287 1303 1304
1 2 737 736 692
1 2 780 737 740
1 2 780 736 737
1 2 738 781 739
1 2 693 739 695
1 2 693 738 739
1 2 649 693 695
1 2 730 774 738
1 2 694 730 693
1 2 648 694 693
1 2 648 684 694
1 2 684 691 729
1 2 774 781 738
1 2 693 730 738
1 2 861 832 874
1 2 781 819 826
1 2 789 832 819
1 2 780 825 818
1 2 826 827 782
1 2 774 819 781
1 2 819 861 826
1 2 1032 997 998
1 2 1040 1068 1032
1 2 1069 1040 1033
1 2 1069 1076 1040
1 2 1031 1058 1066
1 2 1305 1303 1288
1 2 1270 1271 1289
1 2 702 658 706
1 2 746 702 747
1 2 793 746 747
1 2 745 701 746
1 2 701 654 702
1 2 611 610 656
1 2 656 610 655
1 2 662 617 657
1 2 525 516 564
1 2 565 517 518
1 2 611 564 610
1 2 516 517 563
1 2 654 658 702
1 2 610 609 655
1 2 566 613 612
1 2 519 566 518
1 2 519 520 567
1 2 1121 1086 1120
1 2 1156 1121 1120
1 2 1123 1122 1088
1 2 1158 1123 1157
1 2 1122 1087 1088
1 2 806 807 850
1 2 771 772 817
1 2 727 683 728
1 2 672 717 697
1 2 717 742 761
1 2 627 582 583
1 2 809 853 808
1 2 787 809 762
1 2 755 787 762
1 2 798 809 787
1 2 842 853 809
1 2 840 842 841
1 2 885 853 842
1 2 711 664 663
1 2 755 711 710
1 2 718 673 711
1 2 755 718 711
1 2 653 673 699
1 2 672 653 699
1 2 672 627 653
1 2 653 627 628
1 2 593 571 618
1 2 798 750 797
1 2 565 566 612
1 2 970 971 927
1 2 1013 971 970
1 2 1048 1013 1012
1 2 1048 1014 1013
1 2 929 928 971
1 2 991 1028 992
1 2 1135 1168 1134
1 2 1100 1092 1124
1 2 1134 1100 1135
1 2 1101 1062 1100
1 2 1124 1158 1135
1 2 1124 1122 1158
1 2 1134 1101 1100
1 2 1054 1018 1053
1 2 1124 1092 1089
1 2 1038 1019 1054
1 2 1049 1087 1048
1 2 1049 1086 1088
1 2 1088 1086 1121
1 2 1123 1088 1121
1 2 1087 1049 1088
1 2 1064 1029 1028
1 2 850 892 893
1 2 892 935 936
1 2 852 892 850
1 2 852 895 892
1 2 808 853 852
1 2 761 808 807
1 2 806 760 807
1 2 717 699 742
1 2 809 798 842
1 2 929 935 895
1 2 928 929 885
1 2 883 928 884
1 2 927 969 970
1 2 883 927 928
1 2 926 969 927
1 2 972 935 929
1 2 971 972 929
1 2 1013 1014 972
1 2 977 936 935
1 2 1250 1271 1270
1 2 1248 1222 1226
1 2 1284 1302 1301
1 2 1264 1265 1242
1 2 1300 1283 1301
1 2 1300 1285 1283
1 2 1268 1286 1284
1 2 1246 1268 1264
1 2 1220 1245 1219
1 2 1221 1222 1247
1 2 1245 1221 1247
1 2 1220 1194 1221
1 2 1286 1302 1284
1 2 1267 1269 1286
1 2 1245 1267 1268
1 2 1245 1220 1221
1 2 1287 1302 1286
1 2 1111 1104 1138
1 2 1169 1146 1138
1 2 1096 1103 1066
1 2 1226 1199 1225
1 2 1250 1226 1225
1 2 1205 1199 1226
1 2 1222 1205 1226
1 2 1222 1193 1205
1 2 1248 1226 1250
1 2 1199 1198 1225
1 2 1169 1138 1147
1 2 1177 1169 1199
1 2 1205 1177 1199
1 2 1193 1163 1177
1 2 1146 1130 1111
1 2 1177 1146 1169
1 2 1177 1163 1146
1 2 1169 1198 1199
1 2 1003 996 997
1 2 985 945 984
1 2 994 985 1023
1 2 994 952 985
1 2 1031 994 1023
1 2 993 953 952
1 2 944 943 984
1 2 861 874 902
1 2 910 868 903
1 2 819 832 861
1 2 984 956 996
1 2 957 956 917
1 2 902 915 944
1 2 901 874 860
1 2 944 915 943
1 2 902 874 915
1 2 903 902 944
1 2 903 861 902
1 2 832 860 874
1 2 918 876 917
1 2 915 901 943
1 2 913 876 918
1 2 825 786 829
1 2 953 946 911
1 2 877 883 840
1 2 883 926 927
1 2 840 883 884
1 2 919 959 926
1 2 877 919 883
1 2 877 880 919
1 2 921 922 962
1 2 839 836 880
1 2 834 879 878
1 2 919 926 883
1 2 835 792 791
1 2 921 880 878
1 2 839 795 836
1 2 963 1005 968
1 2 921 962 963
1 2 919 880 921
1 2 878 922 921
1 2 837 881 879
1 2 921 963 959
1 2 879 923 922
1 2 1004 963 962
1 2 966 1008 1007
1 2 837 838 881
1 2 799 752 753
1 2 838 799 843
1 2 794 752 799
1 2 1171 1172 1140
1 2 1227 1201 1200
1 2 1207 1182 1179
1 2 1005 1010 968
1 2 1004 1005 963
1 2 1041 1043 1005
1 2 1012 1049 1048
1 2 1014 977 972
1 2 1011 1010 1046
1 2 633 678 632
1 2 541 587 586
1 2 632 668 622
1 2 586 587 632
1 2 675 720 678
1 2 676 675 630
1 2 721 720 675
1 2 847 873 831
1 2 713 668 678
1 2 757 713 720
1 2 714 667 713
1 2 758 714 757
1 2 669 623 667
1 2 667 623 621
1 2 668 667 621
1 2 714 669 667
1 2 758 715 714
1 2 534 510 488
1 2 577 579 533
1 2 530 577 533
1 2 576 621 577
1 2 580 601 555
1 2 534 580 555
1 2 579 624 580
1 2 257 258 215
1 2 218 257 215
1 2 260 302 300
1 2 230 260 218
1 2 345 392 378
1 2 301 345 347
1 2 299 300 345
1 2 530 487 485
1 2 579 534 533
1 2 669 624 623
1 2 624 625 580
1 2 488 487 533
1 2 818 789 773
1 2 860 818 825
1 2 860 832 818
1 2 818 773 780
1 2 868 861 903
1 2 869 868 910
1 2 869 827 868
1 2 819 774 789
1 2 782 781 826
1 2 782 739 781
1 2 913 872 876
1 2 943 913 918
1 2 860 829 871
1 2 789 818 832
1 2 871 830 872
1 2 901 871 913
1 2 943 901 913
1 2 915 874 901
1 2 829 830 871
1 2 825 829 860
1 2 783 825 780
1 2 783 786 825
1 2 786 830 829
1 2 820 827 862
1 2 646 691 684
1 2 729 736 773
1 2 730 729 773
1 2 730 684 729
1 2 740 737 696
1 2 740 783 780
1 2 871 872 913
1 2 692 696 737
1 2 691 692 736
1 2 691 647 692
1 2 650 647 607
1 2 466 467 511
1 2 456 466 469
1 2 422 467 466
1 2 411 370 414
1 2 456 469 502
1 2 414 456 411
1 2 422 466 456
1 2 315 273 281
1 2 315 359 314
1 2 324 323 281
1 2 368 412 413
1 2 451 405 413
1 2 323 367 368
1 2 368 367 412
1 2 315 323 360
1 2 324 367 323
1 2 324 369 367
1 2 353 308 314
1 2 412 456 457
1 2 367 411 412
1 2 414 422 456
1 2 148 185 147
1 2 152 148 120
1 2 186 185 148
1 2 157 188 151
1 2 188 227 225
1 2 152 188 186
1 2 148 152 186
1 2 151 188 152
1 2 192 231 227
1 2 308 267 268
1 2 310 332 354
1 2 267 310 309
1 2 308 332 310
1 2 272 308 268
1 2 353 332 308
1 2 377 402 354
1 2 191 230 218
1 2 156 190 155
1 2 123 156 155
1 2 123 143 156
1 2 229 269 228
1 2 228 269 230
1 2 150 187 182
1 2 261 270 229
1 2 219 261 229
1 2 264 303 261
1 2 441 394 439
1 2 439 394 403
1 2 487 441 485
1 2 487 488 440
1 2 348 302 313
1 2 226 264 261
1 2 220 226 261
1 2 220 187 226
1 2 226 187 223
1 2 219 220 261
1 2 190 219 229
1 2 190 181 219
1 2 182 187 220
1 2 219 181 182
1 2 228 190 229
1 2 123 111 143
1 2 145 150 182
1 2 150 184 187
1 2 439 450 486
1 2 348 313 358
1 2 352 306 307
1 2 396 357 349
1 2 401 396 355
1 2 401 448 442
1 2 349 306 352
1 2 185 223 184
1 2 121 150 145
1 2 149 118 147
1 2 150 149 184
1 2 119 118 149
1 2 482 479 527
1 2 481 482 529
1 2 459 479 482
1 2 481 434 482
1 2 388 434 433
1 2 387 388 433
1 2 326 327 283
1 2 371 326 329
1 2 371 327 326
1 2 415 371 375
1 2 372 340 327
1 2 416 372 371
1 2 416 388 372
1 2 371 372 327
1 2 299 259 258
1 2 378 347 345
1 2 393 378 392
1 2 393 347 378
1 2 338 375 329
1 2 301 330 298
1 2 347 386 338
1 2 473 433 481
1 2 520 473 481
1 2 519 518 472
1 2 217 259 256
1 2 179 217 214
1 2 179 216 217
1 2 788 758 757
1 2 897 855 856
1 2 982 1020 1016
1 2 933 889 897
1 2 801 800 846
1 2 712 754 709
1 2 802 845 800
1 2 754 802 800
1 2 756 759 802
1 2 759 804 805
1 2 715 759 716
1 2 758 804 759
1 2 849 888 845
1 2 805 849 845
1 2 890 888 849
1 2 555 573 528
1 2 534 555 510
1 2 601 573 555
1 2 670 716 671
1 2 619 574 573
1 2 555 528 510
1 2 661 708 660
1 2 619 665 620
1 2 574 619 620
1 2 671 716 712
1 2 666 671 712
1 2 709 666 712
1 2 619 625 666
1 2 625 670 671
1 2 708 707 660
1 2 526 528 573
1 2 488 533 534
1 2 529 482 527
1 2 473 520 519
1 2 459 482 434
1 2 529 520 481
1 2 217 216 258
1 2 540 496 541
1 2 578 540 586
1 2 495 496 540
1 2 532 495 540
1 2 489 448 495
1 2 488 465 440
1 2 349 312 303
1 2 811 847 803
1 2 766 811 765
1 2 812 847 811
1 2 722 766 765
1 2 767 813 812
1 2 723 763 767
1 2 676 677 722
1 2 719 763 723
1 2 810 854 813
1 2 763 810 767
1 2 685 731 724
1 2 739 782 775
1 2 813 855 812
1 2 810 813 767
1 2 854 896 856
1 2 814 854 810
1 2 942 904 946
1 2 983 942 946
1 2 981 939 942
1 2 814 857 854
1 2 768 814 810
1 2 820 782 827
1 2 768 775 814
1 2 768 731 775
1 2 981 942 983
1 2 862 904 899
1 2 862 869 904
1 2 713 667 668
1 2 624 579 623
1 2 715 670 669
1 2 625 601 580
1 2 577 530 576
1 2 530 485 531
1 2 576 530 531
1 2 533 487 530
1 2 814 820 857
1 2 191 228 230
1 2 215 177 180
1 2 155 190 191
1 2 112 113 144
1 2 143 112 144
1 2 86 85 112
1 2 191 190 228
1 2 121 145 114
1 2 401 402 448
1 2 400 377 353
1 2 449 420 464
1 2 402 377 420
1 2 308 310 267
1 2 354 355 309
1 2 489 442 448
1 2 404 439 403
1 2 404 450 439
1 2 357 404 403
1 2 357 396 404
1 2 442 489 450
1 2 401 442 396
1 2 489 486 450
1 2 352 307 309
1 2 404 396 442
1 2 185 224 223
1 2 306 264 265
1 2 303 270 261
1 2 502 457 456
1 2 719 679 724
1 2 585 629 631
1 2 629 634 674
1 2 538 493 497
1 2 509 494 539
1 2 509 464 494
1 2 595 603 640
1 2 549 595 588
1 2 558 603 595
1 2 458 457 468
1 2 513 503 468
1 2 451 413 458
1 2 503 549 542
1 2 458 503 497
1 2 513 549 503
1 2 400 420 377
1 2 399 400 353
1 2 446 447 400
1 2 494 464 447
1 2 509 496 464
1 2 401 354 402
1 2 399 359 360
1 2 511 469 466
1 2 502 513 468
1 2 605 639 594
1 2 559 513 548
1 2 502 468 457
1 2 514 502 469
1 2 548 513 502
1 2 449 448 402
1 2 685 640 649
1 2 731 685 695
1 2 724 679 685
1 2 538 539 494
1 2 629 585 584
1 2 634 629 588
1 2 674 631 629
1 2 631 630 585
1 2 600 630 633
1 2 554 600 587
1 2 585 630 600
1 2 719 677 674
1 2 676 630 631
1 2 764 757 720
1 2 722 765 721
1 2 803 757 764
1 2 721 675 676
1 2 600 554 585
1 2 685 649 695
1 2 634 640 679
1 2 674 634 679
1 2 588 595 634
1 2 603 649 640
1 2 496 495 449
1 2 731 768 724
1 2 739 731 695
1 2 739 775 731
1 2 721 676 722
1 2 765 764 721
1 2 720 713 678
1 2 764 720 721
1 2 757 714 713
1 2 493 494 447
1 2 677 723 722
1 2 674 677 631
1 2 719 723 677
1 2 541 509 554
1 2 439 485 441
1 2 450 404 442
1 2 486 485 439
1 2 548 502 514
1 2 323 315 281
1 2 405 446 399
1 2 413 405 368
1 2 451 446 405
1 2 359 315 360
1 2 369 370 411
1 2 467 512 511
1 2 107 106 140
1 2 141 107 140
1 2 179 141 178
1 2 139 107 141
1 2 175 139 176
1 2 138 104 105
1 2 105 104 79
1 2 139 105 107
1 2 139 138 105
1 2 34 57 56
1 2 33 34 56
1 2 35 57 34
1 2 57 58 81
1 2 178 216 179
1 2 176 139 141
1 2 140 109 142
1 2 141 140 178
1 2 108 109 140
1 2 58 82 81
1 2 177 215 216
1 2 140 177 178
1 2 180 191 218
1 2 142 180 177
1 2 155 191 180
1 2 178 177 216
1 2 299 258 257
1 2 346 345 300
1 2 302 346 300
1 2 348 379 346
1 2 301 259 299
1 2 217 258 259
1 2 257 218 260
1 2 110 111 123
1 2 142 110 123
1 2 109 82 83
1 2 81 82 108
1 2 59 60 83
1 2 465 488 510
1 2 528 484 510
1 2 395 379 348
1 2 440 395 394
1 2 421 379 395
1 2 271 269 311
1 2 312 311 270
1 2 392 345 346
1 2 271 230 269
1 2 356 313 311
1 2 260 230 271
1 2 338 386 375
1 2 299 345 301
1 2 393 386 347
1 2 437 393 392
1 2 438 423 393
1 2 484 438 437
1 2 510 484 465
1 2 528 526 480
1 2 484 528 480
1 2 440 441 487
1 2 437 421 465
1 2 394 441 440
1 2 312 270 303
1 2 356 312 357
1 2 311 269 270
1 2 356 311 312
1 2 313 302 271
1 2 311 313 271
1 2 358 394 348
1 2 356 358 313
1 2 356 403 358
1 2 631 677 676
1 2 679 719 674
1 2 723 767 766
1 2 724 763 719
1 2 724 768 763
1 2 640 685 679
1 2 820 814 775
1 2 782 820 775
1 2 862 857 820
1 2 396 349 352
1 2 356 357 403
1 2 394 358 403
1 2 302 260 271
1 2 396 352 355
1 2 312 349 357
1 2 303 306 349
1 2 560 548 514
1 2 532 540 578
1 2 531 532 578
1 2 489 495 532
1 2 464 496 449
1 2 541 586 540
1 2 595 640 634
1 2 432 459 415
1 2 423 432 386
1 2 393 423 386
1 2 438 432 423
1 2 479 459 432
1 2 480 479 432
1 2 484 480 438
1 2 526 479 480
1 2 526 527 479
1 2 472 427 473
1 2 519 472 473
1 2 471 425 472
1 2 214 212 176
1 2 213 204 174
1 2 247 242 204
1 2 166 206 201
1 2 128 166 161
1 2 205 206 166
1 2 167 137 174
1 2 575 568 529
1 2 575 615 568
1 2 574 575 527
1 2 574 620 575
1 2 526 574 527
1 2 573 601 619
1 2 659 706 658
1 2 613 659 658
1 2 660 707 659
1 2 620 661 615
1 2 575 620 615
1 2 601 625 619
1 2 707 706 659
1 2 615 661 660
1 2 752 751 707
1 2 534 579 580
1 2 480 432 438
1 2 763 768 810
1 2 869 862 827
1 2 869 911 904
1 2 826 868 827
1 2 944 984 945
1 2 1030 1024 993
1 2 1140 1141 1173
1 2 1082 1118 1115
1 2 1118 1153 1154
1 2 1114 1115 1150
1 2 1117 1152 1118
1 2 1081 1116 1117
1 2 1080 1042 1082
1 2 1044 1084 1081
1 2 1152 1182 1153
1 2 1143 1108 1125
1 2 1106 1107 1141
1 2 1072 1073 1109
1 2 1035 1072 1045
1 2 1035 1073 1072
1 2 1107 1070 1071
1 2 1106 1109 1073
1 2 1174 1189 1202
1 2 1093 1091 1055
1 2 1127 1126 1093
1 2 1159 1125 1126
1 2 953 986 946
1 2 1128 1129 1161
1 2 1143 1125 1159
1 2 1059 1067 1097
1 2 1095 1059 1097
1 2 1057 1024 1059
1 2 993 1024 986
1 2 1030 1067 1059
1 2 1097 1067 1103
1 2 1131 1097 1103
1 2 1095 1057 1059
1 2 1184 1209 1181
1 2 1020 1021 1055
1 2 1091 1052 1055
1 2 982 981 1020
1 2 1055 1052 1020
1 2 941 939 981
1 2 939 898 896
1 2 1091 1125 1090
1 2 1051 1016 1052
1 2 1108 1071 1090
1 2 1125 1108 1090
1 2 1107 1071 1108
1 2 1071 1036 1051
1 2 856 896 898
1 2 1022 983 986
1 2 939 896 899
1 2 1044 1008 1045
1 2 855 813 856
1 2 1020 981 1021
1 2 857 899 896
1 2 857 862 899
1 2 946 986 983
1 2 1119 1149 1155
1 2 1120 1119 1155
1 2 1082 1115 1080
1 2 1149 1114 1150
1 2 1180 1149 1181
1 2 1119 1114 1149
1 2 1119 1083 1114
1 2 76 52 75
1 2 102 76 75
1 2 102 101 76
1 2 45 50 71
1 2 50 52 74
1 2 28 50 45
1 2 28 27 50
1 2 609 565 612
1 2 97 96 69
1 2 45 71 69
1 2 132 169 131
1 2 133 132 97
1 2 133 172 170
1 2 52 76 74
1 2 339 340 341
1 2 293 339 341
1 2 293 292 339
1 2 205 242 248
1 2 327 340 292
1 2 285 247 291
1 2 329 285 291
1 2 326 283 285
1 2 292 283 327
1 2 242 247 283
1 2 248 242 283
1 2 205 204 242
1 2 329 375 371
1 2 337 385 384
1 2 288 337 336
1 2 288 335 337
1 2 245 246 289
1 2 253 245 290
1 2 253 210 245
1 2 335 333 381
1 2 246 244 287
1 2 290 245 288
1 2 245 210 203
1 2 424 380 426
1 2 287 333 335
1 2 289 287 335
1 2 244 286 287
1 2 334 380 333
1 2 384 383 336
1 2 430 384 385
1 2 429 383 384
1 2 430 476 429
1 2 431 478 477
1 2 381 424 385
1 2 424 470 431
1 2 477 476 430
1 2 385 431 430
1 2 525 524 477
1 2 474 428 429
1 2 523 475 522
1 2 435 391 428
1 2 342 389 390
1 2 318 342 363
1 2 295 297 343
1 2 250 251 294
1 2 276 236 250
1 2 280 276 318
1 2 280 240 276
1 2 207 169 208
1 2 276 240 236
1 2 168 131 169
1 2 289 335 288
1 2 245 289 288
1 2 246 287 289
1 2 197 237 203
1 2 163 197 203
1 2 127 163 164
1 2 127 126 163
1 2 160 162 197
1 2 243 286 244
1 2 254 296 252
1 2 211 254 252
1 2 253 296 254
1 2 334 333 286
1 2 336 296 290
1 2 384 336 337
1 2 383 344 336
1 2 295 251 252
1 2 474 476 521
1 2 297 296 344
1 2 391 343 344
1 2 295 252 297
1 2 476 477 524
1 2 344 296 336
1 2 391 344 383
1 2 391 389 343
1 2 426 425 471
1 2 602 562 607
1 2 560 602 605
1 2 557 562 602
1 2 594 560 605
1 2 604 594 639
1 2 604 559 594
1 2 511 556 514
1 2 469 511 514
1 2 512 557 556
1 2 556 602 560
1 2 514 556 560
1 2 557 602 556
1 2 532 486 489
1 2 576 531 578
1 2 621 576 622
1 2 668 621 622
1 2 623 579 577
1 2 621 623 577
1 2 485 486 531
1 2 584 542 588
1 2 539 584 585
1 2 539 538 584
1 2 558 549 513
1 2 558 595 549
1 2 587 541 554
1 2 633 587 600
1 2 675 633 630
1 2 675 678 633
1 2 632 622 586
1 2 633 632 587
1 2 678 668 632
1 2 576 578 622
1 2 449 495 448
1 2 622 578 586
1 2 531 486 532
1 2 497 493 451
1 2 468 503 458
1 2 549 588 542
1 2 496 509 541
1 2 449 402 420
1 2 548 560 594
1 2 639 646 684
1 2 729 691 736
1 2 649 603 648
1 2 648 603 604
1 2 639 605 646
1 2 648 604 639
1 2 730 694 684
1 2 693 649 648
1 2 559 558 513
1 2 594 559 548
1 2 604 558 559
1 2 684 648 639
1 2 603 558 604
1 2 605 602 646
1 2 511 512 556
1 2 602 607 647
1 2 773 736 780
1 2 774 773 789
1 2 774 730 773
1 2 647 691 646
1 2 602 647 646
1 2 650 692 647
1 2 650 696 692
1 2 917 958 957
1 2 1313 1297 1312
1 2 1291 1282 1299
1 2 1258 1237 1236
1 2 1278 1258 1277
1 2 1259 1237 1258
1 2 1295 1279 1278
1 2 1238 1237 1259
1 2 1257 1277 1258
1 2 1329 1328 1315
1 2 1326 1329 1327
1 2 1326 1336 1329
1 2 1293 1290 1306
1 2 1342 1341 1335
1 2 1341 1336 1334
1 2 1327 1329 1315
1 2 1064 1065 1029
1 2 1063 1092 1100
1 2 1002 1038 1027
1 2 990 1002 1027
1 2 990 1019 1002
1 2 1092 1054 1053
1 2 1135 1100 1124
1 2 1063 1054 1092
1 2 1102 1065 1064
1 2 1185 1156 1155
1 2 1186 1185 1210
1 2 1186 1156 1185
1 2 1168 1158 1187
1 2 1158 1122 1123
1 2 1187 1158 1157
1 2 1168 1135 1158
1 2 567 566 519
1 2 568 567 520
1 2 568 614 567
1 2 529 568 520
1 2 615 660 614
1 2 1062 1064 1028
1 2 1038 1063 1027
1 2 1063 1100 1062
1 2 1027 1063 1062
1 2 1038 1054 1063
1 2 1197 1196 1167
1 2 1101 1078 1062
1 2 1136 1133 1102
1 2 1134 1136 1101
1 2 1166 1133 1136
1 2 1167 1166 1136
1 2 1168 1167 1134
1 2 1196 1166 1167
1 2 1195 1165 1166
1 2 1078 1064 1062
1 2 1102 1078 1101
1 2 1102 1064 1078
1 2 1061 1098 1074
1 2 1121 1157 1123
1 2 1197 1167 1168
1 2 937 979 938
1 2 1053 1018 1017
1 2 1050 1053 1017
1 2 1014 1050 1017
1 2 1048 1087 1050
1 2 1089 1092 1053
1 2 1122 1089 1087
1 2 1122 1124 1089
1 2 1019 980 979
1 2 1054 1019 1018
1 2 1038 1002 1019
1 2 1110 1077 1074
1 2 1145 1110 1132
1 2 1145 1144 1110
1 2 1155 1156 1120
1 2 1204 1203 1176
1 2 1195 1204 1176
1 2 1230 1249 1254
1 2 1208 1230 1233
1 2 1223 1249 1230
1 2 1231 1229 1253
1 2 1206 1178 1203
1 2 1203 1178 1175
1 2 1176 1203 1175
1 2 1145 1176 1175
1 2 1195 1223 1204
1 2 1145 1132 1165
1 2 1224 1241 1249
1 2 1196 1224 1223
1 2 1196 1197 1224
1 2 1229 1206 1203
1 2 1144 1148 1113
1 2 1129 1097 1131
1 2 1178 1148 1175

boundary
120
3 1 1322 1308
3 1 1308 1292
3 1 1292 1275
3 1 1275 1255
3 1 1255 1231
3 1 1231 1206
3 1 1206 1178
3 1 1178 1148
3 1 1148 1113
3 1 1113 1077
3 1 1077 1074
3 1 1074 1037
3 1 1037 1001
3 1 1001 995
3 1 995 954
3 1 954 912
3 1 912 870
3 1 870 828
3 1 828 785
3 1 785 744
3 1 744 741
3 1 741 698
3 1 698 652
3 1 652 645
3 1 645 599
3 1 599 553
3 1 553 507
3 1 507 462
3 1 462 418
3 1 418 373
3 1 373 328
3 1 328 284
3 1 284 279
3 1 279 239
3 1 239 198
3 1 198 199
3 1 199 194
3 1 194 158
3 1 158 154
3 1 154 122
2 1 122 116
2 1 116 88
2 1 88 73
2 1 73 46
2 1 46 23
2 1 23 5
2 1 5 17
2 1 17 8
2 1 8 16
2 1 16 10
2 1 10 7
2 1 7 6
2 1 6 15
2 1 15 1
2 1 1 0
2 1 0 3
2 1 3 9
2 1 9 11
2 1 11 12
2 1 12 13
2 1 13 14
2 1 14 35
2 1 35 36
2 1 36 37
2 1 37 60
2 1 60 61
2 1 61 85
2 1 85 87
2 1 87 114
2 1 114 121
2 1 121 119
2 1 119 118
2 1 118 117
2 1 117 120
2 1 120 151
2 1 151 157
2 1 157 193
2 1 193 233
2 1 233 241
2 1 241 282
2 1 282 325
2 1 325 370
2 1 370 414
2 1 414 422
2 1 422 467
2 1 467 512
2 1 512 557
2 1 557 562
2 1 562 607
2 1 607 650
2 1 650 696
2 1 696 740
2 1 740 783
2 1 783 786
2 1 786 830
2 1 830 872
2 1 872 876
2 1 876 917
2 1 917 958
2 1 958 998
2 1 998 1033
2 1 1033 1069
2 1 1069 1105
2 1 1105 1139
2 1 1139 1170
2 1 1170 1198
2 1 1198 1225
2 1 1225 1250
2 1 1250 1271
2 1 1271 1289
2 1 1289 1305
2 1 1305 1320
2 1 1320 1332
2 1 1332 1340
2 1 1340 1344
2 1 1344 1345
2 1 1345 1343
2 1 1343 1337
2 1 1337 1328
2 1 1328 1322

vertices
1346
2
0.707106781187 0.707106781187
0.743144825477 0.669130606359
0.663169768977 0.693206063465
0.669130606359 0.743144825477
0.701754846053 0.659275863282
0.951056516295 0.309016994375
0.809016994375 0.587785252292
0.838670567945 0.544639035015
0.913545457643 0.406736643076
0.62932039105 0.777145961457
0.866025403784 0.5
0.587785252292 0.809016994375
0.544639035015 0.838670567945
0.5 0.866025403784
0.45399049974 0.891006524188
0.777145961457 0.62932039105
0.891006524188 0.45399049974
0.933580426497 0.358367949545
0.70149697438 0.6195368997
0.619232759549 0.679305348526
0.623615629341 0.72616719904
0.660364866965 0.649421124113
0.908540957802 0.299245337396
0.965925826289 0.258819045103
0.742629081796 0.589652673239
0.783761189211 0.559768448826
0.815431870255 0.513556496067
0.866025401993 0.394736841782
0.890051588779 0.34830463738
0.583144467401 0.758109878989
0.832296380151 0.438862223866
0.54080379013 0.788872182079
0.497918219676 0.817491712903
0.454347413922 0.844924386167
0.410154432161 0.87113596459
0.406736643076 0.913545457643
0.358367949545 0.933580426497
0.309016994375 0.951056516295
0.66200806793 0.601823553165
0.714244802682 0.5406694882
0.663651268895 0.554225984266
0.616145247329 0.623543913405
0.578100654183 0.709189574988
0.570282426728 0.645264275694
0.906069044588 0.247174394268
0.866025401993 0.289473683564
0.978147600734 0.207911690818
0.940001799762 0.227714159645
0.764838336469 0.527112992133
0.790135101313 0.467703163966
0.840728635099 0.331339651003
0.790135101313 0.415071585882
0.793748925155 0.36899048264
0.536968546768 0.739073799401
0.495836439352 0.768958023814
0.454704331937 0.798842250275
0.413572224522 0.828726474688
0.372440117106 0.858610699101
0.33130801174 0.888494925563
0.290175904324 0.918379149976
0.258819045103 0.965925826289
0.207911690818 0.978147600734
0.613057735109 0.567782480333
0.676299651318 0.485047385083
0.731109312578 0.465975215999
0.64049105173 0.516957348042
0.562464201322 0.581338978448
0.511738076444 0.695533188428
0.533947329069 0.632993507323
0.866025401993 0.23684210343
0.914077773517 0.19660927476
0.809231984345 0.269889285015
0.950117049599 0.176977921349
0.987688340595 0.15643446504
0.802783483735 0.319577196631
0.739541567526 0.402312291881
0.754121170243 0.360784003195
0.467452160239 0.719974836726
0.431050766009 0.758022927361
0.387553300976 0.783825219687
0.344055837993 0.809627512013
0.316827008703 0.84333153101
0.253565203728 0.875372806541
0.222339338923 0.903860188838
0.191113474119 0.932347573184
0.15643446504 0.987688340595
0.148215786413 0.940298190937
0.104528463268 0.994521895368
0.994521895368 0.104528463268
0.58570987851 0.521056261492
0.617330836614 0.479688713867
0.66074555643 0.439392899665
0.692366514534 0.398025354089
0.539715757631 0.533380350688
0.511870667536 0.594895474515
0.486507606121 0.651992579505
0.866025401993 0.184210525345
0.815680484954 0.220201373398
0.922086500397 0.146044153204
0.758887067306 0.253248554983
0.958304197582 0.125286307209
0.732300599881 0.289581611929
0.714493417381 0.35257752375
0.439067879076 0.670991651687
0.407397200081 0.717203606495
0.36153437948 0.738923964686
0.302346005665 0.798168136457
0.315671558879 0.760644326974
0.257429328521 0.821521268712
0.216954503131 0.832366465155
0.178475805445 0.862637253257
0.139997109808 0.892908041359
0.102216055619 0.9472098025
0.056216326874 0.954121414064
0.0523359562429 0.998629534755
0.9643623809 0.0739074939619
0.998629534755 0.0523359562429
-0.15643446504 0.987688340595
-0.104528463268 0.994521895368
-0.0523359562429 0.998629534755
-0.207911690818 0.978147600734
2.02930994035e-15 1
1 -2.44929359829e-16
0.131778431155 0.845517891781
0.55836202191 0.474330042651
0.607673624631 0.434570096186
0.645191463591 0.393738416297
0.667318364389 0.348290585958
0.510254657651 0.492134379216
0.484522810936 0.548169255674
0.461277135798 0.608451970581
0.866025401993 0.131578947261
0.814337953287 0.167476920288
0.765335567915 0.203560643367
0.930095229326 0.0954790336969
0.70265925322 0.255037240828
0.689445267235 0.302842755618
0.410683602011 0.622008466648
0.383743634153 0.67638428358
0.335515455935 0.694022711733
0.24105604062 0.773092330129
0.287287279765 0.711661141935
0.180343802534 0.789360125819
0.0981692254526 0.876071232721
0.05627883501 0.906677919074
0.00565120736663 0.946112687184
0.938103958255 0.0449139121407
-0.125286311307 0.958304197582
-0.176977923398 0.950117049599
-0.0739074980597 0.9643623809
-0.0449139141896 0.938103958255
-0.258819045103 0.965925826289
-0.227714161694 0.940001799762
0.946112687184 -0.00565120941554
0.998629534755 -0.0523359562429
0.12355975455 0.798127742203
0.0940911412184 0.828654410437
-0.309016994375 0.951056516295
0.994521895368 -0.104528463268
0.902064680124 0.0619306396338
0.598016412647 0.389451480554
0.53101416736 0.427603825859
0.550841361704 0.385164542762
0.620143313445 0.344003648166
0.642270214243 0.298555817826
0.46885994763 0.503226057443
0.494218870247 0.437463097216
0.435296672336 0.564062061966
0.866025401993 0.078947367127
0.818029914347 0.116416538336
0.762650506629 0.15074331523
0.690365149817 0.205945557827
0.725059634284 0.176850931977
0.66439711709 0.253107989536
0.383335745412 0.575282247807
0.360090068225 0.635564962715
0.309496534438 0.649121458781
0.184207927328 0.735508587989
0.232909174201 0.718686545844
0.258903000652 0.662677956897
0.143733101938 0.746353784433
0.0563413431461 0.859234424084
-0.00692614550416 0.895588746663
0.906069042539 -0.0159835002534
-0.0954790357458 0.930095229326
-0.146044155253 0.922086500397
-0.196609276809 0.914077773517
-0.0574983706302 0.892971326032
-0.247174396317 0.906069044588
0.954121414064 -0.0562163289229
0.0564038512822 0.811790929094
0.0969411848084 0.75350223766
-0.297739517873 0.898060315659
-0.358367949545 0.933580426497
0.987688340595 -0.15643446504
0.951689729143 -0.113545292629
0.866025401993 0.0263157890423
0.572968262502 0.339716712422
0.965925826289 -0.258819045103
0.978147600734 -0.207911690818
0.866025401993 -0.0263157910912
0.503666310761 0.380877607019
0.525793211559 0.335429776679
0.606158613699 0.271544967938
0.416700128947 0.512288233277
0.447354587677 0.457391349932
0.458045113979 0.402929779983
0.816799259295 0.063846021857
0.770034426702 0.101254129411
0.722038939057 0.122933826989
0.639348966944 0.203373221404
0.678071046414 0.156853874826
0.338363714924 0.587332465395
0.355987888813 0.528556028966
0.289289507074 0.603484864443
0.157715935128 0.68979094903
0.208309466865 0.676234452963
0.237879335264 0.614257175023
0.107122401341 0.703347445096
0.0184501764536 0.828427866593
-0.019503496326 0.845064808191
0.866025401993 -0.0789473691759
0.910073407004 -0.0938976401406
-0.0954032711642 0.872587963354
-0.162842370628 0.87628647478
-0.221820804963 0.856160344515
-0.0574155004298 0.830072751762
-0.27240013161 0.858934230133
0.0564663594183 0.764347434104
0.00586430216754 0.784373499718
0.0565288675544 0.716903941163
-0.322979460306 0.861708113702
-0.348304639429 0.890051588779
-0.406736643076 0.913545457643
0.922086500397 -0.196061109468
0.926856870229 -0.144006707188
0.819875893853 0.00667582201462
0.547920112356 0.28998194634
0.915975612976 -0.247830576029
0.951056516295 -0.309016994375
0.813283106976 -0.0412426717032
-0.45399049974 0.891006524188
0.394411626546 0.464206365649
0.476318454162 0.334151388178
0.510814044821 0.289023154964
0.57980522614 0.198766688536
0.54530963548 0.24389492175
0.347920272171 0.484771794439
0.402479243188 0.407990601201
0.431940343168 0.358327481391
0.767573120694 0.0487446765869
0.718346980045 0.0687310527719
0.674043453461 0.102508260871
0.614300818848 0.153638455322
0.64417213513 0.128073357072
0.316637363673 0.539099970124
0.269082479709 0.557848270105
0.13232149671 0.646402317981
0.180961610266 0.629508234122
0.207625770297 0.575066296826
0.0889556106077 0.658022170289
-0.0320808491968 0.794540871768
0.866025401993 -0.131578949309
0.818557336478 -0.0916296835911
-0.0953275024847 0.815080697383
-0.145911564162 0.821448784435
-0.183866185587 0.83880456345
-0.247032333116 0.798242919611
-0.297625866903 0.811799417727
0.00593533376785 0.730460439278
-0.0446582000187 0.744016935345
0.0314599988344 0.674071574746
-0.348219400689 0.825355913793
-0.398812934476 0.83891240986
0.866025401993 -0.184210527394
0.866025401993 -0.236842105479
0.773726387763 -0.0129641450131
0.908540957802 -0.325561129512
0.866025401993 -0.289473685612
0.933580426497 -0.358367949545
0.760540814009 -0.0561695502663
-0.463080395538 0.82910579753
-0.5 0.866025403784
0.35735528195 0.430892340216
0.913545457643 -0.406736643076
0.325100003951 0.449670248991
0.448970599611 0.287425171386
0.490303153908 0.253978491345
0.523773199715 0.164155441024
0.534541416573 0.204025180362
0.563955901809 0.136997727339
0.294911010372 0.490867474853
0.375131388637 0.36126438236
0.405835570307 0.313725182799
0.713732028207 0.0141354759355
0.669120839396 0.047781754609
0.60758816256 0.100542500057
0.626047965815 0.0557669067343
0.248875452344 0.512211675767
0.153613753667 0.582782015282
0.106927058293 0.603013686932
0.181987155119 0.531260466791
0.0524266881425 0.609895007415
-0.0952517338053 0.757573431411
0.814337953287 -0.15357571361
0.771089273012 -0.104311995957
-0.145845267592 0.771129927478
-0.19643879933 0.784686423544
-0.303551235798 0.768342070345
-0.223786655929 0.737960204704
-0.263668946888 0.7531511365
-0.0214125228314 0.683734220437
-0.0692712703434 0.701963339003
0.00639113011434 0.631239208329
-0.368730293651 0.790311250175
-0.426160789026 0.792186191019
0.821721875408 -0.203064895331
0.810645992226 -0.247252170879
0.727576879624 -0.0326041120408
0.866025401993 -0.342105263697
0.819875893853 -0.295955757607
0.866025401993 -0.394736843831
0.723621209547 -0.0869191173342
-0.481155724992 0.761647751799
-0.513556498115 0.815431870255
-0.544639035015 0.838670567945
0.30227973778 0.414568705591
0.331374818488 0.386502433649
0.891006524188 -0.45399049974
0.273184659121 0.442634979582
0.205327789025 0.49891777411
0.829105795481 -0.410448817453
-0.292612094798 0.720365889576
0.443407795526 0.21847087249
0.40322509548 0.245628588223
0.48359049762 0.191313156757
0.537105278705 0.0968627033726
0.493519634747 0.133935853125
0.228668424979 0.466575081429
0.366690843801 0.316842971758
0.327546119343 0.319960762765
0.361333149915 0.274052517837
0.662967572327 -0.00746848984386
0.619125540107 0.0133472276045
0.57805247817 0.0616571306825
0.126265899116 0.536055796441
0.0815326198764 0.559625055883
0.156348539941 0.487454638805
0.0250788335922 0.563168790623
-0.122599590405 0.710847212571
0.767573120694 -0.155933684908
0.718346980045 -0.141795263665
-0.16054473972 0.72101458462
-0.352321578052 0.718346980045
-0.251134512528 0.691233985863
-0.193704017153 0.689359045019
-0.0487603794306 0.637008001597
-0.0938843427169 0.659909742661
-0.0186777386057 0.588406841912
-0.389241184564 0.755266586556
-0.439717287142 0.741592657232
0.777418348824 -0.221919263268
0.773726387763 -0.276122039534
0.681427373534 -0.0522440790685
0.810645994275 -0.36567322413
0.767573120694 -0.331372281938
0.676153144032 -0.129676618641
-0.527112994182 0.764838336469
-0.493582513736 0.715270345486
-0.559768450875 0.783761189211
-0.587785252292 0.809016994375
0.273944321064 0.388377374493
0.285156942331 0.347535124279
0.866025403784 -0.5
0.82910579753 -0.463080395538
0.230947414908 0.414913377273
0.792186191019 -0.426160789026
-0.31540197359 0.681427375582
0.116791820728 0.491297071792
0.0344552384079 0.522046349963
0.380476651788 0.197669960463
0.443252410314 0.151020372893
0.339827792011 0.228217810326
0.530056992574 0.0412315645639
0.490116690835 0.0768656462216
0.46326606978 0.103716267276
0.172757253491 0.415490366626
0.305257616942 0.271878895137
0.264235831019 0.301789568925
0.612203114398 -0.0290724515254
0.635277867443 -0.0718840460962
0.570668558097 0.0058831582832
0.0772351015147 0.495139506827
0.111737349082 0.44873249377
-0.0437466073257 0.545574475495
-0.00226902300703 0.516442571782
-0.149947447004 0.66412099373
0.710963057923 -0.197569238113
0.669120839396 -0.180288420506
-0.399408556614 0.717321435192
-0.363166776545 0.677872152606
-0.21763338886 0.648473603789
-0.278482367078 0.644507769071
-0.0761082339809 0.590281782756
-0.118497410993 0.617856146319
-0.453273783208 0.690999123446
0.73311482224 -0.240773631205
0.727576881673 -0.295762006562
0.755266586556 -0.389241184564
0.718346980045 -0.352321578052
0.628685080566 -0.142358928958
-0.589652675287 0.742629081796
-0.540669490249 0.714244802682
-0.503749885786 0.677325196171
-0.62932039105 0.777145961457
0.205118884244 0.370783059365
0.246596466514 0.341651157701
0.813539013745 -0.5
0.838670567945 -0.544639035015
0.758159606027 -0.444620592282
-0.326699052962 0.639266096744
0.0162884476746 0.476721077204
-0.669130606359 0.743144825477
0.132590088279 0.409361233664
0.415096549797 0.125481392094
0.318322432058 0.182383102814
0.366927031862 0.147246516912
0.282969114541 0.223797027509
0.521442417448 -0.0267620456654
0.482061504928 0.0102796840577
0.443128100916 0.0568685890705
0.412921152742 0.0870755392938
0.145409398941 0.368764149834
0.253433428103 0.253332711899
0.219248609915 0.29492493886
0.561438656469 -0.0506764152559
0.589128359304 -0.091524013124
0.0571148925993 0.446476646277
0.0924229271639 0.403232102751
-0.113574796928 0.546266863538
-0.0380491345544 0.471975769635
-0.0772477309939 0.505001523723
-0.177295301554 0.617394774889
0.688811295655 -0.259627999141
0.659275611266 -0.230092316801
0.619894698746 -0.18369385999
-0.410931579499 0.674316931678
-0.379434572234 0.617159912472
-0.241562762616 0.607588164609
-0.292038865194 0.593914235284
-0.149605598719 0.589705072054
-0.466830279275 0.640405589659
0.681427375582 -0.31540197359
0.715086732446 -0.40154772075
0.661968896875 -0.361551481729
0.5812170171 -0.147522443577
-0.619536901749 0.70149697438
-0.554225986315 0.663651268895
-0.517306381853 0.626731662384
0.179290353581 0.326652743506
0.761052627546 -0.5
0.783761189211 -0.559768450875
0.809016994375 -0.587785252292
0.711826484848 -0.4507738614
-0.338641684352 0.594695603377
0.00534930462516 0.429459162736
-0.65927586738 0.701754846053
-0.707106781187 0.707106781187
-0.567782482382 0.613057735109
-0.649421126162 0.660364866965
0.339579175263 0.100520298072
0.296817072105 0.136548395303
0.26068061214 0.175715159882
0.222393612491 0.210298454119
0.47221627475 -0.0418633909355
0.510674198541 -0.0722803810353
0.434066017283 -0.00488272486709
0.396139513046 0.0368715319195
0.362576235703 0.0704348092623
0.11173735113 0.323732494026
0.0794326944085 0.356037148699
0.191900753315 0.248198720019
0.14784031757 0.284028704077
0.549571640091 -0.115877066567
0.0369946836838 0.397813785726
-0.13080394513 0.496829347123
-0.167723551642 0.533748953635
-0.093884340668 0.459909742661
-0.0569647341566 0.422990136149
-0.204643156104 0.570668558097
0.644507769071 -0.278482367078
0.607588164609 -0.241562762616
0.570668558097 -0.204643156104
-0.429910674812 0.603485985197
-0.39299107035 0.566566378685
-0.255119258682 0.556994628773
-0.302206237244 0.55596908392
-0.480386779439 0.589812055873
0.634279191992 -0.333861776845
0.668753613316 -0.407700987819
0.624050614912 -0.389241184564
0.533748953635 -0.167723551642
-0.608601805296 0.636711301037
-0.530862879968 0.576138128597
0.719579436089 -0.565201946222
0.708566239298 -0.5
0.748362697333 -0.597261170202
0.777145961457 -0.62932039105
0.662416731159 -0.45385049391
-0.350987776789 0.548619347856
-0.0200451296941 0.386070531687
-0.711225088882 0.644181681
-0.743144825477 0.669130606359
-0.581338980497 0.562464201322
-0.679305350575 0.619232759549
0.687829642545 -0.532600974136
0.312231320713 0.0537940812798
0.275311714202 0.0907136877912
0.238392109739 0.127633292254
0.201472503228 0.164552898765
0.164552898765 0.201472503228
0.422990136149 -0.0569647341566
0.459909742661 -0.093884340668
0.496829347123 -0.13080394513
0.386070531687 -0.0200451296941
0.349150925175 0.0168744768173
0.0537940812798 0.312231320713
0.0907136877912 0.275311714202
0.0168744768173 0.349150925175
0.127633292254 0.238392109739
-0.143128036375 0.450835226244
-0.181280047708 0.483155417799
-0.21669337779 0.525696527609
-0.106311129412 0.413532334299
-0.0694784274041 0.376288412024
0.596291945778 -0.293250211322
0.558660578782 -0.253869296754
0.521232574267 -0.215191617157
-0.443467170879 0.55289245141
-0.406547566416 0.515972846948
-0.265663201889 0.517644103633
-0.319151857327 0.49272716976
-0.497332397473 0.526570139664
0.584995726948 -0.344937657979
0.62305193946 -0.45385049391
0.588467352361 -0.411392946831
0.561555987281 -0.381857262442
0.482089140622 -0.183546240147
-0.645264279791 0.570282426728
-0.546113937019 0.5192204036
0.70149697438 -0.619536901749
0.670764112073 -0.586935927614
0.65607985105 -0.5
0.743144825477 -0.669130606359
-0.363602850087 0.50153925568
-0.0326333049057 0.339090819693
-0.74316777088 0.603710521109
-0.777145961457 0.62932039105
-0.594895476564 0.511870667536
-0.632993511421 0.533947329069
-0.709189577037 0.578100654183
0.637178786413 -0.543467964831
-0.809016994375 0.587785252292
0.258929868004 0.041487547142
0.29100388921 0.00344916424104
0.222072962226 0.0793538072886
0.18395590939 0.113433444699
0.147175577513 0.151367322962
0.110376674319 0.18916596909
0.365833713176 -0.0680406193883
0.402234425118 -0.106190874806
0.445066213743 -0.144648800646
0.329338655089 -0.0301141131018
0.00422174455991 0.301930294188
0.0356701537368 0.261466862784
0.070282284329 0.226854730143
-0.194836547873 0.432561886062
-0.157916939313 0.39564227955
-0.229044850663 0.479600196872
-0.120997336899 0.358722675088
-0.0821410866288 0.32903071626
0.546652599468 -0.303095437403
0.493720083678 -0.262659680622
0.457912389709 -0.22310295936
-0.457023666945 0.502298917624
-0.420104062483 0.465379313161
-0.278165302405 0.470985621746
-0.332708353393 0.442133633925
-0.507499769523 0.488624990348
0.534644622202 -0.352321578052
0.603593462802 -0.5
0.569787213458 -0.455696473416
0.522636642887 -0.401547718701
0.430222686874 -0.195413258574
-0.691014361187 0.528602586341
-0.557975872101 0.474951063073
0.660364866965 -0.649421126162
0.701754846053 -0.65927586738
0.621948790105 -0.608669911054
0.707106781187 -0.707106781187
-0.376406207938 0.453756473543
-0.0471581238761 0.284883464114
-0.7740453989 0.56237689933
-0.60845197263 0.461277135798
-0.651992583603 0.486507606121
-0.73907380145 0.536968546768
0.597813994715 -0.543467964831
-0.838670567945 0.544639035015
0.483683436162 -0.357595809603
0.205753814714 0.0310743223234
0.23380029214 -0.00773859350731
0.269776457706 -0.0468957527977
0.166439317601 0.0623139906324
0.12979825831 0.101262144746
0.0931200563844 0.13993982844
0.0564116801661 0.178397748134
0.356094173953 -0.116036107034
0.309526387052 -0.0771027009721
0.381478714087 -0.155417015455
-0.0400440001302 0.240955969823
0.0175462261937 0.210702404855
-0.20839304189 0.381968352275
-0.245312648402 0.418887956737
-0.171473437428 0.345048745764
-0.134553830917 0.308129141301
-0.0976342244052 0.27120953479
0.473705647675 -0.310127744088
0.438453911001 -0.269252467499
0.396758632079 -0.224641278688
-0.470580163012 0.451705385886
-0.389346500569 0.40546264621
-0.438590194228 0.396388129793
-0.290859115302 0.423611679043
-0.342875727492 0.404188484609
-0.523767565213 0.427912750214
0.558449205066 -0.543467964831
0.551107074554 -0.5
0.520414180328 -0.448312553343
0.471167056794 -0.405063873068
-0.715456009484 0.484316670135
-0.572888016955 0.419298175088
0.619232759549 -0.679305350575
0.663169768977 -0.693206067563
0.573133468137 -0.630403892445
0.565791335577 -0.586935929662
0.669130606359 -0.743144825477
-0.768958025862 0.495836439352
-0.817491714952 0.497918219676
-0.670991655785 0.439067879076
-0.622008468697 0.410683602011
-0.866025403784 0.5
0.441610194875 -0.359573644641
0.62932039105 -0.777145961457
0.391145004789 -0.284635636196
0.148922725812 0.011194536566
0.189434667201 -0.0172051605929
0.213044583158 -0.0569647341566
0.248549026203 -0.0972406698365
0.105399124888 0.0611780013528
0.0758634384497 0.0907136877912
0.0392606773779 0.129940766124
-0.00057769930044 0.159937946927
0.289714116966 -0.124091290891
0.341105994062 -0.16403159263
0.360723005105 -0.204643156104
-0.0329298743354 0.197028475531
-0.0713233599172 0.21719751816
-0.219528734795 0.340409377069
-0.258869144468 0.368294422951
-0.181156648026 0.308910507345
-0.144495261502 0.271027216661
-0.113046854374 0.230563783208
0.418995432294 -0.31540197359
0.363294579334 -0.253869296754
-0.484136659078 0.40111185005
-0.353043099542 0.366243335294
-0.402389492749 0.356785533444
-0.449681874504 0.354993419773
-0.303696706336 0.375701135095
-0.534612761656 0.387437922775
0.515322391889 -0.547090295746
0.498620686306 -0.5
0.46689000704 -0.450773859351
0.423128318715 -0.394515414065
-0.739897659831 0.440030753929
-0.586321273154 0.369164582593
0.603710521109 -0.74316777088
0.578100654183 -0.709189577037
0.575617060136 -0.669796735765
0.524318146169 -0.652137873836
0.515752324849 -0.601425251273
-0.798842252324 0.454704331937
-0.844924390265 0.454347413922
-0.683855343781 0.373460607299
-0.701568690316 0.4129495117
-0.635564964763 0.360090068225
-0.891006524188 0.45399049974
0.399536955636 -0.36155147968
0.587785252292 -0.809016994375
0.348370688081 -0.303095437403
0.536968546768 -0.73907380145
0.121414763314 -0.0253193591957
0.0950436178549 0.00105178626352
0.156965862081 -0.065484645558
0.192288872127 -0.106190874806
0.246407554994 -0.147585584826
0.044610450179 0.041487545093
0.00898807804006 0.0814837841145
-0.0187016268435 0.109173488998
-0.0625431222492 0.147061664282
0.282971497423 -0.18987531391
0.321847251264 -0.197259236031
-0.106384613557 0.184949839567
-0.272425642584 0.317700891213
-0.2306644277 0.298850403911
-0.194067596173 0.260726192184
-0.150226104865 0.222838014851
0.352888111819 -0.347706630312
0.311129638377 -0.260022565871
-0.497693159243 0.350518318313
-0.316644899563 0.327377823952
-0.366078195224 0.317595706338
-0.415511488836 0.307813588723
-0.460773552731 0.313598711801
-0.548169259772 0.336844388989
0.472195580762 -0.550712626661
0.446134298058 -0.5
0.408388114263 -0.447257707033
0.3708485753 -0.398471086191
-0.780436101817 0.400201685447
-0.732145722799 0.386831146373
-0.599775069672 0.318954334239
0.54080379013 -0.788872186177
0.50623568446 -0.706472831412
0.465713314121 -0.615914572883
0.475502822153 -0.673871855227
-0.828726476737 0.413572224522
-0.871135968688 0.410154432161
-0.701493773983 0.325232429081
-0.64912146083 0.309496534438
-0.913545457643 0.406736643076
0.544639035015 -0.838670567945
0.306510156399 -0.30555674546
0.495836439352 -0.768958025862
0.5 -0.866025403784
0.10140032936 -0.0727874226615
0.0713752669947 -0.0402630080844
0.0413502046292 -0.00773859350731
0.136609299142 -0.113764128474
0.171533163145 -0.155417015455
0.229951614076 -0.197930501865
0.00495867180169 0.0330268021049
-0.0368255543866 0.0584090310693
-0.0781884304976 0.0968122571677
-0.119551306609 0.135215483266
0.266426639973 -0.241562762616
-0.16091418272 0.173618711413
-0.285982136602 0.267107357427
-0.243639932893 0.250425165659
-0.202277058831 0.212021937512
0.318522911722 -0.401547718701
0.298455874062 -0.352321578052
0.264649626766 -0.308018053517
-0.511249655309 0.299924784526
-0.329679989097 0.278730194996
-0.37918777082 0.268670091563
-0.426460966586 0.266949581138
-0.474330048798 0.263005178015
-0.561725757887 0.286250855202
0.434575365982 -0.586935929662
0.40190780638 -0.548901462228
0.39364790981 -0.5
0.356005048431 -0.44923554412
-0.806238392094 0.356704220415
-0.760644331072 0.315671558879
-0.613244667382 0.268685118266
0.477352165968 -0.832433829207
0.46126196772 -0.732281934314
0.418427601567 -0.646704380537
0.426687500185 -0.695605838667
-0.85861070115 0.372440117106
-0.711661148082 0.287287279765
-0.662677958945 0.258903000652
-0.933580426497 0.358367949545
0.454704331937 -0.798842252324
0.45399049974 -0.891006524188
-0.951056516295 0.309016994375
0.239072648938 -0.278146737235
-0.299538632668 0.21651382364
-0.798168142604 0.302346005665
0.410154432161 -0.871135968688
0.0527397390015 -0.0886101111664
0.0813858933573 -0.120255488176
0.0240935866945 -0.0569647341566
-0.0318747268355 -0.0154301799046
0.116252738253 -0.162043613439
0.150777452114 -0.204643156104
0.190364532071 -0.201286828985
0.213495673159 -0.248275418904
-0.0711255704715 0.0261898364184
-0.144840621617 0.10168359317
-0.10798309502 0.0639367147944
-0.181698146166 0.139430471546
-0.342784604284 0.229823114658
-0.267186459682 0.179423292987
-0.234834284647 0.142332762333
0.30359902047 -0.4507738614
0.266165100752 -0.404009026758
0.244412808255 -0.356013541162
0.210465042768 -0.31204564647
-0.527711113941 0.238489779214
-0.389839304322 0.228918029302
-0.437410442287 0.226085573552
-0.487886544865 0.212411646277
-0.577218893615 0.228429673732
0.383924509849 -0.597802920358
0.362543014681 -0.548901460179
0.341161521563 -0.5
-0.84604283678 0.306708302355
-0.761138644871 0.257508883586
-0.626726675338 0.218369570298
0.413572224522 -0.828726476737
0.416288255077 -0.758091039265
0.355572916992 -0.66300486658
0.377872178217 -0.717339820058
-0.888494927612 0.33130801174
-0.718686551991 0.232909174201
-0.676234455012 0.208309466865
0.406736643076 -0.913545457643
-0.918379152025 0.290175904324
-0.965925826289 0.258819045103
-0.330683891318 0.185149251749
-0.821521274859 0.257429328521
0.372440117106 -0.85861070115
0.00683696875985 -0.106190874806
0.0341042130572 -0.136957214248
0.0613714594034 -0.167723551642
-0.0293433337746 -0.0638871619142
-0.0730734074238 -0.0431198827393
0.0958961753136 -0.210323096356
0.107838929638 -0.258602581321
0.160638801065 -0.253869296754
0.163639302238 -0.298620335943
-0.105425584508 -0.00602935618351
-0.137777759542 0.0310611744701
-0.202482109612 0.105242233728
-0.170129934577 0.0681517030747
-0.400490835775 0.18916596909
-0.295176960896 0.148913341806
-0.243493941932 0.0941321665366
0.251176922909 -0.452004514404
0.288675133315 -0.5
0.224175991792 -0.404009026758
0.190652774731 -0.35903423434
-0.538362645394 0.198737716953
-0.450966938353 0.175492039766
-0.501443040931 0.161818112491
-0.588838747972 0.185063789678
0.333273655766 -0.608669911054
0.310974392491 -0.554334955527
-0.869950213442 0.273802616423
-0.781226233096 0.210699921577
-0.63931485055 0.171389862403
0.371314540386 -0.783900142167
0.341707254799 -0.826009729063
0.310483234013 -0.691259041979
0.312904166256 -0.643444282509
0.32905685625 -0.73907380145
-0.735508592087 0.184207927328
-0.689790951079 0.157715935128
0.358367949545 -0.933580426497
-0.925363364653 0.240644689222
-0.978147600734 0.207911690818
-0.361829147918 0.153784679858
-0.832366471302 0.216954503131
0.33130801174 -0.888494927612
-0.987688340595 0.15643446504
0.0613397648198 -0.244402731717
-0.0104196491748 -0.155417015455
-0.0464943365627 -0.112344143924
0.0255343369446 -0.199368928652
-0.0911973329179 -0.093884340668
-0.129859020775 -0.0585030555339
0.043823173031 -0.295522185783
0.109266032101 -0.303095437403
0.142411872784 -0.348965250933
-0.168520708632 -0.0231217663019
-0.207182396489 0.01225952293
-0.245844084347 0.047640812162
-0.426284063725 0.139353801347
-0.284505772204 0.0830221013939
-0.323167460061 0.118403390626
0.203939173281 -0.452004514404
0.236188745067 -0.5
0.2449993025 -0.552161558207
0.170840504645 -0.406022824259
-0.551919143509 0.148144185215
-0.477747480551 0.127125402379
-0.518128363432 0.116186261378
-0.602395244038 0.134470255891
0.27333598954 -0.59562952099
-0.894000313053 0.209560246309
-0.813656985866 0.178836665562
-0.79494749838 0.140718830042
-0.652871346616 0.120796328616
0.297263691386 -0.80337016648
0.298014077915 -0.8531772099
0.262620417366 -0.656484670524
0.2714309748 -0.708646226682
0.280241532233 -0.760807782841
-0.749147472763 0.123920614667
-0.703347447145 0.107122401341
0.309016994375 -0.951056516295
-0.932347575233 0.191113474119
-0.368542312336 0.103054405938
-0.862637257355 0.178475805445
0.290175904324 -0.918379152025
-0.994521895368 0.104528463268
-0.940298192986 0.148215786413
0.0213425894467 -0.262659680622
-0.291218936621 0.0322918274741
-0.0276762671095 -0.204643156104
-0.0636453393508 -0.160801125933
-0.109321260461 -0.144648798597
-0.143054306361 -0.111426039796
-0.181715994218 -0.0760447526128
0.00132815549274 -0.310127744088
0.0263065812423 -0.34664163985
0.08851032107 -0.352321578052
0.121184441281 -0.399310167971
-0.220377682075 -0.0406634633808
-0.259039369932 -0.00528217414886
-0.413917162562 0.0877054232989
-0.452077289626 0.0895416356526
-0.332118345268 0.0507630267653
0.151028236608 -0.45301141213
0.183702356819 -0.5
0.203010191492 -0.552161558207
0.222318026165 -0.604323114366
-0.571251333571 0.0939954305012
-0.493445486756 0.0800480229594
-0.534813683885 0.0705544102663
-0.6217274341 0.0803215011771
-0.892908043408 0.139997109808
-0.845517895879 0.131778431155
-0.803657036371 0.0867599703248
-0.673727997182 0.0637565152382
0.257864791488 -0.822840192842
0.254320898982 -0.88034468459
0.212336668477 -0.669525058539
0.214724502633 -0.735451470535
0.231426210265 -0.782541764232
-0.764347440251 0.0564663594183
-0.716903943212 0.0565288675544
0.258819045103 -0.965925826289
-0.375255476753 0.0523241320181
-0.923514731809 0.0981067173165
-0.954121416113 0.056216326874
-0.998629534755 0.0523359562429
-0.0326263488574 -0.26617583294
-0.339168985597 -0.0142153998038
-0.296369330023 -0.0300246597547
-0.0807963421389 -0.209258107943
-0.0799238098598 -0.253869296754
-0.127445188004 -0.195413256525
-0.15858910052 -0.154938431135
-0.194911279804 -0.128967734826
-0.233572967661 -0.0935864476427
-0.0523442728001 -0.312940667582
-0.0186862784612 -0.357595807554
0.014469927656 -0.403441032119
0.067754612088 -0.401547718701
0.0951114244714 -0.450773859351
-0.272234655518 -0.0582051584108
-0.420630326979 0.0369751493791
-0.477870515527 0.0397294699584
-0.381968639122 0.00159386014714
0.131215968571 -0.5
0.139781787842 -0.550712624612
0.148347607114 -0.601425249224
0.181321089418 -0.64127088314
-0.590583521585 0.039846675787
-0.551499004337 0.0249225591541
-0.641059622114 0.0261727464629
-0.853811830984 0.0765787558412
-0.820971802362 0.0462766194216
-0.688000681426 0.0137189530895
0.21846589364 -0.842310217155
0.199478088412 -0.920190316457
0.208971990001 -0.88125026988
0.165479247706 -0.702850500497
0.174045066977 -0.75356312306
0.182610888297 -0.804275747672
-0.730460441327 0.00593533376785
-0.786375686048 0.0185055810199
0.207911690818 -0.978147600734
-0.89820617549 0.043646077573
-0.946112689233 0.00565120736663
-1 4.9468883942e-15
-0.333699290113 -0.0547671433117
-0.395163924708 -0.0513291241148
0.15643446504 -0.987688340595
0.126590468946 -0.694570889319
-0.892199630842 0.00572223896694
-0.145569113498 -0.246177712405
-0.100679518842 -0.303095437403
-0.18190368049 -0.198957083466
-0.207856940579 -0.165228061625
-0.246768251198 -0.146509431905
-0.285429941104 -0.111128142673
-0.0794461188646 -0.352321578052
-0.038700714464 -0.405063873068
-0.00588663323399 -0.451720517084
0.0469989010571 -0.450773859351
0.078729580323 -0.5
-0.427343489348 -0.0137551224919
-0.503663741428 -0.0100826977846
0.08790724295 -0.554334955527
0.0970849076259 -0.608669911054
0.130670233286 -0.652137873836
-0.56818432479 -0.020709291958
-0.609915707549 -0.0143020789272
-0.651022588789 -0.0290909593264
-0.838286568353 0.00579327056724
-0.70239273105 -0.0362259450706
0.158500940035 -0.876722353675
0.148888164804 -0.93379547208
0.10306631625 -0.732864093066
0.124617901654 -0.771674775585
0.13379556633 -0.826009729063
-0.744016937394 -0.0446582000187
-0.794540875866 -0.0320808491968
-0.938103960304 -0.0449139141896
-0.998629534755 -0.0523359562429
-0.388912842692 -0.0976739753016
-0.343769033666 -0.130862552143
-0.434056651717 -0.0644853964117
0.104528463268 -0.994521895368
0.0877016901855 -0.686291274043
-0.889582206113 -0.0448499861591
-0.964362384998 -0.0739074980597
-0.154463139413 -0.306172071962
-0.201065737289 -0.248372379456
-0.121435229873 -0.352321578052
-0.236362172976 -0.202500910407
-0.298625224641 -0.164051126935
-0.0967027367993 -0.401547718701
-0.0587151484179 -0.452531936534
0.026243192075 -0.5
-0.026243194124 -0.5
0.0416078160904 -0.546572819023
-0.489876484861 -0.0552903774709
-0.529456967329 -0.0598948634787
0.0569724401058 -0.593145638046
0.0723370661701 -0.639718457069
-0.584869645242 -0.0663411430701
-0.630194155807 -0.0719008717424
-0.674325020774 -0.078387223909
-0.847838697906 -0.0700828250219
-0.714228673665 -0.090192381656
0.108798315198 -0.894391921157
0.0817406149411 -0.952840495159
0.0681982276665 -0.748388366074
0.04856013744 -0.698710692859
0.0765892339652 -0.798066039288
0.0849802423129 -0.847743710454
-0.802706065683 -0.0826672794136
-0.75757343346 -0.0952517338053
-0.930095231375 -0.0954790357458
-0.994521895368 -0.104528463268
-0.40893959674 -0.146673299602
-0.440769816135 -0.115215668283
-0.337867300993 -0.171091028928
-0.377109377344 -0.178130930921
0.0523359562429 -0.998629534755
-0.877106798791 -0.112267783109
-0.95830420168 -0.125286311307
2.57383744155e-15 -1
0.039963576328 -0.780989340209
-0.181816968584 -0.347706628263
-0.201952175518 -0.304462832589
-0.256562361081 -0.250567044458
-0.249441209575 -0.302753591168
-0.149400353291 -0.403086035981
-0.290820665463 -0.206044735299
-0.113959354734 -0.4507738614
-0.0787295823719 -0.5
-0.017327750956 -0.552782527406
-0.0704696858027 -0.548901460179
-0.00841230573916 -0.605565056862
-0.507753615089 -0.104181646373
-0.55525019323 -0.109707029173
0.0214239926277 -0.649033019644
-0.601290891973 -0.114710784158
-0.640802186859 -0.121079203134
-0.680313479696 -0.12744762006
-0.824118366208 -0.129056524326
-0.726429520945 -0.135726561244
0.0442504362615 -0.934053614209
0.0361649203451 -0.869477691845
0.00941858469454 -0.711130109626
0.00333791869072 -0.763912637032
0.0197514184935 -0.816695164439
-0.771129929527 -0.145845267592
-0.922086502446 -0.146044155253
-0.987688340595 -0.15643446504
-0.399737650435 -0.213132389181
-0.447482978504 -0.165945942203
-0.477618296796 -0.135063794288
-0.345279157949 -0.20958856224
-0.00632520234801 -0.945605838155
-0.876286478877 -0.162842370628
-0.950117053697 -0.176977923398
-0.0523359562429 -0.998629534755
-0.199940894078 -0.398471086191
-0.231084808643 -0.357996260801
-0.312058982823 -0.25276170946
-0.29693024568 -0.301044349746
-0.280352648702 -0.368285891291
-0.16655135608 -0.45154301799
-0.13121597062 -0.5
-0.122497189997 -0.551618207853
-0.0459025827664 -0.605565054813
-0.113778409375 -0.603236415706
-0.0294890829637 -0.658347582219
-0.525630743267 -0.153072915276
-0.572387628138 -0.157520698623
-0.608357155238 -0.186856692179
-0.648461748798 -0.168842328031
-0.700028379448 -0.185195794781
-0.83048645326 -0.179640586003
-0.740851128139 -0.185195794781
-0.0126504016227 -0.891211675286
-0.0274710995401 -0.842310217155
-0.037430097477 -0.744507298846
-0.0456899940462 -0.695605838667
-0.0422917974575 -0.793408756976
-0.784686425593 -0.19643879933
-0.914077775566 -0.196609276809
-0.978147600734 -0.207911690818
-0.423052228357 -0.257151039464
-0.454196140872 -0.216676214073
-0.373784388298 -0.246861408974
-0.496011291254 -0.19643879933
-0.0569008409576 -0.955787597649
-0.0614657235904 -0.912945656677
-0.856160350662 -0.221820804963
-0.94000180386 -0.227714161694
-0.104528463268 -0.994521895368
-0.215757345702 -0.45154301799
-0.249208734137 -0.408760716681
-0.344419279736 -0.299335108324
-0.313275369269 -0.339809935763
-0.329620488761 -0.378575521781
-0.298476574196 -0.419050347171
-0.183702358868 -0.5
-0.168422780995 -0.551618207853
-0.153143201073 -0.603236415706
-0.105059628752 -0.654854623559
-0.568252559629 -0.204871056327
-0.624863882479 -0.226794920421
-0.664141693864 -0.216676214073
-0.710572322654 -0.224546319921
-0.79824292166 -0.247032333116
-0.758816002923 -0.239804685432
-0.0701845062619 -0.861327452922
-0.0789032868844 -0.809709245069
-0.087622067507 -0.758091037216
-0.0963408481296 -0.706472831412
-0.906069046637 -0.247174396317
-0.965925826289 -0.258819045103
-0.443115264497 -0.293604330526
-0.391908313792 -0.297625866903
-0.486319200682 -0.243140523455
-0.535810984518 -0.247032333116
-0.110281047607 -0.934679638068
-0.119458712283 -0.880344686639
-0.858934234231 -0.27240013161
-0.15643446504 -0.987688340595
-0.420437846259 -0.328760350336
-0.236188747116 -0.5
-0.26733266168 -0.45952517461
-0.377533489352 -0.369902343741
-0.347914037339 -0.413268229843
-0.318294587376 -0.456634115946
-0.208250718478 -0.550090038823
-0.22060377311 -0.59712373344
-0.156169368938 -0.66300486658
-0.188386572048 -0.630064302059
-0.59507561875 -0.272329100009
-0.642483325435 -0.275139853708
-0.680293519218 -0.263896845061
-0.732945580252 -0.283170571535
-0.811799419775 -0.297625866903
-0.774549078266 -0.289193611955
-0.128636376959 -0.826009731112
-0.137814039586 -0.771674775585
-0.146991704262 -0.717339820058
-0.951056516295 -0.309016994375
-0.898060317708 -0.297739517873
-0.485677840734 -0.285950435871
-0.463178300637 -0.33005761954
-0.533986467341 -0.289193611955
-0.170246001212 -0.929246144769
-0.162494570261 -0.858610705248
-0.861708119848 -0.322979460306
-0.207911690818 -0.978147600734
-0.438486255089 -0.373516167582
-0.196352763564 -0.891211677334
-0.288675135364 -0.5
-0.248078655962 -0.548561867744
-0.39896805128 -0.414380175168
-0.370064787446 -0.457190087584
-0.341161523611 -0.5
-0.275117711141 -0.602460200621
-0.239054481256 -0.645685599135
-0.202248445807 -0.705793642444
-0.613710798429 -0.320111882147
-0.565287355022 -0.317863281647
-0.684580991775 -0.326536457638
-0.750855232823 -0.331354888744
-0.785991126193 -0.348219400689
-0.825355915842 -0.348219400689
-0.188266985387 -0.814463555547
-0.190422122823 -0.762052962614
-0.933580426497 -0.358367949545
-0.890051590828 -0.348304639429
-0.505918755015 -0.331354888744
-0.489203102504 -0.375815874036
-0.230210954817 -0.923812649421
-0.222125178689 -0.847064529683
-0.258819045103 -0.965925826289
-0.457351371606 -0.417210582008
-0.235583648771 -0.886542271624
-0.30064156279 -0.551230101335
-0.425499642757 -0.458605292028
-0.393647911859 -0.5
-0.360085327048 -0.54980704342
-0.312607988168 -0.602460200621
-0.294582193154 -0.653690301956
-0.257505187353 -0.69424746483
-0.243030206061 -0.752431147594
-0.633615648498 -0.367191976371
-0.584938271423 -0.365083912634
-0.539566041752 -0.378575521781
-0.727161387379 -0.373516167582
-0.681204734911 -0.369902343741
-0.796158500292 -0.386164552054
-0.838912411909 -0.398812934476
-0.247897591766 -0.802917375884
-0.913545457643 -0.406736643076
-0.508422127188 -0.419050347171
-0.274814531929 -0.881872857718
-0.290175906373 -0.918379152025
-0.281755785068 -0.83551835002
-0.309016994375 -0.951056516295
-0.477278214672 -0.45952517461
-0.446134300107 -0.5
-0.414085617768 -0.553791607221
-0.379009128436 -0.599614084791
-0.342202461923 -0.640882776623
-0.314046675166 -0.704920401242
-0.295638289299 -0.742809332575
-0.307528198145 -0.79137119827
-0.655334312241 -0.413268229843
-0.606112791883 -0.411461316898
-0.559178299326 -0.42129894972
-0.766961080643 -0.424109701369
-0.718367680179 -0.419050347171
-0.799982521776 -0.449406468262
-0.852468907975 -0.449406468262
-0.891006524188 -0.45399049974
-0.52739321741 -0.455027971561
-0.319418106991 -0.839933063965
-0.331308013789 -0.888494927612
-0.358367949545 -0.933580426497
-0.498620688355 -0.5
-0.456074728776 -0.553791605172
-0.434523323676 -0.607583210345
-0.397932929823 -0.649421128211
-0.36004490206 -0.687843702163
-0.333511157179 -0.756150502578
-0.352975639191 -0.807380601864
-0.62946388957 -0.456634115946
-0.687223767664 -0.45952517461
-0.578609935267 -0.455730659473
-0.737763660995 -0.462054850685
-0.761052629595 -0.5
-0.813539015794 -0.5
-0.866025403784 -0.5
-0.551107076603 -0.5
-0.372440119155 -0.85861070115
-0.406736643076 -0.913545457643
-0.506290261267 -0.547814761519
-0.482468000411 -0.59562952099
-0.454961031633 -0.661374817566
-0.38943532695 -0.71915098654
-0.434352194643 -0.699228169582
-0.401503777785 -0.773938732663
-0.413572226571 -0.828726476737
-0.603593464851 -0.5
-0.656079853099 -0.5
-0.708566241347 -0.5
-0.78376119126 -0.559768450875
-0.733042120778 -0.529884226462
-0.838670567945 -0.544639035015
-0.568138498876 -0.544826338668
-0.410154436259 -0.871135968688
-0.45399049974 -0.891006524188
-0.535447065379 -0.576204775531
-0.521629405042 -0.643444282509
-0.492130004794 -0.676316929773
-0.475398737542 -0.715166422739
-0.444528264314 -0.749035213002
-0.454704333986 -0.798842252324
-0.477352168017 -0.832433829207
-0.622517268287 -0.54980704342
-0.663774441149 -0.554787748172
-0.705031609912 -0.559768452924
-0.742629083844 -0.589652675287
-0.809016994375 -0.587785252292
-0.593560570938 -0.57720091853
-0.5 -0.866025403784
-0.564603867442 -0.604594789543
-0.529298977954 -0.691259041979
-0.558230664263 -0.656892184314
-0.536968548817 -0.73907380145
-0.495836441401 -0.768958025862
-0.544639035015 -0.838670567945
-0.540803792179 -0.788872186177
-0.658936531058 -0.599614084791
-0.701496976429 -0.619536901749
-0.777145961457 -0.62932039105
-0.614019665414 -0.619536901749
-0.578100656232 -0.709189577037
-0.619232761598 -0.679305350575
-0.583144471499 -0.758109883087
-0.587785252292 -0.809016994375
-0.660364869014 -0.649421126162
-0.701754848102 -0.65927586738
-0.743144825477 -0.669130606359
-0.62361563139 -0.726167203138
-0.663169773075 -0.693206067563
-0.62932039105 -0.777145961457
-0.707106781187 -0.707106781187
-0.669130606359 -0.743144825477
