MFEM mesh v1.0

#
# MFEM Geometry Types (see fem/geom.hpp):
#
# POINT       = 0
# SEGMENT     = 1
# TRIANGLE    = 2
# SQUARE      = 3
# TETRAHEDRON = 4
# CUBE        = 5
# PRISM       = 6
# PYRAMID     = 7
#

dimension
2

elements
150
2 3 0 1 32 31
2 3 1 2 33 32
2 3 32 33 64 63
2 3 31 32 63 62
1 3 62 63 94 93
1 3 63 64 95 94
1 3 94 95 126 125
1 3 93 94 125 124
1 3 124 125 156 155
1 3 125 126 157 156
1 3 126 127 158 157
1 3 127 128 159 158
1 3 96 97 128 127
1 3 95 96 127 126
1 3 64 65 96 95
1 3 65 66 97 96
2 3 34 35 66 65
2 3 33 34 65 64
2 3 2 3 34 33
2 3 3 4 35 34
2 3 4 5 36 35
2 3 5 6 37 36
2 3 36 37 68 67
2 3 35 36 67 66
1 3 66 67 98 97
1 3 67 68 99 98
1 3 98 99 130 129
1 3 97 98 129 128
1 3 128 129 160 159
1 3 129 130 161 160
1 3 130 131 162 161
1 3 131 132 163 162
1 3 100 101 132 131
1 3 99 100 131 130
1 3 68 69 100 99
1 3 69 70 101 100
2 3 38 39 70 69
2 3 37 38 69 68
2 3 6 7 38 37
2 3 7 8 39 38
2 3 8 9 40 39
2 3 9 10 41 40
2 3 40 41 72 71
2 3 39 40 71 70
1 3 70 71 102 101
1 3 71 72 103 102
1 3 102 103 134 133
1 3 101 102 133 132
1 3 132 133 164 163
1 3 133 134 165 164
1 3 134 135 166 165
1 3 135 136 167 166
1 3 104 105 136 135
1 3 103 104 135 134
1 3 72 73 104 103
1 3 73 74 105 104
2 3 42 43 74 73
2 3 41 42 73 72
2 3 10 11 42 41
2 3 11 12 43 42
2 3 12 13 44 43
2 3 13 14 45 44
2 3 44 45 76 75
2 3 43 44 75 74
1 3 74 75 106 105
1 3 75 76 107 106
1 3 106 107 138 137
1 3 105 106 137 136
1 3 136 137 168 167
1 3 137 138 169 168
1 3 138 139 170 169
1 3 139 140 171 170
1 3 108 109 140 139
1 3 107 108 139 138
1 3 76 77 108 107
1 3 77 78 109 108
2 3 46 47 78 77
2 3 45 46 77 76
2 3 14 15 46 45
2 3 15 16 47 46
2 3 16 17 48 47
2 3 17 18 49 48
2 3 48 49 80 79
2 3 47 48 79 78
1 3 78 79 110 109
1 3 79 80 111 110
1 3 110 111 142 141
1 3 109 110 141 140
1 3 140 141 172 171
1 3 141 142 173 172
1 3 142 143 174 173
1 3 143 144 175 174
1 3 112 113 144 143
1 3 111 112 143 142
1 3 80 81 112 111
1 3 81 82 113 112
2 3 50 51 82 81
2 3 49 50 81 80
2 3 18 19 50 49
2 3 19 20 51 50
2 3 20 21 52 51
2 3 21 22 53 52
2 3 52 53 84 83
2 3 51 52 83 82
1 3 82 83 114 113
1 3 83 84 115 114
1 3 114 115 146 145
1 3 113 114 145 144
1 3 144 145 176 175
1 3 145 146 177 176
1 3 146 147 178 177
1 3 147 148 179 178
1 3 116 117 148 147
1 3 115 116 147 146
1 3 84 85 116 115
1 3 85 86 117 116
2 3 54 55 86 85
2 3 53 54 85 84
2 3 22 23 54 53
2 3 23 24 55 54
2 3 24 25 56 55
2 3 25 26 57 56
2 3 26 27 58 57
2 3 57 58 89 88
2 3 56 57 88 87
2 3 55 56 87 86
1 3 86 87 118 117
1 3 87 88 119 118
1 3 118 119 150 149
1 3 117 118 149 148
1 3 148 149 180 179
1 3 149 150 181 180
1 3 150 151 182 181
1 3 151 152 183 182
1 3 120 121 152 151
1 3 119 120 151 150
1 3 88 89 120 119
1 3 89 90 121 120
1 3 90 91 122 121
1 3 121 122 153 152
1 3 152 153 184 183
1 3 153 154 185 184
1 3 122 123 154 153
1 3 91 92 123 122
2 3 60 61 92 91
2 3 59 60 91 90
2 3 58 59 90 89
2 3 27 28 59 58
2 3 28 29 60 59
2 3 29 30 61 60

boundary
70
1 1 0 1
1 1 1 2
1 1 2 3
1 1 3 4
1 1 4 5
1 1 5 6
1 1 6 7
1 1 7 8
1 1 8 9
1 1 9 10
1 1 10 11
1 1 11 12
1 1 12 13
1 1 13 14
1 1 14 15
1 1 15 16
1 1 16 17
1 1 17 18
1 1 18 19
1 1 19 20
1 1 20 21
1 1 21 22
1 1 22 23
1 1 23 24
1 1 24 25
1 1 25 26
1 1 26 27
1 1 27 28
1 1 28 29
1 1 29 30
3 1 156 155
3 1 157 156
3 1 158 157
3 1 159 158
3 1 160 159
3 1 161 160
3 1 162 161
3 1 163 162
3 1 164 163
3 1 165 164
3 1 166 165
3 1 167 166
3 1 168 167
3 1 169 168
3 1 170 169
3 1 171 170
3 1 172 171
3 1 173 172
3 1 174 173
3 1 175 174
3 1 176 175
3 1 177 176
3 1 178 177
3 1 179 178
3 1 180 179
3 1 181 180
3 1 182 181
3 1 183 182
3 1 184 183
3 1 185 184
4 1 31 0
4 1 62 31
4 1 93 62
4 1 124 93
4 1 155 124
2 1 30 61
2 1 61 92
2 1 92 123
2 1 123 154
2 1 154 185

vertices
186
2
0 0
0.2 0
0.4 0
0.6000000000000001 0
0.8 0
1 0
1.2 0
1.4 0
1.6 0
1.8 0
2 0
2.2 0
2.4 0
2.6 0
2.8 0
3 0
3.2 0
3.4 0
3.6 0
3.8 0
4 0
4.199999999999999 0
4.399999999999999 0
4.600000000000001 0
4.800000000000001 0
5 0
5.2 0
5.4 0
5.6 0
5.8 0
6 0
0 0.2
0.2 0.2
0.4 0.2
0.6000000000000001 0.2
0.8 0.2
1 0.2
1.2 0.2
1.4 0.2
1.6 0.2
1.8 0.2
2 0.2
2.2 0.2
2.4 0.2
2.6 0.2
2.8 0.2
3 0.2
3.2 0.2
3.4 0.2
3.6 0.2
3.8 0.2
4 0.2
4.199999999999999 0.2
4.399999999999999 0.2
4.600000000000001 0.2
4.800000000000001 0.2
5 0.2
5.2 0.2
5.4 0.2
5.6 0.2
5.8 0.2
6 0.2
0 0.4
0.2 0.4
0.4 0.4
0.6000000000000001 0.4
0.8 0.4
1 0.4
1.2 0.4
1.4 0.4
1.6 0.4
1.8 0.4
2 0.4
2.2 0.4
2.4 0.4
2.6 0.4
2.8 0.4
3 0.4
3.2 0.4
3.4 0.4
3.6 0.4
3.8 0.4
4 0.4
4.199999999999999 0.4
4.399999999999999 0.4
4.600000000000001 0.4
4.800000000000001 0.4
5 0.4
5.2 0.4
5.4 0.4
5.6 0.4
5.8 0.4
6 0.4
0 0.6
0.2 0.6
0.4 0.6
0.6000000000000001 0.6
0.8 0.6
1 0.6
1.2 0.6
1.4 0.6
1.6 0.6
1.8 0.6
2 0.6
2.2 0.6
2.4 0.6
2.6 0.6
2.8 0.6
3 0.6
3.2 0.6
3.4 0.6
3.6 0.6
3.8 0.6
4 0.6
4.199999999999999 0.6
4.399999999999999 0.6
4.600000000000001 0.6
4.800000000000001 0.6
5 0.6
5.2 0.6
5.4 0.6
5.6 0.6
5.8 0.6
6 0.6
0 0.8
0.2 0.8
0.4 0.8
0.6000000000000001 0.8
0.8 0.8
1 0.8
1.2 0.8
1.4 0.8
1.6 0.8
1.8 0.8
2 0.8
2.2 0.8
2.4 0.8
2.6 0.8
2.8 0.8
3 0.8
3.2 0.8
3.4 0.8
3.6 0.8
3.8 0.8
4 0.8
4.199999999999999 0.8
4.399999999999999 0.8
4.600000000000001 0.8
4.800000000000001 0.8
5 0.8
5.2 0.8
5.4 0.8
5.6 0.8
5.8 0.8
6 0.8
0 1
0.2 1
0.4 1
0.6000000000000001 1
0.8 1
1 1
1.2 1
1.4 1
1.6 1
1.8 1
2 1
2.2 1
2.4 1
2.6 1
2.8 1
3 1
3.2 1
3.4 1
3.6 1
3.8 1
4 1
4.199999999999999 1
4.399999999999999 1
4.600000000000001 1
4.800000000000001 1
5 1
5.2 1
5.4 1
5.6 1
5.8 1
6 1
